<svg xmlns="http://www.w3.org/2000/svg" width="573" height="266" viewBox="0 0 573 266">
<rect width="100%" height="100%" fill="white"/>
<path d="M 28.434 34.000 L 25.547 39.000 L 22.660 44.000 L 25.547 49.000 L 16.887 54.000 L 16.887 64.000 L 22.660 64.000 L 25.547 69.000 L 28.434 74.000 L 34.207 74.000 L 34.207 84.000 L 25.547 89.000 L 28.434 94.000 L 34.207 94.000 L 34.207 104.000 L 42.868 109.000 L 45.754 104.000 L 51.528 104.000 L 57.301 104.000 L 60.188 109.000 L 68.848 104.000 L 77.509 109.000 L 80.395 104.000 L 77.509 99.000 L 86.169 94.000 L 94.829 99.000 L 97.716 94.000 L 94.829 89.000 L 91.942 84.000 L 86.169 84.000 L 86.169 74.000 L 94.829 69.000 L 91.942 64.000 L 94.829 59.000 L 86.169 54.000 L 86.169 44.000 L 80.395 44.000 L 77.509 39.000 L 86.169 34.000 L 86.169 24.000 L 80.395 24.000 L 77.509 29.000 L 68.848 24.000 L 60.188 29.000 L 51.528 34.000 L 42.868 29.000 L 39.981 34.000 L 34.207 34.000 Z " fill="#dddddd" stroke="black" stroke-width="1.50" fill-rule="evenodd"/>
<path d="M 68.848 44.000 L 60.188 39.000 L 57.301 44.000 L 51.528 44.000 L 51.528 54.000 L 42.868 59.000 L 45.754 64.000 L 51.528 64.000 L 57.301 64.000 L 60.188 59.000 L 68.848 64.000 L 77.509 59.000 L 74.622 54.000 L 68.848 54.000 Z " fill="#d9e9f7" stroke="#666666" stroke-width="0.80" fill-rule="evenodd"/>
<path d="M 68.848 64.000 L 60.188 59.000 L 57.301 64.000 L 51.528 64.000 L 51.528 74.000 L 42.868 79.000 L 45.754 84.000 L 51.528 84.000 L 57.301 84.000 L 60.188 79.000 L 68.848 84.000 L 77.509 79.000 L 74.622 74.000 L 68.848 74.000 Z " fill="#d9e9f7" stroke="#666666" stroke-width="0.80" fill-rule="evenodd"/>
<path d="M 51.528 74.000 L 51.528 64.000 L 45.754 64.000 L 42.868 59.000 L 34.207 64.000 L 25.547 59.000 L 22.660 64.000 L 25.547 69.000 L 28.434 74.000 L 34.207 74.000 L 34.207 84.000 L 42.868 89.000 L 45.754 84.000 L 42.868 79.000 Z " fill="#d9e9f7" stroke="#666666" stroke-width="0.80" fill-rule="evenodd"/>
<path d="M 34.207 104.000 L 42.868 109.000 L 45.754 104.000 L 51.528 104.000 L 51.528 94.000 L 60.188 89.000 L 57.301 84.000 L 51.528 84.000 L 45.754 84.000 L 42.868 89.000 L 34.207 84.000 L 25.547 89.000 L 28.434 94.000 L 34.207 94.000 Z " fill="#d9e9f7" stroke="#666666" stroke-width="0.80" fill-rule="evenodd"/>
<path d="M 51.528 94.000 L 51.528 104.000 L 57.301 104.000 L 60.188 109.000 L 68.848 104.000 L 77.509 109.000 L 80.395 104.000 L 77.509 99.000 L 74.622 94.000 L 68.848 94.000 L 68.848 84.000 L 60.188 79.000 L 57.301 84.000 L 60.188 89.000 Z " fill="#d9e9f7" stroke="#666666" stroke-width="0.80" fill-rule="evenodd"/>
<path d="M 68.848 84.000 L 68.848 94.000 L 74.622 94.000 L 77.509 99.000 L 86.169 94.000 L 94.829 99.000 L 97.716 94.000 L 94.829 89.000 L 91.942 84.000 L 86.169 84.000 L 86.169 74.000 L 77.509 69.000 L 74.622 74.000 L 77.509 79.000 Z " fill="#d9e9f7" stroke="#666666" stroke-width="0.80" fill-rule="evenodd"/>
<path d="M 86.169 74.000 L 94.829 69.000 L 91.942 64.000 L 94.829 59.000 L 86.169 54.000 L 86.169 44.000 L 80.395 44.000 L 77.509 49.000 L 74.622 54.000 L 77.509 59.000 L 68.848 64.000 L 68.848 74.000 L 74.622 74.000 L 77.509 69.000 Z " fill="#d9e9f7" stroke="#666666" stroke-width="0.80" fill-rule="evenodd"/>
<path d="M 68.848 24.000 L 60.188 29.000 L 63.075 34.000 L 60.188 39.000 L 68.848 44.000 L 68.848 54.000 L 74.622 54.000 L 77.509 49.000 L 80.395 44.000 L 77.509 39.000 L 86.169 34.000 L 86.169 24.000 L 80.395 24.000 L 77.509 29.000 Z " fill="#d9e9f7" stroke="#666666" stroke-width="0.80" fill-rule="evenodd"/>
<path d="M 34.207 64.000 L 42.868 59.000 L 39.981 54.000 L 42.868 49.000 L 34.207 44.000 L 34.207 34.000 L 28.434 34.000 L 25.547 39.000 L 22.660 44.000 L 25.547 49.000 L 16.887 54.000 L 16.887 64.000 L 22.660 64.000 L 25.547 59.000 Z " fill="#d9e9f7" stroke="#666666" stroke-width="0.80" fill-rule="evenodd"/>
<path d="M 42.868 49.000 L 39.981 54.000 L 42.868 59.000 L 51.528 54.000 L 51.528 44.000 L 57.301 44.000 L 60.188 39.000 L 63.075 34.000 L 60.188 29.000 L 51.528 34.000 L 42.868 29.000 L 39.981 34.000 L 34.207 34.000 L 34.207 44.000 Z " fill="#bcd0e2" stroke="#666666" stroke-width="0.80" fill-rule="evenodd"/>
<circle cx="39.981" cy="54.000" r="2.1" fill="#000000" stroke="none"/>
<circle cx="45.754" cy="64.000" r="2.1" fill="#000000" stroke="none"/>
<circle cx="57.301" cy="44.000" r="2.1" fill="#000000" stroke="none"/>
<circle cx="63.075" cy="34.000" r="2.1" fill="#000000" stroke="none"/>
<circle cx="45.754" cy="84.000" r="2.1" fill="#000000" stroke="none"/>
<circle cx="57.301" cy="64.000" r="2.1" fill="#000000" stroke="none"/>
<circle cx="57.301" cy="84.000" r="2.1" fill="#000000" stroke="none"/>
<circle cx="74.622" cy="54.000" r="2.1" fill="#000000" stroke="none"/>
<circle cx="74.622" cy="74.000" r="2.1" fill="#000000" stroke="none"/>
<circle cx="74.622" cy="94.000" r="2.1" fill="#000000" stroke="none"/>
<circle cx="25.547" cy="59.000" r="2.1" fill="#000000" stroke="none"/>
<circle cx="42.868" cy="49.000" r="2.1" fill="#000000" stroke="none"/>
<circle cx="51.528" cy="44.000" r="2.1" fill="#000000" stroke="none"/>
<circle cx="60.188" cy="39.000" r="2.1" fill="#000000" stroke="none"/>
<circle cx="42.868" cy="59.000" r="2.1" fill="#000000" stroke="none"/>
<circle cx="51.528" cy="64.000" r="2.1" fill="#000000" stroke="none"/>
<circle cx="60.188" cy="59.000" r="2.1" fill="#000000" stroke="none"/>
<circle cx="68.848" cy="54.000" r="2.1" fill="#000000" stroke="none"/>
<circle cx="77.509" cy="49.000" r="2.1" fill="#000000" stroke="none"/>
<circle cx="42.868" cy="79.000" r="2.1" fill="#000000" stroke="none"/>
<circle cx="77.509" cy="59.000" r="2.1" fill="#000000" stroke="none"/>
<circle cx="42.868" cy="89.000" r="2.1" fill="#000000" stroke="none"/>
<circle cx="51.528" cy="84.000" r="2.1" fill="#000000" stroke="none"/>
<circle cx="60.188" cy="79.000" r="2.1" fill="#000000" stroke="none"/>
<circle cx="68.848" cy="74.000" r="2.1" fill="#000000" stroke="none"/>
<circle cx="77.509" cy="69.000" r="2.1" fill="#000000" stroke="none"/>
<circle cx="60.188" cy="89.000" r="2.1" fill="#000000" stroke="none"/>
<circle cx="77.509" cy="79.000" r="2.1" fill="#000000" stroke="none"/>
<circle cx="68.848" cy="94.000" r="2.1" fill="#000000" stroke="none"/>
<circle cx="34.207" cy="44.000" r="2.1" fill="#000000" stroke="none"/>
<circle cx="34.207" cy="64.000" r="2.1" fill="#000000" stroke="none"/>
<circle cx="51.528" cy="54.000" r="2.1" fill="#000000" stroke="none"/>
<circle cx="68.848" cy="44.000" r="2.1" fill="#000000" stroke="none"/>
<circle cx="51.528" cy="74.000" r="2.1" fill="#000000" stroke="none"/>
<circle cx="68.848" cy="64.000" r="2.1" fill="#000000" stroke="none"/>
<circle cx="51.528" cy="94.000" r="2.1" fill="#000000" stroke="none"/>
<circle cx="68.848" cy="84.000" r="2.1" fill="#000000" stroke="none"/>
<path d="M 140.150 34.000 L 137.263 39.000 L 134.376 44.000 L 137.263 49.000 L 128.603 54.000 L 128.603 64.000 L 134.376 64.000 L 137.263 69.000 L 140.150 74.000 L 145.923 74.000 L 145.923 84.000 L 137.263 89.000 L 140.150 94.000 L 145.923 94.000 L 145.923 104.000 L 154.583 109.000 L 157.470 104.000 L 163.244 104.000 L 163.244 94.000 L 171.904 89.000 L 174.791 94.000 L 180.564 94.000 L 180.564 104.000 L 189.224 109.000 L 192.111 104.000 L 189.224 99.000 L 197.885 94.000 L 206.545 99.000 L 209.432 94.000 L 206.545 89.000 L 215.205 84.000 L 215.205 74.000 L 209.432 74.000 L 206.545 69.000 L 203.658 64.000 L 206.545 59.000 L 197.885 54.000 L 197.885 44.000 L 192.111 44.000 L 189.224 39.000 L 197.885 34.000 L 197.885 24.000 L 192.111 24.000 L 189.224 29.000 L 180.564 24.000 L 171.904 29.000 L 163.244 34.000 L 154.583 29.000 L 151.697 34.000 L 145.923 34.000 Z " fill="#dddddd" stroke="black" stroke-width="1.50" fill-rule="evenodd"/>
<path d="M 180.564 44.000 L 171.904 39.000 L 169.017 44.000 L 163.244 44.000 L 163.244 54.000 L 154.583 59.000 L 157.470 64.000 L 163.244 64.000 L 169.017 64.000 L 171.904 59.000 L 180.564 64.000 L 189.224 59.000 L 186.338 54.000 L 180.564 54.000 Z " fill="#d9e9f7" stroke="#666666" stroke-width="0.80" fill-rule="evenodd"/>
<path d="M 180.564 64.000 L 171.904 59.000 L 169.017 64.000 L 163.244 64.000 L 163.244 74.000 L 154.583 79.000 L 157.470 84.000 L 163.244 84.000 L 169.017 84.000 L 171.904 79.000 L 180.564 84.000 L 189.224 79.000 L 186.338 74.000 L 180.564 74.000 Z " fill="#d9e9f7" stroke="#666666" stroke-width="0.80" fill-rule="evenodd"/>
<path d="M 163.244 74.000 L 163.244 64.000 L 157.470 64.000 L 154.583 59.000 L 145.923 64.000 L 137.263 59.000 L 134.376 64.000 L 137.263 69.000 L 140.150 74.000 L 145.923 74.000 L 145.923 84.000 L 154.583 89.000 L 157.470 84.000 L 154.583 79.000 Z " fill="#d9e9f7" stroke="#666666" stroke-width="0.80" fill-rule="evenodd"/>
<path d="M 145.923 104.000 L 154.583 109.000 L 157.470 104.000 L 163.244 104.000 L 163.244 94.000 L 171.904 89.000 L 169.017 84.000 L 163.244 84.000 L 157.470 84.000 L 154.583 89.000 L 145.923 84.000 L 137.263 89.000 L 140.150 94.000 L 145.923 94.000 Z " fill="#d9e9f7" stroke="#666666" stroke-width="0.80" fill-rule="evenodd"/>
<path d="M 197.885 94.000 L 197.885 84.000 L 192.111 84.000 L 189.224 79.000 L 180.564 84.000 L 171.904 79.000 L 169.017 84.000 L 171.904 89.000 L 174.791 94.000 L 180.564 94.000 L 180.564 104.000 L 189.224 109.000 L 192.111 104.000 L 189.224 99.000 Z " fill="#d9e9f7" stroke="#666666" stroke-width="0.80" fill-rule="evenodd"/>
<path d="M 215.205 84.000 L 215.205 74.000 L 209.432 74.000 L 206.545 69.000 L 197.885 74.000 L 189.224 69.000 L 186.338 74.000 L 189.224 79.000 L 192.111 84.000 L 197.885 84.000 L 197.885 94.000 L 206.545 99.000 L 209.432 94.000 L 206.545 89.000 Z " fill="#d9e9f7" stroke="#666666" stroke-width="0.80" fill-rule="evenodd"/>
<path d="M 197.885 74.000 L 206.545 69.000 L 203.658 64.000 L 206.545 59.000 L 197.885 54.000 L 197.885 44.000 L 192.111 44.000 L 189.224 49.000 L 186.338 54.000 L 189.224 59.000 L 180.564 64.000 L 180.564 74.000 L 186.338 74.000 L 189.224 69.000 Z " fill="#d9e9f7" stroke="#666666" stroke-width="0.80" fill-rule="evenodd"/>
<path d="M 180.564 24.000 L 171.904 29.000 L 174.791 34.000 L 171.904 39.000 L 180.564 44.000 L 180.564 54.000 L 186.338 54.000 L 189.224 49.000 L 192.111 44.000 L 189.224 39.000 L 197.885 34.000 L 197.885 24.000 L 192.111 24.000 L 189.224 29.000 Z " fill="#d9e9f7" stroke="#666666" stroke-width="0.80" fill-rule="evenodd"/>
<path d="M 145.923 64.000 L 154.583 59.000 L 151.697 54.000 L 154.583 49.000 L 145.923 44.000 L 145.923 34.000 L 140.150 34.000 L 137.263 39.000 L 134.376 44.000 L 137.263 49.000 L 128.603 54.000 L 128.603 64.000 L 134.376 64.000 L 137.263 59.000 Z " fill="#d9e9f7" stroke="#666666" stroke-width="0.80" fill-rule="evenodd"/>
<path d="M 154.583 49.000 L 151.697 54.000 L 154.583 59.000 L 163.244 54.000 L 163.244 44.000 L 169.017 44.000 L 171.904 39.000 L 174.791 34.000 L 171.904 29.000 L 163.244 34.000 L 154.583 29.000 L 151.697 34.000 L 145.923 34.000 L 145.923 44.000 Z " fill="#bcd0e2" stroke="#666666" stroke-width="0.80" fill-rule="evenodd"/>
<circle cx="151.697" cy="54.000" r="2.1" fill="#000000" stroke="none"/>
<circle cx="157.470" cy="64.000" r="2.1" fill="#000000" stroke="none"/>
<circle cx="169.017" cy="44.000" r="2.1" fill="#000000" stroke="none"/>
<circle cx="174.791" cy="34.000" r="2.1" fill="#000000" stroke="none"/>
<circle cx="157.470" cy="84.000" r="2.1" fill="#000000" stroke="none"/>
<circle cx="169.017" cy="64.000" r="2.1" fill="#000000" stroke="none"/>
<circle cx="169.017" cy="84.000" r="2.1" fill="#000000" stroke="none"/>
<circle cx="186.338" cy="54.000" r="2.1" fill="#000000" stroke="none"/>
<circle cx="186.338" cy="74.000" r="2.1" fill="#000000" stroke="none"/>
<circle cx="192.111" cy="84.000" r="2.1" fill="#000000" stroke="none"/>
<circle cx="137.263" cy="59.000" r="2.1" fill="#000000" stroke="none"/>
<circle cx="154.583" cy="49.000" r="2.1" fill="#000000" stroke="none"/>
<circle cx="163.244" cy="44.000" r="2.1" fill="#000000" stroke="none"/>
<circle cx="171.904" cy="39.000" r="2.1" fill="#000000" stroke="none"/>
<circle cx="154.583" cy="59.000" r="2.1" fill="#000000" stroke="none"/>
<circle cx="163.244" cy="64.000" r="2.1" fill="#000000" stroke="none"/>
<circle cx="171.904" cy="59.000" r="2.1" fill="#000000" stroke="none"/>
<circle cx="180.564" cy="54.000" r="2.1" fill="#000000" stroke="none"/>
<circle cx="189.224" cy="49.000" r="2.1" fill="#000000" stroke="none"/>
<circle cx="154.583" cy="79.000" r="2.1" fill="#000000" stroke="none"/>
<circle cx="189.224" cy="59.000" r="2.1" fill="#000000" stroke="none"/>
<circle cx="154.583" cy="89.000" r="2.1" fill="#000000" stroke="none"/>
<circle cx="163.244" cy="84.000" r="2.1" fill="#000000" stroke="none"/>
<circle cx="171.904" cy="79.000" r="2.1" fill="#000000" stroke="none"/>
<circle cx="180.564" cy="74.000" r="2.1" fill="#000000" stroke="none"/>
<circle cx="189.224" cy="69.000" r="2.1" fill="#000000" stroke="none"/>
<circle cx="189.224" cy="79.000" r="2.1" fill="#000000" stroke="none"/>
<circle cx="197.885" cy="84.000" r="2.1" fill="#000000" stroke="none"/>
<circle cx="145.923" cy="44.000" r="2.1" fill="#000000" stroke="none"/>
<circle cx="145.923" cy="64.000" r="2.1" fill="#000000" stroke="none"/>
<circle cx="163.244" cy="54.000" r="2.1" fill="#000000" stroke="none"/>
<circle cx="180.564" cy="44.000" r="2.1" fill="#000000" stroke="none"/>
<circle cx="163.244" cy="74.000" r="2.1" fill="#000000" stroke="none"/>
<circle cx="180.564" cy="64.000" r="2.1" fill="#000000" stroke="none"/>
<circle cx="180.564" cy="84.000" r="2.1" fill="#000000" stroke="none"/>
<circle cx="197.885" cy="74.000" r="2.1" fill="#000000" stroke="none"/>
<path d="M 257.639 31.500 L 254.752 36.500 L 251.865 41.500 L 254.752 46.500 L 246.092 51.500 L 246.092 61.500 L 251.865 61.500 L 254.752 66.500 L 257.639 71.500 L 263.412 71.500 L 263.412 81.500 L 254.752 86.500 L 257.639 91.500 L 254.752 96.500 L 263.412 101.500 L 263.412 111.500 L 269.186 111.500 L 272.073 106.500 L 274.959 101.500 L 280.733 101.500 L 286.506 101.500 L 289.393 96.500 L 298.053 101.500 L 306.714 96.500 L 315.374 91.500 L 324.034 96.500 L 326.921 91.500 L 324.034 86.500 L 321.147 81.500 L 315.374 81.500 L 315.374 71.500 L 324.034 66.500 L 321.147 61.500 L 324.034 56.500 L 315.374 51.500 L 315.374 41.500 L 309.600 41.500 L 306.714 36.500 L 315.374 31.500 L 315.374 21.500 L 309.600 21.500 L 306.714 26.500 L 298.053 21.500 L 289.393 26.500 L 280.733 31.500 L 272.073 26.500 L 269.186 31.500 L 263.412 31.500 Z " fill="#dddddd" stroke="black" stroke-width="1.50" fill-rule="evenodd"/>
<path d="M 298.053 41.500 L 289.393 36.500 L 286.506 41.500 L 280.733 41.500 L 280.733 51.500 L 272.073 56.500 L 274.959 61.500 L 280.733 61.500 L 286.506 61.500 L 289.393 56.500 L 298.053 61.500 L 306.714 56.500 L 303.827 51.500 L 298.053 51.500 Z " fill="#d9e9f7" stroke="#666666" stroke-width="0.80" fill-rule="evenodd"/>
<path d="M 298.053 61.500 L 289.393 56.500 L 286.506 61.500 L 280.733 61.500 L 280.733 71.500 L 272.073 76.500 L 274.959 81.500 L 280.733 81.500 L 286.506 81.500 L 289.393 76.500 L 298.053 81.500 L 306.714 76.500 L 303.827 71.500 L 298.053 71.500 Z " fill="#d9e9f7" stroke="#666666" stroke-width="0.80" fill-rule="evenodd"/>
<path d="M 280.733 71.500 L 280.733 61.500 L 274.959 61.500 L 272.073 56.500 L 263.412 61.500 L 254.752 56.500 L 251.865 61.500 L 254.752 66.500 L 257.639 71.500 L 263.412 71.500 L 263.412 81.500 L 272.073 86.500 L 274.959 81.500 L 272.073 76.500 Z " fill="#d9e9f7" stroke="#666666" stroke-width="0.80" fill-rule="evenodd"/>
<path d="M 263.412 81.500 L 254.752 86.500 L 257.639 91.500 L 254.752 96.500 L 263.412 101.500 L 263.412 111.500 L 269.186 111.500 L 272.073 106.500 L 274.959 101.500 L 272.073 96.500 L 280.733 91.500 L 280.733 81.500 L 274.959 81.500 L 272.073 86.500 Z " fill="#d9e9f7" stroke="#666666" stroke-width="0.80" fill-rule="evenodd"/>
<path d="M 298.053 81.500 L 289.393 76.500 L 286.506 81.500 L 280.733 81.500 L 280.733 91.500 L 272.073 96.500 L 274.959 101.500 L 280.733 101.500 L 286.506 101.500 L 289.393 96.500 L 298.053 101.500 L 306.714 96.500 L 303.827 91.500 L 298.053 91.500 Z " fill="#d9e9f7" stroke="#666666" stroke-width="0.80" fill-rule="evenodd"/>
<path d="M 298.053 81.500 L 298.053 91.500 L 303.827 91.500 L 306.714 96.500 L 315.374 91.500 L 324.034 96.500 L 326.921 91.500 L 324.034 86.500 L 321.147 81.500 L 315.374 81.500 L 315.374 71.500 L 306.714 66.500 L 303.827 71.500 L 306.714 76.500 Z " fill="#d9e9f7" stroke="#666666" stroke-width="0.80" fill-rule="evenodd"/>
<path d="M 315.374 71.500 L 324.034 66.500 L 321.147 61.500 L 324.034 56.500 L 315.374 51.500 L 315.374 41.500 L 309.600 41.500 L 306.714 46.500 L 303.827 51.500 L 306.714 56.500 L 298.053 61.500 L 298.053 71.500 L 303.827 71.500 L 306.714 66.500 Z " fill="#d9e9f7" stroke="#666666" stroke-width="0.80" fill-rule="evenodd"/>
<path d="M 298.053 21.500 L 289.393 26.500 L 292.280 31.500 L 289.393 36.500 L 298.053 41.500 L 298.053 51.500 L 303.827 51.500 L 306.714 46.500 L 309.600 41.500 L 306.714 36.500 L 315.374 31.500 L 315.374 21.500 L 309.600 21.500 L 306.714 26.500 Z " fill="#d9e9f7" stroke="#666666" stroke-width="0.80" fill-rule="evenodd"/>
<path d="M 263.412 61.500 L 272.073 56.500 L 269.186 51.500 L 272.073 46.500 L 263.412 41.500 L 263.412 31.500 L 257.639 31.500 L 254.752 36.500 L 251.865 41.500 L 254.752 46.500 L 246.092 51.500 L 246.092 61.500 L 251.865 61.500 L 254.752 56.500 Z " fill="#d9e9f7" stroke="#666666" stroke-width="0.80" fill-rule="evenodd"/>
<path d="M 272.073 46.500 L 269.186 51.500 L 272.073 56.500 L 280.733 51.500 L 280.733 41.500 L 286.506 41.500 L 289.393 36.500 L 292.280 31.500 L 289.393 26.500 L 280.733 31.500 L 272.073 26.500 L 269.186 31.500 L 263.412 31.500 L 263.412 41.500 Z " fill="#bcd0e2" stroke="#666666" stroke-width="0.80" fill-rule="evenodd"/>
<circle cx="269.186" cy="51.500" r="2.1" fill="#000000" stroke="none"/>
<circle cx="274.959" cy="61.500" r="2.1" fill="#000000" stroke="none"/>
<circle cx="286.506" cy="41.500" r="2.1" fill="#000000" stroke="none"/>
<circle cx="292.280" cy="31.500" r="2.1" fill="#000000" stroke="none"/>
<circle cx="274.959" cy="81.500" r="2.1" fill="#000000" stroke="none"/>
<circle cx="286.506" cy="61.500" r="2.1" fill="#000000" stroke="none"/>
<circle cx="286.506" cy="81.500" r="2.1" fill="#000000" stroke="none"/>
<circle cx="303.827" cy="51.500" r="2.1" fill="#000000" stroke="none"/>
<circle cx="303.827" cy="71.500" r="2.1" fill="#000000" stroke="none"/>
<circle cx="303.827" cy="91.500" r="2.1" fill="#000000" stroke="none"/>
<circle cx="254.752" cy="56.500" r="2.1" fill="#000000" stroke="none"/>
<circle cx="272.073" cy="46.500" r="2.1" fill="#000000" stroke="none"/>
<circle cx="280.733" cy="41.500" r="2.1" fill="#000000" stroke="none"/>
<circle cx="289.393" cy="36.500" r="2.1" fill="#000000" stroke="none"/>
<circle cx="272.073" cy="56.500" r="2.1" fill="#000000" stroke="none"/>
<circle cx="280.733" cy="61.500" r="2.1" fill="#000000" stroke="none"/>
<circle cx="289.393" cy="56.500" r="2.1" fill="#000000" stroke="none"/>
<circle cx="298.053" cy="51.500" r="2.1" fill="#000000" stroke="none"/>
<circle cx="306.714" cy="46.500" r="2.1" fill="#000000" stroke="none"/>
<circle cx="272.073" cy="76.500" r="2.1" fill="#000000" stroke="none"/>
<circle cx="306.714" cy="56.500" r="2.1" fill="#000000" stroke="none"/>
<circle cx="272.073" cy="86.500" r="2.1" fill="#000000" stroke="none"/>
<circle cx="280.733" cy="81.500" r="2.1" fill="#000000" stroke="none"/>
<circle cx="289.393" cy="76.500" r="2.1" fill="#000000" stroke="none"/>
<circle cx="298.053" cy="71.500" r="2.1" fill="#000000" stroke="none"/>
<circle cx="306.714" cy="66.500" r="2.1" fill="#000000" stroke="none"/>
<circle cx="272.073" cy="96.500" r="2.1" fill="#000000" stroke="none"/>
<circle cx="306.714" cy="76.500" r="2.1" fill="#000000" stroke="none"/>
<circle cx="298.053" cy="91.500" r="2.1" fill="#000000" stroke="none"/>
<circle cx="263.412" cy="41.500" r="2.1" fill="#000000" stroke="none"/>
<circle cx="263.412" cy="61.500" r="2.1" fill="#000000" stroke="none"/>
<circle cx="280.733" cy="51.500" r="2.1" fill="#000000" stroke="none"/>
<circle cx="298.053" cy="41.500" r="2.1" fill="#000000" stroke="none"/>
<circle cx="280.733" cy="71.500" r="2.1" fill="#000000" stroke="none"/>
<circle cx="298.053" cy="61.500" r="2.1" fill="#000000" stroke="none"/>
<circle cx="280.733" cy="91.500" r="2.1" fill="#000000" stroke="none"/>
<circle cx="298.053" cy="81.500" r="2.1" fill="#000000" stroke="none"/>
<path d="M 369.355 31.500 L 366.468 36.500 L 363.581 41.500 L 366.468 46.500 L 357.808 51.500 L 357.808 61.500 L 363.581 61.500 L 366.468 66.500 L 369.355 71.500 L 375.128 71.500 L 375.128 81.500 L 383.788 86.500 L 380.902 91.500 L 383.788 96.500 L 375.128 101.500 L 375.128 111.500 L 380.902 111.500 L 383.788 106.500 L 392.449 111.500 L 401.109 106.500 L 409.769 101.500 L 409.769 91.500 L 415.543 91.500 L 418.429 86.500 L 427.090 91.500 L 427.090 101.500 L 432.863 101.500 L 435.750 96.500 L 438.637 91.500 L 435.750 86.500 L 444.410 81.500 L 444.410 71.500 L 438.637 71.500 L 435.750 66.500 L 432.863 61.500 L 427.090 61.500 L 427.090 51.500 L 418.429 46.500 L 421.316 41.500 L 418.429 36.500 L 427.090 31.500 L 427.090 21.500 L 421.316 21.500 L 418.429 26.500 L 409.769 21.500 L 401.109 26.500 L 392.449 31.500 L 383.788 26.500 L 380.902 31.500 L 375.128 31.500 Z " fill="#dddddd" stroke="black" stroke-width="1.50" fill-rule="evenodd"/>
<path d="M 409.769 41.500 L 401.109 36.500 L 398.222 41.500 L 392.449 41.500 L 392.449 51.500 L 383.788 56.500 L 386.675 61.500 L 392.449 61.500 L 398.222 61.500 L 401.109 56.500 L 409.769 61.500 L 418.429 56.500 L 415.543 51.500 L 409.769 51.500 Z " fill="#d9e9f7" stroke="#666666" stroke-width="0.80" fill-rule="evenodd"/>
<path d="M 409.769 61.500 L 401.109 56.500 L 398.222 61.500 L 392.449 61.500 L 392.449 71.500 L 383.788 76.500 L 386.675 81.500 L 392.449 81.500 L 398.222 81.500 L 401.109 76.500 L 409.769 81.500 L 418.429 76.500 L 415.543 71.500 L 409.769 71.500 Z " fill="#d9e9f7" stroke="#666666" stroke-width="0.80" fill-rule="evenodd"/>
<path d="M 392.449 71.500 L 392.449 61.500 L 386.675 61.500 L 383.788 56.500 L 375.128 61.500 L 366.468 56.500 L 363.581 61.500 L 366.468 66.500 L 369.355 71.500 L 375.128 71.500 L 375.128 81.500 L 383.788 86.500 L 386.675 81.500 L 383.788 76.500 Z " fill="#d9e9f7" stroke="#666666" stroke-width="0.80" fill-rule="evenodd"/>
<path d="M 392.449 111.500 L 401.109 106.500 L 398.222 101.500 L 401.109 96.500 L 392.449 91.500 L 392.449 81.500 L 386.675 81.500 L 383.788 86.500 L 380.902 91.500 L 383.788 96.500 L 375.128 101.500 L 375.128 111.500 L 380.902 111.500 L 383.788 106.500 Z " fill="#d9e9f7" stroke="#666666" stroke-width="0.80" fill-rule="evenodd"/>
<path d="M 427.090 71.500 L 418.429 76.500 L 421.316 81.500 L 418.429 86.500 L 427.090 91.500 L 427.090 101.500 L 432.863 101.500 L 435.750 96.500 L 438.637 91.500 L 435.750 86.500 L 444.410 81.500 L 444.410 71.500 L 438.637 71.500 L 435.750 76.500 Z " fill="#d9e9f7" stroke="#666666" stroke-width="0.80" fill-rule="evenodd"/>
<path d="M 409.769 61.500 L 409.769 71.500 L 415.543 71.500 L 418.429 76.500 L 427.090 71.500 L 435.750 76.500 L 438.637 71.500 L 435.750 66.500 L 432.863 61.500 L 427.090 61.500 L 427.090 51.500 L 418.429 46.500 L 415.543 51.500 L 418.429 56.500 Z " fill="#d9e9f7" stroke="#666666" stroke-width="0.80" fill-rule="evenodd"/>
<path d="M 409.769 21.500 L 401.109 26.500 L 403.996 31.500 L 401.109 36.500 L 409.769 41.500 L 409.769 51.500 L 415.543 51.500 L 418.429 46.500 L 421.316 41.500 L 418.429 36.500 L 427.090 31.500 L 427.090 21.500 L 421.316 21.500 L 418.429 26.500 Z " fill="#d9e9f7" stroke="#666666" stroke-width="0.80" fill-rule="evenodd"/>
<path d="M 375.128 61.500 L 383.788 56.500 L 380.902 51.500 L 383.788 46.500 L 375.128 41.500 L 375.128 31.500 L 369.355 31.500 L 366.468 36.500 L 363.581 41.500 L 366.468 46.500 L 357.808 51.500 L 357.808 61.500 L 363.581 61.500 L 366.468 56.500 Z " fill="#d9e9f7" stroke="#666666" stroke-width="0.80" fill-rule="evenodd"/>
<path d="M 401.109 96.500 L 398.222 101.500 L 401.109 106.500 L 409.769 101.500 L 409.769 91.500 L 415.543 91.500 L 418.429 86.500 L 421.316 81.500 L 418.429 76.500 L 409.769 81.500 L 401.109 76.500 L 398.222 81.500 L 392.449 81.500 L 392.449 91.500 Z " fill="#bcd0e2" stroke="#666666" stroke-width="0.80" fill-rule="evenodd"/>
<path d="M 383.788 46.500 L 380.902 51.500 L 383.788 56.500 L 392.449 51.500 L 392.449 41.500 L 398.222 41.500 L 401.109 36.500 L 403.996 31.500 L 401.109 26.500 L 392.449 31.500 L 383.788 26.500 L 380.902 31.500 L 375.128 31.500 L 375.128 41.500 Z " fill="#bcd0e2" stroke="#666666" stroke-width="0.80" fill-rule="evenodd"/>
<circle cx="380.902" cy="51.500" r="2.1" fill="#000000" stroke="none"/>
<circle cx="386.675" cy="61.500" r="2.1" fill="#000000" stroke="none"/>
<circle cx="398.222" cy="41.500" r="2.1" fill="#000000" stroke="none"/>
<circle cx="403.996" cy="31.500" r="2.1" fill="#000000" stroke="none"/>
<circle cx="386.675" cy="81.500" r="2.1" fill="#000000" stroke="none"/>
<circle cx="398.222" cy="61.500" r="2.1" fill="#000000" stroke="none"/>
<circle cx="398.222" cy="81.500" r="2.1" fill="#000000" stroke="none"/>
<circle cx="415.543" cy="51.500" r="2.1" fill="#000000" stroke="none"/>
<circle cx="398.222" cy="101.500" r="2.1" fill="#000000" stroke="none"/>
<circle cx="415.543" cy="71.500" r="2.1" fill="#000000" stroke="none"/>
<circle cx="421.316" cy="81.500" r="2.1" fill="#000000" stroke="none"/>
<circle cx="366.468" cy="56.500" r="2.1" fill="#000000" stroke="none"/>
<circle cx="383.788" cy="46.500" r="2.1" fill="#000000" stroke="none"/>
<circle cx="392.449" cy="41.500" r="2.1" fill="#000000" stroke="none"/>
<circle cx="401.109" cy="36.500" r="2.1" fill="#000000" stroke="none"/>
<circle cx="383.788" cy="56.500" r="2.1" fill="#000000" stroke="none"/>
<circle cx="392.449" cy="61.500" r="2.1" fill="#000000" stroke="none"/>
<circle cx="401.109" cy="56.500" r="2.1" fill="#000000" stroke="none"/>
<circle cx="409.769" cy="51.500" r="2.1" fill="#000000" stroke="none"/>
<circle cx="383.788" cy="76.500" r="2.1" fill="#000000" stroke="none"/>
<circle cx="418.429" cy="56.500" r="2.1" fill="#000000" stroke="none"/>
<circle cx="392.449" cy="81.500" r="2.1" fill="#000000" stroke="none"/>
<circle cx="401.109" cy="76.500" r="2.1" fill="#000000" stroke="none"/>
<circle cx="409.769" cy="71.500" r="2.1" fill="#000000" stroke="none"/>
<circle cx="418.429" cy="76.500" r="2.1" fill="#000000" stroke="none"/>
<circle cx="401.109" cy="96.500" r="2.1" fill="#000000" stroke="none"/>
<circle cx="435.750" cy="76.500" r="2.1" fill="#000000" stroke="none"/>
<circle cx="375.128" cy="41.500" r="2.1" fill="#000000" stroke="none"/>
<circle cx="375.128" cy="61.500" r="2.1" fill="#000000" stroke="none"/>
<circle cx="392.449" cy="51.500" r="2.1" fill="#000000" stroke="none"/>
<circle cx="409.769" cy="41.500" r="2.1" fill="#000000" stroke="none"/>
<circle cx="392.449" cy="71.500" r="2.1" fill="#000000" stroke="none"/>
<circle cx="409.769" cy="61.500" r="2.1" fill="#000000" stroke="none"/>
<circle cx="392.449" cy="91.500" r="2.1" fill="#000000" stroke="none"/>
<circle cx="409.769" cy="81.500" r="2.1" fill="#000000" stroke="none"/>
<circle cx="427.090" cy="71.500" r="2.1" fill="#000000" stroke="none"/>
<path d="M 478.184 39.000 L 475.297 44.000 L 478.184 49.000 L 481.070 54.000 L 486.844 54.000 L 486.844 64.000 L 478.184 69.000 L 481.070 74.000 L 478.184 79.000 L 486.844 84.000 L 486.844 94.000 L 492.617 94.000 L 495.504 99.000 L 486.844 104.000 L 486.844 114.000 L 492.617 114.000 L 495.504 109.000 L 504.164 114.000 L 512.825 109.000 L 521.485 104.000 L 521.485 94.000 L 527.258 94.000 L 530.145 89.000 L 538.805 94.000 L 538.805 104.000 L 544.579 104.000 L 547.466 99.000 L 550.352 94.000 L 547.466 89.000 L 556.126 84.000 L 556.126 74.000 L 550.352 74.000 L 547.466 69.000 L 544.579 64.000 L 538.805 64.000 L 538.805 54.000 L 547.466 49.000 L 544.579 44.000 L 547.466 39.000 L 538.805 34.000 L 538.805 24.000 L 533.032 24.000 L 530.145 29.000 L 527.258 34.000 L 521.485 34.000 L 521.485 24.000 L 512.825 19.000 L 509.938 24.000 L 504.164 24.000 L 504.164 34.000 L 495.504 39.000 L 486.844 44.000 Z " fill="#dddddd" stroke="black" stroke-width="1.50" fill-rule="evenodd"/>
<path d="M 521.485 44.000 L 512.825 39.000 L 509.938 44.000 L 504.164 44.000 L 504.164 54.000 L 495.504 59.000 L 498.391 64.000 L 504.164 64.000 L 509.938 64.000 L 512.825 59.000 L 521.485 64.000 L 530.145 59.000 L 527.258 54.000 L 521.485 54.000 Z " fill="#d9e9f7" stroke="#666666" stroke-width="0.80" fill-rule="evenodd"/>
<path d="M 521.485 64.000 L 512.825 59.000 L 509.938 64.000 L 504.164 64.000 L 504.164 74.000 L 495.504 79.000 L 498.391 84.000 L 504.164 84.000 L 509.938 84.000 L 512.825 79.000 L 521.485 84.000 L 530.145 79.000 L 527.258 74.000 L 521.485 74.000 Z " fill="#d9e9f7" stroke="#666666" stroke-width="0.80" fill-rule="evenodd"/>
<path d="M 486.844 64.000 L 478.184 69.000 L 481.070 74.000 L 478.184 79.000 L 486.844 84.000 L 486.844 94.000 L 492.617 94.000 L 495.504 89.000 L 498.391 84.000 L 495.504 79.000 L 504.164 74.000 L 504.164 64.000 L 498.391 64.000 L 495.504 69.000 Z " fill="#d9e9f7" stroke="#666666" stroke-width="0.80" fill-rule="evenodd"/>
<path d="M 504.164 114.000 L 512.825 109.000 L 509.938 104.000 L 512.825 99.000 L 504.164 94.000 L 504.164 84.000 L 498.391 84.000 L 495.504 89.000 L 492.617 94.000 L 495.504 99.000 L 486.844 104.000 L 486.844 114.000 L 492.617 114.000 L 495.504 109.000 Z " fill="#d9e9f7" stroke="#666666" stroke-width="0.80" fill-rule="evenodd"/>
<path d="M 538.805 74.000 L 530.145 79.000 L 533.032 84.000 L 530.145 89.000 L 538.805 94.000 L 538.805 104.000 L 544.579 104.000 L 547.466 99.000 L 550.352 94.000 L 547.466 89.000 L 556.126 84.000 L 556.126 74.000 L 550.352 74.000 L 547.466 79.000 Z " fill="#d9e9f7" stroke="#666666" stroke-width="0.80" fill-rule="evenodd"/>
<path d="M 521.485 64.000 L 521.485 74.000 L 527.258 74.000 L 530.145 79.000 L 538.805 74.000 L 547.466 79.000 L 550.352 74.000 L 547.466 69.000 L 544.579 64.000 L 538.805 64.000 L 538.805 54.000 L 530.145 49.000 L 527.258 54.000 L 530.145 59.000 Z " fill="#d9e9f7" stroke="#666666" stroke-width="0.80" fill-rule="evenodd"/>
<path d="M 538.805 54.000 L 547.466 49.000 L 544.579 44.000 L 547.466 39.000 L 538.805 34.000 L 538.805 24.000 L 533.032 24.000 L 530.145 29.000 L 527.258 34.000 L 530.145 39.000 L 521.485 44.000 L 521.485 54.000 L 527.258 54.000 L 530.145 49.000 Z " fill="#d9e9f7" stroke="#666666" stroke-width="0.80" fill-rule="evenodd"/>
<path d="M 521.485 24.000 L 512.825 19.000 L 509.938 24.000 L 504.164 24.000 L 504.164 34.000 L 495.504 39.000 L 498.391 44.000 L 504.164 44.000 L 509.938 44.000 L 512.825 39.000 L 521.485 44.000 L 530.145 39.000 L 527.258 34.000 L 521.485 34.000 Z " fill="#d9e9f7" stroke="#666666" stroke-width="0.80" fill-rule="evenodd"/>
<path d="M 504.164 54.000 L 504.164 44.000 L 498.391 44.000 L 495.504 39.000 L 486.844 44.000 L 478.184 39.000 L 475.297 44.000 L 478.184 49.000 L 481.070 54.000 L 486.844 54.000 L 486.844 64.000 L 495.504 69.000 L 498.391 64.000 L 495.504 59.000 Z " fill="#d9e9f7" stroke="#666666" stroke-width="0.80" fill-rule="evenodd"/>
<path d="M 512.825 99.000 L 509.938 104.000 L 512.825 109.000 L 521.485 104.000 L 521.485 94.000 L 527.258 94.000 L 530.145 89.000 L 533.032 84.000 L 530.145 79.000 L 521.485 84.000 L 512.825 79.000 L 509.938 84.000 L 504.164 84.000 L 504.164 94.000 Z " fill="#bcd0e2" stroke="#666666" stroke-width="0.80" fill-rule="evenodd"/>
<circle cx="498.391" cy="44.000" r="2.1" fill="#000000" stroke="none"/>
<circle cx="498.391" cy="64.000" r="2.1" fill="#000000" stroke="none"/>
<circle cx="509.938" cy="44.000" r="2.1" fill="#000000" stroke="none"/>
<circle cx="498.391" cy="84.000" r="2.1" fill="#000000" stroke="none"/>
<circle cx="509.938" cy="64.000" r="2.1" fill="#000000" stroke="none"/>
<circle cx="509.938" cy="84.000" r="2.1" fill="#000000" stroke="none"/>
<circle cx="527.258" cy="54.000" r="2.1" fill="#000000" stroke="none"/>
<circle cx="509.938" cy="104.000" r="2.1" fill="#000000" stroke="none"/>
<circle cx="527.258" cy="74.000" r="2.1" fill="#000000" stroke="none"/>
<circle cx="533.032" cy="84.000" r="2.1" fill="#000000" stroke="none"/>
<circle cx="504.164" cy="44.000" r="2.1" fill="#000000" stroke="none"/>
<circle cx="512.825" cy="39.000" r="2.1" fill="#000000" stroke="none"/>
<circle cx="495.504" cy="59.000" r="2.1" fill="#000000" stroke="none"/>
<circle cx="530.145" cy="39.000" r="2.1" fill="#000000" stroke="none"/>
<circle cx="495.504" cy="69.000" r="2.1" fill="#000000" stroke="none"/>
<circle cx="504.164" cy="64.000" r="2.1" fill="#000000" stroke="none"/>
<circle cx="512.825" cy="59.000" r="2.1" fill="#000000" stroke="none"/>
<circle cx="521.485" cy="54.000" r="2.1" fill="#000000" stroke="none"/>
<circle cx="530.145" cy="49.000" r="2.1" fill="#000000" stroke="none"/>
<circle cx="495.504" cy="79.000" r="2.1" fill="#000000" stroke="none"/>
<circle cx="530.145" cy="59.000" r="2.1" fill="#000000" stroke="none"/>
<circle cx="495.504" cy="89.000" r="2.1" fill="#000000" stroke="none"/>
<circle cx="504.164" cy="84.000" r="2.1" fill="#000000" stroke="none"/>
<circle cx="512.825" cy="79.000" r="2.1" fill="#000000" stroke="none"/>
<circle cx="521.485" cy="74.000" r="2.1" fill="#000000" stroke="none"/>
<circle cx="530.145" cy="79.000" r="2.1" fill="#000000" stroke="none"/>
<circle cx="512.825" cy="99.000" r="2.1" fill="#000000" stroke="none"/>
<circle cx="547.466" cy="79.000" r="2.1" fill="#000000" stroke="none"/>
<circle cx="504.164" cy="54.000" r="2.1" fill="#000000" stroke="none"/>
<circle cx="521.485" cy="44.000" r="2.1" fill="#000000" stroke="none"/>
<circle cx="504.164" cy="74.000" r="2.1" fill="#000000" stroke="none"/>
<circle cx="521.485" cy="64.000" r="2.1" fill="#000000" stroke="none"/>
<circle cx="504.164" cy="94.000" r="2.1" fill="#000000" stroke="none"/>
<circle cx="521.485" cy="84.000" r="2.1" fill="#000000" stroke="none"/>
<circle cx="538.805" cy="74.000" r="2.1" fill="#000000" stroke="none"/>
<path d="M 28.434 149.500 L 28.434 159.500 L 37.094 164.500 L 34.207 169.500 L 37.094 174.500 L 28.434 179.500 L 19.774 174.500 L 16.887 179.500 L 19.774 184.500 L 22.660 189.500 L 28.434 189.500 L 28.434 199.500 L 19.774 204.500 L 22.660 209.500 L 19.774 214.500 L 28.434 219.500 L 28.434 229.500 L 34.207 229.500 L 37.094 234.500 L 28.434 239.500 L 28.434 249.500 L 34.207 249.500 L 37.094 244.500 L 45.754 249.500 L 54.415 244.500 L 63.075 239.500 L 63.075 229.500 L 68.848 229.500 L 71.735 224.500 L 80.395 229.500 L 80.395 239.500 L 86.169 239.500 L 89.056 234.500 L 91.942 229.500 L 89.056 224.500 L 97.716 219.500 L 97.716 209.500 L 91.942 209.500 L 89.056 204.500 L 86.169 199.500 L 80.395 199.500 L 80.395 189.500 L 89.056 184.500 L 86.169 179.500 L 89.056 174.500 L 80.395 169.500 L 80.395 159.500 L 74.622 159.500 L 71.735 164.500 L 63.075 159.500 L 63.075 149.500 L 57.301 149.500 L 54.415 154.500 L 45.754 149.500 L 37.094 154.500 L 34.207 149.500 Z " fill="#dddddd" stroke="black" stroke-width="1.50" fill-rule="evenodd"/>
<path d="M 63.075 179.500 L 54.415 174.500 L 51.528 179.500 L 45.754 179.500 L 45.754 189.500 L 37.094 194.500 L 39.981 199.500 L 45.754 199.500 L 51.528 199.500 L 54.415 194.500 L 63.075 199.500 L 71.735 194.500 L 68.848 189.500 L 63.075 189.500 Z " fill="#d9e9f7" stroke="#666666" stroke-width="0.80" fill-rule="evenodd"/>
<path d="M 63.075 199.500 L 54.415 194.500 L 51.528 199.500 L 45.754 199.500 L 45.754 209.500 L 37.094 214.500 L 39.981 219.500 L 45.754 219.500 L 51.528 219.500 L 54.415 214.500 L 63.075 219.500 L 71.735 214.500 L 68.848 209.500 L 63.075 209.500 Z " fill="#d9e9f7" stroke="#666666" stroke-width="0.80" fill-rule="evenodd"/>
<path d="M 28.434 199.500 L 19.774 204.500 L 22.660 209.500 L 19.774 214.500 L 28.434 219.500 L 28.434 229.500 L 34.207 229.500 L 37.094 224.500 L 39.981 219.500 L 37.094 214.500 L 45.754 209.500 L 45.754 199.500 L 39.981 199.500 L 37.094 204.500 Z " fill="#d9e9f7" stroke="#666666" stroke-width="0.80" fill-rule="evenodd"/>
<path d="M 45.754 249.500 L 54.415 244.500 L 51.528 239.500 L 54.415 234.500 L 45.754 229.500 L 45.754 219.500 L 39.981 219.500 L 37.094 224.500 L 34.207 229.500 L 37.094 234.500 L 28.434 239.500 L 28.434 249.500 L 34.207 249.500 L 37.094 244.500 Z " fill="#d9e9f7" stroke="#666666" stroke-width="0.80" fill-rule="evenodd"/>
<path d="M 80.395 209.500 L 71.735 214.500 L 74.622 219.500 L 71.735 224.500 L 80.395 229.500 L 80.395 239.500 L 86.169 239.500 L 89.056 234.500 L 91.942 229.500 L 89.056 224.500 L 97.716 219.500 L 97.716 209.500 L 91.942 209.500 L 89.056 214.500 Z " fill="#d9e9f7" stroke="#666666" stroke-width="0.80" fill-rule="evenodd"/>
<path d="M 63.075 199.500 L 63.075 209.500 L 68.848 209.500 L 71.735 214.500 L 80.395 209.500 L 89.056 214.500 L 91.942 209.500 L 89.056 204.500 L 86.169 199.500 L 80.395 199.500 L 80.395 189.500 L 71.735 184.500 L 68.848 189.500 L 71.735 194.500 Z " fill="#d9e9f7" stroke="#666666" stroke-width="0.80" fill-rule="evenodd"/>
<path d="M 80.395 189.500 L 89.056 184.500 L 86.169 179.500 L 89.056 174.500 L 80.395 169.500 L 80.395 159.500 L 74.622 159.500 L 71.735 164.500 L 68.848 169.500 L 71.735 174.500 L 63.075 179.500 L 63.075 189.500 L 68.848 189.500 L 71.735 184.500 Z " fill="#d9e9f7" stroke="#666666" stroke-width="0.80" fill-rule="evenodd"/>
<path d="M 63.075 179.500 L 71.735 174.500 L 68.848 169.500 L 71.735 164.500 L 63.075 159.500 L 63.075 149.500 L 57.301 149.500 L 54.415 154.500 L 51.528 159.500 L 54.415 164.500 L 45.754 169.500 L 45.754 179.500 L 51.528 179.500 L 54.415 174.500 Z " fill="#d9e9f7" stroke="#666666" stroke-width="0.80" fill-rule="evenodd"/>
<path d="M 45.754 189.500 L 45.754 179.500 L 39.981 179.500 L 37.094 174.500 L 28.434 179.500 L 19.774 174.500 L 16.887 179.500 L 19.774 184.500 L 22.660 189.500 L 28.434 189.500 L 28.434 199.500 L 37.094 204.500 L 39.981 199.500 L 37.094 194.500 Z " fill="#d9e9f7" stroke="#666666" stroke-width="0.80" fill-rule="evenodd"/>
<path d="M 54.415 234.500 L 51.528 239.500 L 54.415 244.500 L 63.075 239.500 L 63.075 229.500 L 68.848 229.500 L 71.735 224.500 L 74.622 219.500 L 71.735 214.500 L 63.075 219.500 L 54.415 214.500 L 51.528 219.500 L 45.754 219.500 L 45.754 229.500 Z " fill="#bcd0e2" stroke="#666666" stroke-width="0.80" fill-rule="evenodd"/>
<path d="M 37.094 154.500 L 34.207 149.500 L 28.434 149.500 L 28.434 159.500 L 37.094 164.500 L 34.207 169.500 L 37.094 174.500 L 39.981 179.500 L 45.754 179.500 L 45.754 169.500 L 54.415 164.500 L 51.528 159.500 L 54.415 154.500 L 45.754 149.500 Z " fill="#bcd0e2" stroke="#666666" stroke-width="0.80" fill-rule="evenodd"/>
<circle cx="39.981" cy="179.500" r="2.1" fill="#000000" stroke="none"/>
<circle cx="51.528" cy="159.500" r="2.1" fill="#000000" stroke="none"/>
<circle cx="39.981" cy="199.500" r="2.1" fill="#000000" stroke="none"/>
<circle cx="51.528" cy="179.500" r="2.1" fill="#000000" stroke="none"/>
<circle cx="39.981" cy="219.500" r="2.1" fill="#000000" stroke="none"/>
<circle cx="51.528" cy="199.500" r="2.1" fill="#000000" stroke="none"/>
<circle cx="68.848" cy="169.500" r="2.1" fill="#000000" stroke="none"/>
<circle cx="51.528" cy="219.500" r="2.1" fill="#000000" stroke="none"/>
<circle cx="68.848" cy="189.500" r="2.1" fill="#000000" stroke="none"/>
<circle cx="51.528" cy="239.500" r="2.1" fill="#000000" stroke="none"/>
<circle cx="68.848" cy="209.500" r="2.1" fill="#000000" stroke="none"/>
<circle cx="74.622" cy="219.500" r="2.1" fill="#000000" stroke="none"/>
<circle cx="54.415" cy="164.500" r="2.1" fill="#000000" stroke="none"/>
<circle cx="45.754" cy="179.500" r="2.1" fill="#000000" stroke="none"/>
<circle cx="54.415" cy="174.500" r="2.1" fill="#000000" stroke="none"/>
<circle cx="37.094" cy="194.500" r="2.1" fill="#000000" stroke="none"/>
<circle cx="71.735" cy="174.500" r="2.1" fill="#000000" stroke="none"/>
<circle cx="37.094" cy="204.500" r="2.1" fill="#000000" stroke="none"/>
<circle cx="45.754" cy="199.500" r="2.1" fill="#000000" stroke="none"/>
<circle cx="54.415" cy="194.500" r="2.1" fill="#000000" stroke="none"/>
<circle cx="63.075" cy="189.500" r="2.1" fill="#000000" stroke="none"/>
<circle cx="71.735" cy="184.500" r="2.1" fill="#000000" stroke="none"/>
<circle cx="37.094" cy="214.500" r="2.1" fill="#000000" stroke="none"/>
<circle cx="71.735" cy="194.500" r="2.1" fill="#000000" stroke="none"/>
<circle cx="37.094" cy="224.500" r="2.1" fill="#000000" stroke="none"/>
<circle cx="45.754" cy="219.500" r="2.1" fill="#000000" stroke="none"/>
<circle cx="54.415" cy="214.500" r="2.1" fill="#000000" stroke="none"/>
<circle cx="63.075" cy="209.500" r="2.1" fill="#000000" stroke="none"/>
<circle cx="71.735" cy="214.500" r="2.1" fill="#000000" stroke="none"/>
<circle cx="54.415" cy="234.500" r="2.1" fill="#000000" stroke="none"/>
<circle cx="89.056" cy="214.500" r="2.1" fill="#000000" stroke="none"/>
<circle cx="45.754" cy="169.500" r="2.1" fill="#000000" stroke="none"/>
<circle cx="45.754" cy="189.500" r="2.1" fill="#000000" stroke="none"/>
<circle cx="63.075" cy="179.500" r="2.1" fill="#000000" stroke="none"/>
<circle cx="45.754" cy="209.500" r="2.1" fill="#000000" stroke="none"/>
<circle cx="63.075" cy="199.500" r="2.1" fill="#000000" stroke="none"/>
<circle cx="45.754" cy="229.500" r="2.1" fill="#000000" stroke="none"/>
<circle cx="63.075" cy="219.500" r="2.1" fill="#000000" stroke="none"/>
<circle cx="80.395" cy="209.500" r="2.1" fill="#000000" stroke="none"/>
<path d="M 143.036 149.500 L 143.036 159.500 L 134.376 164.500 L 137.263 169.500 L 134.376 174.500 L 131.489 179.500 L 134.376 184.500 L 137.263 189.500 L 143.036 189.500 L 143.036 199.500 L 134.376 204.500 L 137.263 209.500 L 134.376 214.500 L 143.036 219.500 L 143.036 229.500 L 148.810 229.500 L 151.697 234.500 L 143.036 239.500 L 143.036 249.500 L 148.810 249.500 L 151.697 244.500 L 160.357 249.500 L 169.017 244.500 L 177.677 239.500 L 177.677 229.500 L 183.451 229.500 L 186.338 224.500 L 194.998 229.500 L 194.998 239.500 L 200.771 239.500 L 203.658 234.500 L 206.545 229.500 L 203.658 224.500 L 212.318 219.500 L 212.318 209.500 L 206.545 209.500 L 203.658 204.500 L 200.771 199.500 L 194.998 199.500 L 194.998 189.500 L 186.338 184.500 L 189.224 179.500 L 186.338 174.500 L 194.998 169.500 L 194.998 159.500 L 189.224 159.500 L 186.338 164.500 L 177.677 159.500 L 177.677 149.500 L 171.904 149.500 L 169.017 154.500 L 160.357 149.500 L 151.697 154.500 L 148.810 149.500 Z " fill="#dddddd" stroke="black" stroke-width="1.50" fill-rule="evenodd"/>
<path d="M 177.677 179.500 L 169.017 174.500 L 166.130 179.500 L 160.357 179.500 L 160.357 189.500 L 151.697 194.500 L 154.583 199.500 L 160.357 199.500 L 166.130 199.500 L 169.017 194.500 L 177.677 199.500 L 186.338 194.500 L 183.451 189.500 L 177.677 189.500 Z " fill="#d9e9f7" stroke="#666666" stroke-width="0.80" fill-rule="evenodd"/>
<path d="M 177.677 199.500 L 169.017 194.500 L 166.130 199.500 L 160.357 199.500 L 160.357 209.500 L 151.697 214.500 L 154.583 219.500 L 160.357 219.500 L 166.130 219.500 L 169.017 214.500 L 177.677 219.500 L 186.338 214.500 L 183.451 209.500 L 177.677 209.500 Z " fill="#d9e9f7" stroke="#666666" stroke-width="0.80" fill-rule="evenodd"/>
<path d="M 143.036 199.500 L 134.376 204.500 L 137.263 209.500 L 134.376 214.500 L 143.036 219.500 L 143.036 229.500 L 148.810 229.500 L 151.697 224.500 L 154.583 219.500 L 151.697 214.500 L 160.357 209.500 L 160.357 199.500 L 154.583 199.500 L 151.697 204.500 Z " fill="#d9e9f7" stroke="#666666" stroke-width="0.80" fill-rule="evenodd"/>
<path d="M 160.357 249.500 L 169.017 244.500 L 166.130 239.500 L 169.017 234.500 L 160.357 229.500 L 160.357 219.500 L 154.583 219.500 L 151.697 224.500 L 148.810 229.500 L 151.697 234.500 L 143.036 239.500 L 143.036 249.500 L 148.810 249.500 L 151.697 244.500 Z " fill="#d9e9f7" stroke="#666666" stroke-width="0.80" fill-rule="evenodd"/>
<path d="M 194.998 209.500 L 186.338 214.500 L 189.224 219.500 L 186.338 224.500 L 194.998 229.500 L 194.998 239.500 L 200.771 239.500 L 203.658 234.500 L 206.545 229.500 L 203.658 224.500 L 212.318 219.500 L 212.318 209.500 L 206.545 209.500 L 203.658 214.500 Z " fill="#d9e9f7" stroke="#666666" stroke-width="0.80" fill-rule="evenodd"/>
<path d="M 177.677 199.500 L 177.677 209.500 L 183.451 209.500 L 186.338 214.500 L 194.998 209.500 L 203.658 214.500 L 206.545 209.500 L 203.658 204.500 L 200.771 199.500 L 194.998 199.500 L 194.998 189.500 L 186.338 184.500 L 183.451 189.500 L 186.338 194.500 Z " fill="#d9e9f7" stroke="#666666" stroke-width="0.80" fill-rule="evenodd"/>
<path d="M 177.677 159.500 L 169.017 164.500 L 171.904 169.500 L 169.017 174.500 L 177.677 179.500 L 177.677 189.500 L 183.451 189.500 L 186.338 184.500 L 189.224 179.500 L 186.338 174.500 L 194.998 169.500 L 194.998 159.500 L 189.224 159.500 L 186.338 164.500 Z " fill="#d9e9f7" stroke="#666666" stroke-width="0.80" fill-rule="evenodd"/>
<path d="M 160.357 149.500 L 151.697 154.500 L 154.583 159.500 L 151.697 164.500 L 160.357 169.500 L 160.357 179.500 L 166.130 179.500 L 169.017 174.500 L 171.904 169.500 L 169.017 164.500 L 177.677 159.500 L 177.677 149.500 L 171.904 149.500 L 169.017 154.500 Z " fill="#d9e9f7" stroke="#666666" stroke-width="0.80" fill-rule="evenodd"/>
<path d="M 160.357 189.500 L 160.357 179.500 L 154.583 179.500 L 151.697 174.500 L 143.036 179.500 L 134.376 174.500 L 131.489 179.500 L 134.376 184.500 L 137.263 189.500 L 143.036 189.500 L 143.036 199.500 L 151.697 204.500 L 154.583 199.500 L 151.697 194.500 Z " fill="#d9e9f7" stroke="#666666" stroke-width="0.80" fill-rule="evenodd"/>
<path d="M 169.017 234.500 L 166.130 239.500 L 169.017 244.500 L 177.677 239.500 L 177.677 229.500 L 183.451 229.500 L 186.338 224.500 L 189.224 219.500 L 186.338 214.500 L 177.677 219.500 L 169.017 214.500 L 166.130 219.500 L 160.357 219.500 L 160.357 229.500 Z " fill="#bcd0e2" stroke="#666666" stroke-width="0.80" fill-rule="evenodd"/>
<path d="M 151.697 174.500 L 154.583 179.500 L 160.357 179.500 L 160.357 169.500 L 151.697 164.500 L 154.583 159.500 L 151.697 154.500 L 148.810 149.500 L 143.036 149.500 L 143.036 159.500 L 134.376 164.500 L 137.263 169.500 L 134.376 174.500 L 143.036 179.500 Z " fill="#bcd0e2" stroke="#666666" stroke-width="0.80" fill-rule="evenodd"/>
<circle cx="154.583" cy="159.500" r="2.1" fill="#000000" stroke="none"/>
<circle cx="154.583" cy="179.500" r="2.1" fill="#000000" stroke="none"/>
<circle cx="154.583" cy="199.500" r="2.1" fill="#000000" stroke="none"/>
<circle cx="166.130" cy="179.500" r="2.1" fill="#000000" stroke="none"/>
<circle cx="171.904" cy="169.500" r="2.1" fill="#000000" stroke="none"/>
<circle cx="154.583" cy="219.500" r="2.1" fill="#000000" stroke="none"/>
<circle cx="166.130" cy="199.500" r="2.1" fill="#000000" stroke="none"/>
<circle cx="166.130" cy="219.500" r="2.1" fill="#000000" stroke="none"/>
<circle cx="183.451" cy="189.500" r="2.1" fill="#000000" stroke="none"/>
<circle cx="166.130" cy="239.500" r="2.1" fill="#000000" stroke="none"/>
<circle cx="183.451" cy="209.500" r="2.1" fill="#000000" stroke="none"/>
<circle cx="189.224" cy="219.500" r="2.1" fill="#000000" stroke="none"/>
<circle cx="151.697" cy="164.500" r="2.1" fill="#000000" stroke="none"/>
<circle cx="151.697" cy="174.500" r="2.1" fill="#000000" stroke="none"/>
<circle cx="169.017" cy="164.500" r="2.1" fill="#000000" stroke="none"/>
<circle cx="160.357" cy="179.500" r="2.1" fill="#000000" stroke="none"/>
<circle cx="169.017" cy="174.500" r="2.1" fill="#000000" stroke="none"/>
<circle cx="151.697" cy="194.500" r="2.1" fill="#000000" stroke="none"/>
<circle cx="151.697" cy="204.500" r="2.1" fill="#000000" stroke="none"/>
<circle cx="160.357" cy="199.500" r="2.1" fill="#000000" stroke="none"/>
<circle cx="169.017" cy="194.500" r="2.1" fill="#000000" stroke="none"/>
<circle cx="177.677" cy="189.500" r="2.1" fill="#000000" stroke="none"/>
<circle cx="151.697" cy="214.500" r="2.1" fill="#000000" stroke="none"/>
<circle cx="186.338" cy="194.500" r="2.1" fill="#000000" stroke="none"/>
<circle cx="151.697" cy="224.500" r="2.1" fill="#000000" stroke="none"/>
<circle cx="160.357" cy="219.500" r="2.1" fill="#000000" stroke="none"/>
<circle cx="169.017" cy="214.500" r="2.1" fill="#000000" stroke="none"/>
<circle cx="177.677" cy="209.500" r="2.1" fill="#000000" stroke="none"/>
<circle cx="186.338" cy="214.500" r="2.1" fill="#000000" stroke="none"/>
<circle cx="169.017" cy="234.500" r="2.1" fill="#000000" stroke="none"/>
<circle cx="203.658" cy="214.500" r="2.1" fill="#000000" stroke="none"/>
<circle cx="143.036" cy="179.500" r="2.1" fill="#000000" stroke="none"/>
<circle cx="160.357" cy="169.500" r="2.1" fill="#000000" stroke="none"/>
<circle cx="160.357" cy="189.500" r="2.1" fill="#000000" stroke="none"/>
<circle cx="177.677" cy="179.500" r="2.1" fill="#000000" stroke="none"/>
<circle cx="160.357" cy="209.500" r="2.1" fill="#000000" stroke="none"/>
<circle cx="177.677" cy="199.500" r="2.1" fill="#000000" stroke="none"/>
<circle cx="160.357" cy="229.500" r="2.1" fill="#000000" stroke="none"/>
<circle cx="177.677" cy="219.500" r="2.1" fill="#000000" stroke="none"/>
<circle cx="194.998" cy="209.500" r="2.1" fill="#000000" stroke="none"/>
<path d="M 266.299 147.000 L 263.412 152.000 L 266.299 157.000 L 257.639 162.000 L 257.639 172.000 L 251.865 172.000 L 248.979 177.000 L 246.092 182.000 L 248.979 187.000 L 251.865 192.000 L 257.639 192.000 L 257.639 202.000 L 248.979 207.000 L 251.865 212.000 L 248.979 217.000 L 257.639 222.000 L 257.639 232.000 L 263.412 232.000 L 266.299 237.000 L 257.639 242.000 L 257.639 252.000 L 263.412 252.000 L 266.299 247.000 L 274.959 252.000 L 283.620 247.000 L 292.280 242.000 L 292.280 232.000 L 298.053 232.000 L 300.940 227.000 L 309.600 232.000 L 309.600 242.000 L 315.374 242.000 L 318.261 237.000 L 321.147 232.000 L 318.261 227.000 L 326.921 222.000 L 326.921 212.000 L 321.147 212.000 L 318.261 207.000 L 315.374 202.000 L 309.600 202.000 L 309.600 192.000 L 300.940 187.000 L 303.827 182.000 L 300.940 177.000 L 309.600 172.000 L 309.600 162.000 L 303.827 162.000 L 300.940 167.000 L 292.280 162.000 L 292.280 152.000 L 286.506 152.000 L 283.620 147.000 L 274.959 152.000 Z " fill="#dddddd" stroke="black" stroke-width="1.50" fill-rule="evenodd"/>
<path d="M 292.280 182.000 L 283.620 177.000 L 280.733 182.000 L 274.959 182.000 L 274.959 192.000 L 266.299 197.000 L 269.186 202.000 L 274.959 202.000 L 280.733 202.000 L 283.620 197.000 L 292.280 202.000 L 300.940 197.000 L 298.053 192.000 L 292.280 192.000 Z " fill="#d9e9f7" stroke="#666666" stroke-width="0.80" fill-rule="evenodd"/>
<path d="M 292.280 202.000 L 283.620 197.000 L 280.733 202.000 L 274.959 202.000 L 274.959 212.000 L 266.299 217.000 L 269.186 222.000 L 274.959 222.000 L 280.733 222.000 L 283.620 217.000 L 292.280 222.000 L 300.940 217.000 L 298.053 212.000 L 292.280 212.000 Z " fill="#d9e9f7" stroke="#666666" stroke-width="0.80" fill-rule="evenodd"/>
<path d="M 257.639 202.000 L 248.979 207.000 L 251.865 212.000 L 248.979 217.000 L 257.639 222.000 L 257.639 232.000 L 263.412 232.000 L 266.299 227.000 L 269.186 222.000 L 266.299 217.000 L 274.959 212.000 L 274.959 202.000 L 269.186 202.000 L 266.299 207.000 Z " fill="#d9e9f7" stroke="#666666" stroke-width="0.80" fill-rule="evenodd"/>
<path d="M 274.959 252.000 L 283.620 247.000 L 280.733 242.000 L 283.620 237.000 L 274.959 232.000 L 274.959 222.000 L 269.186 222.000 L 266.299 227.000 L 263.412 232.000 L 266.299 237.000 L 257.639 242.000 L 257.639 252.000 L 263.412 252.000 L 266.299 247.000 Z " fill="#d9e9f7" stroke="#666666" stroke-width="0.80" fill-rule="evenodd"/>
<path d="M 309.600 212.000 L 300.940 217.000 L 303.827 222.000 L 300.940 227.000 L 309.600 232.000 L 309.600 242.000 L 315.374 242.000 L 318.261 237.000 L 321.147 232.000 L 318.261 227.000 L 326.921 222.000 L 326.921 212.000 L 321.147 212.000 L 318.261 217.000 Z " fill="#d9e9f7" stroke="#666666" stroke-width="0.80" fill-rule="evenodd"/>
<path d="M 292.280 202.000 L 292.280 212.000 L 298.053 212.000 L 300.940 217.000 L 309.600 212.000 L 318.261 217.000 L 321.147 212.000 L 318.261 207.000 L 315.374 202.000 L 309.600 202.000 L 309.600 192.000 L 300.940 187.000 L 298.053 192.000 L 300.940 197.000 Z " fill="#d9e9f7" stroke="#666666" stroke-width="0.80" fill-rule="evenodd"/>
<path d="M 292.280 162.000 L 283.620 167.000 L 286.506 172.000 L 283.620 177.000 L 292.280 182.000 L 292.280 192.000 L 298.053 192.000 L 300.940 187.000 L 303.827 182.000 L 300.940 177.000 L 309.600 172.000 L 309.600 162.000 L 303.827 162.000 L 300.940 167.000 Z " fill="#d9e9f7" stroke="#666666" stroke-width="0.80" fill-rule="evenodd"/>
<path d="M 292.280 162.000 L 292.280 152.000 L 286.506 152.000 L 283.620 147.000 L 274.959 152.000 L 266.299 147.000 L 263.412 152.000 L 266.299 157.000 L 269.186 162.000 L 274.959 162.000 L 274.959 172.000 L 283.620 177.000 L 286.506 172.000 L 283.620 167.000 Z " fill="#d9e9f7" stroke="#666666" stroke-width="0.80" fill-rule="evenodd"/>
<path d="M 274.959 192.000 L 274.959 182.000 L 269.186 182.000 L 266.299 177.000 L 257.639 182.000 L 248.979 177.000 L 246.092 182.000 L 248.979 187.000 L 251.865 192.000 L 257.639 192.000 L 257.639 202.000 L 266.299 207.000 L 269.186 202.000 L 266.299 197.000 Z " fill="#d9e9f7" stroke="#666666" stroke-width="0.80" fill-rule="evenodd"/>
<path d="M 283.620 237.000 L 280.733 242.000 L 283.620 247.000 L 292.280 242.000 L 292.280 232.000 L 298.053 232.000 L 300.940 227.000 L 303.827 222.000 L 300.940 217.000 L 292.280 222.000 L 283.620 217.000 L 280.733 222.000 L 274.959 222.000 L 274.959 232.000 Z " fill="#bcd0e2" stroke="#666666" stroke-width="0.80" fill-rule="evenodd"/>
<path d="M 257.639 172.000 L 251.865 172.000 L 248.979 177.000 L 257.639 182.000 L 266.299 177.000 L 269.186 182.000 L 274.959 182.000 L 280.733 182.000 L 283.620 177.000 L 274.959 172.000 L 274.959 162.000 L 269.186 162.000 L 266.299 157.000 L 257.639 162.000 Z " fill="#bcd0e2" stroke="#666666" stroke-width="0.80" fill-rule="evenodd"/>
<circle cx="269.186" cy="162.000" r="2.1" fill="#000000" stroke="none"/>
<circle cx="269.186" cy="182.000" r="2.1" fill="#000000" stroke="none"/>
<circle cx="269.186" cy="202.000" r="2.1" fill="#000000" stroke="none"/>
<circle cx="280.733" cy="182.000" r="2.1" fill="#000000" stroke="none"/>
<circle cx="286.506" cy="172.000" r="2.1" fill="#000000" stroke="none"/>
<circle cx="269.186" cy="222.000" r="2.1" fill="#000000" stroke="none"/>
<circle cx="280.733" cy="202.000" r="2.1" fill="#000000" stroke="none"/>
<circle cx="280.733" cy="222.000" r="2.1" fill="#000000" stroke="none"/>
<circle cx="298.053" cy="192.000" r="2.1" fill="#000000" stroke="none"/>
<circle cx="280.733" cy="242.000" r="2.1" fill="#000000" stroke="none"/>
<circle cx="298.053" cy="212.000" r="2.1" fill="#000000" stroke="none"/>
<circle cx="303.827" cy="222.000" r="2.1" fill="#000000" stroke="none"/>
<circle cx="274.959" cy="162.000" r="2.1" fill="#000000" stroke="none"/>
<circle cx="266.299" cy="177.000" r="2.1" fill="#000000" stroke="none"/>
<circle cx="283.620" cy="167.000" r="2.1" fill="#000000" stroke="none"/>
<circle cx="274.959" cy="182.000" r="2.1" fill="#000000" stroke="none"/>
<circle cx="283.620" cy="177.000" r="2.1" fill="#000000" stroke="none"/>
<circle cx="266.299" cy="197.000" r="2.1" fill="#000000" stroke="none"/>
<circle cx="266.299" cy="207.000" r="2.1" fill="#000000" stroke="none"/>
<circle cx="274.959" cy="202.000" r="2.1" fill="#000000" stroke="none"/>
<circle cx="283.620" cy="197.000" r="2.1" fill="#000000" stroke="none"/>
<circle cx="292.280" cy="192.000" r="2.1" fill="#000000" stroke="none"/>
<circle cx="266.299" cy="217.000" r="2.1" fill="#000000" stroke="none"/>
<circle cx="300.940" cy="197.000" r="2.1" fill="#000000" stroke="none"/>
<circle cx="266.299" cy="227.000" r="2.1" fill="#000000" stroke="none"/>
<circle cx="274.959" cy="222.000" r="2.1" fill="#000000" stroke="none"/>
<circle cx="283.620" cy="217.000" r="2.1" fill="#000000" stroke="none"/>
<circle cx="292.280" cy="212.000" r="2.1" fill="#000000" stroke="none"/>
<circle cx="300.940" cy="217.000" r="2.1" fill="#000000" stroke="none"/>
<circle cx="283.620" cy="237.000" r="2.1" fill="#000000" stroke="none"/>
<circle cx="318.261" cy="217.000" r="2.1" fill="#000000" stroke="none"/>
<circle cx="257.639" cy="182.000" r="2.1" fill="#000000" stroke="none"/>
<circle cx="274.959" cy="172.000" r="2.1" fill="#000000" stroke="none"/>
<circle cx="274.959" cy="192.000" r="2.1" fill="#000000" stroke="none"/>
<circle cx="292.280" cy="182.000" r="2.1" fill="#000000" stroke="none"/>
<circle cx="274.959" cy="212.000" r="2.1" fill="#000000" stroke="none"/>
<circle cx="292.280" cy="202.000" r="2.1" fill="#000000" stroke="none"/>
<circle cx="274.959" cy="232.000" r="2.1" fill="#000000" stroke="none"/>
<circle cx="292.280" cy="222.000" r="2.1" fill="#000000" stroke="none"/>
<circle cx="309.600" cy="212.000" r="2.1" fill="#000000" stroke="none"/>
<path d="M 383.788 147.000 L 380.902 152.000 L 383.788 157.000 L 375.128 162.000 L 375.128 172.000 L 369.355 172.000 L 366.468 177.000 L 363.581 182.000 L 366.468 187.000 L 357.808 192.000 L 357.808 202.000 L 363.581 202.000 L 366.468 207.000 L 369.355 212.000 L 366.468 217.000 L 375.128 222.000 L 375.128 232.000 L 380.902 232.000 L 383.788 237.000 L 375.128 242.000 L 375.128 252.000 L 380.902 252.000 L 383.788 247.000 L 392.449 252.000 L 401.109 247.000 L 409.769 242.000 L 409.769 232.000 L 415.543 232.000 L 418.429 227.000 L 427.090 232.000 L 427.090 242.000 L 432.863 242.000 L 435.750 237.000 L 438.637 232.000 L 435.750 227.000 L 444.410 222.000 L 444.410 212.000 L 438.637 212.000 L 435.750 207.000 L 432.863 202.000 L 427.090 202.000 L 427.090 192.000 L 418.429 187.000 L 421.316 182.000 L 418.429 177.000 L 427.090 172.000 L 427.090 162.000 L 421.316 162.000 L 418.429 167.000 L 409.769 162.000 L 401.109 167.000 L 398.222 162.000 L 392.449 162.000 L 392.449 152.000 Z " fill="#dddddd" stroke="black" stroke-width="1.50" fill-rule="evenodd"/>
<path d="M 409.769 182.000 L 401.109 177.000 L 398.222 182.000 L 392.449 182.000 L 392.449 192.000 L 383.788 197.000 L 386.675 202.000 L 392.449 202.000 L 398.222 202.000 L 401.109 197.000 L 409.769 202.000 L 418.429 197.000 L 415.543 192.000 L 409.769 192.000 Z " fill="#d9e9f7" stroke="#666666" stroke-width="0.80" fill-rule="evenodd"/>
<path d="M 409.769 202.000 L 401.109 197.000 L 398.222 202.000 L 392.449 202.000 L 392.449 212.000 L 383.788 217.000 L 386.675 222.000 L 392.449 222.000 L 398.222 222.000 L 401.109 217.000 L 409.769 222.000 L 418.429 217.000 L 415.543 212.000 L 409.769 212.000 Z " fill="#d9e9f7" stroke="#666666" stroke-width="0.80" fill-rule="evenodd"/>
<path d="M 375.128 202.000 L 366.468 207.000 L 369.355 212.000 L 366.468 217.000 L 375.128 222.000 L 375.128 232.000 L 380.902 232.000 L 383.788 227.000 L 386.675 222.000 L 383.788 217.000 L 392.449 212.000 L 392.449 202.000 L 386.675 202.000 L 383.788 207.000 Z " fill="#d9e9f7" stroke="#666666" stroke-width="0.80" fill-rule="evenodd"/>
<path d="M 392.449 252.000 L 401.109 247.000 L 398.222 242.000 L 401.109 237.000 L 392.449 232.000 L 392.449 222.000 L 386.675 222.000 L 383.788 227.000 L 380.902 232.000 L 383.788 237.000 L 375.128 242.000 L 375.128 252.000 L 380.902 252.000 L 383.788 247.000 Z " fill="#d9e9f7" stroke="#666666" stroke-width="0.80" fill-rule="evenodd"/>
<path d="M 427.090 212.000 L 418.429 217.000 L 421.316 222.000 L 418.429 227.000 L 427.090 232.000 L 427.090 242.000 L 432.863 242.000 L 435.750 237.000 L 438.637 232.000 L 435.750 227.000 L 444.410 222.000 L 444.410 212.000 L 438.637 212.000 L 435.750 217.000 Z " fill="#d9e9f7" stroke="#666666" stroke-width="0.80" fill-rule="evenodd"/>
<path d="M 409.769 202.000 L 409.769 212.000 L 415.543 212.000 L 418.429 217.000 L 427.090 212.000 L 435.750 217.000 L 438.637 212.000 L 435.750 207.000 L 432.863 202.000 L 427.090 202.000 L 427.090 192.000 L 418.429 187.000 L 415.543 192.000 L 418.429 197.000 Z " fill="#d9e9f7" stroke="#666666" stroke-width="0.80" fill-rule="evenodd"/>
<path d="M 409.769 162.000 L 401.109 167.000 L 403.996 172.000 L 401.109 177.000 L 409.769 182.000 L 409.769 192.000 L 415.543 192.000 L 418.429 187.000 L 421.316 182.000 L 418.429 177.000 L 427.090 172.000 L 427.090 162.000 L 421.316 162.000 L 418.429 167.000 Z " fill="#d9e9f7" stroke="#666666" stroke-width="0.80" fill-rule="evenodd"/>
<path d="M 375.128 162.000 L 375.128 172.000 L 380.902 172.000 L 383.788 177.000 L 392.449 172.000 L 401.109 177.000 L 403.996 172.000 L 401.109 167.000 L 398.222 162.000 L 392.449 162.000 L 392.449 152.000 L 383.788 147.000 L 380.902 152.000 L 383.788 157.000 Z " fill="#d9e9f7" stroke="#666666" stroke-width="0.80" fill-rule="evenodd"/>
<path d="M 357.808 192.000 L 357.808 202.000 L 363.581 202.000 L 366.468 207.000 L 375.128 202.000 L 383.788 207.000 L 386.675 202.000 L 383.788 197.000 L 380.902 192.000 L 375.128 192.000 L 375.128 182.000 L 366.468 177.000 L 363.581 182.000 L 366.468 187.000 Z " fill="#d9e9f7" stroke="#666666" stroke-width="0.80" fill-rule="evenodd"/>
<path d="M 401.109 237.000 L 398.222 242.000 L 401.109 247.000 L 409.769 242.000 L 409.769 232.000 L 415.543 232.000 L 418.429 227.000 L 421.316 222.000 L 418.429 217.000 L 409.769 222.000 L 401.109 217.000 L 398.222 222.000 L 392.449 222.000 L 392.449 232.000 Z " fill="#bcd0e2" stroke="#666666" stroke-width="0.80" fill-rule="evenodd"/>
<path d="M 392.449 182.000 L 398.222 182.000 L 401.109 177.000 L 392.449 172.000 L 383.788 177.000 L 380.902 172.000 L 375.128 172.000 L 369.355 172.000 L 366.468 177.000 L 375.128 182.000 L 375.128 192.000 L 380.902 192.000 L 383.788 197.000 L 392.449 192.000 Z " fill="#bcd0e2" stroke="#666666" stroke-width="0.80" fill-rule="evenodd"/>
<circle cx="380.902" cy="172.000" r="2.1" fill="#000000" stroke="none"/>
<circle cx="380.902" cy="192.000" r="2.1" fill="#000000" stroke="none"/>
<circle cx="386.675" cy="202.000" r="2.1" fill="#000000" stroke="none"/>
<circle cx="398.222" cy="182.000" r="2.1" fill="#000000" stroke="none"/>
<circle cx="403.996" cy="172.000" r="2.1" fill="#000000" stroke="none"/>
<circle cx="386.675" cy="222.000" r="2.1" fill="#000000" stroke="none"/>
<circle cx="398.222" cy="202.000" r="2.1" fill="#000000" stroke="none"/>
<circle cx="398.222" cy="222.000" r="2.1" fill="#000000" stroke="none"/>
<circle cx="415.543" cy="192.000" r="2.1" fill="#000000" stroke="none"/>
<circle cx="398.222" cy="242.000" r="2.1" fill="#000000" stroke="none"/>
<circle cx="415.543" cy="212.000" r="2.1" fill="#000000" stroke="none"/>
<circle cx="421.316" cy="222.000" r="2.1" fill="#000000" stroke="none"/>
<circle cx="383.788" cy="177.000" r="2.1" fill="#000000" stroke="none"/>
<circle cx="375.128" cy="192.000" r="2.1" fill="#000000" stroke="none"/>
<circle cx="392.449" cy="182.000" r="2.1" fill="#000000" stroke="none"/>
<circle cx="401.109" cy="177.000" r="2.1" fill="#000000" stroke="none"/>
<circle cx="383.788" cy="197.000" r="2.1" fill="#000000" stroke="none"/>
<circle cx="383.788" cy="207.000" r="2.1" fill="#000000" stroke="none"/>
<circle cx="392.449" cy="202.000" r="2.1" fill="#000000" stroke="none"/>
<circle cx="401.109" cy="197.000" r="2.1" fill="#000000" stroke="none"/>
<circle cx="409.769" cy="192.000" r="2.1" fill="#000000" stroke="none"/>
<circle cx="383.788" cy="217.000" r="2.1" fill="#000000" stroke="none"/>
<circle cx="418.429" cy="197.000" r="2.1" fill="#000000" stroke="none"/>
<circle cx="383.788" cy="227.000" r="2.1" fill="#000000" stroke="none"/>
<circle cx="392.449" cy="222.000" r="2.1" fill="#000000" stroke="none"/>
<circle cx="401.109" cy="217.000" r="2.1" fill="#000000" stroke="none"/>
<circle cx="409.769" cy="212.000" r="2.1" fill="#000000" stroke="none"/>
<circle cx="418.429" cy="217.000" r="2.1" fill="#000000" stroke="none"/>
<circle cx="401.109" cy="237.000" r="2.1" fill="#000000" stroke="none"/>
<circle cx="435.750" cy="217.000" r="2.1" fill="#000000" stroke="none"/>
<circle cx="375.128" cy="182.000" r="2.1" fill="#000000" stroke="none"/>
<circle cx="392.449" cy="172.000" r="2.1" fill="#000000" stroke="none"/>
<circle cx="375.128" cy="202.000" r="2.1" fill="#000000" stroke="none"/>
<circle cx="392.449" cy="192.000" r="2.1" fill="#000000" stroke="none"/>
<circle cx="409.769" cy="182.000" r="2.1" fill="#000000" stroke="none"/>
<circle cx="392.449" cy="212.000" r="2.1" fill="#000000" stroke="none"/>
<circle cx="409.769" cy="202.000" r="2.1" fill="#000000" stroke="none"/>
<circle cx="392.449" cy="232.000" r="2.1" fill="#000000" stroke="none"/>
<circle cx="409.769" cy="222.000" r="2.1" fill="#000000" stroke="none"/>
<circle cx="427.090" cy="212.000" r="2.1" fill="#000000" stroke="none"/>
</svg>
