<svg xmlns="http://www.w3.org/2000/svg" width="115" height="138" viewBox="0 0 115 138">
<rect width="100%" height="100%" fill="white"/>
<path d="M 25.547 24.000 L 22.660 29.000 L 19.774 34.000 L 22.660 39.000 L 14.000 44.000 L 14.000 54.000 L 19.774 54.000 L 22.660 59.000 L 25.547 64.000 L 31.321 64.000 L 31.321 74.000 L 22.660 79.000 L 25.547 84.000 L 22.660 89.000 L 31.321 94.000 L 31.321 104.000 L 37.094 104.000 L 39.981 109.000 L 31.321 114.000 L 31.321 124.000 L 37.094 124.000 L 39.981 119.000 L 48.641 124.000 L 57.301 119.000 L 65.962 114.000 L 65.962 104.000 L 71.735 104.000 L 74.622 99.000 L 83.282 104.000 L 83.282 114.000 L 89.056 114.000 L 91.942 109.000 L 94.829 104.000 L 91.942 99.000 L 100.603 94.000 L 100.603 84.000 L 94.829 84.000 L 91.942 79.000 L 89.056 74.000 L 83.282 74.000 L 83.282 64.000 L 91.942 59.000 L 89.056 54.000 L 91.942 49.000 L 83.282 44.000 L 83.282 34.000 L 77.509 34.000 L 74.622 29.000 L 83.282 24.000 L 83.282 14.000 L 77.509 14.000 L 74.622 19.000 L 65.962 14.000 L 57.301 19.000 L 48.641 24.000 L 39.981 19.000 L 37.094 24.000 L 31.321 24.000 Z " fill="#dddddd" stroke="black" stroke-width="1.50" fill-rule="evenodd"/>
<path d="M 65.962 34.000 L 57.301 29.000 L 54.415 34.000 L 48.641 34.000 L 48.641 44.000 L 39.981 49.000 L 42.868 54.000 L 48.641 54.000 L 54.415 54.000 L 57.301 49.000 L 65.962 54.000 L 74.622 49.000 L 71.735 44.000 L 65.962 44.000 Z " fill="#d9e9f7" stroke="#666666" stroke-width="0.80" fill-rule="evenodd"/>
<path d="M 65.962 54.000 L 57.301 49.000 L 54.415 54.000 L 48.641 54.000 L 48.641 64.000 L 39.981 69.000 L 42.868 74.000 L 48.641 74.000 L 54.415 74.000 L 57.301 69.000 L 65.962 74.000 L 74.622 69.000 L 71.735 64.000 L 65.962 64.000 Z " fill="#d9e9f7" stroke="#666666" stroke-width="0.80" fill-rule="evenodd"/>
<path d="M 65.962 74.000 L 57.301 69.000 L 54.415 74.000 L 48.641 74.000 L 48.641 84.000 L 39.981 89.000 L 42.868 94.000 L 48.641 94.000 L 54.415 94.000 L 57.301 89.000 L 65.962 94.000 L 74.622 89.000 L 71.735 84.000 L 65.962 84.000 Z " fill="#d9e9f7" stroke="#666666" stroke-width="0.80" fill-rule="evenodd"/>
<path d="M 48.641 64.000 L 48.641 54.000 L 42.868 54.000 L 39.981 49.000 L 31.321 54.000 L 22.660 49.000 L 19.774 54.000 L 22.660 59.000 L 25.547 64.000 L 31.321 64.000 L 31.321 74.000 L 39.981 79.000 L 42.868 74.000 L 39.981 69.000 Z " fill="#d9e9f7" stroke="#666666" stroke-width="0.80" fill-rule="evenodd"/>
<path d="M 31.321 74.000 L 22.660 79.000 L 25.547 84.000 L 22.660 89.000 L 31.321 94.000 L 31.321 104.000 L 37.094 104.000 L 39.981 99.000 L 42.868 94.000 L 39.981 89.000 L 48.641 84.000 L 48.641 74.000 L 42.868 74.000 L 39.981 79.000 Z " fill="#d9e9f7" stroke="#666666" stroke-width="0.80" fill-rule="evenodd"/>
<path d="M 48.641 124.000 L 57.301 119.000 L 54.415 114.000 L 57.301 109.000 L 48.641 104.000 L 48.641 94.000 L 42.868 94.000 L 39.981 99.000 L 37.094 104.000 L 39.981 109.000 L 31.321 114.000 L 31.321 124.000 L 37.094 124.000 L 39.981 119.000 Z " fill="#d9e9f7" stroke="#666666" stroke-width="0.80" fill-rule="evenodd"/>
<path d="M 83.282 84.000 L 74.622 89.000 L 77.509 94.000 L 74.622 99.000 L 83.282 104.000 L 83.282 114.000 L 89.056 114.000 L 91.942 109.000 L 94.829 104.000 L 91.942 99.000 L 100.603 94.000 L 100.603 84.000 L 94.829 84.000 L 91.942 89.000 Z " fill="#d9e9f7" stroke="#666666" stroke-width="0.80" fill-rule="evenodd"/>
<path d="M 65.962 74.000 L 65.962 84.000 L 71.735 84.000 L 74.622 89.000 L 83.282 84.000 L 91.942 89.000 L 94.829 84.000 L 91.942 79.000 L 89.056 74.000 L 83.282 74.000 L 83.282 64.000 L 74.622 59.000 L 71.735 64.000 L 74.622 69.000 Z " fill="#d9e9f7" stroke="#666666" stroke-width="0.80" fill-rule="evenodd"/>
<path d="M 83.282 64.000 L 91.942 59.000 L 89.056 54.000 L 91.942 49.000 L 83.282 44.000 L 83.282 34.000 L 77.509 34.000 L 74.622 39.000 L 71.735 44.000 L 74.622 49.000 L 65.962 54.000 L 65.962 64.000 L 71.735 64.000 L 74.622 59.000 Z " fill="#d9e9f7" stroke="#666666" stroke-width="0.80" fill-rule="evenodd"/>
<path d="M 65.962 14.000 L 57.301 19.000 L 60.188 24.000 L 57.301 29.000 L 65.962 34.000 L 65.962 44.000 L 71.735 44.000 L 74.622 39.000 L 77.509 34.000 L 74.622 29.000 L 83.282 24.000 L 83.282 14.000 L 77.509 14.000 L 74.622 19.000 Z " fill="#d9e9f7" stroke="#666666" stroke-width="0.80" fill-rule="evenodd"/>
<path d="M 31.321 54.000 L 39.981 49.000 L 37.094 44.000 L 39.981 39.000 L 31.321 34.000 L 31.321 24.000 L 25.547 24.000 L 22.660 29.000 L 19.774 34.000 L 22.660 39.000 L 14.000 44.000 L 14.000 54.000 L 19.774 54.000 L 22.660 49.000 Z " fill="#d9e9f7" stroke="#666666" stroke-width="0.80" fill-rule="evenodd"/>
<path d="M 57.301 109.000 L 54.415 114.000 L 57.301 119.000 L 65.962 114.000 L 65.962 104.000 L 71.735 104.000 L 74.622 99.000 L 77.509 94.000 L 74.622 89.000 L 65.962 94.000 L 57.301 89.000 L 54.415 94.000 L 48.641 94.000 L 48.641 104.000 Z " fill="#bcd0e2" stroke="#666666" stroke-width="0.80" fill-rule="evenodd"/>
<path d="M 39.981 39.000 L 37.094 44.000 L 39.981 49.000 L 48.641 44.000 L 48.641 34.000 L 54.415 34.000 L 57.301 29.000 L 60.188 24.000 L 57.301 19.000 L 48.641 24.000 L 39.981 19.000 L 37.094 24.000 L 31.321 24.000 L 31.321 34.000 Z " fill="#bcd0e2" stroke="#666666" stroke-width="0.80" fill-rule="evenodd"/>
<circle cx="37.094" cy="44.000" r="2.1" fill="#000000" stroke="none"/>
<circle cx="42.868" cy="54.000" r="2.1" fill="#000000" stroke="none"/>
<circle cx="54.415" cy="34.000" r="2.1" fill="#000000" stroke="none"/>
<circle cx="60.188" cy="24.000" r="2.1" fill="#000000" stroke="none"/>
<circle cx="42.868" cy="74.000" r="2.1" fill="#000000" stroke="none"/>
<circle cx="54.415" cy="54.000" r="2.1" fill="#000000" stroke="none"/>
<circle cx="42.868" cy="94.000" r="2.1" fill="#000000" stroke="none"/>
<circle cx="54.415" cy="74.000" r="2.1" fill="#000000" stroke="none"/>
<circle cx="71.735" cy="44.000" r="2.1" fill="#000000" stroke="none"/>
<circle cx="54.415" cy="94.000" r="2.1" fill="#000000" stroke="none"/>
<circle cx="71.735" cy="64.000" r="2.1" fill="#000000" stroke="none"/>
<circle cx="54.415" cy="114.000" r="2.1" fill="#000000" stroke="none"/>
<circle cx="71.735" cy="84.000" r="2.1" fill="#000000" stroke="none"/>
<circle cx="77.509" cy="94.000" r="2.1" fill="#000000" stroke="none"/>
<circle cx="22.660" cy="49.000" r="2.1" fill="#000000" stroke="none"/>
<circle cx="39.981" cy="39.000" r="2.1" fill="#000000" stroke="none"/>
<circle cx="48.641" cy="34.000" r="2.1" fill="#000000" stroke="none"/>
<circle cx="57.301" cy="29.000" r="2.1" fill="#000000" stroke="none"/>
<circle cx="39.981" cy="49.000" r="2.1" fill="#000000" stroke="none"/>
<circle cx="48.641" cy="54.000" r="2.1" fill="#000000" stroke="none"/>
<circle cx="57.301" cy="49.000" r="2.1" fill="#000000" stroke="none"/>
<circle cx="65.962" cy="44.000" r="2.1" fill="#000000" stroke="none"/>
<circle cx="74.622" cy="39.000" r="2.1" fill="#000000" stroke="none"/>
<circle cx="39.981" cy="69.000" r="2.1" fill="#000000" stroke="none"/>
<circle cx="74.622" cy="49.000" r="2.1" fill="#000000" stroke="none"/>
<circle cx="39.981" cy="79.000" r="2.1" fill="#000000" stroke="none"/>
<circle cx="48.641" cy="74.000" r="2.1" fill="#000000" stroke="none"/>
<circle cx="57.301" cy="69.000" r="2.1" fill="#000000" stroke="none"/>
<circle cx="65.962" cy="64.000" r="2.1" fill="#000000" stroke="none"/>
<circle cx="74.622" cy="59.000" r="2.1" fill="#000000" stroke="none"/>
<circle cx="39.981" cy="89.000" r="2.1" fill="#000000" stroke="none"/>
<circle cx="74.622" cy="69.000" r="2.1" fill="#000000" stroke="none"/>
<circle cx="39.981" cy="99.000" r="2.1" fill="#000000" stroke="none"/>
<circle cx="48.641" cy="94.000" r="2.1" fill="#000000" stroke="none"/>
<circle cx="57.301" cy="89.000" r="2.1" fill="#000000" stroke="none"/>
<circle cx="65.962" cy="84.000" r="2.1" fill="#000000" stroke="none"/>
<circle cx="74.622" cy="89.000" r="2.1" fill="#000000" stroke="none"/>
<circle cx="57.301" cy="109.000" r="2.1" fill="#000000" stroke="none"/>
<circle cx="91.942" cy="89.000" r="2.1" fill="#000000" stroke="none"/>
<circle cx="31.321" cy="34.000" r="2.1" fill="#000000" stroke="none"/>
<circle cx="31.321" cy="54.000" r="2.1" fill="#000000" stroke="none"/>
<circle cx="48.641" cy="44.000" r="2.1" fill="#000000" stroke="none"/>
<circle cx="65.962" cy="34.000" r="2.1" fill="#000000" stroke="none"/>
<circle cx="48.641" cy="64.000" r="2.1" fill="#000000" stroke="none"/>
<circle cx="65.962" cy="54.000" r="2.1" fill="#000000" stroke="none"/>
<circle cx="48.641" cy="84.000" r="2.1" fill="#000000" stroke="none"/>
<circle cx="65.962" cy="74.000" r="2.1" fill="#000000" stroke="none"/>
<circle cx="48.641" cy="104.000" r="2.1" fill="#000000" stroke="none"/>
<circle cx="65.962" cy="94.000" r="2.1" fill="#000000" stroke="none"/>
<circle cx="83.282" cy="84.000" r="2.1" fill="#000000" stroke="none"/>
</svg>
