<svg xmlns="http://www.w3.org/2000/svg" width="63" height="113" viewBox="0 0 63 113">
<rect width="100%" height="100%" fill="white"/>
<path d="M 22.660 19.000 L 22.660 29.000 L 14.000 34.000 L 16.887 39.000 L 22.660 39.000 L 22.660 49.000 L 14.000 54.000 L 16.887 59.000 L 22.660 59.000 L 22.660 69.000 L 14.000 74.000 L 16.887 79.000 L 22.660 79.000 L 22.660 89.000 L 14.000 94.000 L 16.887 99.000 L 22.660 99.000 L 28.434 99.000 L 31.321 94.000 L 39.981 99.000 L 48.641 94.000 L 45.754 89.000 L 39.981 89.000 L 39.981 79.000 L 48.641 74.000 L 45.754 69.000 L 39.981 69.000 L 39.981 59.000 L 48.641 54.000 L 45.754 49.000 L 39.981 49.000 L 39.981 39.000 L 48.641 34.000 L 45.754 29.000 L 39.981 29.000 L 39.981 19.000 L 31.321 14.000 L 28.434 19.000 Z " fill="#dddddd" stroke="black" stroke-width="1.50" fill-rule="evenodd"/>
<path d="M 39.981 19.000 L 31.321 14.000 L 28.434 19.000 L 22.660 19.000 L 22.660 29.000 L 14.000 34.000 L 16.887 39.000 L 22.660 39.000 L 28.434 39.000 L 31.321 34.000 L 39.981 39.000 L 48.641 34.000 L 45.754 29.000 L 39.981 29.000 Z " fill="#d9e9f7" stroke="#666666" stroke-width="0.80" fill-rule="evenodd"/>
<path d="M 39.981 39.000 L 31.321 34.000 L 28.434 39.000 L 22.660 39.000 L 22.660 49.000 L 14.000 54.000 L 16.887 59.000 L 22.660 59.000 L 28.434 59.000 L 31.321 54.000 L 39.981 59.000 L 48.641 54.000 L 45.754 49.000 L 39.981 49.000 Z " fill="#d9e9f7" stroke="#666666" stroke-width="0.80" fill-rule="evenodd"/>
<path d="M 39.981 59.000 L 31.321 54.000 L 28.434 59.000 L 22.660 59.000 L 22.660 69.000 L 14.000 74.000 L 16.887 79.000 L 22.660 79.000 L 28.434 79.000 L 31.321 74.000 L 39.981 79.000 L 48.641 74.000 L 45.754 69.000 L 39.981 69.000 Z " fill="#d9e9f7" stroke="#666666" stroke-width="0.80" fill-rule="evenodd"/>
<path d="M 39.981 79.000 L 31.321 74.000 L 28.434 79.000 L 22.660 79.000 L 22.660 89.000 L 14.000 94.000 L 16.887 99.000 L 22.660 99.000 L 28.434 99.000 L 31.321 94.000 L 39.981 99.000 L 48.641 94.000 L 45.754 89.000 L 39.981 89.000 Z " fill="#d9e9f7" stroke="#666666" stroke-width="0.80" fill-rule="evenodd"/>
<circle cx="28.434" cy="39.000" r="2.1" fill="#000000" stroke="none"/>
<circle cx="28.434" cy="59.000" r="2.1" fill="#000000" stroke="none"/>
<circle cx="28.434" cy="79.000" r="2.1" fill="#000000" stroke="none"/>
<circle cx="31.321" cy="34.000" r="2.1" fill="#000000" stroke="none"/>
<circle cx="31.321" cy="54.000" r="2.1" fill="#000000" stroke="none"/>
<circle cx="31.321" cy="74.000" r="2.1" fill="#000000" stroke="none"/>
</svg>
