<svg xmlns="http://www.w3.org/2000/svg" width="115" height="108" viewBox="0 0 115 108">
<rect width="100%" height="100%" fill="white"/>
<path d="M 22.660 34.000 L 25.547 39.000 L 22.660 44.000 L 19.774 49.000 L 22.660 54.000 L 14.000 59.000 L 14.000 69.000 L 19.774 69.000 L 22.660 74.000 L 25.547 79.000 L 31.321 79.000 L 31.321 89.000 L 39.981 94.000 L 42.868 89.000 L 39.981 84.000 L 48.641 79.000 L 57.301 84.000 L 60.188 79.000 L 65.962 79.000 L 71.735 79.000 L 74.622 74.000 L 83.282 79.000 L 91.942 74.000 L 89.056 69.000 L 91.942 64.000 L 94.829 59.000 L 91.942 54.000 L 100.603 49.000 L 100.603 39.000 L 94.829 39.000 L 91.942 34.000 L 100.603 29.000 L 100.603 19.000 L 94.829 19.000 L 91.942 14.000 L 83.282 19.000 L 74.622 14.000 L 71.735 19.000 L 74.622 24.000 L 65.962 29.000 L 57.301 24.000 L 54.415 29.000 L 48.641 29.000 L 42.868 29.000 L 39.981 34.000 L 31.321 29.000 Z " fill="#dddddd" stroke="black" stroke-width="1.50" fill-rule="evenodd"/>
<path d="M 65.962 69.000 L 65.962 59.000 L 60.188 59.000 L 57.301 54.000 L 48.641 59.000 L 39.981 54.000 L 37.094 59.000 L 39.981 64.000 L 42.868 69.000 L 48.641 69.000 L 48.641 79.000 L 57.301 84.000 L 60.188 79.000 L 57.301 74.000 Z " fill="#d9e9f7" stroke="#666666" stroke-width="0.80" fill-rule="evenodd"/>
<path d="M 83.282 59.000 L 74.622 54.000 L 71.735 59.000 L 65.962 59.000 L 65.962 69.000 L 57.301 74.000 L 60.188 79.000 L 65.962 79.000 L 71.735 79.000 L 74.622 74.000 L 83.282 79.000 L 91.942 74.000 L 89.056 69.000 L 83.282 69.000 Z " fill="#d9e9f7" stroke="#666666" stroke-width="0.80" fill-rule="evenodd"/>
<path d="M 83.282 39.000 L 83.282 29.000 L 77.509 29.000 L 74.622 24.000 L 65.962 29.000 L 57.301 24.000 L 54.415 29.000 L 57.301 34.000 L 60.188 39.000 L 65.962 39.000 L 65.962 49.000 L 74.622 54.000 L 77.509 49.000 L 74.622 44.000 Z " fill="#d9e9f7" stroke="#666666" stroke-width="0.80" fill-rule="evenodd"/>
<path d="M 83.282 39.000 L 74.622 44.000 L 77.509 49.000 L 74.622 54.000 L 83.282 59.000 L 83.282 69.000 L 89.056 69.000 L 91.942 64.000 L 94.829 59.000 L 91.942 54.000 L 100.603 49.000 L 100.603 39.000 L 94.829 39.000 L 91.942 44.000 Z " fill="#d9e9f7" stroke="#666666" stroke-width="0.80" fill-rule="evenodd"/>
<path d="M 31.321 49.000 L 39.981 54.000 L 42.868 49.000 L 48.641 49.000 L 48.641 39.000 L 57.301 34.000 L 54.415 29.000 L 48.641 29.000 L 42.868 29.000 L 39.981 34.000 L 31.321 29.000 L 22.660 34.000 L 25.547 39.000 L 31.321 39.000 Z " fill="#d9e9f7" stroke="#666666" stroke-width="0.80" fill-rule="evenodd"/>
<path d="M 31.321 69.000 L 39.981 64.000 L 37.094 59.000 L 39.981 54.000 L 31.321 49.000 L 31.321 39.000 L 25.547 39.000 L 22.660 44.000 L 19.774 49.000 L 22.660 54.000 L 14.000 59.000 L 14.000 69.000 L 19.774 69.000 L 22.660 64.000 Z " fill="#d9e9f7" stroke="#666666" stroke-width="0.80" fill-rule="evenodd"/>
<path d="M 100.603 29.000 L 100.603 19.000 L 94.829 19.000 L 91.942 14.000 L 83.282 19.000 L 74.622 14.000 L 71.735 19.000 L 74.622 24.000 L 77.509 29.000 L 83.282 29.000 L 83.282 39.000 L 91.942 44.000 L 94.829 39.000 L 91.942 34.000 Z " fill="#d9e9f7" stroke="#666666" stroke-width="0.80" fill-rule="evenodd"/>
<path d="M 48.641 79.000 L 48.641 69.000 L 42.868 69.000 L 39.981 64.000 L 31.321 69.000 L 22.660 64.000 L 19.774 69.000 L 22.660 74.000 L 25.547 79.000 L 31.321 79.000 L 31.321 89.000 L 39.981 94.000 L 42.868 89.000 L 39.981 84.000 Z " fill="#d9e9f7" stroke="#666666" stroke-width="0.80" fill-rule="evenodd"/>
<path d="M 48.641 49.000 L 42.868 49.000 L 39.981 54.000 L 48.641 59.000 L 57.301 54.000 L 60.188 59.000 L 65.962 59.000 L 71.735 59.000 L 74.622 54.000 L 65.962 49.000 L 65.962 39.000 L 60.188 39.000 L 57.301 34.000 L 48.641 39.000 Z " fill="#bcd0e2" stroke="#666666" stroke-width="0.80" fill-rule="evenodd"/>
<circle cx="37.094" cy="59.000" r="2.1" fill="#000000" stroke="none"/>
<circle cx="42.868" cy="49.000" r="2.1" fill="#000000" stroke="none"/>
<circle cx="42.868" cy="69.000" r="2.1" fill="#000000" stroke="none"/>
<circle cx="60.188" cy="39.000" r="2.1" fill="#000000" stroke="none"/>
<circle cx="60.188" cy="59.000" r="2.1" fill="#000000" stroke="none"/>
<circle cx="77.509" cy="29.000" r="2.1" fill="#000000" stroke="none"/>
<circle cx="71.735" cy="59.000" r="2.1" fill="#000000" stroke="none"/>
<circle cx="77.509" cy="49.000" r="2.1" fill="#000000" stroke="none"/>
<circle cx="31.321" cy="39.000" r="2.1" fill="#000000" stroke="none"/>
<circle cx="57.301" cy="34.000" r="2.1" fill="#000000" stroke="none"/>
<circle cx="22.660" cy="64.000" r="2.1" fill="#000000" stroke="none"/>
<circle cx="39.981" cy="54.000" r="2.1" fill="#000000" stroke="none"/>
<circle cx="48.641" cy="49.000" r="2.1" fill="#000000" stroke="none"/>
<circle cx="65.962" cy="39.000" r="2.1" fill="#000000" stroke="none"/>
<circle cx="83.282" cy="29.000" r="2.1" fill="#000000" stroke="none"/>
<circle cx="39.981" cy="64.000" r="2.1" fill="#000000" stroke="none"/>
<circle cx="57.301" cy="54.000" r="2.1" fill="#000000" stroke="none"/>
<circle cx="74.622" cy="44.000" r="2.1" fill="#000000" stroke="none"/>
<circle cx="48.641" cy="69.000" r="2.1" fill="#000000" stroke="none"/>
<circle cx="65.962" cy="59.000" r="2.1" fill="#000000" stroke="none"/>
<circle cx="74.622" cy="54.000" r="2.1" fill="#000000" stroke="none"/>
<circle cx="91.942" cy="44.000" r="2.1" fill="#000000" stroke="none"/>
<circle cx="57.301" cy="74.000" r="2.1" fill="#000000" stroke="none"/>
<circle cx="83.282" cy="69.000" r="2.1" fill="#000000" stroke="none"/>
<circle cx="31.321" cy="49.000" r="2.1" fill="#000000" stroke="none"/>
<circle cx="48.641" cy="39.000" r="2.1" fill="#000000" stroke="none"/>
<circle cx="31.321" cy="69.000" r="2.1" fill="#000000" stroke="none"/>
<circle cx="48.641" cy="59.000" r="2.1" fill="#000000" stroke="none"/>
<circle cx="65.962" cy="49.000" r="2.1" fill="#000000" stroke="none"/>
<circle cx="83.282" cy="39.000" r="2.1" fill="#000000" stroke="none"/>
<circle cx="65.962" cy="69.000" r="2.1" fill="#000000" stroke="none"/>
<circle cx="83.282" cy="59.000" r="2.1" fill="#000000" stroke="none"/>
</svg>
