<svg xmlns="http://www.w3.org/2000/svg" width="1055" height="588" viewBox="0 0 1055 588">
<rect width="100%" height="100%" fill="white"/>
<path d="M 38.537 49.000 L 41.424 54.000 L 44.311 59.000 L 50.084 59.000 L 50.084 69.000 L 58.745 74.000 L 61.631 69.000 L 58.745 64.000 L 67.405 59.000 L 67.405 49.000 L 73.178 49.000 L 76.065 44.000 L 84.725 49.000 L 93.386 44.000 L 90.499 39.000 L 84.725 39.000 L 84.725 29.000 L 76.065 24.000 L 73.178 29.000 L 67.405 29.000 L 67.405 39.000 L 58.745 44.000 L 50.084 49.000 L 41.424 44.000 Z " fill="#dddddd" stroke="black" stroke-width="1.50" fill-rule="evenodd"/>
<path d="M 170.460 34.000 L 173.347 39.000 L 176.234 44.000 L 182.007 44.000 L 182.007 54.000 L 190.668 59.000 L 193.554 54.000 L 199.328 54.000 L 199.328 64.000 L 207.988 69.000 L 210.875 64.000 L 216.648 64.000 L 216.648 54.000 L 225.309 49.000 L 222.422 44.000 L 216.648 44.000 L 210.875 44.000 L 207.988 49.000 L 199.328 44.000 L 199.328 34.000 L 193.554 34.000 L 190.668 29.000 L 182.007 34.000 L 173.347 29.000 Z " fill="#dddddd" stroke="black" stroke-width="1.50" fill-rule="evenodd"/>
<path d="M 306.714 39.000 L 303.827 44.000 L 312.487 49.000 L 321.147 44.000 L 324.034 49.000 L 321.147 54.000 L 329.808 59.000 L 329.808 69.000 L 335.581 69.000 L 338.468 74.000 L 347.128 69.000 L 347.128 59.000 L 352.902 59.000 L 355.788 54.000 L 347.128 49.000 L 338.468 54.000 L 335.581 49.000 L 338.468 44.000 L 329.808 39.000 L 329.808 29.000 L 324.034 29.000 L 321.147 24.000 L 312.487 29.000 L 312.487 39.000 Z " fill="#dddddd" stroke="black" stroke-width="1.50" fill-rule="evenodd"/>
<path d="M 438.637 41.500 L 435.750 46.500 L 444.410 51.500 L 453.070 46.500 L 455.957 51.500 L 461.731 51.500 L 461.731 61.500 L 453.070 66.500 L 455.957 71.500 L 461.731 71.500 L 467.504 71.500 L 470.391 66.500 L 479.051 71.500 L 487.711 66.500 L 484.825 61.500 L 479.051 61.500 L 479.051 51.500 L 470.391 46.500 L 461.731 41.500 L 461.731 31.500 L 455.957 31.500 L 453.070 26.500 L 444.410 31.500 L 444.410 41.500 Z " fill="#dddddd" stroke="black" stroke-width="1.50" fill-rule="evenodd"/>
<path d="M 570.560 41.500 L 567.673 46.500 L 576.333 51.500 L 576.333 61.500 L 582.107 61.500 L 584.993 56.500 L 587.880 51.500 L 593.654 51.500 L 593.654 61.500 L 602.314 66.500 L 605.201 61.500 L 610.974 61.500 L 610.974 51.500 L 619.634 46.500 L 616.748 41.500 L 610.974 41.500 L 605.201 41.500 L 602.314 46.500 L 593.654 41.500 L 593.654 31.500 L 587.880 31.500 L 584.993 36.500 L 576.333 31.500 L 567.673 36.500 Z " fill="#dddddd" stroke="black" stroke-width="1.50" fill-rule="evenodd"/>
<path d="M 702.483 46.500 L 699.596 51.500 L 708.256 56.500 L 716.917 51.500 L 719.803 56.500 L 725.577 56.500 L 731.350 56.500 L 734.237 61.500 L 737.124 66.500 L 742.897 66.500 L 742.897 56.500 L 751.558 51.500 L 748.671 46.500 L 751.558 41.500 L 742.897 36.500 L 734.237 41.500 L 731.350 36.500 L 725.577 36.500 L 719.803 36.500 L 716.917 31.500 L 708.256 36.500 L 708.256 46.500 Z " fill="#dddddd" stroke="black" stroke-width="1.50" fill-rule="evenodd"/>
<path d="M 834.406 46.500 L 831.519 51.500 L 840.179 56.500 L 848.840 51.500 L 851.726 56.500 L 857.500 56.500 L 863.273 56.500 L 866.160 61.500 L 869.047 66.500 L 874.820 66.500 L 874.820 56.500 L 883.481 51.500 L 880.594 46.500 L 883.481 41.500 L 874.820 36.500 L 866.160 41.500 L 863.273 36.500 L 857.500 36.500 L 851.726 36.500 L 848.840 31.500 L 840.179 36.500 L 840.179 46.500 Z " fill="#dddddd" stroke="black" stroke-width="1.50" fill-rule="evenodd"/>
<path d="M 964.885 49.000 L 961.999 54.000 L 970.659 59.000 L 979.319 54.000 L 982.206 59.000 L 987.979 59.000 L 993.753 59.000 L 996.640 64.000 L 1005.300 59.000 L 1005.300 49.000 L 1011.073 49.000 L 1013.960 44.000 L 1016.847 39.000 L 1013.960 34.000 L 1005.300 39.000 L 996.640 34.000 L 993.753 39.000 L 987.979 39.000 L 982.206 39.000 L 979.319 34.000 L 970.659 39.000 L 970.659 49.000 Z " fill="#dddddd" stroke="black" stroke-width="1.50" fill-rule="evenodd"/>
<path d="M 41.424 147.000 L 38.537 152.000 L 47.198 157.000 L 55.858 152.000 L 58.745 157.000 L 64.518 157.000 L 70.292 157.000 L 73.178 162.000 L 81.839 157.000 L 81.839 147.000 L 87.612 147.000 L 90.499 142.000 L 93.386 137.000 L 90.499 132.000 L 81.839 137.000 L 73.178 132.000 L 70.292 137.000 L 64.518 137.000 L 58.745 137.000 L 55.858 132.000 L 47.198 137.000 L 47.198 147.000 Z " fill="#dddddd" stroke="black" stroke-width="1.50" fill-rule="evenodd"/>
<path d="M 174.791 142.000 L 177.677 147.000 L 180.564 152.000 L 186.338 152.000 L 186.338 162.000 L 194.998 167.000 L 197.885 162.000 L 194.998 157.000 L 203.658 152.000 L 212.318 157.000 L 215.205 152.000 L 212.318 147.000 L 220.979 142.000 L 220.979 132.000 L 215.205 132.000 L 212.318 127.000 L 203.658 132.000 L 194.998 127.000 L 192.111 132.000 L 194.998 137.000 L 186.338 142.000 L 177.677 137.000 Z " fill="#dddddd" stroke="black" stroke-width="1.50" fill-rule="evenodd"/>
<path d="M 306.714 142.000 L 309.600 147.000 L 312.487 152.000 L 318.261 152.000 L 318.261 162.000 L 326.921 167.000 L 329.808 162.000 L 326.921 157.000 L 335.581 152.000 L 344.241 157.000 L 347.128 152.000 L 344.241 147.000 L 352.902 142.000 L 352.902 132.000 L 347.128 132.000 L 344.241 127.000 L 335.581 132.000 L 326.921 127.000 L 324.034 132.000 L 326.921 137.000 L 318.261 142.000 L 309.600 137.000 Z " fill="#dddddd" stroke="black" stroke-width="1.50" fill-rule="evenodd"/>
<path d="M 434.307 139.500 L 437.193 144.500 L 440.080 149.500 L 445.854 149.500 L 445.854 159.500 L 454.514 164.500 L 457.401 159.500 L 454.514 154.500 L 463.174 149.500 L 471.834 154.500 L 474.721 149.500 L 480.495 149.500 L 480.495 139.500 L 489.155 134.500 L 486.268 129.500 L 480.495 129.500 L 474.721 129.500 L 471.834 134.500 L 463.174 129.500 L 454.514 134.500 L 445.854 139.500 L 437.193 134.500 Z " fill="#dddddd" stroke="black" stroke-width="1.50" fill-rule="evenodd"/>
<path d="M 566.230 139.500 L 569.116 144.500 L 572.003 149.500 L 577.777 149.500 L 577.777 159.500 L 586.437 164.500 L 589.324 159.500 L 586.437 154.500 L 595.097 149.500 L 603.757 154.500 L 606.644 149.500 L 612.418 149.500 L 612.418 139.500 L 621.078 134.500 L 618.191 129.500 L 612.418 129.500 L 606.644 129.500 L 603.757 134.500 L 595.097 129.500 L 586.437 134.500 L 577.777 139.500 L 569.116 134.500 Z " fill="#dddddd" stroke="black" stroke-width="1.50" fill-rule="evenodd"/>
<path d="M 702.483 152.000 L 699.596 157.000 L 708.256 162.000 L 716.917 157.000 L 719.803 162.000 L 725.577 162.000 L 731.350 162.000 L 734.237 157.000 L 737.124 152.000 L 742.897 152.000 L 742.897 142.000 L 751.558 137.000 L 748.671 132.000 L 742.897 132.000 L 737.124 132.000 L 734.237 137.000 L 725.577 132.000 L 716.917 137.000 L 708.256 142.000 L 708.256 152.000 Z " fill="#dddddd" stroke="black" stroke-width="1.50" fill-rule="evenodd"/>
<path d="M 834.406 152.000 L 831.519 157.000 L 840.179 162.000 L 848.840 157.000 L 851.726 162.000 L 857.500 162.000 L 863.273 162.000 L 866.160 157.000 L 869.047 152.000 L 874.820 152.000 L 874.820 142.000 L 883.481 137.000 L 880.594 132.000 L 874.820 132.000 L 869.047 132.000 L 866.160 137.000 L 857.500 132.000 L 848.840 137.000 L 840.179 142.000 L 840.179 152.000 Z " fill="#dddddd" stroke="black" stroke-width="1.50" fill-rule="evenodd"/>
<path d="M 966.329 152.000 L 963.442 157.000 L 972.102 162.000 L 980.763 157.000 L 983.649 162.000 L 989.423 162.000 L 995.196 162.000 L 998.083 157.000 L 1000.970 152.000 L 1006.743 152.000 L 1006.743 142.000 L 1015.404 137.000 L 1012.517 132.000 L 1006.743 132.000 L 1000.970 132.000 L 998.083 137.000 L 989.423 132.000 L 980.763 137.000 L 972.102 142.000 L 972.102 152.000 Z " fill="#dddddd" stroke="black" stroke-width="1.50" fill-rule="evenodd"/>
<path d="M 47.198 245.000 L 50.084 250.000 L 52.971 255.000 L 58.745 255.000 L 58.745 265.000 L 67.405 270.000 L 70.292 265.000 L 67.405 260.000 L 76.065 255.000 L 76.065 245.000 L 81.839 245.000 L 84.725 240.000 L 76.065 235.000 L 76.065 225.000 L 70.292 225.000 L 67.405 220.000 L 58.745 225.000 L 58.745 235.000 L 52.971 235.000 L 50.084 240.000 Z " fill="#dddddd" stroke="black" stroke-width="1.50" fill-rule="evenodd"/>
<path d="M 179.121 245.000 L 182.007 250.000 L 184.894 255.000 L 190.668 255.000 L 190.668 265.000 L 199.328 270.000 L 202.215 265.000 L 199.328 260.000 L 207.988 255.000 L 207.988 245.000 L 213.762 245.000 L 216.648 240.000 L 207.988 235.000 L 207.988 225.000 L 202.215 225.000 L 199.328 220.000 L 190.668 225.000 L 190.668 235.000 L 184.894 235.000 L 182.007 240.000 Z " fill="#dddddd" stroke="black" stroke-width="1.50" fill-rule="evenodd"/>
<path d="M 311.044 245.000 L 313.930 250.000 L 316.817 255.000 L 322.591 255.000 L 322.591 265.000 L 331.251 270.000 L 334.138 265.000 L 331.251 260.000 L 339.911 255.000 L 339.911 245.000 L 345.685 245.000 L 348.572 240.000 L 339.911 235.000 L 339.911 225.000 L 334.138 225.000 L 331.251 220.000 L 322.591 225.000 L 322.591 235.000 L 316.817 235.000 L 313.930 240.000 Z " fill="#dddddd" stroke="black" stroke-width="1.50" fill-rule="evenodd"/>
<path d="M 434.307 232.500 L 431.420 237.500 L 440.080 242.500 L 448.740 237.500 L 451.627 242.500 L 457.401 242.500 L 457.401 252.500 L 448.740 257.500 L 451.627 262.500 L 448.740 267.500 L 457.401 272.500 L 466.061 267.500 L 468.948 272.500 L 474.721 272.500 L 474.721 262.500 L 466.061 257.500 L 468.948 252.500 L 466.061 247.500 L 474.721 242.500 L 483.381 247.500 L 486.268 242.500 L 492.042 242.500 L 492.042 232.500 L 483.381 227.500 L 486.268 222.500 L 483.381 217.500 L 474.721 222.500 L 474.721 232.500 L 468.948 232.500 L 466.061 237.500 L 457.401 232.500 L 457.401 222.500 L 451.627 222.500 L 448.740 217.500 L 440.080 222.500 L 440.080 232.500 Z " fill="#dddddd" stroke="black" stroke-width="1.50" fill-rule="evenodd"/>
<path d="M 569.116 232.500 L 566.230 237.500 L 574.890 242.500 L 583.550 237.500 L 586.437 242.500 L 592.210 242.500 L 592.210 252.500 L 583.550 257.500 L 586.437 262.500 L 583.550 267.500 L 592.210 272.500 L 600.871 267.500 L 603.757 272.500 L 609.531 272.500 L 609.531 262.500 L 600.871 257.500 L 603.757 252.500 L 600.871 247.500 L 609.531 242.500 L 609.531 232.500 L 615.304 232.500 L 618.191 227.500 L 621.078 222.500 L 618.191 217.500 L 609.531 222.500 L 600.871 217.500 L 597.984 222.500 L 592.210 222.500 L 586.437 222.500 L 583.550 217.500 L 574.890 222.500 L 574.890 232.500 Z " fill="#dddddd" stroke="black" stroke-width="1.50" fill-rule="evenodd"/>
<path d="M 698.153 235.000 L 695.266 240.000 L 703.926 245.000 L 712.586 240.000 L 715.473 245.000 L 712.586 250.000 L 721.247 255.000 L 721.247 265.000 L 727.020 265.000 L 729.907 270.000 L 738.567 265.000 L 738.567 255.000 L 744.341 255.000 L 747.227 250.000 L 750.114 245.000 L 755.888 245.000 L 755.888 235.000 L 747.227 230.000 L 750.114 225.000 L 747.227 220.000 L 738.567 225.000 L 738.567 235.000 L 732.794 235.000 L 729.907 240.000 L 721.247 235.000 L 721.247 225.000 L 715.473 225.000 L 712.586 220.000 L 703.926 225.000 L 703.926 235.000 Z " fill="#dddddd" stroke="black" stroke-width="1.50" fill-rule="evenodd"/>
<path d="M 832.962 232.500 L 830.076 237.500 L 838.736 242.500 L 847.396 237.500 L 850.283 242.500 L 856.056 242.500 L 856.056 252.500 L 864.717 257.500 L 861.830 262.500 L 864.717 267.500 L 867.603 272.500 L 873.377 272.500 L 873.377 262.500 L 882.037 257.500 L 879.150 252.500 L 882.037 247.500 L 873.377 242.500 L 873.377 232.500 L 879.150 232.500 L 882.037 227.500 L 884.924 222.500 L 882.037 217.500 L 873.377 222.500 L 864.717 217.500 L 861.830 222.500 L 856.056 222.500 L 850.283 222.500 L 847.396 217.500 L 838.736 222.500 L 838.736 232.500 Z " fill="#dddddd" stroke="black" stroke-width="1.50" fill-rule="evenodd"/>
<path d="M 964.885 232.500 L 961.999 237.500 L 970.659 242.500 L 970.659 252.500 L 976.432 252.500 L 979.319 257.500 L 987.979 252.500 L 996.640 257.500 L 993.753 262.500 L 996.640 267.500 L 999.526 272.500 L 1005.300 272.500 L 1005.300 262.500 L 1013.960 257.500 L 1011.073 252.500 L 1013.960 247.500 L 1005.300 242.500 L 1005.300 232.500 L 1011.073 232.500 L 1013.960 227.500 L 1016.847 222.500 L 1013.960 217.500 L 1005.300 222.500 L 996.640 217.500 L 993.753 222.500 L 987.979 222.500 L 987.979 232.500 L 979.319 237.500 L 976.432 232.500 L 970.659 232.500 Z " fill="#dddddd" stroke="black" stroke-width="1.50" fill-rule="evenodd"/>
<path d="M 41.424 333.000 L 35.651 333.000 L 35.651 343.000 L 44.311 348.000 L 41.424 353.000 L 44.311 358.000 L 52.971 353.000 L 52.971 343.000 L 58.745 343.000 L 61.631 348.000 L 64.518 353.000 L 70.292 353.000 L 70.292 363.000 L 78.952 368.000 L 81.839 363.000 L 78.952 358.000 L 87.612 353.000 L 87.612 343.000 L 93.386 343.000 L 96.272 338.000 L 87.612 333.000 L 87.612 323.000 L 81.839 323.000 L 78.952 318.000 L 70.292 323.000 L 70.292 333.000 L 64.518 333.000 L 61.631 328.000 L 52.971 333.000 L 44.311 328.000 Z " fill="#dddddd" stroke="black" stroke-width="1.50" fill-rule="evenodd"/>
<path d="M 174.791 343.000 L 171.904 348.000 L 180.564 353.000 L 189.224 348.000 L 192.111 353.000 L 189.224 358.000 L 186.338 363.000 L 189.224 368.000 L 197.885 363.000 L 206.545 368.000 L 209.432 363.000 L 215.205 363.000 L 215.205 353.000 L 206.545 348.000 L 209.432 343.000 L 215.205 343.000 L 220.979 343.000 L 223.865 338.000 L 215.205 333.000 L 215.205 323.000 L 209.432 323.000 L 206.545 318.000 L 197.885 323.000 L 197.885 333.000 L 192.111 333.000 L 189.224 328.000 L 186.338 323.000 L 180.564 323.000 L 180.564 333.000 L 171.904 338.000 Z " fill="#dddddd" stroke="black" stroke-width="1.50" fill-rule="evenodd"/>
<path d="M 302.383 333.000 L 305.270 338.000 L 308.157 343.000 L 313.930 343.000 L 313.930 353.000 L 322.591 358.000 L 325.477 353.000 L 331.251 353.000 L 331.251 363.000 L 339.911 368.000 L 342.798 363.000 L 348.572 363.000 L 348.572 353.000 L 357.232 348.000 L 354.345 343.000 L 348.572 343.000 L 342.798 343.000 L 339.911 338.000 L 348.572 333.000 L 348.572 323.000 L 342.798 323.000 L 339.911 318.000 L 331.251 323.000 L 322.591 318.000 L 319.704 323.000 L 322.591 328.000 L 313.930 333.000 L 305.270 328.000 Z " fill="#dddddd" stroke="black" stroke-width="1.50" fill-rule="evenodd"/>
<path d="M 434.307 340.500 L 437.193 345.500 L 440.080 350.500 L 445.854 350.500 L 445.854 360.500 L 454.514 365.500 L 463.174 370.500 L 471.834 365.500 L 474.721 370.500 L 480.495 370.500 L 480.495 360.500 L 471.834 355.500 L 474.721 350.500 L 471.834 345.500 L 468.948 340.500 L 471.834 335.500 L 480.495 340.500 L 489.155 335.500 L 486.268 330.500 L 480.495 330.500 L 480.495 320.500 L 471.834 315.500 L 468.948 320.500 L 463.174 320.500 L 463.174 330.500 L 454.514 335.500 L 445.854 340.500 L 437.193 335.500 Z " fill="#dddddd" stroke="black" stroke-width="1.50" fill-rule="evenodd"/>
<path d="M 569.116 333.000 L 566.230 338.000 L 574.890 343.000 L 583.550 338.000 L 586.437 343.000 L 583.550 348.000 L 592.210 353.000 L 592.210 363.000 L 597.984 363.000 L 600.871 368.000 L 609.531 363.000 L 609.531 353.000 L 615.304 353.000 L 618.191 348.000 L 609.531 343.000 L 609.531 333.000 L 615.304 333.000 L 618.191 328.000 L 621.078 323.000 L 618.191 318.000 L 609.531 323.000 L 600.871 318.000 L 597.984 323.000 L 592.210 323.000 L 586.437 323.000 L 583.550 318.000 L 574.890 323.000 L 574.890 333.000 Z " fill="#dddddd" stroke="black" stroke-width="1.50" fill-rule="evenodd"/>
<path d="M 702.483 330.500 L 699.596 335.500 L 708.256 340.500 L 708.256 350.500 L 702.483 350.500 L 699.596 355.500 L 708.256 360.500 L 716.917 355.500 L 719.803 360.500 L 725.577 360.500 L 731.350 360.500 L 734.237 365.500 L 737.124 370.500 L 742.897 370.500 L 742.897 360.500 L 751.558 355.500 L 748.671 350.500 L 751.558 345.500 L 742.897 340.500 L 734.237 345.500 L 731.350 340.500 L 734.237 335.500 L 725.577 330.500 L 725.577 320.500 L 719.803 320.500 L 716.917 315.500 L 708.256 320.500 L 708.256 330.500 Z " fill="#dddddd" stroke="black" stroke-width="1.50" fill-rule="evenodd"/>
<path d="M 830.076 343.000 L 832.962 348.000 L 835.849 353.000 L 841.623 353.000 L 841.623 363.000 L 850.283 368.000 L 853.170 363.000 L 858.943 363.000 L 864.717 363.000 L 867.603 358.000 L 876.264 363.000 L 884.924 358.000 L 882.037 353.000 L 876.264 353.000 L 876.264 343.000 L 884.924 338.000 L 882.037 333.000 L 876.264 333.000 L 876.264 323.000 L 867.603 318.000 L 864.717 323.000 L 858.943 323.000 L 858.943 333.000 L 850.283 338.000 L 841.623 343.000 L 832.962 338.000 Z " fill="#dddddd" stroke="black" stroke-width="1.50" fill-rule="evenodd"/>
<path d="M 961.999 330.500 L 964.885 335.500 L 967.772 340.500 L 973.546 340.500 L 973.546 350.500 L 982.206 355.500 L 985.093 350.500 L 990.866 350.500 L 990.866 360.500 L 999.526 365.500 L 1002.413 360.500 L 1008.187 360.500 L 1008.187 350.500 L 1016.847 345.500 L 1013.960 340.500 L 1008.187 340.500 L 1008.187 330.500 L 1016.847 325.500 L 1013.960 320.500 L 1008.187 320.500 L 1002.413 320.500 L 999.526 325.500 L 990.866 320.500 L 982.206 325.500 L 973.546 330.500 L 964.885 325.500 Z " fill="#dddddd" stroke="black" stroke-width="1.50" fill-rule="evenodd"/>
<path d="M 38.537 443.500 L 35.651 448.500 L 44.311 453.500 L 52.971 448.500 L 55.858 453.500 L 61.631 453.500 L 67.405 453.500 L 70.292 458.500 L 78.952 453.500 L 87.612 458.500 L 90.499 453.500 L 96.272 453.500 L 96.272 443.500 L 87.612 438.500 L 90.499 433.500 L 87.612 428.500 L 84.725 423.500 L 78.952 423.500 L 73.178 423.500 L 70.292 428.500 L 61.631 423.500 L 52.971 428.500 L 44.311 433.500 L 44.311 443.500 Z " fill="#dddddd" stroke="black" stroke-width="1.50" fill-rule="evenodd"/>
<path d="M 170.460 441.000 L 173.347 446.000 L 176.234 451.000 L 182.007 451.000 L 182.007 461.000 L 190.668 466.000 L 193.554 461.000 L 199.328 461.000 L 205.101 461.000 L 207.988 456.000 L 216.648 461.000 L 225.309 456.000 L 222.422 451.000 L 216.648 451.000 L 216.648 441.000 L 207.988 436.000 L 199.328 431.000 L 199.328 421.000 L 193.554 421.000 L 190.668 416.000 L 182.007 421.000 L 182.007 431.000 L 176.234 431.000 L 173.347 436.000 Z " fill="#dddddd" stroke="black" stroke-width="1.50" fill-rule="evenodd"/>
<path d="M 302.383 426.000 L 305.270 431.000 L 308.157 436.000 L 313.930 436.000 L 313.930 446.000 L 322.591 451.000 L 331.251 456.000 L 331.251 466.000 L 337.024 466.000 L 339.911 461.000 L 342.798 456.000 L 339.911 451.000 L 348.572 446.000 L 348.572 436.000 L 348.572 426.000 L 357.232 421.000 L 354.345 416.000 L 348.572 416.000 L 342.798 416.000 L 339.911 421.000 L 331.251 416.000 L 322.591 421.000 L 313.930 426.000 L 305.270 421.000 Z " fill="#dddddd" stroke="black" stroke-width="1.50" fill-rule="evenodd"/>
<path d="M 429.976 436.000 L 427.090 441.000 L 435.750 446.000 L 444.410 441.000 L 447.297 446.000 L 453.070 446.000 L 458.844 446.000 L 461.731 451.000 L 453.070 456.000 L 453.070 466.000 L 458.844 466.000 L 461.731 471.000 L 470.391 466.000 L 479.051 471.000 L 481.938 466.000 L 479.051 461.000 L 487.711 456.000 L 487.711 446.000 L 493.485 446.000 L 496.372 441.000 L 487.711 436.000 L 479.051 441.000 L 476.164 436.000 L 470.391 436.000 L 464.617 436.000 L 461.731 431.000 L 470.391 426.000 L 470.391 416.000 L 464.617 416.000 L 461.731 411.000 L 453.070 416.000 L 444.410 411.000 L 441.523 416.000 L 444.410 421.000 L 435.750 426.000 L 435.750 436.000 Z " fill="#dddddd" stroke="black" stroke-width="1.50" fill-rule="evenodd"/>
<path d="M 561.899 433.500 L 559.013 438.500 L 567.673 443.500 L 576.333 438.500 L 579.220 443.500 L 584.993 443.500 L 590.767 443.500 L 593.654 448.500 L 584.993 453.500 L 584.993 463.500 L 590.767 463.500 L 593.654 468.500 L 602.314 463.500 L 610.974 468.500 L 613.861 463.500 L 610.974 458.500 L 619.634 453.500 L 619.634 443.500 L 625.408 443.500 L 628.295 438.500 L 619.634 433.500 L 610.974 438.500 L 608.087 433.500 L 602.314 433.500 L 602.314 423.500 L 610.974 418.500 L 608.087 413.500 L 602.314 413.500 L 596.540 413.500 L 593.654 418.500 L 584.993 413.500 L 576.333 418.500 L 567.673 423.500 L 567.673 433.500 Z " fill="#dddddd" stroke="black" stroke-width="1.50" fill-rule="evenodd"/>
<path d="M 693.823 436.000 L 690.936 441.000 L 699.596 446.000 L 699.596 456.000 L 705.370 456.000 L 708.256 461.000 L 716.917 456.000 L 716.917 446.000 L 722.690 446.000 L 725.577 451.000 L 728.464 456.000 L 734.237 456.000 L 734.237 466.000 L 742.897 471.000 L 745.784 466.000 L 742.897 461.000 L 751.558 456.000 L 751.558 446.000 L 757.331 446.000 L 760.218 441.000 L 751.558 436.000 L 751.558 426.000 L 745.784 426.000 L 742.897 421.000 L 734.237 426.000 L 725.577 421.000 L 728.464 416.000 L 725.577 411.000 L 716.917 416.000 L 716.917 426.000 L 711.143 426.000 L 708.256 431.000 L 705.370 436.000 L 699.596 436.000 Z " fill="#dddddd" stroke="black" stroke-width="1.50" fill-rule="evenodd"/>
<path d="M 825.746 436.000 L 822.859 441.000 L 831.519 446.000 L 840.179 441.000 L 843.066 446.000 L 848.840 446.000 L 848.840 456.000 L 840.179 461.000 L 843.066 466.000 L 848.840 466.000 L 854.613 466.000 L 857.500 461.000 L 866.160 466.000 L 874.820 461.000 L 883.481 456.000 L 883.481 446.000 L 889.254 446.000 L 892.141 441.000 L 883.481 436.000 L 874.820 441.000 L 871.934 436.000 L 866.160 436.000 L 866.160 426.000 L 874.820 421.000 L 871.934 416.000 L 866.160 416.000 L 860.387 416.000 L 857.500 421.000 L 848.840 416.000 L 840.179 421.000 L 831.519 426.000 L 831.519 436.000 Z " fill="#dddddd" stroke="black" stroke-width="1.50" fill-rule="evenodd"/>
<path d="M 957.669 436.000 L 954.782 441.000 L 963.442 446.000 L 963.442 456.000 L 969.216 456.000 L 972.102 461.000 L 980.763 456.000 L 989.423 461.000 L 986.536 466.000 L 989.423 471.000 L 998.083 466.000 L 998.083 456.000 L 1003.857 456.000 L 1006.743 451.000 L 1009.630 446.000 L 1015.404 446.000 L 1021.177 446.000 L 1024.064 441.000 L 1015.404 436.000 L 1015.404 426.000 L 1009.630 426.000 L 1006.743 421.000 L 998.083 426.000 L 989.423 421.000 L 992.310 416.000 L 989.423 411.000 L 980.763 416.000 L 980.763 426.000 L 974.989 426.000 L 972.102 431.000 L 969.216 436.000 L 963.442 436.000 Z " fill="#dddddd" stroke="black" stroke-width="1.50" fill-rule="evenodd"/>
<path d="M 41.424 526.500 L 35.651 526.500 L 35.651 536.500 L 44.311 541.500 L 41.424 546.500 L 44.311 551.500 L 47.198 556.500 L 44.311 561.500 L 52.971 566.500 L 61.631 561.500 L 64.518 566.500 L 70.292 566.500 L 76.065 566.500 L 78.952 561.500 L 70.292 556.500 L 70.292 546.500 L 76.065 546.500 L 78.952 541.500 L 87.612 546.500 L 96.272 541.500 L 93.386 536.500 L 87.612 536.500 L 87.612 526.500 L 78.952 521.500 L 81.839 516.500 L 78.952 511.500 L 70.292 516.500 L 61.631 511.500 L 58.745 516.500 L 52.971 516.500 L 52.971 526.500 L 44.311 531.500 Z " fill="#dddddd" stroke="black" stroke-width="1.50" fill-rule="evenodd"/>
<path d="M 166.130 531.500 L 163.244 536.500 L 171.904 541.500 L 180.564 536.500 L 183.451 541.500 L 189.224 541.500 L 194.998 541.500 L 197.885 546.500 L 200.771 551.500 L 206.545 551.500 L 206.545 561.500 L 215.205 566.500 L 218.092 561.500 L 215.205 556.500 L 223.865 551.500 L 223.865 541.500 L 229.639 541.500 L 232.526 536.500 L 223.865 531.500 L 223.865 521.500 L 218.092 521.500 L 215.205 516.500 L 212.318 511.500 L 206.545 511.500 L 200.771 511.500 L 197.885 516.500 L 189.224 511.500 L 180.564 516.500 L 171.904 521.500 L 171.904 531.500 Z " fill="#dddddd" stroke="black" stroke-width="1.50" fill-rule="evenodd"/>
<path d="M 298.053 531.500 L 295.167 536.500 L 303.827 541.500 L 312.487 536.500 L 315.374 541.500 L 321.147 541.500 L 321.147 551.500 L 329.808 556.500 L 326.921 561.500 L 329.808 566.500 L 338.468 561.500 L 338.468 551.500 L 344.241 551.500 L 347.128 546.500 L 350.015 541.500 L 355.788 541.500 L 361.562 541.500 L 364.449 536.500 L 355.788 531.500 L 355.788 521.500 L 350.015 521.500 L 347.128 516.500 L 344.241 511.500 L 338.468 511.500 L 332.694 511.500 L 329.808 516.500 L 321.147 511.500 L 312.487 516.500 L 303.827 521.500 L 303.827 531.500 Z " fill="#dddddd" stroke="black" stroke-width="1.50" fill-rule="evenodd"/>
<path d="M 437.193 526.500 L 431.420 526.500 L 431.420 536.500 L 440.080 541.500 L 437.193 546.500 L 440.080 551.500 L 442.967 556.500 L 440.080 561.500 L 448.740 566.500 L 457.401 561.500 L 460.287 566.500 L 466.061 566.500 L 471.834 566.500 L 474.721 561.500 L 477.608 556.500 L 483.381 556.500 L 483.381 546.500 L 492.042 541.500 L 489.155 536.500 L 483.381 536.500 L 483.381 526.500 L 474.721 521.500 L 477.608 516.500 L 474.721 511.500 L 466.061 516.500 L 466.061 526.500 L 460.287 526.500 L 457.401 531.500 L 448.740 526.500 L 440.080 531.500 Z " fill="#dddddd" stroke="black" stroke-width="1.50" fill-rule="evenodd"/>
</svg>
