<svg xmlns="http://www.w3.org/2000/svg" width="771" height="1040">
<rect width="100%" height="100%" fill="white"/>
<path d="M547.73,551.25L534.20,559.06L534.20,574.69L543.22,574.69L547.73,566.88L561.27,574.69L574.80,566.88L570.29,559.06L574.80,551.25L561.27,543.44L561.27,527.81L552.24,527.81L547.73,535.62L543.22,543.44 Z" fill="#5b9bd5" fill-opacity="0.85" stroke="#333" stroke-width="1" stroke-linejoin="round"/>
<path d="M547.73,535.62L534.20,527.81L520.67,535.62L516.16,527.81L507.14,527.81L507.14,543.44L520.67,551.25L516.16,559.06L520.67,566.88L525.18,574.69L534.20,574.69L534.20,559.06L547.73,551.25L543.22,543.44 Z" fill="#f39c12" fill-opacity="0.85" stroke="#333" stroke-width="1" stroke-linejoin="round"/>
<path d="M547.73,598.12L561.27,605.94L574.80,598.12L570.29,590.31L561.27,590.31L561.27,574.69L547.73,566.88L543.22,574.69L534.20,574.69L534.20,590.31L520.67,598.12L525.18,605.94L534.20,605.94L543.22,605.94 Z" fill="#5b9bd5" fill-opacity="0.85" stroke="#333" stroke-width="1" stroke-linejoin="round"/>
<path d="M507.14,590.31L507.14,605.94L520.67,613.75L525.18,605.94L520.67,598.12L534.20,590.31L534.20,574.69L525.18,574.69L520.67,566.88L507.14,574.69L493.61,566.88L489.10,574.69L493.61,582.50L498.12,590.31 Z" fill="#5b9bd5" fill-opacity="0.85" stroke="#333" stroke-width="1" stroke-linejoin="round"/>
<path d="M493.61,551.25L480.08,559.06L480.08,574.69L489.10,574.69L493.61,566.88L507.14,574.69L520.67,566.88L516.16,559.06L520.67,551.25L507.14,543.44L507.14,527.81L498.12,527.81L493.61,535.62L489.10,543.44 Z" fill="#5b9bd5" fill-opacity="0.85" stroke="#333" stroke-width="1" stroke-linejoin="round"/>
<path d="M493.61,504.38L480.08,496.56L466.54,504.38L471.05,512.19L480.08,512.19L480.08,527.81L493.61,535.62L498.12,527.81L507.14,527.81L507.14,512.19L520.67,504.38L516.16,496.56L507.14,496.56L498.12,496.56 Z" fill="#5b9bd5" fill-opacity="0.85" stroke="#333" stroke-width="1" stroke-linejoin="round"/>
<path d="M534.20,512.19L534.20,496.56L520.67,488.75L516.16,496.56L520.67,504.38L507.14,512.19L507.14,527.81L516.16,527.81L520.67,535.62L534.20,527.81L547.73,535.62L552.24,527.81L547.73,520.00L543.22,512.19 Z" fill="#5b9bd5" fill-opacity="0.85" stroke="#333" stroke-width="1" stroke-linejoin="round"/>
<path d="M547.73,629.38L561.27,637.19L574.80,629.38L570.29,621.56L561.27,621.56L561.27,605.94L547.73,598.12L543.22,605.94L534.20,605.94L534.20,621.56L520.67,629.38L525.18,637.19L534.20,637.19L543.22,637.19 Z" fill="#5b9bd5" fill-opacity="0.85" stroke="#333" stroke-width="1" stroke-linejoin="round"/>
<path d="M534.20,637.19L534.20,652.81L547.73,660.62L543.22,668.44L547.73,676.25L561.27,668.44L561.27,652.81L570.29,652.81L574.80,645.00L579.31,637.19L574.80,629.38L561.27,637.19L547.73,629.38L543.22,637.19 Z" fill="#f39c12" fill-opacity="0.85" stroke="#333" stroke-width="1" stroke-linejoin="round"/>
<path d="M588.33,605.94L588.33,590.31L574.80,582.50L570.29,590.31L574.80,598.12L561.27,605.94L561.27,621.56L570.29,621.56L574.80,629.38L588.33,621.56L601.86,629.38L606.37,621.56L601.86,613.75L597.35,605.94 Z" fill="#5b9bd5" fill-opacity="0.85" stroke="#333" stroke-width="1" stroke-linejoin="round"/>
<path d="M601.86,645.00L615.39,637.19L615.39,621.56L606.37,621.56L601.86,629.38L588.33,621.56L574.80,629.38L579.31,637.19L574.80,645.00L588.33,652.81L588.33,668.44L597.35,668.44L601.86,660.62L606.37,652.81 Z" fill="#5b9bd5" fill-opacity="0.85" stroke="#333" stroke-width="1" stroke-linejoin="round"/>
<path d="M574.80,676.25L588.33,684.06L601.86,676.25L597.35,668.44L588.33,668.44L588.33,652.81L574.80,645.00L570.29,652.81L561.27,652.81L561.27,668.44L547.73,676.25L552.24,684.06L561.27,684.06L570.29,684.06 Z" fill="#5b9bd5" fill-opacity="0.85" stroke="#333" stroke-width="1" stroke-linejoin="round"/>
<path d="M534.20,699.69L534.20,715.31L547.73,723.12L552.24,715.31L547.73,707.50L561.27,699.69L561.27,684.06L552.24,684.06L547.73,676.25L534.20,684.06L520.67,676.25L516.16,684.06L520.67,691.88L525.18,699.69 Z" fill="#5b9bd5" fill-opacity="0.85" stroke="#333" stroke-width="1" stroke-linejoin="round"/>
<path d="M520.67,660.62L507.14,668.44L507.14,684.06L516.16,684.06L520.67,676.25L534.20,684.06L547.73,676.25L543.22,668.44L547.73,660.62L534.20,652.81L534.20,637.19L525.18,637.19L520.67,645.00L516.16,652.81 Z" fill="#5b9bd5" fill-opacity="0.85" stroke="#333" stroke-width="1" stroke-linejoin="round"/>
<path d="M574.80,707.50L588.33,715.31L601.86,707.50L597.35,699.69L588.33,699.69L588.33,684.06L574.80,676.25L570.29,684.06L561.27,684.06L561.27,699.69L547.73,707.50L552.24,715.31L561.27,715.31L570.29,715.31 Z" fill="#5b9bd5" fill-opacity="0.85" stroke="#333" stroke-width="1" stroke-linejoin="round"/>
<path d="M480.08,605.94L480.08,621.56L493.61,629.38L498.12,621.56L493.61,613.75L507.14,605.94L507.14,590.31L498.12,590.31L493.61,582.50L480.08,590.31L466.54,582.50L462.03,590.31L466.54,598.12L471.05,605.94 Z" fill="#5b9bd5" fill-opacity="0.85" stroke="#333" stroke-width="1" stroke-linejoin="round"/>
<path d="M466.54,598.12L453.01,605.94L453.01,621.56L443.99,621.56L439.48,629.38L453.01,637.19L466.54,629.38L471.05,637.19L480.08,637.19L489.10,637.19L493.61,629.38L480.08,621.56L480.08,605.94L471.05,605.94 Z" fill="#f39c12" fill-opacity="0.85" stroke="#333" stroke-width="1" stroke-linejoin="round"/>
<path d="M520.67,629.38L534.20,621.56L534.20,605.94L525.18,605.94L520.67,613.75L507.14,605.94L493.61,613.75L498.12,621.56L493.61,629.38L507.14,637.19L507.14,652.81L516.16,652.81L520.67,645.00L525.18,637.19 Z" fill="#5b9bd5" fill-opacity="0.85" stroke="#333" stroke-width="1" stroke-linejoin="round"/>
<path d="M493.61,660.62L507.14,668.44L520.67,660.62L516.16,652.81L507.14,652.81L507.14,637.19L493.61,629.38L489.10,637.19L480.08,637.19L480.08,652.81L466.54,660.62L471.05,668.44L480.08,668.44L489.10,668.44 Z" fill="#5b9bd5" fill-opacity="0.85" stroke="#333" stroke-width="1" stroke-linejoin="round"/>
<path d="M453.01,652.81L453.01,668.44L466.54,676.25L471.05,668.44L466.54,660.62L480.08,652.81L480.08,637.19L471.05,637.19L466.54,629.38L453.01,637.19L439.48,629.38L434.97,637.19L439.48,645.00L443.99,652.81 Z" fill="#5b9bd5" fill-opacity="0.85" stroke="#333" stroke-width="1" stroke-linejoin="round"/>
<path d="M412.42,629.38L398.89,637.19L398.89,652.81L407.91,652.81L412.42,645.00L425.95,652.81L439.48,645.00L434.97,637.19L439.48,629.38L425.95,621.56L425.95,605.94L416.93,605.94L412.42,613.75L407.91,621.56 Z" fill="#5b9bd5" fill-opacity="0.85" stroke="#333" stroke-width="1" stroke-linejoin="round"/>
<path d="M439.48,598.12L425.95,590.31L412.42,598.12L416.93,605.94L425.95,605.94L425.95,621.56L439.48,629.38L443.99,621.56L453.01,621.56L453.01,605.94L466.54,598.12L462.03,590.31L453.01,590.31L443.99,590.31 Z" fill="#5b9bd5" fill-opacity="0.85" stroke="#333" stroke-width="1" stroke-linejoin="round"/>
<path d="M425.95,668.44L425.95,684.06L439.48,691.88L443.99,684.06L439.48,676.25L453.01,668.44L453.01,652.81L443.99,652.81L439.48,645.00L425.95,652.81L412.42,645.00L407.91,652.81L412.42,660.62L416.93,668.44 Z" fill="#5b9bd5" fill-opacity="0.85" stroke="#333" stroke-width="1" stroke-linejoin="round"/>
<path d="M466.54,535.62L453.01,543.44L453.01,559.06L462.03,559.06L466.54,551.25L480.08,559.06L493.61,551.25L489.10,543.44L493.61,535.62L480.08,527.81L480.08,512.19L471.05,512.19L466.54,520.00L462.03,527.81 Z" fill="#5b9bd5" fill-opacity="0.85" stroke="#333" stroke-width="1" stroke-linejoin="round"/>
<path d="M466.54,520.00L453.01,512.19L439.48,520.00L434.97,512.19L425.95,512.19L425.95,527.81L439.48,535.62L434.97,543.44L439.48,551.25L443.99,559.06L453.01,559.06L453.01,543.44L466.54,535.62L462.03,527.81 Z" fill="#f39c12" fill-opacity="0.85" stroke="#333" stroke-width="1" stroke-linejoin="round"/>
<path d="M466.54,582.50L480.08,590.31L493.61,582.50L489.10,574.69L480.08,574.69L480.08,559.06L466.54,551.25L462.03,559.06L453.01,559.06L453.01,574.69L439.48,582.50L443.99,590.31L453.01,590.31L462.03,590.31 Z" fill="#5b9bd5" fill-opacity="0.85" stroke="#333" stroke-width="1" stroke-linejoin="round"/>
<path d="M425.95,574.69L425.95,590.31L439.48,598.12L443.99,590.31L439.48,582.50L453.01,574.69L453.01,559.06L443.99,559.06L439.48,551.25L425.95,559.06L412.42,551.25L407.91,559.06L412.42,566.88L416.93,574.69 Z" fill="#5b9bd5" fill-opacity="0.85" stroke="#333" stroke-width="1" stroke-linejoin="round"/>
<path d="M412.42,535.62L398.89,543.44L398.89,559.06L407.91,559.06L412.42,551.25L425.95,559.06L439.48,551.25L434.97,543.44L439.48,535.62L425.95,527.81L425.95,512.19L416.93,512.19L412.42,520.00L407.91,527.81 Z" fill="#5b9bd5" fill-opacity="0.85" stroke="#333" stroke-width="1" stroke-linejoin="round"/>
<path d="M412.42,488.75L398.89,480.94L385.35,488.75L389.87,496.56L398.89,496.56L398.89,512.19L412.42,520.00L416.93,512.19L425.95,512.19L425.95,496.56L439.48,488.75L434.97,480.94L425.95,480.94L416.93,480.94 Z" fill="#5b9bd5" fill-opacity="0.85" stroke="#333" stroke-width="1" stroke-linejoin="round"/>
<path d="M453.01,496.56L453.01,480.94L439.48,473.12L434.97,480.94L439.48,488.75L425.95,496.56L425.95,512.19L434.97,512.19L439.48,520.00L453.01,512.19L466.54,520.00L471.05,512.19L466.54,504.38L462.03,496.56 Z" fill="#5b9bd5" fill-opacity="0.85" stroke="#333" stroke-width="1" stroke-linejoin="round"/>
<path d="M385.35,520.00L371.82,527.81L371.82,543.44L380.84,543.44L385.35,535.62L398.89,543.44L412.42,535.62L407.91,527.81L412.42,520.00L398.89,512.19L398.89,496.56L389.87,496.56L385.35,504.38L380.84,512.19 Z" fill="#5b9bd5" fill-opacity="0.85" stroke="#333" stroke-width="1" stroke-linejoin="round"/>
<path d="M412.42,457.50L398.89,449.69L385.35,457.50L389.87,465.31L398.89,465.31L398.89,480.94L412.42,488.75L416.93,480.94L425.95,480.94L425.95,465.31L439.48,457.50L434.97,449.69L425.95,449.69L416.93,449.69 Z" fill="#5b9bd5" fill-opacity="0.85" stroke="#333" stroke-width="1" stroke-linejoin="round"/>
<path d="M425.95,449.69L425.95,434.06L412.42,426.25L416.93,418.44L412.42,410.62L398.89,418.44L398.89,434.06L389.87,434.06L385.35,441.88L380.84,449.69L385.35,457.50L398.89,449.69L412.42,457.50L416.93,449.69 Z" fill="#f39c12" fill-opacity="0.85" stroke="#333" stroke-width="1" stroke-linejoin="round"/>
<path d="M371.82,480.94L371.82,496.56L385.35,504.38L389.87,496.56L385.35,488.75L398.89,480.94L398.89,465.31L389.87,465.31L385.35,457.50L371.82,465.31L358.29,457.50L353.78,465.31L358.29,473.12L362.80,480.94 Z" fill="#5b9bd5" fill-opacity="0.85" stroke="#333" stroke-width="1" stroke-linejoin="round"/>
<path d="M358.29,441.88L344.76,449.69L344.76,465.31L353.78,465.31L358.29,457.50L371.82,465.31L385.35,457.50L380.84,449.69L385.35,441.88L371.82,434.06L371.82,418.44L362.80,418.44L358.29,426.25L353.78,434.06 Z" fill="#5b9bd5" fill-opacity="0.85" stroke="#333" stroke-width="1" stroke-linejoin="round"/>
<path d="M385.35,410.62L371.82,402.81L358.29,410.62L362.80,418.44L371.82,418.44L371.82,434.06L385.35,441.88L389.87,434.06L398.89,434.06L398.89,418.44L412.42,410.62L407.91,402.81L398.89,402.81L389.87,402.81 Z" fill="#5b9bd5" fill-opacity="0.85" stroke="#333" stroke-width="1" stroke-linejoin="round"/>
<path d="M425.95,387.19L425.95,371.56L412.42,363.75L407.91,371.56L412.42,379.38L398.89,387.19L398.89,402.81L407.91,402.81L412.42,410.62L425.95,402.81L439.48,410.62L443.99,402.81L439.48,395.00L434.97,387.19 Z" fill="#5b9bd5" fill-opacity="0.85" stroke="#333" stroke-width="1" stroke-linejoin="round"/>
<path d="M439.48,426.25L453.01,418.44L453.01,402.81L443.99,402.81L439.48,410.62L425.95,402.81L412.42,410.62L416.93,418.44L412.42,426.25L425.95,434.06L425.95,449.69L434.97,449.69L439.48,441.88L443.99,434.06 Z" fill="#5b9bd5" fill-opacity="0.85" stroke="#333" stroke-width="1" stroke-linejoin="round"/>
<path d="M385.35,379.38L371.82,371.56L358.29,379.38L362.80,387.19L371.82,387.19L371.82,402.81L385.35,410.62L389.87,402.81L398.89,402.81L398.89,387.19L412.42,379.38L407.91,371.56L398.89,371.56L389.87,371.56 Z" fill="#5b9bd5" fill-opacity="0.85" stroke="#333" stroke-width="1" stroke-linejoin="round"/>
<path d="M480.08,480.94L480.08,465.31L466.54,457.50L462.03,465.31L466.54,473.12L453.01,480.94L453.01,496.56L462.03,496.56L466.54,504.38L480.08,496.56L493.61,504.38L498.12,496.56L493.61,488.75L489.10,480.94 Z" fill="#5b9bd5" fill-opacity="0.85" stroke="#333" stroke-width="1" stroke-linejoin="round"/>
<path d="M493.61,488.75L507.14,480.94L507.14,465.31L516.16,465.31L520.67,457.50L507.14,449.69L493.61,457.50L489.10,449.69L480.08,449.69L471.05,449.69L466.54,457.50L480.08,465.31L480.08,480.94L489.10,480.94 Z" fill="#f39c12" fill-opacity="0.85" stroke="#333" stroke-width="1" stroke-linejoin="round"/>
<path d="M439.48,457.50L425.95,465.31L425.95,480.94L434.97,480.94L439.48,473.12L453.01,480.94L466.54,473.12L462.03,465.31L466.54,457.50L453.01,449.69L453.01,434.06L443.99,434.06L439.48,441.88L434.97,449.69 Z" fill="#5b9bd5" fill-opacity="0.85" stroke="#333" stroke-width="1" stroke-linejoin="round"/>
<path d="M466.54,426.25L453.01,418.44L439.48,426.25L443.99,434.06L453.01,434.06L453.01,449.69L466.54,457.50L471.05,449.69L480.08,449.69L480.08,434.06L493.61,426.25L489.10,418.44L480.08,418.44L471.05,418.44 Z" fill="#5b9bd5" fill-opacity="0.85" stroke="#333" stroke-width="1" stroke-linejoin="round"/>
<path d="M507.14,434.06L507.14,418.44L493.61,410.63L489.10,418.44L493.61,426.25L480.08,434.06L480.08,449.69L489.10,449.69L493.61,457.50L507.14,449.69L520.67,457.50L525.18,449.69L520.67,441.88L516.16,434.06 Z" fill="#5b9bd5" fill-opacity="0.85" stroke="#333" stroke-width="1" stroke-linejoin="round"/>
<path d="M547.73,457.50L561.27,449.69L561.27,434.06L552.24,434.06L547.73,441.88L534.20,434.06L520.67,441.88L525.18,449.69L520.67,457.50L534.20,465.31L534.20,480.94L543.22,480.94L547.73,473.12L552.24,465.31 Z" fill="#5b9bd5" fill-opacity="0.85" stroke="#333" stroke-width="1" stroke-linejoin="round"/>
<path d="M520.67,488.75L534.20,496.56L547.73,488.75L543.22,480.94L534.20,480.94L534.20,465.31L520.67,457.50L516.16,465.31L507.14,465.31L507.14,480.94L493.61,488.75L498.12,496.56L507.14,496.56L516.16,496.56 Z" fill="#5b9bd5" fill-opacity="0.85" stroke="#333" stroke-width="1" stroke-linejoin="round"/>
<path d="M534.20,418.44L534.20,402.81L520.67,395.00L516.16,402.81L520.67,410.63L507.14,418.44L507.14,434.06L516.16,434.06L520.67,441.88L534.20,434.06L547.73,441.88L552.24,434.06L547.73,426.25L543.22,418.44 Z" fill="#5b9bd5" fill-opacity="0.85" stroke="#333" stroke-width="1" stroke-linejoin="round"/>
<path d="M574.80,738.75L588.33,746.56L601.86,738.75L597.35,730.94L588.33,730.94L588.33,715.31L574.80,707.50L570.29,715.31L561.27,715.31L561.27,730.94L547.73,738.75L552.24,746.56L561.27,746.56L570.29,746.56 Z" fill="#5b9bd5" fill-opacity="0.85" stroke="#333" stroke-width="1" stroke-linejoin="round"/>
<path d="M561.27,746.56L561.27,762.19L574.80,770.00L570.29,777.81L574.80,785.62L588.33,777.81L588.33,762.19L597.35,762.19L601.86,754.38L606.37,746.56L601.86,738.75L588.33,746.56L574.80,738.75L570.29,746.56 Z" fill="#f39c12" fill-opacity="0.85" stroke="#333" stroke-width="1" stroke-linejoin="round"/>
<path d="M615.39,715.31L615.39,699.69L601.86,691.88L597.35,699.69L601.86,707.50L588.33,715.31L588.33,730.94L597.35,730.94L601.86,738.75L615.39,730.94L628.92,738.75L633.43,730.94L628.92,723.12L624.41,715.31 Z" fill="#5b9bd5" fill-opacity="0.85" stroke="#333" stroke-width="1" stroke-linejoin="round"/>
<path d="M628.92,754.38L642.46,746.56L642.46,730.94L633.43,730.94L628.92,738.75L615.39,730.94L601.86,738.75L606.37,746.56L601.86,754.38L615.39,762.19L615.39,777.81L624.41,777.81L628.92,770.00L633.43,762.19 Z" fill="#5b9bd5" fill-opacity="0.85" stroke="#333" stroke-width="1" stroke-linejoin="round"/>
<path d="M601.86,785.62L615.39,793.44L628.92,785.62L624.41,777.81L615.39,777.81L615.39,762.19L601.86,754.38L597.35,762.19L588.33,762.19L588.33,777.81L574.80,785.62L579.31,793.44L588.33,793.44L597.35,793.44 Z" fill="#5b9bd5" fill-opacity="0.85" stroke="#333" stroke-width="1" stroke-linejoin="round"/>
<path d="M561.27,809.06L561.27,824.69L574.80,832.50L579.31,824.69L574.80,816.88L588.33,809.06L588.33,793.44L579.31,793.44L574.80,785.62L561.27,793.44L547.73,785.62L543.22,793.44L547.73,801.25L552.24,809.06 Z" fill="#5b9bd5" fill-opacity="0.85" stroke="#333" stroke-width="1" stroke-linejoin="round"/>
<path d="M547.73,770.00L534.20,777.81L534.20,793.44L543.22,793.44L547.73,785.62L561.27,793.44L574.80,785.62L570.29,777.81L574.80,770.00L561.27,762.19L561.27,746.56L552.24,746.56L547.73,754.38L543.22,762.19 Z" fill="#5b9bd5" fill-opacity="0.85" stroke="#333" stroke-width="1" stroke-linejoin="round"/>
<path d="M642.46,699.69L642.46,684.06L628.92,676.25L624.41,684.06L628.92,691.88L615.39,699.69L615.39,715.31L624.41,715.31L628.92,723.12L642.46,715.31L655.99,723.12L660.50,715.31L655.99,707.50L651.48,699.69 Z" fill="#5b9bd5" fill-opacity="0.85" stroke="#333" stroke-width="1" stroke-linejoin="round"/>
<path d="M655.99,707.50L669.52,699.69L669.52,684.06L678.54,684.06L683.05,676.25L669.52,668.44L655.99,676.25L651.48,668.44L642.46,668.44L633.43,668.44L628.92,676.25L642.46,684.06L642.46,699.69L651.48,699.69 Z" fill="#f39c12" fill-opacity="0.85" stroke="#333" stroke-width="1" stroke-linejoin="round"/>
<path d="M601.86,676.25L588.33,684.06L588.33,699.69L597.35,699.69L601.86,691.88L615.39,699.69L628.92,691.88L624.41,684.06L628.92,676.25L615.39,668.44L615.39,652.81L606.37,652.81L601.86,660.62L597.35,668.44 Z" fill="#5b9bd5" fill-opacity="0.85" stroke="#333" stroke-width="1" stroke-linejoin="round"/>
<path d="M628.92,645.00L615.39,637.19L601.86,645.00L606.37,652.81L615.39,652.81L615.39,668.44L628.92,676.25L633.43,668.44L642.46,668.44L642.46,652.81L655.99,645.00L651.48,637.19L642.46,637.19L633.43,637.19 Z" fill="#5b9bd5" fill-opacity="0.85" stroke="#333" stroke-width="1" stroke-linejoin="round"/>
<path d="M669.52,652.81L669.52,637.19L655.99,629.38L651.48,637.19L655.99,645.00L642.46,652.81L642.46,668.44L651.48,668.44L655.99,676.25L669.52,668.44L683.05,676.25L687.56,668.44L683.05,660.62L678.54,652.81 Z" fill="#5b9bd5" fill-opacity="0.85" stroke="#333" stroke-width="1" stroke-linejoin="round"/>
<path d="M710.11,676.25L723.65,668.44L723.65,652.81L714.62,652.81L710.11,660.62L696.58,652.81L683.05,660.62L687.56,668.44L683.05,676.25L696.58,684.06L696.58,699.69L705.60,699.69L710.11,691.88L714.62,684.06 Z" fill="#5b9bd5" fill-opacity="0.85" stroke="#333" stroke-width="1" stroke-linejoin="round"/>
<path d="M683.05,707.50L696.58,715.31L710.11,707.50L705.60,699.69L696.58,699.69L696.58,684.06L683.05,676.25L678.54,684.06L669.52,684.06L669.52,699.69L655.99,707.50L660.50,715.31L669.52,715.31L678.54,715.31 Z" fill="#5b9bd5" fill-opacity="0.85" stroke="#333" stroke-width="1" stroke-linejoin="round"/>
<path d="M696.58,637.19L696.58,621.56L683.05,613.75L678.54,621.56L683.05,629.38L669.52,637.19L669.52,652.81L678.54,652.81L683.05,660.62L696.58,652.81L710.11,660.62L714.62,652.81L710.11,645.00L705.60,637.19 Z" fill="#5b9bd5" fill-opacity="0.85" stroke="#333" stroke-width="1" stroke-linejoin="round"/>
<path d="M655.99,770.00L669.52,762.19L669.52,746.56L660.50,746.56L655.99,754.38L642.46,746.56L628.92,754.38L633.43,762.19L628.92,770.00L642.46,777.81L642.46,793.44L651.48,793.44L655.99,785.62L660.50,777.81 Z" fill="#5b9bd5" fill-opacity="0.85" stroke="#333" stroke-width="1" stroke-linejoin="round"/>
<path d="M655.99,785.62L669.52,793.44L683.05,785.62L687.56,793.44L696.58,793.44L696.58,777.81L683.05,770.00L687.56,762.19L683.05,754.38L678.54,746.56L669.52,746.56L669.52,762.19L655.99,770.00L660.50,777.81 Z" fill="#f39c12" fill-opacity="0.85" stroke="#333" stroke-width="1" stroke-linejoin="round"/>
<path d="M655.99,723.12L642.46,715.31L628.92,723.12L633.43,730.94L642.46,730.94L642.46,746.56L655.99,754.38L660.50,746.56L669.52,746.56L669.52,730.94L683.05,723.12L678.54,715.31L669.52,715.31L660.50,715.31 Z" fill="#5b9bd5" fill-opacity="0.85" stroke="#333" stroke-width="1" stroke-linejoin="round"/>
<path d="M696.58,730.94L696.58,715.31L683.05,707.50L678.54,715.31L683.05,723.12L669.52,730.94L669.52,746.56L678.54,746.56L683.05,754.38L696.58,746.56L710.11,754.38L714.62,746.56L710.11,738.75L705.60,730.94 Z" fill="#5b9bd5" fill-opacity="0.85" stroke="#333" stroke-width="1" stroke-linejoin="round"/>
<path d="M710.11,770.00L723.65,762.19L723.65,746.56L714.62,746.56L710.11,754.38L696.58,746.56L683.05,754.38L687.56,762.19L683.05,770.00L696.58,777.81L696.58,793.44L705.60,793.44L710.11,785.62L714.62,777.81 Z" fill="#5b9bd5" fill-opacity="0.85" stroke="#333" stroke-width="1" stroke-linejoin="round"/>
<path d="M710.11,816.88L723.65,824.69L737.18,816.88L732.67,809.06L723.65,809.06L723.65,793.44L710.11,785.62L705.60,793.44L696.58,793.44L696.58,809.06L683.05,816.88L687.56,824.69L696.58,824.69L705.60,824.69 Z" fill="#5b9bd5" fill-opacity="0.85" stroke="#333" stroke-width="1" stroke-linejoin="round"/>
<path d="M669.52,809.06L669.52,824.69L683.05,832.50L687.56,824.69L683.05,816.88L696.58,809.06L696.58,793.44L687.56,793.44L683.05,785.62L669.52,793.44L655.99,785.62L651.48,793.44L655.99,801.25L660.50,809.06 Z" fill="#5b9bd5" fill-opacity="0.85" stroke="#333" stroke-width="1" stroke-linejoin="round"/>
<path d="M737.18,785.62L750.71,777.81L750.71,762.19L741.69,762.19L737.18,770.00L723.65,762.19L710.11,770.00L714.62,777.81L710.11,785.62L723.65,793.44L723.65,809.06L732.67,809.06L737.18,801.25L741.69,793.44 Z" fill="#5b9bd5" fill-opacity="0.85" stroke="#333" stroke-width="1" stroke-linejoin="round"/>
<path d="M601.86,816.88L615.39,824.69L628.92,816.88L624.41,809.06L615.39,809.06L615.39,793.44L601.86,785.62L597.35,793.44L588.33,793.44L588.33,809.06L574.80,816.88L579.31,824.69L588.33,824.69L597.35,824.69 Z" fill="#5b9bd5" fill-opacity="0.85" stroke="#333" stroke-width="1" stroke-linejoin="round"/>
<path d="M588.33,824.69L588.33,840.31L601.86,848.12L597.35,855.94L601.86,863.75L615.39,855.94L615.39,840.31L624.41,840.31L628.92,832.50L633.43,824.69L628.92,816.88L615.39,824.69L601.86,816.88L597.35,824.69 Z" fill="#f39c12" fill-opacity="0.85" stroke="#333" stroke-width="1" stroke-linejoin="round"/>
<path d="M642.46,793.44L642.46,777.81L628.92,770.00L624.41,777.81L628.92,785.62L615.39,793.44L615.39,809.06L624.41,809.06L628.92,816.88L642.46,809.06L655.99,816.88L660.50,809.06L655.99,801.25L651.48,793.44 Z" fill="#5b9bd5" fill-opacity="0.85" stroke="#333" stroke-width="1" stroke-linejoin="round"/>
<path d="M655.99,832.50L669.52,824.69L669.52,809.06L660.50,809.06L655.99,816.88L642.46,809.06L628.92,816.88L633.43,824.69L628.92,832.50L642.46,840.31L642.46,855.94L651.48,855.94L655.99,848.12L660.50,840.31 Z" fill="#5b9bd5" fill-opacity="0.85" stroke="#333" stroke-width="1" stroke-linejoin="round"/>
<path d="M628.92,863.75L642.46,871.56L655.99,863.75L651.48,855.94L642.46,855.94L642.46,840.31L628.92,832.50L624.41,840.31L615.39,840.31L615.39,855.94L601.86,863.75L606.37,871.56L615.39,871.56L624.41,871.56 Z" fill="#5b9bd5" fill-opacity="0.85" stroke="#333" stroke-width="1" stroke-linejoin="round"/>
<path d="M588.33,887.19L588.33,902.81L601.86,910.62L606.37,902.81L601.86,895.00L615.39,887.19L615.39,871.56L606.37,871.56L601.86,863.75L588.33,871.56L574.80,863.75L570.29,871.56L574.80,879.38L579.31,887.19 Z" fill="#5b9bd5" fill-opacity="0.85" stroke="#333" stroke-width="1" stroke-linejoin="round"/>
<path d="M574.80,848.12L561.27,855.94L561.27,871.56L570.29,871.56L574.80,863.75L588.33,871.56L601.86,863.75L597.35,855.94L601.86,848.12L588.33,840.31L588.33,824.69L579.31,824.69L574.80,832.50L570.29,840.31 Z" fill="#5b9bd5" fill-opacity="0.85" stroke="#333" stroke-width="1" stroke-linejoin="round"/>
<path d="M628.92,895.00L642.46,902.81L655.99,895.00L651.48,887.19L642.46,887.19L642.46,871.56L628.92,863.75L624.41,871.56L615.39,871.56L615.39,887.19L601.86,895.00L606.37,902.81L615.39,902.81L624.41,902.81 Z" fill="#5b9bd5" fill-opacity="0.85" stroke="#333" stroke-width="1" stroke-linejoin="round"/>
<path d="M561.27,902.81L561.27,918.44L574.80,926.25L579.31,918.44L574.80,910.62L588.33,902.81L588.33,887.19L579.31,887.19L574.80,879.38L561.27,887.19L547.73,879.38L543.22,887.19L547.73,895.00L552.24,902.81 Z" fill="#5b9bd5" fill-opacity="0.85" stroke="#333" stroke-width="1" stroke-linejoin="round"/>
<path d="M547.73,895.00L534.20,902.81L534.20,918.44L525.18,918.44L520.67,926.25L534.20,934.06L547.73,926.25L552.24,934.06L561.27,934.06L570.29,934.06L574.80,926.25L561.27,918.44L561.27,902.81L552.24,902.81 Z" fill="#f39c12" fill-opacity="0.85" stroke="#333" stroke-width="1" stroke-linejoin="round"/>
<path d="M601.86,926.25L615.39,918.44L615.39,902.81L606.37,902.81L601.86,910.62L588.33,902.81L574.80,910.62L579.31,918.44L574.80,926.25L588.33,934.06L588.33,949.69L597.35,949.69L601.86,941.88L606.37,934.06 Z" fill="#5b9bd5" fill-opacity="0.85" stroke="#333" stroke-width="1" stroke-linejoin="round"/>
<path d="M574.80,957.50L588.33,965.31L601.86,957.50L597.35,949.69L588.33,949.69L588.33,934.06L574.80,926.25L570.29,934.06L561.27,934.06L561.27,949.69L547.73,957.50L552.24,965.31L561.27,965.31L570.29,965.31 Z" fill="#5b9bd5" fill-opacity="0.85" stroke="#333" stroke-width="1" stroke-linejoin="round"/>
<path d="M534.20,949.69L534.20,965.31L547.73,973.12L552.24,965.31L547.73,957.50L561.27,949.69L561.27,934.06L552.24,934.06L547.73,926.25L534.20,934.06L520.67,926.25L516.16,934.06L520.67,941.88L525.18,949.69 Z" fill="#5b9bd5" fill-opacity="0.85" stroke="#333" stroke-width="1" stroke-linejoin="round"/>
<path d="M493.61,926.25L480.08,934.06L480.08,949.69L489.10,949.69L493.61,941.88L507.14,949.69L520.67,941.88L516.16,934.06L520.67,926.25L507.14,918.44L507.14,902.81L498.12,902.81L493.61,910.62L489.10,918.44 Z" fill="#5b9bd5" fill-opacity="0.85" stroke="#333" stroke-width="1" stroke-linejoin="round"/>
<path d="M520.67,895.00L507.14,887.19L493.61,895.00L498.12,902.81L507.14,902.81L507.14,918.44L520.67,926.25L525.18,918.44L534.20,918.44L534.20,902.81L547.73,895.00L543.22,887.19L534.20,887.19L525.18,887.19 Z" fill="#5b9bd5" fill-opacity="0.85" stroke="#333" stroke-width="1" stroke-linejoin="round"/>
<path d="M507.14,965.31L507.14,980.94L520.67,988.75L525.18,980.94L520.67,973.12L534.20,965.31L534.20,949.69L525.18,949.69L520.67,941.88L507.14,949.69L493.61,941.88L489.10,949.69L493.61,957.50L498.12,965.31 Z" fill="#5b9bd5" fill-opacity="0.85" stroke="#333" stroke-width="1" stroke-linejoin="round"/>
<path d="M547.73,832.50L534.20,840.31L534.20,855.94L543.22,855.94L547.73,848.12L561.27,855.94L574.80,848.12L570.29,840.31L574.80,832.50L561.27,824.69L561.27,809.06L552.24,809.06L547.73,816.88L543.22,824.69 Z" fill="#5b9bd5" fill-opacity="0.85" stroke="#333" stroke-width="1" stroke-linejoin="round"/>
<path d="M547.73,816.88L534.20,809.06L520.67,816.88L516.16,809.06L507.14,809.06L507.14,824.69L520.67,832.50L516.16,840.31L520.67,848.12L525.18,855.94L534.20,855.94L534.20,840.31L547.73,832.50L543.22,824.69 Z" fill="#f39c12" fill-opacity="0.85" stroke="#333" stroke-width="1" stroke-linejoin="round"/>
<path d="M547.73,879.38L561.27,887.19L574.80,879.38L570.29,871.56L561.27,871.56L561.27,855.94L547.73,848.12L543.22,855.94L534.20,855.94L534.20,871.56L520.67,879.38L525.18,887.19L534.20,887.19L543.22,887.19 Z" fill="#5b9bd5" fill-opacity="0.85" stroke="#333" stroke-width="1" stroke-linejoin="round"/>
<path d="M507.14,871.56L507.14,887.19L520.67,895.00L525.18,887.19L520.67,879.38L534.20,871.56L534.20,855.94L525.18,855.94L520.67,848.12L507.14,855.94L493.61,848.12L489.10,855.94L493.61,863.75L498.12,871.56 Z" fill="#5b9bd5" fill-opacity="0.85" stroke="#333" stroke-width="1" stroke-linejoin="round"/>
<path d="M493.61,832.50L480.08,840.31L480.08,855.94L489.10,855.94L493.61,848.12L507.14,855.94L520.67,848.12L516.16,840.31L520.67,832.50L507.14,824.69L507.14,809.06L498.12,809.06L493.61,816.88L489.10,824.69 Z" fill="#5b9bd5" fill-opacity="0.85" stroke="#333" stroke-width="1" stroke-linejoin="round"/>
<path d="M493.61,785.62L480.08,777.81L466.54,785.62L471.05,793.44L480.08,793.44L480.08,809.06L493.61,816.88L498.12,809.06L507.14,809.06L507.14,793.44L520.67,785.62L516.16,777.81L507.14,777.81L498.12,777.81 Z" fill="#5b9bd5" fill-opacity="0.85" stroke="#333" stroke-width="1" stroke-linejoin="round"/>
<path d="M534.20,793.44L534.20,777.81L520.67,770.00L516.16,777.81L520.67,785.62L507.14,793.44L507.14,809.06L516.16,809.06L520.67,816.88L534.20,809.06L547.73,816.88L552.24,809.06L547.73,801.25L543.22,793.44 Z" fill="#5b9bd5" fill-opacity="0.85" stroke="#333" stroke-width="1" stroke-linejoin="round"/>
<path d="M466.54,816.88L453.01,824.69L453.01,840.31L462.03,840.31L466.54,832.50L480.08,840.31L493.61,832.50L489.10,824.69L493.61,816.88L480.08,809.06L480.08,793.44L471.05,793.44L466.54,801.25L462.03,809.06 Z" fill="#5b9bd5" fill-opacity="0.85" stroke="#333" stroke-width="1" stroke-linejoin="round"/>
<path d="M628.92,926.25L642.46,934.06L655.99,926.25L651.48,918.44L642.46,918.44L642.46,902.81L628.92,895.00L624.41,902.81L615.39,902.81L615.39,918.44L601.86,926.25L606.37,934.06L615.39,934.06L624.41,934.06 Z" fill="#5b9bd5" fill-opacity="0.85" stroke="#333" stroke-width="1" stroke-linejoin="round"/>
<path d="M615.39,934.06L615.39,949.69L628.92,957.50L624.41,965.31L628.92,973.12L642.46,965.31L642.46,949.69L651.48,949.69L655.99,941.88L660.50,934.06L655.99,926.25L642.46,934.06L628.92,926.25L624.41,934.06 Z" fill="#f39c12" fill-opacity="0.85" stroke="#333" stroke-width="1" stroke-linejoin="round"/>
<path d="M669.52,902.81L669.52,887.19L655.99,879.38L651.48,887.19L655.99,895.00L642.46,902.81L642.46,918.44L651.48,918.44L655.99,926.25L669.52,918.44L683.05,926.25L687.56,918.44L683.05,910.62L678.54,902.81 Z" fill="#5b9bd5" fill-opacity="0.85" stroke="#333" stroke-width="1" stroke-linejoin="round"/>
<path d="M683.05,941.88L696.58,934.06L696.58,918.44L687.56,918.44L683.05,926.25L669.52,918.44L655.99,926.25L660.50,934.06L655.99,941.88L669.52,949.69L669.52,965.31L678.54,965.31L683.05,957.50L687.56,949.69 Z" fill="#5b9bd5" fill-opacity="0.85" stroke="#333" stroke-width="1" stroke-linejoin="round"/>
<path d="M655.99,973.12L669.52,980.94L683.05,973.12L678.54,965.31L669.52,965.31L669.52,949.69L655.99,941.88L651.48,949.69L642.46,949.69L642.46,965.31L628.92,973.12L633.43,980.94L642.46,980.94L651.48,980.94 Z" fill="#5b9bd5" fill-opacity="0.85" stroke="#333" stroke-width="1" stroke-linejoin="round"/>
<path d="M615.39,996.56L615.39,1012.19L628.92,1020.00L633.43,1012.19L628.92,1004.38L642.46,996.56L642.46,980.94L633.43,980.94L628.92,973.12L615.39,980.94L601.86,973.12L597.35,980.94L601.86,988.75L606.37,996.56 Z" fill="#5b9bd5" fill-opacity="0.85" stroke="#333" stroke-width="1" stroke-linejoin="round"/>
<path d="M601.86,957.50L588.33,965.31L588.33,980.94L597.35,980.94L601.86,973.12L615.39,980.94L628.92,973.12L624.41,965.31L628.92,957.50L615.39,949.69L615.39,934.06L606.37,934.06L601.86,941.88L597.35,949.69 Z" fill="#5b9bd5" fill-opacity="0.85" stroke="#333" stroke-width="1" stroke-linejoin="round"/>
<path d="M655.99,1004.38L669.52,1012.19L683.05,1004.38L678.54,996.56L669.52,996.56L669.52,980.94L655.99,973.12L651.48,980.94L642.46,980.94L642.46,996.56L628.92,1004.38L633.43,1012.19L642.46,1012.19L651.48,1012.19 Z" fill="#5b9bd5" fill-opacity="0.85" stroke="#333" stroke-width="1" stroke-linejoin="round"/>
<path d="M398.89,684.06L398.89,699.69L412.42,707.50L416.93,699.69L412.42,691.88L425.95,684.06L425.95,668.44L416.93,668.44L412.42,660.62L398.89,668.44L385.35,660.62L380.84,668.44L385.35,676.25L389.87,684.06 Z" fill="#5b9bd5" fill-opacity="0.85" stroke="#333" stroke-width="1" stroke-linejoin="round"/>
<path d="M385.35,676.25L371.82,684.06L371.82,699.69L362.80,699.69L358.29,707.50L371.82,715.31L385.35,707.50L389.87,715.31L398.89,715.31L407.91,715.31L412.42,707.50L398.89,699.69L398.89,684.06L389.87,684.06 Z" fill="#f39c12" fill-opacity="0.85" stroke="#333" stroke-width="1" stroke-linejoin="round"/>
<path d="M439.48,707.50L453.01,699.69L453.01,684.06L443.99,684.06L439.48,691.88L425.95,684.06L412.42,691.88L416.93,699.69L412.42,707.50L425.95,715.31L425.95,730.94L434.97,730.94L439.48,723.12L443.99,715.31 Z" fill="#5b9bd5" fill-opacity="0.85" stroke="#333" stroke-width="1" stroke-linejoin="round"/>
<path d="M412.42,738.75L425.95,746.56L439.48,738.75L434.97,730.94L425.95,730.94L425.95,715.31L412.42,707.50L407.91,715.31L398.89,715.31L398.89,730.94L385.35,738.75L389.87,746.56L398.89,746.56L407.91,746.56 Z" fill="#5b9bd5" fill-opacity="0.85" stroke="#333" stroke-width="1" stroke-linejoin="round"/>
<path d="M371.82,730.94L371.82,746.56L385.35,754.38L389.87,746.56L385.35,738.75L398.89,730.94L398.89,715.31L389.87,715.31L385.35,707.50L371.82,715.31L358.29,707.50L353.78,715.31L358.29,723.12L362.80,730.94 Z" fill="#5b9bd5" fill-opacity="0.85" stroke="#333" stroke-width="1" stroke-linejoin="round"/>
<path d="M331.23,707.50L317.70,715.31L317.70,730.94L326.72,730.94L331.23,723.12L344.76,730.94L358.29,723.12L353.78,715.31L358.29,707.50L344.76,699.69L344.76,684.06L335.74,684.06L331.23,691.88L326.72,699.69 Z" fill="#5b9bd5" fill-opacity="0.85" stroke="#333" stroke-width="1" stroke-linejoin="round"/>
<path d="M358.29,676.25L344.76,668.44L331.23,676.25L335.74,684.06L344.76,684.06L344.76,699.69L358.29,707.50L362.80,699.69L371.82,699.69L371.82,684.06L385.35,676.25L380.84,668.44L371.82,668.44L362.80,668.44 Z" fill="#5b9bd5" fill-opacity="0.85" stroke="#333" stroke-width="1" stroke-linejoin="round"/>
<path d="M466.54,723.12L480.08,715.31L480.08,699.69L471.05,699.69L466.54,707.50L453.01,699.69L439.48,707.50L443.99,715.31L439.48,723.12L453.01,730.94L453.01,746.56L462.03,746.56L466.54,738.75L471.05,730.94 Z" fill="#5b9bd5" fill-opacity="0.85" stroke="#333" stroke-width="1" stroke-linejoin="round"/>
<path d="M466.54,738.75L480.08,746.56L493.61,738.75L498.12,746.56L507.14,746.56L507.14,730.94L493.61,723.12L498.12,715.31L493.61,707.50L489.10,699.69L480.08,699.69L480.08,715.31L466.54,723.12L471.05,730.94 Z" fill="#f39c12" fill-opacity="0.85" stroke="#333" stroke-width="1" stroke-linejoin="round"/>
<path d="M466.54,676.25L453.01,668.44L439.48,676.25L443.99,684.06L453.01,684.06L453.01,699.69L466.54,707.50L471.05,699.69L480.08,699.69L480.08,684.06L493.61,676.25L489.10,668.44L480.08,668.44L471.05,668.44 Z" fill="#5b9bd5" fill-opacity="0.85" stroke="#333" stroke-width="1" stroke-linejoin="round"/>
<path d="M507.14,684.06L507.14,668.44L493.61,660.62L489.10,668.44L493.61,676.25L480.08,684.06L480.08,699.69L489.10,699.69L493.61,707.50L507.14,699.69L520.67,707.50L525.18,699.69L520.67,691.88L516.16,684.06 Z" fill="#5b9bd5" fill-opacity="0.85" stroke="#333" stroke-width="1" stroke-linejoin="round"/>
<path d="M520.67,723.12L534.20,715.31L534.20,699.69L525.18,699.69L520.67,707.50L507.14,699.69L493.61,707.50L498.12,715.31L493.61,723.12L507.14,730.94L507.14,746.56L516.16,746.56L520.67,738.75L525.18,730.94 Z" fill="#5b9bd5" fill-opacity="0.85" stroke="#333" stroke-width="1" stroke-linejoin="round"/>
<path d="M520.67,770.00L534.20,777.81L547.73,770.00L543.22,762.19L534.20,762.19L534.20,746.56L520.67,738.75L516.16,746.56L507.14,746.56L507.14,762.19L493.61,770.00L498.12,777.81L507.14,777.81L516.16,777.81 Z" fill="#5b9bd5" fill-opacity="0.85" stroke="#333" stroke-width="1" stroke-linejoin="round"/>
<path d="M480.08,762.19L480.08,777.81L493.61,785.62L498.12,777.81L493.61,770.00L507.14,762.19L507.14,746.56L498.12,746.56L493.61,738.75L480.08,746.56L466.54,738.75L462.03,746.56L466.54,754.38L471.05,762.19 Z" fill="#5b9bd5" fill-opacity="0.85" stroke="#333" stroke-width="1" stroke-linejoin="round"/>
<path d="M547.73,738.75L561.27,730.94L561.27,715.31L552.24,715.31L547.73,723.12L534.20,715.31L520.67,723.12L525.18,730.94L520.67,738.75L534.20,746.56L534.20,762.19L543.22,762.19L547.73,754.38L552.24,746.56 Z" fill="#5b9bd5" fill-opacity="0.85" stroke="#333" stroke-width="1" stroke-linejoin="round"/>
<path d="M412.42,770.00L425.95,777.81L439.48,770.00L434.97,762.19L425.95,762.19L425.95,746.56L412.42,738.75L407.91,746.56L398.89,746.56L398.89,762.19L385.35,770.00L389.87,777.81L398.89,777.81L407.91,777.81 Z" fill="#5b9bd5" fill-opacity="0.85" stroke="#333" stroke-width="1" stroke-linejoin="round"/>
<path d="M398.89,777.81L398.89,793.44L412.42,801.25L407.91,809.06L412.42,816.88L425.95,809.06L425.95,793.44L434.97,793.44L439.48,785.62L443.99,777.81L439.48,770.00L425.95,777.81L412.42,770.00L407.91,777.81 Z" fill="#f39c12" fill-opacity="0.85" stroke="#333" stroke-width="1" stroke-linejoin="round"/>
<path d="M453.01,746.56L453.01,730.94L439.48,723.12L434.97,730.94L439.48,738.75L425.95,746.56L425.95,762.19L434.97,762.19L439.48,770.00L453.01,762.19L466.54,770.00L471.05,762.19L466.54,754.38L462.03,746.56 Z" fill="#5b9bd5" fill-opacity="0.85" stroke="#333" stroke-width="1" stroke-linejoin="round"/>
<path d="M466.54,785.62L480.08,777.81L480.08,762.19L471.05,762.19L466.54,770.00L453.01,762.19L439.48,770.00L443.99,777.81L439.48,785.62L453.01,793.44L453.01,809.06L462.03,809.06L466.54,801.25L471.05,793.44 Z" fill="#5b9bd5" fill-opacity="0.85" stroke="#333" stroke-width="1" stroke-linejoin="round"/>
<path d="M439.48,816.88L453.01,824.69L466.54,816.88L462.03,809.06L453.01,809.06L453.01,793.44L439.48,785.62L434.97,793.44L425.95,793.44L425.95,809.06L412.42,816.88L416.93,824.69L425.95,824.69L434.97,824.69 Z" fill="#5b9bd5" fill-opacity="0.85" stroke="#333" stroke-width="1" stroke-linejoin="round"/>
<path d="M398.89,840.31L398.89,855.94L412.42,863.75L416.93,855.94L412.42,848.12L425.95,840.31L425.95,824.69L416.93,824.69L412.42,816.88L398.89,824.69L385.35,816.88L380.84,824.69L385.35,832.50L389.87,840.31 Z" fill="#5b9bd5" fill-opacity="0.85" stroke="#333" stroke-width="1" stroke-linejoin="round"/>
<path d="M385.35,801.25L371.82,809.06L371.82,824.69L380.84,824.69L385.35,816.88L398.89,824.69L412.42,816.88L407.91,809.06L412.42,801.25L398.89,793.44L398.89,777.81L389.87,777.81L385.35,785.62L380.84,793.44 Z" fill="#5b9bd5" fill-opacity="0.85" stroke="#333" stroke-width="1" stroke-linejoin="round"/>
<path d="M439.48,848.12L453.01,855.94L466.54,848.12L462.03,840.31L453.01,840.31L453.01,824.69L439.48,816.88L434.97,824.69L425.95,824.69L425.95,840.31L412.42,848.12L416.93,855.94L425.95,855.94L434.97,855.94 Z" fill="#5b9bd5" fill-opacity="0.85" stroke="#333" stroke-width="1" stroke-linejoin="round"/>
<path d="M344.76,746.56L344.76,762.19L358.29,770.00L362.80,762.19L358.29,754.38L371.82,746.56L371.82,730.94L362.80,730.94L358.29,723.12L344.76,730.94L331.23,723.12L326.72,730.94L331.23,738.75L335.74,746.56 Z" fill="#5b9bd5" fill-opacity="0.85" stroke="#333" stroke-width="1" stroke-linejoin="round"/>
<path d="M331.23,738.75L317.70,746.56L317.70,762.19L308.68,762.19L304.16,770.00L317.70,777.81L331.23,770.00L335.74,777.81L344.76,777.81L353.78,777.81L358.29,770.00L344.76,762.19L344.76,746.56L335.74,746.56 Z" fill="#f39c12" fill-opacity="0.85" stroke="#333" stroke-width="1" stroke-linejoin="round"/>
<path d="M385.35,770.00L398.89,762.19L398.89,746.56L389.87,746.56L385.35,754.38L371.82,746.56L358.29,754.38L362.80,762.19L358.29,770.00L371.82,777.81L371.82,793.44L380.84,793.44L385.35,785.62L389.87,777.81 Z" fill="#5b9bd5" fill-opacity="0.85" stroke="#333" stroke-width="1" stroke-linejoin="round"/>
<path d="M358.29,801.25L371.82,809.06L385.35,801.25L380.84,793.44L371.82,793.44L371.82,777.81L358.29,770.00L353.78,777.81L344.76,777.81L344.76,793.44L331.23,801.25L335.74,809.06L344.76,809.06L353.78,809.06 Z" fill="#5b9bd5" fill-opacity="0.85" stroke="#333" stroke-width="1" stroke-linejoin="round"/>
<path d="M317.70,793.44L317.70,809.06L331.23,816.88L335.74,809.06L331.23,801.25L344.76,793.44L344.76,777.81L335.74,777.81L331.23,770.00L317.70,777.81L304.16,770.00L299.65,777.81L304.16,785.62L308.68,793.44 Z" fill="#5b9bd5" fill-opacity="0.85" stroke="#333" stroke-width="1" stroke-linejoin="round"/>
<path d="M277.10,770.00L263.57,777.81L263.57,793.44L272.59,793.44L277.10,785.62L290.63,793.44L304.16,785.62L299.65,777.81L304.16,770.00L290.63,762.19L290.63,746.56L281.61,746.56L277.10,754.38L272.59,762.19 Z" fill="#5b9bd5" fill-opacity="0.85" stroke="#333" stroke-width="1" stroke-linejoin="round"/>
<path d="M304.16,738.75L290.63,730.94L277.10,738.75L281.61,746.56L290.63,746.56L290.63,762.19L304.16,770.00L308.68,762.19L317.70,762.19L317.70,746.56L331.23,738.75L326.72,730.94L317.70,730.94L308.68,730.94 Z" fill="#5b9bd5" fill-opacity="0.85" stroke="#333" stroke-width="1" stroke-linejoin="round"/>
<path d="M290.63,809.06L290.63,824.69L304.16,832.50L308.68,824.69L304.16,816.88L317.70,809.06L317.70,793.44L308.68,793.44L304.16,785.62L290.63,793.44L277.10,785.62L272.59,793.44L277.10,801.25L281.61,809.06 Z" fill="#5b9bd5" fill-opacity="0.85" stroke="#333" stroke-width="1" stroke-linejoin="round"/>
<path d="M250.04,754.38L236.51,762.19L236.51,777.81L245.53,777.81L250.04,770.00L263.57,777.81L277.10,770.00L272.59,762.19L277.10,754.38L263.57,746.56L263.57,730.94L254.55,730.94L250.04,738.75L245.53,746.56 Z" fill="#5b9bd5" fill-opacity="0.85" stroke="#333" stroke-width="1" stroke-linejoin="round"/>
<path d="M250.04,738.75L236.51,730.94L222.97,738.75L218.46,730.94L209.44,730.94L209.44,746.56L222.97,754.38L218.46,762.19L222.97,770.00L227.49,777.81L236.51,777.81L236.51,762.19L250.04,754.38L245.53,746.56 Z" fill="#f39c12" fill-opacity="0.85" stroke="#333" stroke-width="1" stroke-linejoin="round"/>
<path d="M250.04,801.25L263.57,809.06L277.10,801.25L272.59,793.44L263.57,793.44L263.57,777.81L250.04,770.00L245.53,777.81L236.51,777.81L236.51,793.44L222.97,801.25L227.49,809.06L236.51,809.06L245.53,809.06 Z" fill="#5b9bd5" fill-opacity="0.85" stroke="#333" stroke-width="1" stroke-linejoin="round"/>
<path d="M209.44,793.44L209.44,809.06L222.97,816.88L227.49,809.06L222.97,801.25L236.51,793.44L236.51,777.81L227.49,777.81L222.97,770.00L209.44,777.81L195.91,770.00L191.40,777.81L195.91,785.62L200.42,793.44 Z" fill="#5b9bd5" fill-opacity="0.85" stroke="#333" stroke-width="1" stroke-linejoin="round"/>
<path d="M195.91,754.38L182.38,762.19L182.38,777.81L191.40,777.81L195.91,770.00L209.44,777.81L222.97,770.00L218.46,762.19L222.97,754.38L209.44,746.56L209.44,730.94L200.42,730.94L195.91,738.75L191.40,746.56 Z" fill="#5b9bd5" fill-opacity="0.85" stroke="#333" stroke-width="1" stroke-linejoin="round"/>
<path d="M195.91,707.50L182.38,699.69L168.85,707.50L173.36,715.31L182.38,715.31L182.38,730.94L195.91,738.75L200.42,730.94L209.44,730.94L209.44,715.31L222.97,707.50L218.46,699.69L209.44,699.69L200.42,699.69 Z" fill="#5b9bd5" fill-opacity="0.85" stroke="#333" stroke-width="1" stroke-linejoin="round"/>
<path d="M236.51,715.31L236.51,699.69L222.97,691.88L218.46,699.69L222.97,707.50L209.44,715.31L209.44,730.94L218.46,730.94L222.97,738.75L236.51,730.94L250.04,738.75L254.55,730.94L250.04,723.12L245.53,715.31 Z" fill="#5b9bd5" fill-opacity="0.85" stroke="#333" stroke-width="1" stroke-linejoin="round"/>
<path d="M168.85,738.75L155.32,746.56L155.32,762.19L164.34,762.19L168.85,754.38L182.38,762.19L195.91,754.38L191.40,746.56L195.91,738.75L182.38,730.94L182.38,715.31L173.36,715.31L168.85,723.12L164.34,730.94 Z" fill="#5b9bd5" fill-opacity="0.85" stroke="#333" stroke-width="1" stroke-linejoin="round"/>
<path d="M304.16,707.50L290.63,699.69L277.10,707.50L281.61,715.31L290.63,715.31L290.63,730.94L304.16,738.75L308.68,730.94L317.70,730.94L317.70,715.31L331.23,707.50L326.72,699.69L317.70,699.69L308.68,699.69 Z" fill="#5b9bd5" fill-opacity="0.85" stroke="#333" stroke-width="1" stroke-linejoin="round"/>
<path d="M317.70,699.69L317.70,684.06L304.16,676.25L308.68,668.44L304.16,660.62L290.63,668.44L290.63,684.06L281.61,684.06L277.10,691.88L272.59,699.69L277.10,707.50L290.63,699.69L304.16,707.50L308.68,699.69 Z" fill="#f39c12" fill-opacity="0.85" stroke="#333" stroke-width="1" stroke-linejoin="round"/>
<path d="M263.57,730.94L263.57,746.56L277.10,754.38L281.61,746.56L277.10,738.75L290.63,730.94L290.63,715.31L281.61,715.31L277.10,707.50L263.57,715.31L250.04,707.50L245.53,715.31L250.04,723.12L254.55,730.94 Z" fill="#5b9bd5" fill-opacity="0.85" stroke="#333" stroke-width="1" stroke-linejoin="round"/>
<path d="M250.04,691.88L236.51,699.69L236.51,715.31L245.53,715.31L250.04,707.50L263.57,715.31L277.10,707.50L272.59,699.69L277.10,691.88L263.57,684.06L263.57,668.44L254.55,668.44L250.04,676.25L245.53,684.06 Z" fill="#5b9bd5" fill-opacity="0.85" stroke="#333" stroke-width="1" stroke-linejoin="round"/>
<path d="M277.10,660.62L263.57,652.81L250.04,660.62L254.55,668.44L263.57,668.44L263.57,684.06L277.10,691.88L281.61,684.06L290.63,684.06L290.63,668.44L304.16,660.62L299.65,652.81L290.63,652.81L281.61,652.81 Z" fill="#5b9bd5" fill-opacity="0.85" stroke="#333" stroke-width="1" stroke-linejoin="round"/>
<path d="M317.70,637.19L317.70,621.56L304.16,613.75L299.65,621.56L304.16,629.38L290.63,637.19L290.63,652.81L299.65,652.81L304.16,660.62L317.70,652.81L331.23,660.62L335.74,652.81L331.23,645.00L326.72,637.19 Z" fill="#5b9bd5" fill-opacity="0.85" stroke="#333" stroke-width="1" stroke-linejoin="round"/>
<path d="M331.23,676.25L344.76,668.44L344.76,652.81L335.74,652.81L331.23,660.62L317.70,652.81L304.16,660.62L308.68,668.44L304.16,676.25L317.70,684.06L317.70,699.69L326.72,699.69L331.23,691.88L335.74,684.06 Z" fill="#5b9bd5" fill-opacity="0.85" stroke="#333" stroke-width="1" stroke-linejoin="round"/>
<path d="M277.10,629.38L263.57,621.56L250.04,629.38L254.55,637.19L263.57,637.19L263.57,652.81L277.10,660.62L281.61,652.81L290.63,652.81L290.63,637.19L304.16,629.38L299.65,621.56L290.63,621.56L281.61,621.56 Z" fill="#5b9bd5" fill-opacity="0.85" stroke="#333" stroke-width="1" stroke-linejoin="round"/>
<path d="M263.57,824.69L263.57,840.31L277.10,848.12L281.61,840.31L277.10,832.50L290.63,824.69L290.63,809.06L281.61,809.06L277.10,801.25L263.57,809.06L250.04,801.25L245.53,809.06L250.04,816.88L254.55,824.69 Z" fill="#5b9bd5" fill-opacity="0.85" stroke="#333" stroke-width="1" stroke-linejoin="round"/>
<path d="M250.04,816.88L236.51,824.69L236.51,840.31L227.49,840.31L222.97,848.12L236.51,855.94L250.04,848.12L254.55,855.94L263.57,855.94L272.59,855.94L277.10,848.12L263.57,840.31L263.57,824.69L254.55,824.69 Z" fill="#f39c12" fill-opacity="0.85" stroke="#333" stroke-width="1" stroke-linejoin="round"/>
<path d="M304.16,848.12L317.70,840.31L317.70,824.69L308.68,824.69L304.16,832.50L290.63,824.69L277.10,832.50L281.61,840.31L277.10,848.12L290.63,855.94L290.63,871.56L299.65,871.56L304.16,863.75L308.68,855.94 Z" fill="#5b9bd5" fill-opacity="0.85" stroke="#333" stroke-width="1" stroke-linejoin="round"/>
<path d="M277.10,879.38L290.63,887.19L304.16,879.38L299.65,871.56L290.63,871.56L290.63,855.94L277.10,848.12L272.59,855.94L263.57,855.94L263.57,871.56L250.04,879.38L254.55,887.19L263.57,887.19L272.59,887.19 Z" fill="#5b9bd5" fill-opacity="0.85" stroke="#333" stroke-width="1" stroke-linejoin="round"/>
<path d="M236.51,871.56L236.51,887.19L250.04,895.00L254.55,887.19L250.04,879.38L263.57,871.56L263.57,855.94L254.55,855.94L250.04,848.12L236.51,855.94L222.97,848.12L218.46,855.94L222.97,863.75L227.49,871.56 Z" fill="#5b9bd5" fill-opacity="0.85" stroke="#333" stroke-width="1" stroke-linejoin="round"/>
<path d="M195.91,848.12L182.38,855.94L182.38,871.56L191.40,871.56L195.91,863.75L209.44,871.56L222.97,863.75L218.46,855.94L222.97,848.12L209.44,840.31L209.44,824.69L200.42,824.69L195.91,832.50L191.40,840.31 Z" fill="#5b9bd5" fill-opacity="0.85" stroke="#333" stroke-width="1" stroke-linejoin="round"/>
<path d="M222.97,816.88L209.44,809.06L195.91,816.88L200.42,824.69L209.44,824.69L209.44,840.31L222.97,848.12L227.49,840.31L236.51,840.31L236.51,824.69L250.04,816.88L245.53,809.06L236.51,809.06L227.49,809.06 Z" fill="#5b9bd5" fill-opacity="0.85" stroke="#333" stroke-width="1" stroke-linejoin="round"/>
<path d="M209.44,887.19L209.44,902.81L222.97,910.62L227.49,902.81L222.97,895.00L236.51,887.19L236.51,871.56L227.49,871.56L222.97,863.75L209.44,871.56L195.91,863.75L191.40,871.56L195.91,879.38L200.42,887.19 Z" fill="#5b9bd5" fill-opacity="0.85" stroke="#333" stroke-width="1" stroke-linejoin="round"/>
<path d="M358.29,504.38L344.76,512.19L344.76,527.81L353.78,527.81L358.29,520.00L371.82,527.81L385.35,520.00L380.84,512.19L385.35,504.38L371.82,496.56L371.82,480.94L362.80,480.94L358.29,488.75L353.78,496.56 Z" fill="#5b9bd5" fill-opacity="0.85" stroke="#333" stroke-width="1" stroke-linejoin="round"/>
<path d="M358.29,488.75L344.76,480.94L331.23,488.75L326.72,480.94L317.70,480.94L317.70,496.56L331.23,504.38L326.72,512.19L331.23,520.00L335.74,527.81L344.76,527.81L344.76,512.19L358.29,504.38L353.78,496.56 Z" fill="#f39c12" fill-opacity="0.85" stroke="#333" stroke-width="1" stroke-linejoin="round"/>
<path d="M358.29,551.25L371.82,559.06L385.35,551.25L380.84,543.44L371.82,543.44L371.82,527.81L358.29,520.00L353.78,527.81L344.76,527.81L344.76,543.44L331.23,551.25L335.74,559.06L344.76,559.06L353.78,559.06 Z" fill="#5b9bd5" fill-opacity="0.85" stroke="#333" stroke-width="1" stroke-linejoin="round"/>
<path d="M317.70,543.44L317.70,559.06L331.23,566.88L335.74,559.06L331.23,551.25L344.76,543.44L344.76,527.81L335.74,527.81L331.23,520.00L317.70,527.81L304.16,520.00L299.65,527.81L304.16,535.62L308.68,543.44 Z" fill="#5b9bd5" fill-opacity="0.85" stroke="#333" stroke-width="1" stroke-linejoin="round"/>
<path d="M304.16,504.38L290.63,512.19L290.63,527.81L299.65,527.81L304.16,520.00L317.70,527.81L331.23,520.00L326.72,512.19L331.23,504.38L317.70,496.56L317.70,480.94L308.68,480.94L304.16,488.75L299.65,496.56 Z" fill="#5b9bd5" fill-opacity="0.85" stroke="#333" stroke-width="1" stroke-linejoin="round"/>
<path d="M304.16,457.50L290.63,449.69L277.10,457.50L281.61,465.31L290.63,465.31L290.63,480.94L304.16,488.75L308.68,480.94L317.70,480.94L317.70,465.31L331.23,457.50L326.72,449.69L317.70,449.69L308.68,449.69 Z" fill="#5b9bd5" fill-opacity="0.85" stroke="#333" stroke-width="1" stroke-linejoin="round"/>
<path d="M344.76,465.31L344.76,449.69L331.23,441.88L326.72,449.69L331.23,457.50L317.70,465.31L317.70,480.94L326.72,480.94L331.23,488.75L344.76,480.94L358.29,488.75L362.80,480.94L358.29,473.12L353.78,465.31 Z" fill="#5b9bd5" fill-opacity="0.85" stroke="#333" stroke-width="1" stroke-linejoin="round"/>
<path d="M358.29,582.50L371.82,590.31L385.35,582.50L380.84,574.69L371.82,574.69L371.82,559.06L358.29,551.25L353.78,559.06L344.76,559.06L344.76,574.69L331.23,582.50L335.74,590.31L344.76,590.31L353.78,590.31 Z" fill="#5b9bd5" fill-opacity="0.85" stroke="#333" stroke-width="1" stroke-linejoin="round"/>
<path d="M344.76,590.31L344.76,605.94L358.29,613.75L353.78,621.56L358.29,629.38L371.82,621.56L371.82,605.94L380.84,605.94L385.35,598.12L389.87,590.31L385.35,582.50L371.82,590.31L358.29,582.50L353.78,590.31 Z" fill="#f39c12" fill-opacity="0.85" stroke="#333" stroke-width="1" stroke-linejoin="round"/>
<path d="M398.89,559.06L398.89,543.44L385.35,535.62L380.84,543.44L385.35,551.25L371.82,559.06L371.82,574.69L380.84,574.69L385.35,582.50L398.89,574.69L412.42,582.50L416.93,574.69L412.42,566.88L407.91,559.06 Z" fill="#5b9bd5" fill-opacity="0.85" stroke="#333" stroke-width="1" stroke-linejoin="round"/>
<path d="M412.42,598.12L425.95,590.31L425.95,574.69L416.93,574.69L412.42,582.50L398.89,574.69L385.35,582.50L389.87,590.31L385.35,598.12L398.89,605.94L398.89,621.56L407.91,621.56L412.42,613.75L416.93,605.94 Z" fill="#5b9bd5" fill-opacity="0.85" stroke="#333" stroke-width="1" stroke-linejoin="round"/>
<path d="M385.35,629.38L398.89,637.19L412.42,629.38L407.91,621.56L398.89,621.56L398.89,605.94L385.35,598.12L380.84,605.94L371.82,605.94L371.82,621.56L358.29,629.38L362.80,637.19L371.82,637.19L380.84,637.19 Z" fill="#5b9bd5" fill-opacity="0.85" stroke="#333" stroke-width="1" stroke-linejoin="round"/>
<path d="M344.76,652.81L344.76,668.44L358.29,676.25L362.80,668.44L358.29,660.62L371.82,652.81L371.82,637.19L362.80,637.19L358.29,629.38L344.76,637.19L331.23,629.38L326.72,637.19L331.23,645.00L335.74,652.81 Z" fill="#5b9bd5" fill-opacity="0.85" stroke="#333" stroke-width="1" stroke-linejoin="round"/>
<path d="M331.23,613.75L317.70,621.56L317.70,637.19L326.72,637.19L331.23,629.38L344.76,637.19L358.29,629.38L353.78,621.56L358.29,613.75L344.76,605.94L344.76,590.31L335.74,590.31L331.23,598.12L326.72,605.94 Z" fill="#5b9bd5" fill-opacity="0.85" stroke="#333" stroke-width="1" stroke-linejoin="round"/>
<path d="M385.35,660.62L398.89,668.44L412.42,660.62L407.91,652.81L398.89,652.81L398.89,637.19L385.35,629.38L380.84,637.19L371.82,637.19L371.82,652.81L358.29,660.62L362.80,668.44L371.82,668.44L380.84,668.44 Z" fill="#5b9bd5" fill-opacity="0.85" stroke="#333" stroke-width="1" stroke-linejoin="round"/>
<path d="M290.63,559.06L290.63,574.69L304.16,582.50L308.68,574.69L304.16,566.88L317.70,559.06L317.70,543.44L308.68,543.44L304.16,535.62L290.63,543.44L277.10,535.62L272.59,543.44L277.10,551.25L281.61,559.06 Z" fill="#5b9bd5" fill-opacity="0.85" stroke="#333" stroke-width="1" stroke-linejoin="round"/>
<path d="M277.10,551.25L263.57,559.06L263.57,574.69L254.55,574.69L250.04,582.50L263.57,590.31L277.10,582.50L281.61,590.31L290.63,590.31L299.65,590.31L304.16,582.50L290.63,574.69L290.63,559.06L281.61,559.06 Z" fill="#f39c12" fill-opacity="0.85" stroke="#333" stroke-width="1" stroke-linejoin="round"/>
<path d="M331.23,582.50L344.76,574.69L344.76,559.06L335.74,559.06L331.23,566.88L317.70,559.06L304.16,566.88L308.68,574.69L304.16,582.50L317.70,590.31L317.70,605.94L326.72,605.94L331.23,598.12L335.74,590.31 Z" fill="#5b9bd5" fill-opacity="0.85" stroke="#333" stroke-width="1" stroke-linejoin="round"/>
<path d="M304.16,613.75L317.70,621.56L331.23,613.75L326.72,605.94L317.70,605.94L317.70,590.31L304.16,582.50L299.65,590.31L290.63,590.31L290.63,605.94L277.10,613.75L281.61,621.56L290.63,621.56L299.65,621.56 Z" fill="#5b9bd5" fill-opacity="0.85" stroke="#333" stroke-width="1" stroke-linejoin="round"/>
<path d="M263.57,605.94L263.57,621.56L277.10,629.38L281.61,621.56L277.10,613.75L290.63,605.94L290.63,590.31L281.61,590.31L277.10,582.50L263.57,590.31L250.04,582.50L245.53,590.31L250.04,598.12L254.55,605.94 Z" fill="#5b9bd5" fill-opacity="0.85" stroke="#333" stroke-width="1" stroke-linejoin="round"/>
<path d="M222.97,582.50L209.44,590.31L209.44,605.94L218.46,605.94L222.97,598.12L236.51,605.94L250.04,598.12L245.53,590.31L250.04,582.50L236.51,574.69L236.51,559.06L227.49,559.06L222.97,566.88L218.46,574.69 Z" fill="#5b9bd5" fill-opacity="0.85" stroke="#333" stroke-width="1" stroke-linejoin="round"/>
<path d="M250.04,551.25L236.51,543.44L222.97,551.25L227.49,559.06L236.51,559.06L236.51,574.69L250.04,582.50L254.55,574.69L263.57,574.69L263.57,559.06L277.10,551.25L272.59,543.44L263.57,543.44L254.55,543.44 Z" fill="#5b9bd5" fill-opacity="0.85" stroke="#333" stroke-width="1" stroke-linejoin="round"/>
<path d="M236.51,621.56L236.51,637.19L250.04,645.00L254.55,637.19L250.04,629.38L263.57,621.56L263.57,605.94L254.55,605.94L250.04,598.12L236.51,605.94L222.97,598.12L218.46,605.94L222.97,613.75L227.49,621.56 Z" fill="#5b9bd5" fill-opacity="0.85" stroke="#333" stroke-width="1" stroke-linejoin="round"/>
<path d="M277.10,488.75L263.57,496.56L263.57,512.19L272.59,512.19L277.10,504.38L290.63,512.19L304.16,504.38L299.65,496.56L304.16,488.75L290.63,480.94L290.63,465.31L281.61,465.31L277.10,473.12L272.59,480.94 Z" fill="#5b9bd5" fill-opacity="0.85" stroke="#333" stroke-width="1" stroke-linejoin="round"/>
<path d="M277.10,473.12L263.57,465.31L250.04,473.12L245.53,465.31L236.51,465.31L236.51,480.94L250.04,488.75L245.53,496.56L250.04,504.38L254.55,512.19L263.57,512.19L263.57,496.56L277.10,488.75L272.59,480.94 Z" fill="#f39c12" fill-opacity="0.85" stroke="#333" stroke-width="1" stroke-linejoin="round"/>
<path d="M277.10,535.62L290.63,543.44L304.16,535.62L299.65,527.81L290.63,527.81L290.63,512.19L277.10,504.38L272.59,512.19L263.57,512.19L263.57,527.81L250.04,535.62L254.55,543.44L263.57,543.44L272.59,543.44 Z" fill="#5b9bd5" fill-opacity="0.85" stroke="#333" stroke-width="1" stroke-linejoin="round"/>
<path d="M236.51,527.81L236.51,543.44L250.04,551.25L254.55,543.44L250.04,535.62L263.57,527.81L263.57,512.19L254.55,512.19L250.04,504.38L236.51,512.19L222.97,504.38L218.46,512.19L222.97,520.00L227.49,527.81 Z" fill="#5b9bd5" fill-opacity="0.85" stroke="#333" stroke-width="1" stroke-linejoin="round"/>
<path d="M222.97,488.75L209.44,496.56L209.44,512.19L218.46,512.19L222.97,504.38L236.51,512.19L250.04,504.38L245.53,496.56L250.04,488.75L236.51,480.94L236.51,465.31L227.49,465.31L222.97,473.12L218.46,480.94 Z" fill="#5b9bd5" fill-opacity="0.85" stroke="#333" stroke-width="1" stroke-linejoin="round"/>
<path d="M222.97,441.88L209.44,434.06L195.91,441.88L200.42,449.69L209.44,449.69L209.44,465.31L222.97,473.12L227.49,465.31L236.51,465.31L236.51,449.69L250.04,441.88L245.53,434.06L236.51,434.06L227.49,434.06 Z" fill="#5b9bd5" fill-opacity="0.85" stroke="#333" stroke-width="1" stroke-linejoin="round"/>
<path d="M263.57,449.69L263.57,434.06L250.04,426.25L245.53,434.06L250.04,441.88L236.51,449.69L236.51,465.31L245.53,465.31L250.04,473.12L263.57,465.31L277.10,473.12L281.61,465.31L277.10,457.50L272.59,449.69 Z" fill="#5b9bd5" fill-opacity="0.85" stroke="#333" stroke-width="1" stroke-linejoin="round"/>
<path d="M195.91,473.12L182.38,480.94L182.38,496.56L191.40,496.56L195.91,488.75L209.44,496.56L222.97,488.75L218.46,480.94L222.97,473.12L209.44,465.31L209.44,449.69L200.42,449.69L195.91,457.50L191.40,465.31 Z" fill="#5b9bd5" fill-opacity="0.85" stroke="#333" stroke-width="1" stroke-linejoin="round"/>
<path d="M222.97,410.62L209.44,402.81L195.91,410.62L200.42,418.44L209.44,418.44L209.44,434.06L222.97,441.88L227.49,434.06L236.51,434.06L236.51,418.44L250.04,410.62L245.53,402.81L236.51,402.81L227.49,402.81 Z" fill="#5b9bd5" fill-opacity="0.85" stroke="#333" stroke-width="1" stroke-linejoin="round"/>
<path d="M236.51,402.81L236.51,387.19L222.97,379.38L227.49,371.56L222.97,363.75L209.44,371.56L209.44,387.19L200.42,387.19L195.91,395.00L191.40,402.81L195.91,410.62L209.44,402.81L222.97,410.62L227.49,402.81 Z" fill="#f39c12" fill-opacity="0.85" stroke="#333" stroke-width="1" stroke-linejoin="round"/>
<path d="M182.38,434.06L182.38,449.69L195.91,457.50L200.42,449.69L195.91,441.88L209.44,434.06L209.44,418.44L200.42,418.44L195.91,410.62L182.38,418.44L168.85,410.62L164.34,418.44L168.85,426.25L173.36,434.06 Z" fill="#5b9bd5" fill-opacity="0.85" stroke="#333" stroke-width="1" stroke-linejoin="round"/>
<path d="M168.85,395.00L155.32,402.81L155.32,418.44L164.34,418.44L168.85,410.62L182.38,418.44L195.91,410.62L191.40,402.81L195.91,395.00L182.38,387.19L182.38,371.56L173.36,371.56L168.85,379.38L164.34,387.19 Z" fill="#5b9bd5" fill-opacity="0.85" stroke="#333" stroke-width="1" stroke-linejoin="round"/>
<path d="M195.91,363.75L182.38,355.94L168.85,363.75L173.36,371.56L182.38,371.56L182.38,387.19L195.91,395.00L200.42,387.19L209.44,387.19L209.44,371.56L222.97,363.75L218.46,355.94L209.44,355.94L200.42,355.94 Z" fill="#5b9bd5" fill-opacity="0.85" stroke="#333" stroke-width="1" stroke-linejoin="round"/>
<path d="M236.51,340.31L236.51,324.69L222.97,316.87L218.46,324.69L222.97,332.50L209.44,340.31L209.44,355.94L218.46,355.94L222.97,363.75L236.51,355.94L250.04,363.75L254.55,355.94L250.04,348.12L245.53,340.31 Z" fill="#5b9bd5" fill-opacity="0.85" stroke="#333" stroke-width="1" stroke-linejoin="round"/>
<path d="M250.04,379.38L263.57,371.56L263.57,355.94L254.55,355.94L250.04,363.75L236.51,355.94L222.97,363.75L227.49,371.56L222.97,379.38L236.51,387.19L236.51,402.81L245.53,402.81L250.04,395.00L254.55,387.19 Z" fill="#5b9bd5" fill-opacity="0.85" stroke="#333" stroke-width="1" stroke-linejoin="round"/>
<path d="M195.91,332.50L182.38,324.69L168.85,332.50L173.36,340.31L182.38,340.31L182.38,355.94L195.91,363.75L200.42,355.94L209.44,355.94L209.44,340.31L222.97,332.50L218.46,324.69L209.44,324.69L200.42,324.69 Z" fill="#5b9bd5" fill-opacity="0.85" stroke="#333" stroke-width="1" stroke-linejoin="round"/>
<path d="M290.63,434.06L290.63,418.44L277.10,410.62L272.59,418.44L277.10,426.25L263.57,434.06L263.57,449.69L272.59,449.69L277.10,457.50L290.63,449.69L304.16,457.50L308.68,449.69L304.16,441.88L299.65,434.06 Z" fill="#5b9bd5" fill-opacity="0.85" stroke="#333" stroke-width="1" stroke-linejoin="round"/>
<path d="M304.16,441.88L317.70,434.06L317.70,418.44L326.72,418.44L331.23,410.62L317.70,402.81L304.16,410.62L299.65,402.81L290.63,402.81L281.61,402.81L277.10,410.62L290.63,418.44L290.63,434.06L299.65,434.06 Z" fill="#f39c12" fill-opacity="0.85" stroke="#333" stroke-width="1" stroke-linejoin="round"/>
<path d="M250.04,410.62L236.51,418.44L236.51,434.06L245.53,434.06L250.04,426.25L263.57,434.06L277.10,426.25L272.59,418.44L277.10,410.62L263.57,402.81L263.57,387.19L254.55,387.19L250.04,395.00L245.53,402.81 Z" fill="#5b9bd5" fill-opacity="0.85" stroke="#333" stroke-width="1" stroke-linejoin="round"/>
<path d="M277.10,379.38L263.57,371.56L250.04,379.38L254.55,387.19L263.57,387.19L263.57,402.81L277.10,410.62L281.61,402.81L290.63,402.81L290.63,387.19L304.16,379.38L299.65,371.56L290.63,371.56L281.61,371.56 Z" fill="#5b9bd5" fill-opacity="0.85" stroke="#333" stroke-width="1" stroke-linejoin="round"/>
<path d="M317.70,387.19L317.70,371.56L304.16,363.75L299.65,371.56L304.16,379.38L290.63,387.19L290.63,402.81L299.65,402.81L304.16,410.63L317.70,402.81L331.23,410.63L335.74,402.81L331.23,395.00L326.72,387.19 Z" fill="#5b9bd5" fill-opacity="0.85" stroke="#333" stroke-width="1" stroke-linejoin="round"/>
<path d="M358.29,410.63L371.82,402.81L371.82,387.19L362.80,387.19L358.29,395.00L344.76,387.19L331.23,395.00L335.74,402.81L331.23,410.63L344.76,418.44L344.76,434.06L353.78,434.06L358.29,426.25L362.80,418.44 Z" fill="#5b9bd5" fill-opacity="0.85" stroke="#333" stroke-width="1" stroke-linejoin="round"/>
<path d="M331.23,441.88L344.76,449.69L358.29,441.88L353.78,434.06L344.76,434.06L344.76,418.44L331.23,410.63L326.72,418.44L317.70,418.44L317.70,434.06L304.16,441.88L308.68,449.69L317.70,449.69L326.72,449.69 Z" fill="#5b9bd5" fill-opacity="0.85" stroke="#333" stroke-width="1" stroke-linejoin="round"/>
<path d="M344.76,371.56L344.76,355.94L331.23,348.12L326.72,355.94L331.23,363.75L317.70,371.56L317.70,387.19L326.72,387.19L331.23,395.00L344.76,387.19L358.29,395.00L362.80,387.19L358.29,379.38L353.78,371.56 Z" fill="#5b9bd5" fill-opacity="0.85" stroke="#333" stroke-width="1" stroke-linejoin="round"/>
<path d="M168.85,457.50L155.32,465.31L155.32,480.94L164.34,480.94L168.85,473.12L182.38,480.94L195.91,473.12L191.40,465.31L195.91,457.50L182.38,449.69L182.38,434.06L173.36,434.06L168.85,441.88L164.34,449.69 Z" fill="#5b9bd5" fill-opacity="0.85" stroke="#333" stroke-width="1" stroke-linejoin="round"/>
<path d="M168.85,441.88L155.32,434.06L141.78,441.88L137.27,434.06L128.25,434.06L128.25,449.69L141.78,457.50L137.27,465.31L141.78,473.12L146.30,480.94L155.32,480.94L155.32,465.31L168.85,457.50L164.34,449.69 Z" fill="#f39c12" fill-opacity="0.85" stroke="#333" stroke-width="1" stroke-linejoin="round"/>
<path d="M168.85,504.38L182.38,512.19L195.91,504.38L191.40,496.56L182.38,496.56L182.38,480.94L168.85,473.12L164.34,480.94L155.32,480.94L155.32,496.56L141.78,504.38L146.30,512.19L155.32,512.19L164.34,512.19 Z" fill="#5b9bd5" fill-opacity="0.85" stroke="#333" stroke-width="1" stroke-linejoin="round"/>
<path d="M128.25,496.56L128.25,512.19L141.78,520.00L146.30,512.19L141.78,504.38L155.32,496.56L155.32,480.94L146.30,480.94L141.78,473.12L128.25,480.94L114.72,473.12L110.21,480.94L114.72,488.75L119.23,496.56 Z" fill="#5b9bd5" fill-opacity="0.85" stroke="#333" stroke-width="1" stroke-linejoin="round"/>
<path d="M114.72,457.50L101.19,465.31L101.19,480.94L110.21,480.94L114.72,473.12L128.25,480.94L141.78,473.12L137.27,465.31L141.78,457.50L128.25,449.69L128.25,434.06L119.23,434.06L114.72,441.88L110.21,449.69 Z" fill="#5b9bd5" fill-opacity="0.85" stroke="#333" stroke-width="1" stroke-linejoin="round"/>
<path d="M114.72,410.62L101.19,402.81L87.66,410.62L92.17,418.44L101.19,418.44L101.19,434.06L114.72,441.88L119.23,434.06L128.25,434.06L128.25,418.44L141.78,410.62L137.27,402.81L128.25,402.81L119.23,402.81 Z" fill="#5b9bd5" fill-opacity="0.85" stroke="#333" stroke-width="1" stroke-linejoin="round"/>
<path d="M155.32,418.44L155.32,402.81L141.78,395.00L137.27,402.81L141.78,410.62L128.25,418.44L128.25,434.06L137.27,434.06L141.78,441.88L155.32,434.06L168.85,441.88L173.36,434.06L168.85,426.25L164.34,418.44 Z" fill="#5b9bd5" fill-opacity="0.85" stroke="#333" stroke-width="1" stroke-linejoin="round"/>
<path d="M87.66,441.88L74.13,449.69L74.13,465.31L83.15,465.31L87.66,457.50L101.19,465.31L114.72,457.50L110.21,449.69L114.72,441.88L101.19,434.06L101.19,418.44L92.17,418.44L87.66,426.25L83.15,434.06 Z" fill="#5b9bd5" fill-opacity="0.85" stroke="#333" stroke-width="1" stroke-linejoin="round"/>
<path d="M195.91,301.25L182.38,293.44L168.85,301.25L173.36,309.06L182.38,309.06L182.38,324.69L195.91,332.50L200.42,324.69L209.44,324.69L209.44,309.06L222.97,301.25L218.46,293.44L209.44,293.44L200.42,293.44 Z" fill="#5b9bd5" fill-opacity="0.85" stroke="#333" stroke-width="1" stroke-linejoin="round"/>
<path d="M209.44,293.44L209.44,277.81L195.91,270.00L200.42,262.19L195.91,254.38L182.38,262.19L182.38,277.81L173.36,277.81L168.85,285.62L164.34,293.44L168.85,301.25L182.38,293.44L195.91,301.25L200.42,293.44 Z" fill="#f39c12" fill-opacity="0.85" stroke="#333" stroke-width="1" stroke-linejoin="round"/>
<path d="M155.32,324.69L155.32,340.31L168.85,348.12L173.36,340.31L168.85,332.50L182.38,324.69L182.38,309.06L173.36,309.06L168.85,301.25L155.32,309.06L141.78,301.25L137.27,309.06L141.78,316.87L146.30,324.69 Z" fill="#5b9bd5" fill-opacity="0.85" stroke="#333" stroke-width="1" stroke-linejoin="round"/>
<path d="M141.78,285.62L128.25,293.44L128.25,309.06L137.27,309.06L141.78,301.25L155.32,309.06L168.85,301.25L164.34,293.44L168.85,285.62L155.32,277.81L155.32,262.19L146.30,262.19L141.78,270.00L137.27,277.81 Z" fill="#5b9bd5" fill-opacity="0.85" stroke="#333" stroke-width="1" stroke-linejoin="round"/>
<path d="M168.85,254.38L155.32,246.56L141.78,254.38L146.30,262.19L155.32,262.19L155.32,277.81L168.85,285.62L173.36,277.81L182.38,277.81L182.38,262.19L195.91,254.38L191.40,246.56L182.38,246.56L173.36,246.56 Z" fill="#5b9bd5" fill-opacity="0.85" stroke="#333" stroke-width="1" stroke-linejoin="round"/>
<path d="M209.44,230.94L209.44,215.31L195.91,207.50L191.40,215.31L195.91,223.12L182.38,230.94L182.38,246.56L191.40,246.56L195.91,254.38L209.44,246.56L222.97,254.38L227.49,246.56L222.97,238.75L218.46,230.94 Z" fill="#5b9bd5" fill-opacity="0.85" stroke="#333" stroke-width="1" stroke-linejoin="round"/>
<path d="M222.97,270.00L236.51,262.19L236.51,246.56L227.49,246.56L222.97,254.38L209.44,246.56L195.91,254.38L200.42,262.19L195.91,270.00L209.44,277.81L209.44,293.44L218.46,293.44L222.97,285.63L227.49,277.81 Z" fill="#5b9bd5" fill-opacity="0.85" stroke="#333" stroke-width="1" stroke-linejoin="round"/>
<path d="M128.25,340.31L128.25,355.94L141.78,363.75L146.30,355.94L141.78,348.12L155.32,340.31L155.32,324.69L146.30,324.69L141.78,316.87L128.25,324.69L114.72,316.87L110.21,324.69L114.72,332.50L119.23,340.31 Z" fill="#5b9bd5" fill-opacity="0.85" stroke="#333" stroke-width="1" stroke-linejoin="round"/>
<path d="M114.72,332.50L101.19,340.31L101.19,355.94L92.17,355.94L87.66,363.75L101.19,371.56L114.72,363.75L119.23,371.56L128.25,371.56L137.27,371.56L141.78,363.75L128.25,355.94L128.25,340.31L119.23,340.31 Z" fill="#f39c12" fill-opacity="0.85" stroke="#333" stroke-width="1" stroke-linejoin="round"/>
<path d="M168.85,363.75L182.38,355.94L182.38,340.31L173.36,340.31L168.85,348.12L155.32,340.31L141.78,348.12L146.30,355.94L141.78,363.75L155.32,371.56L155.32,387.19L164.34,387.19L168.85,379.38L173.36,371.56 Z" fill="#5b9bd5" fill-opacity="0.85" stroke="#333" stroke-width="1" stroke-linejoin="round"/>
<path d="M141.78,395.00L155.32,402.81L168.85,395.00L164.34,387.19L155.32,387.19L155.32,371.56L141.78,363.75L137.27,371.56L128.25,371.56L128.25,387.19L114.72,395.00L119.23,402.81L128.25,402.81L137.27,402.81 Z" fill="#5b9bd5" fill-opacity="0.85" stroke="#333" stroke-width="1" stroke-linejoin="round"/>
<path d="M101.19,387.19L101.19,402.81L114.72,410.62L119.23,402.81L114.72,395.00L128.25,387.19L128.25,371.56L119.23,371.56L114.72,363.75L101.19,371.56L87.66,363.75L83.15,371.56L87.66,379.37L92.17,387.19 Z" fill="#5b9bd5" fill-opacity="0.85" stroke="#333" stroke-width="1" stroke-linejoin="round"/>
<path d="M60.59,363.75L47.06,371.56L47.06,387.19L56.08,387.19L60.59,379.38L74.13,387.19L87.66,379.38L83.15,371.56L87.66,363.75L74.13,355.94L74.13,340.31L65.11,340.31L60.59,348.12L56.08,355.94 Z" fill="#5b9bd5" fill-opacity="0.85" stroke="#333" stroke-width="1" stroke-linejoin="round"/>
<path d="M87.66,332.50L74.13,324.69L60.59,332.50L65.11,340.31L74.13,340.31L74.13,355.94L87.66,363.75L92.17,355.94L101.19,355.94L101.19,340.31L114.72,332.50L110.21,324.69L101.19,324.69L92.17,324.69 Z" fill="#5b9bd5" fill-opacity="0.85" stroke="#333" stroke-width="1" stroke-linejoin="round"/>
<path d="M74.13,402.81L74.13,418.44L87.66,426.25L92.17,418.44L87.66,410.62L101.19,402.81L101.19,387.19L92.17,387.19L87.66,379.38L74.13,387.19L60.59,379.37L56.08,387.19L60.59,395.00L65.11,402.81 Z" fill="#5b9bd5" fill-opacity="0.85" stroke="#333" stroke-width="1" stroke-linejoin="round"/>
<path d="M114.72,270.00L101.19,277.81L101.19,293.44L110.21,293.44L114.72,285.62L128.25,293.44L141.78,285.62L137.27,277.81L141.78,270.00L128.25,262.19L128.25,246.56L119.23,246.56L114.72,254.38L110.21,262.19 Z" fill="#5b9bd5" fill-opacity="0.85" stroke="#333" stroke-width="1" stroke-linejoin="round"/>
<path d="M114.72,254.38L101.19,246.56L87.66,254.38L83.15,246.56L74.13,246.56L74.13,262.19L87.66,270.00L83.15,277.81L87.66,285.62L92.17,293.44L101.19,293.44L101.19,277.81L114.72,270.00L110.21,262.19 Z" fill="#f39c12" fill-opacity="0.85" stroke="#333" stroke-width="1" stroke-linejoin="round"/>
<path d="M114.72,316.87L128.25,324.69L141.78,316.87L137.27,309.06L128.25,309.06L128.25,293.44L114.72,285.62L110.21,293.44L101.19,293.44L101.19,309.06L87.66,316.87L92.17,324.69L101.19,324.69L110.21,324.69 Z" fill="#5b9bd5" fill-opacity="0.85" stroke="#333" stroke-width="1" stroke-linejoin="round"/>
<path d="M74.13,309.06L74.13,324.69L87.66,332.50L92.17,324.69L87.66,316.87L101.19,309.06L101.19,293.44L92.17,293.44L87.66,285.62L74.13,293.44L60.59,285.62L56.08,293.44L60.59,301.25L65.11,309.06 Z" fill="#5b9bd5" fill-opacity="0.85" stroke="#333" stroke-width="1" stroke-linejoin="round"/>
<path d="M60.59,270.00L47.06,277.81L47.06,293.44L56.08,293.44L60.59,285.62L74.13,293.44L87.66,285.62L83.15,277.81L87.66,270.00L74.13,262.19L74.13,246.56L65.11,246.56L60.59,254.38L56.08,262.19 Z" fill="#5b9bd5" fill-opacity="0.85" stroke="#333" stroke-width="1" stroke-linejoin="round"/>
<path d="M60.59,223.12L47.06,215.31L33.53,223.12L38.04,230.94L47.06,230.94L47.06,246.56L60.59,254.38L65.11,246.56L74.13,246.56L74.13,230.94L87.66,223.12L83.15,215.31L74.13,215.31L65.11,215.31 Z" fill="#5b9bd5" fill-opacity="0.85" stroke="#333" stroke-width="1" stroke-linejoin="round"/>
<path d="M101.19,230.94L101.19,215.31L87.66,207.50L83.15,215.31L87.66,223.12L74.13,230.94L74.13,246.56L83.15,246.56L87.66,254.38L101.19,246.56L114.72,254.38L119.23,246.56L114.72,238.75L110.21,230.94 Z" fill="#5b9bd5" fill-opacity="0.85" stroke="#333" stroke-width="1" stroke-linejoin="round"/>
<path d="M33.53,254.38L20.00,262.19L20.00,277.81L29.02,277.81L33.53,270.00L47.06,277.81L60.59,270.00L56.08,262.19L60.59,254.38L47.06,246.56L47.06,230.94L38.04,230.94L33.53,238.75L29.02,246.56 Z" fill="#5b9bd5" fill-opacity="0.85" stroke="#333" stroke-width="1" stroke-linejoin="round"/>
<path d="M168.85,223.12L155.32,215.31L141.78,223.12L146.30,230.94L155.32,230.94L155.32,246.56L168.85,254.38L173.36,246.56L182.38,246.56L182.38,230.94L195.91,223.12L191.40,215.31L182.38,215.31L173.36,215.31 Z" fill="#5b9bd5" fill-opacity="0.85" stroke="#333" stroke-width="1" stroke-linejoin="round"/>
<path d="M182.38,215.31L182.38,199.69L168.85,191.88L173.36,184.06L168.85,176.25L155.32,184.06L155.32,199.69L146.30,199.69L141.78,207.50L137.27,215.31L141.78,223.12L155.32,215.31L168.85,223.12L173.36,215.31 Z" fill="#f39c12" fill-opacity="0.85" stroke="#333" stroke-width="1" stroke-linejoin="round"/>
<path d="M128.25,246.56L128.25,262.19L141.78,270.00L146.30,262.19L141.78,254.38L155.32,246.56L155.32,230.94L146.30,230.94L141.78,223.12L128.25,230.94L114.72,223.12L110.21,230.94L114.72,238.75L119.23,246.56 Z" fill="#5b9bd5" fill-opacity="0.85" stroke="#333" stroke-width="1" stroke-linejoin="round"/>
<path d="M114.72,207.50L101.19,215.31L101.19,230.94L110.21,230.94L114.72,223.12L128.25,230.94L141.78,223.12L137.27,215.31L141.78,207.50L128.25,199.69L128.25,184.06L119.23,184.06L114.72,191.88L110.21,199.69 Z" fill="#5b9bd5" fill-opacity="0.85" stroke="#333" stroke-width="1" stroke-linejoin="round"/>
<path d="M141.78,176.25L128.25,168.44L114.72,176.25L119.23,184.06L128.25,184.06L128.25,199.69L141.78,207.50L146.30,199.69L155.32,199.69L155.32,184.06L168.85,176.25L164.34,168.44L155.32,168.44L146.30,168.44 Z" fill="#5b9bd5" fill-opacity="0.85" stroke="#333" stroke-width="1" stroke-linejoin="round"/>
<path d="M182.38,152.81L182.38,137.19L168.85,129.37L164.34,137.19L168.85,145.00L155.32,152.81L155.32,168.44L164.34,168.44L168.85,176.25L182.38,168.44L195.91,176.25L200.42,168.44L195.91,160.62L191.40,152.81 Z" fill="#5b9bd5" fill-opacity="0.85" stroke="#333" stroke-width="1" stroke-linejoin="round"/>
<path d="M195.91,191.88L209.44,184.06L209.44,168.44L200.42,168.44L195.91,176.25L182.38,168.44L168.85,176.25L173.36,184.06L168.85,191.88L182.38,199.69L182.38,215.31L191.40,215.31L195.91,207.50L200.42,199.69 Z" fill="#5b9bd5" fill-opacity="0.85" stroke="#333" stroke-width="1" stroke-linejoin="round"/>
<path d="M141.78,145.00L128.25,137.19L114.72,145.00L119.23,152.81L128.25,152.81L128.25,168.44L141.78,176.25L146.30,168.44L155.32,168.44L155.32,152.81L168.85,145.00L164.34,137.19L155.32,137.19L146.30,137.19 Z" fill="#5b9bd5" fill-opacity="0.85" stroke="#333" stroke-width="1" stroke-linejoin="round"/>
<path d="M209.44,137.19L209.44,121.56L195.91,113.75L191.40,121.56L195.91,129.37L182.38,137.19L182.38,152.81L191.40,152.81L195.91,160.62L209.44,152.81L222.97,160.62L227.49,152.81L222.97,145.00L218.46,137.19 Z" fill="#5b9bd5" fill-opacity="0.85" stroke="#333" stroke-width="1" stroke-linejoin="round"/>
<path d="M222.97,145.00L236.51,137.19L236.51,121.56L245.53,121.56L250.04,113.75L236.51,105.94L222.97,113.75L218.46,105.94L209.44,105.94L200.42,105.94L195.91,113.75L209.44,121.56L209.44,137.19L218.46,137.19 Z" fill="#f39c12" fill-opacity="0.85" stroke="#333" stroke-width="1" stroke-linejoin="round"/>
<path d="M168.85,113.75L155.32,121.56L155.32,137.19L164.34,137.19L168.85,129.37L182.38,137.19L195.91,129.37L191.40,121.56L195.91,113.75L182.38,105.94L182.38,90.31L173.36,90.31L168.85,98.12L164.34,105.94 Z" fill="#5b9bd5" fill-opacity="0.85" stroke="#333" stroke-width="1" stroke-linejoin="round"/>
<path d="M195.91,82.50L182.38,74.69L168.85,82.50L173.36,90.31L182.38,90.31L182.38,105.94L195.91,113.75L200.42,105.94L209.44,105.94L209.44,90.31L222.97,82.50L218.46,74.69L209.44,74.69L200.42,74.69 Z" fill="#5b9bd5" fill-opacity="0.85" stroke="#333" stroke-width="1" stroke-linejoin="round"/>
<path d="M236.51,90.31L236.51,74.69L222.97,66.88L218.46,74.69L222.97,82.50L209.44,90.31L209.44,105.94L218.46,105.94L222.97,113.75L236.51,105.94L250.04,113.75L254.55,105.94L250.04,98.12L245.53,90.31 Z" fill="#5b9bd5" fill-opacity="0.85" stroke="#333" stroke-width="1" stroke-linejoin="round"/>
<path d="M277.10,113.75L290.63,105.94L290.63,90.31L281.61,90.31L277.10,98.12L263.57,90.31L250.04,98.12L254.55,105.94L250.04,113.75L263.57,121.56L263.57,137.19L272.59,137.19L277.10,129.37L281.61,121.56 Z" fill="#5b9bd5" fill-opacity="0.85" stroke="#333" stroke-width="1" stroke-linejoin="round"/>
<path d="M250.04,145.00L263.57,152.81L277.10,145.00L272.59,137.19L263.57,137.19L263.57,121.56L250.04,113.75L245.53,121.56L236.51,121.56L236.51,137.19L222.97,145.00L227.49,152.81L236.51,152.81L245.53,152.81 Z" fill="#5b9bd5" fill-opacity="0.85" stroke="#333" stroke-width="1" stroke-linejoin="round"/>
<path d="M263.57,74.69L263.57,59.06L250.04,51.25L245.53,59.06L250.04,66.88L236.51,74.69L236.51,90.31L245.53,90.31L250.04,98.12L263.57,90.31L277.10,98.12L281.61,90.31L277.10,82.50L272.59,74.69 Z" fill="#5b9bd5" fill-opacity="0.85" stroke="#333" stroke-width="1" stroke-linejoin="round"/>
<path d="M222.97,207.50L236.51,199.69L236.51,184.06L227.49,184.06L222.97,191.88L209.44,184.06L195.91,191.88L200.42,199.69L195.91,207.50L209.44,215.31L209.44,230.94L218.46,230.94L222.97,223.12L227.49,215.31 Z" fill="#5b9bd5" fill-opacity="0.85" stroke="#333" stroke-width="1" stroke-linejoin="round"/>
<path d="M222.97,223.12L236.51,230.94L250.04,223.12L254.55,230.94L263.57,230.94L263.57,215.31L250.04,207.50L254.55,199.69L250.04,191.88L245.53,184.06L236.51,184.06L236.51,199.69L222.97,207.50L227.49,215.31 Z" fill="#f39c12" fill-opacity="0.85" stroke="#333" stroke-width="1" stroke-linejoin="round"/>
<path d="M222.97,160.62L209.44,152.81L195.91,160.62L200.42,168.44L209.44,168.44L209.44,184.06L222.97,191.88L227.49,184.06L236.51,184.06L236.51,168.44L250.04,160.62L245.53,152.81L236.51,152.81L227.49,152.81 Z" fill="#5b9bd5" fill-opacity="0.85" stroke="#333" stroke-width="1" stroke-linejoin="round"/>
<path d="M263.57,168.44L263.57,152.81L250.04,145.00L245.53,152.81L250.04,160.62L236.51,168.44L236.51,184.06L245.53,184.06L250.04,191.88L263.57,184.06L277.10,191.88L281.61,184.06L277.10,176.25L272.59,168.44 Z" fill="#5b9bd5" fill-opacity="0.85" stroke="#333" stroke-width="1" stroke-linejoin="round"/>
<path d="M277.10,207.50L290.63,199.69L290.63,184.06L281.61,184.06L277.10,191.88L263.57,184.06L250.04,191.88L254.55,199.69L250.04,207.50L263.57,215.31L263.57,230.94L272.59,230.94L277.10,223.12L281.61,215.31 Z" fill="#5b9bd5" fill-opacity="0.85" stroke="#333" stroke-width="1" stroke-linejoin="round"/>
<path d="M277.10,254.38L290.63,262.19L304.16,254.38L299.65,246.56L290.63,246.56L290.63,230.94L277.10,223.12L272.59,230.94L263.57,230.94L263.57,246.56L250.04,254.38L254.55,262.19L263.57,262.19L272.59,262.19 Z" fill="#5b9bd5" fill-opacity="0.85" stroke="#333" stroke-width="1" stroke-linejoin="round"/>
<path d="M236.51,246.56L236.51,262.19L250.04,270.00L254.55,262.19L250.04,254.38L263.57,246.56L263.57,230.94L254.55,230.94L250.04,223.12L236.51,230.94L222.97,223.12L218.46,230.94L222.97,238.75L227.49,246.56 Z" fill="#5b9bd5" fill-opacity="0.85" stroke="#333" stroke-width="1" stroke-linejoin="round"/>
<path d="M304.16,223.12L317.70,215.31L317.70,199.69L308.68,199.69L304.16,207.50L290.63,199.69L277.10,207.50L281.61,215.31L277.10,223.12L290.63,230.94L290.63,246.56L299.65,246.56L304.16,238.75L308.68,230.94 Z" fill="#5b9bd5" fill-opacity="0.85" stroke="#333" stroke-width="1" stroke-linejoin="round"/>
<path d="M141.78,113.75L128.25,105.94L114.72,113.75L119.23,121.56L128.25,121.56L128.25,137.19L141.78,145.00L146.30,137.19L155.32,137.19L155.32,121.56L168.85,113.75L164.34,105.94L155.32,105.94L146.30,105.94 Z" fill="#5b9bd5" fill-opacity="0.85" stroke="#333" stroke-width="1" stroke-linejoin="round"/>
<path d="M155.32,105.94L155.32,90.31L141.78,82.50L146.30,74.69L141.78,66.88L128.25,74.69L128.25,90.31L119.23,90.31L114.72,98.13L110.21,105.94L114.72,113.75L128.25,105.94L141.78,113.75L146.30,105.94 Z" fill="#f39c12" fill-opacity="0.85" stroke="#333" stroke-width="1" stroke-linejoin="round"/>
<path d="M101.19,137.19L101.19,152.81L114.72,160.62L119.23,152.81L114.72,145.00L128.25,137.19L128.25,121.56L119.23,121.56L114.72,113.75L101.19,121.56L87.66,113.75L83.15,121.56L87.66,129.37L92.17,137.19 Z" fill="#5b9bd5" fill-opacity="0.85" stroke="#333" stroke-width="1" stroke-linejoin="round"/>
<path d="M87.66,98.12L74.13,105.94L74.13,121.56L83.15,121.56L87.66,113.75L101.19,121.56L114.72,113.75L110.21,105.94L114.72,98.13L101.19,90.31L101.19,74.69L92.17,74.69L87.66,82.50L83.15,90.31 Z" fill="#5b9bd5" fill-opacity="0.85" stroke="#333" stroke-width="1" stroke-linejoin="round"/>
<path d="M114.72,66.88L101.19,59.06L87.66,66.88L92.17,74.69L101.19,74.69L101.19,90.31L114.72,98.12L119.23,90.31L128.25,90.31L128.25,74.69L141.78,66.88L137.27,59.06L128.25,59.06L119.23,59.06 Z" fill="#5b9bd5" fill-opacity="0.85" stroke="#333" stroke-width="1" stroke-linejoin="round"/>
<path d="M155.32,43.44L155.32,27.81L141.78,20.00L137.27,27.81L141.78,35.62L128.25,43.44L128.25,59.06L137.27,59.06L141.78,66.88L155.32,59.06L168.85,66.88L173.36,59.06L168.85,51.25L164.34,43.44 Z" fill="#5b9bd5" fill-opacity="0.85" stroke="#333" stroke-width="1" stroke-linejoin="round"/>
<path d="M168.85,82.50L182.38,74.69L182.38,59.06L173.36,59.06L168.85,66.88L155.32,59.06L141.78,66.88L146.30,74.69L141.78,82.50L155.32,90.31L155.32,105.94L164.34,105.94L168.85,98.13L173.36,90.31 Z" fill="#5b9bd5" fill-opacity="0.85" stroke="#333" stroke-width="1" stroke-linejoin="round"/>
<path d="M114.72,35.62L101.19,27.81L87.66,35.62L92.17,43.44L101.19,43.44L101.19,59.06L114.72,66.88L119.23,59.06L128.25,59.06L128.25,43.44L141.78,35.62L137.27,27.81L128.25,27.81L119.23,27.81 Z" fill="#5b9bd5" fill-opacity="0.85" stroke="#333" stroke-width="1" stroke-linejoin="round"/>
<path d="M371.82,355.94L371.82,340.31L358.29,332.50L353.78,340.31L358.29,348.12L344.76,355.94L344.76,371.56L353.78,371.56L358.29,379.38L371.82,371.56L385.35,379.38L389.87,371.56L385.35,363.75L380.84,355.94 Z" fill="#5b9bd5" fill-opacity="0.85" stroke="#333" stroke-width="1" stroke-linejoin="round"/>
<path d="M385.35,363.75L398.89,355.94L398.89,340.31L407.91,340.31L412.42,332.50L398.89,324.69L385.35,332.50L380.84,324.69L371.82,324.69L362.80,324.69L358.29,332.50L371.82,340.31L371.82,355.94L380.84,355.94 Z" fill="#f39c12" fill-opacity="0.85" stroke="#333" stroke-width="1" stroke-linejoin="round"/>
<path d="M331.23,332.50L317.70,340.31L317.70,355.94L326.72,355.94L331.23,348.12L344.76,355.94L358.29,348.12L353.78,340.31L358.29,332.50L344.76,324.69L344.76,309.06L335.74,309.06L331.23,316.88L326.72,324.69 Z" fill="#5b9bd5" fill-opacity="0.85" stroke="#333" stroke-width="1" stroke-linejoin="round"/>
<path d="M358.29,301.25L344.76,293.44L331.23,301.25L335.74,309.06L344.76,309.06L344.76,324.69L358.29,332.50L362.80,324.69L371.82,324.69L371.82,309.06L385.35,301.25L380.84,293.44L371.82,293.44L362.80,293.44 Z" fill="#5b9bd5" fill-opacity="0.85" stroke="#333" stroke-width="1" stroke-linejoin="round"/>
<path d="M398.89,309.06L398.89,293.44L385.35,285.63L380.84,293.44L385.35,301.25L371.82,309.06L371.82,324.69L380.84,324.69L385.35,332.50L398.89,324.69L412.42,332.50L416.93,324.69L412.42,316.88L407.91,309.06 Z" fill="#5b9bd5" fill-opacity="0.85" stroke="#333" stroke-width="1" stroke-linejoin="round"/>
<path d="M439.48,332.50L453.01,324.69L453.01,309.06L443.99,309.06L439.48,316.88L425.95,309.06L412.42,316.88L416.93,324.69L412.42,332.50L425.95,340.31L425.95,355.94L434.97,355.94L439.48,348.12L443.99,340.31 Z" fill="#5b9bd5" fill-opacity="0.85" stroke="#333" stroke-width="1" stroke-linejoin="round"/>
<path d="M412.42,363.75L425.95,371.56L439.48,363.75L434.97,355.94L425.95,355.94L425.95,340.31L412.42,332.50L407.91,340.31L398.89,340.31L398.89,355.94L385.35,363.75L389.87,371.56L398.89,371.56L407.91,371.56 Z" fill="#5b9bd5" fill-opacity="0.85" stroke="#333" stroke-width="1" stroke-linejoin="round"/>
<path d="M304.16,316.87L290.63,324.69L290.63,340.31L299.65,340.31L304.16,332.50L317.70,340.31L331.23,332.50L326.72,324.69L331.23,316.88L317.70,309.06L317.70,293.44L308.68,293.44L304.16,301.25L299.65,309.06 Z" fill="#5b9bd5" fill-opacity="0.85" stroke="#333" stroke-width="1" stroke-linejoin="round"/>
<path d="M304.16,301.25L290.63,293.44L277.10,301.25L272.59,293.44L263.57,293.44L263.57,309.06L277.10,316.87L272.59,324.69L277.10,332.50L281.61,340.31L290.63,340.31L290.63,324.69L304.16,316.87L299.65,309.06 Z" fill="#f39c12" fill-opacity="0.85" stroke="#333" stroke-width="1" stroke-linejoin="round"/>
<path d="M304.16,363.75L317.70,371.56L331.23,363.75L326.72,355.94L317.70,355.94L317.70,340.31L304.16,332.50L299.65,340.31L290.63,340.31L290.63,355.94L277.10,363.75L281.61,371.56L290.63,371.56L299.65,371.56 Z" fill="#5b9bd5" fill-opacity="0.85" stroke="#333" stroke-width="1" stroke-linejoin="round"/>
<path d="M263.57,355.94L263.57,371.56L277.10,379.38L281.61,371.56L277.10,363.75L290.63,355.94L290.63,340.31L281.61,340.31L277.10,332.50L263.57,340.31L250.04,332.50L245.53,340.31L250.04,348.12L254.55,355.94 Z" fill="#5b9bd5" fill-opacity="0.85" stroke="#333" stroke-width="1" stroke-linejoin="round"/>
<path d="M250.04,316.87L236.51,324.69L236.51,340.31L245.53,340.31L250.04,332.50L263.57,340.31L277.10,332.50L272.59,324.69L277.10,316.87L263.57,309.06L263.57,293.44L254.55,293.44L250.04,301.25L245.53,309.06 Z" fill="#5b9bd5" fill-opacity="0.85" stroke="#333" stroke-width="1" stroke-linejoin="round"/>
<path d="M250.04,270.00L236.51,262.19L222.97,270.00L227.49,277.81L236.51,277.81L236.51,293.44L250.04,301.25L254.55,293.44L263.57,293.44L263.57,277.81L277.10,270.00L272.59,262.19L263.57,262.19L254.55,262.19 Z" fill="#5b9bd5" fill-opacity="0.85" stroke="#333" stroke-width="1" stroke-linejoin="round"/>
<path d="M290.63,277.81L290.63,262.19L277.10,254.38L272.59,262.19L277.10,270.00L263.57,277.81L263.57,293.44L272.59,293.44L277.10,301.25L290.63,293.44L304.16,301.25L308.68,293.44L304.16,285.62L299.65,277.81 Z" fill="#5b9bd5" fill-opacity="0.85" stroke="#333" stroke-width="1" stroke-linejoin="round"/>
<path d="M222.97,301.25L209.44,309.06L209.44,324.69L218.46,324.69L222.97,316.87L236.51,324.69L250.04,316.87L245.53,309.06L250.04,301.25L236.51,293.44L236.51,277.81L227.49,277.81L222.97,285.62L218.46,293.44 Z" fill="#5b9bd5" fill-opacity="0.85" stroke="#333" stroke-width="1" stroke-linejoin="round"/>
<path d="M358.29,270.00L344.76,262.19L331.23,270.00L335.74,277.81L344.76,277.81L344.76,293.44L358.29,301.25L362.80,293.44L371.82,293.44L371.82,277.81L385.35,270.00L380.84,262.19L371.82,262.19L362.80,262.19 Z" fill="#5b9bd5" fill-opacity="0.85" stroke="#333" stroke-width="1" stroke-linejoin="round"/>
<path d="M371.82,262.19L371.82,246.56L358.29,238.75L362.80,230.94L358.29,223.12L344.76,230.94L344.76,246.56L335.74,246.56L331.23,254.38L326.72,262.19L331.23,270.00L344.76,262.19L358.29,270.00L362.80,262.19 Z" fill="#f39c12" fill-opacity="0.85" stroke="#333" stroke-width="1" stroke-linejoin="round"/>
<path d="M317.70,293.44L317.70,309.06L331.23,316.87L335.74,309.06L331.23,301.25L344.76,293.44L344.76,277.81L335.74,277.81L331.23,270.00L317.70,277.81L304.16,270.00L299.65,277.81L304.16,285.62L308.68,293.44 Z" fill="#5b9bd5" fill-opacity="0.85" stroke="#333" stroke-width="1" stroke-linejoin="round"/>
<path d="M304.16,254.38L290.63,262.19L290.63,277.81L299.65,277.81L304.16,270.00L317.70,277.81L331.23,270.00L326.72,262.19L331.23,254.38L317.70,246.56L317.70,230.94L308.68,230.94L304.16,238.75L299.65,246.56 Z" fill="#5b9bd5" fill-opacity="0.85" stroke="#333" stroke-width="1" stroke-linejoin="round"/>
<path d="M331.23,223.12L317.70,215.31L304.16,223.12L308.68,230.94L317.70,230.94L317.70,246.56L331.23,254.38L335.74,246.56L344.76,246.56L344.76,230.94L358.29,223.12L353.78,215.31L344.76,215.31L335.74,215.31 Z" fill="#5b9bd5" fill-opacity="0.85" stroke="#333" stroke-width="1" stroke-linejoin="round"/>
<path d="M371.82,199.69L371.82,184.06L358.29,176.25L353.78,184.06L358.29,191.88L344.76,199.69L344.76,215.31L353.78,215.31L358.29,223.13L371.82,215.31L385.35,223.13L389.87,215.31L385.35,207.50L380.84,199.69 Z" fill="#5b9bd5" fill-opacity="0.85" stroke="#333" stroke-width="1" stroke-linejoin="round"/>
<path d="M385.35,238.75L398.89,230.94L398.89,215.31L389.87,215.31L385.35,223.12L371.82,215.31L358.29,223.12L362.80,230.94L358.29,238.75L371.82,246.56L371.82,262.19L380.84,262.19L385.35,254.38L389.87,246.56 Z" fill="#5b9bd5" fill-opacity="0.85" stroke="#333" stroke-width="1" stroke-linejoin="round"/>
<path d="M331.23,191.88L317.70,184.06L304.16,191.88L308.68,199.69L317.70,199.69L317.70,215.31L331.23,223.12L335.74,215.31L344.76,215.31L344.76,199.69L358.29,191.88L353.78,184.06L344.76,184.06L335.74,184.06 Z" fill="#5b9bd5" fill-opacity="0.85" stroke="#333" stroke-width="1" stroke-linejoin="round"/>
<path d="M425.95,293.44L425.95,277.81L412.42,270.00L407.91,277.81L412.42,285.63L398.89,293.44L398.89,309.06L407.91,309.06L412.42,316.88L425.95,309.06L439.48,316.88L443.99,309.06L439.48,301.25L434.97,293.44 Z" fill="#5b9bd5" fill-opacity="0.85" stroke="#333" stroke-width="1" stroke-linejoin="round"/>
<path d="M439.48,301.25L453.01,293.44L453.01,277.81L462.03,277.81L466.54,270.00L453.01,262.19L439.48,270.00L434.97,262.19L425.95,262.19L416.93,262.19L412.42,270.00L425.95,277.81L425.95,293.44L434.97,293.44 Z" fill="#f39c12" fill-opacity="0.85" stroke="#333" stroke-width="1" stroke-linejoin="round"/>
<path d="M385.35,270.00L371.82,277.81L371.82,293.44L380.84,293.44L385.35,285.63L398.89,293.44L412.42,285.63L407.91,277.81L412.42,270.00L398.89,262.19L398.89,246.56L389.87,246.56L385.35,254.38L380.84,262.19 Z" fill="#5b9bd5" fill-opacity="0.85" stroke="#333" stroke-width="1" stroke-linejoin="round"/>
<path d="M412.42,238.75L398.89,230.94L385.35,238.75L389.87,246.56L398.89,246.56L398.89,262.19L412.42,270.00L416.93,262.19L425.95,262.19L425.95,246.56L439.48,238.75L434.97,230.94L425.95,230.94L416.93,230.94 Z" fill="#5b9bd5" fill-opacity="0.85" stroke="#333" stroke-width="1" stroke-linejoin="round"/>
<path d="M453.01,246.56L453.01,230.94L439.48,223.13L434.97,230.94L439.48,238.75L425.95,246.56L425.95,262.19L434.97,262.19L439.48,270.00L453.01,262.19L466.54,270.00L471.05,262.19L466.54,254.38L462.03,246.56 Z" fill="#5b9bd5" fill-opacity="0.85" stroke="#333" stroke-width="1" stroke-linejoin="round"/>
<path d="M493.61,270.00L507.14,262.19L507.14,246.56L498.12,246.56L493.61,254.38L480.08,246.56L466.54,254.38L471.05,262.19L466.54,270.00L480.08,277.81L480.08,293.44L489.10,293.44L493.61,285.63L498.12,277.81 Z" fill="#5b9bd5" fill-opacity="0.85" stroke="#333" stroke-width="1" stroke-linejoin="round"/>
<path d="M466.54,301.25L480.08,309.06L493.61,301.25L489.10,293.44L480.08,293.44L480.08,277.81L466.54,270.00L462.03,277.81L453.01,277.81L453.01,293.44L439.48,301.25L443.99,309.06L453.01,309.06L462.03,309.06 Z" fill="#5b9bd5" fill-opacity="0.85" stroke="#333" stroke-width="1" stroke-linejoin="round"/>
<path d="M480.08,230.94L480.08,215.31L466.54,207.50L462.03,215.31L466.54,223.13L453.01,230.94L453.01,246.56L462.03,246.56L466.54,254.38L480.08,246.56L493.61,254.38L498.12,246.56L493.61,238.75L489.10,230.94 Z" fill="#5b9bd5" fill-opacity="0.85" stroke="#333" stroke-width="1" stroke-linejoin="round"/>
<path d="M520.67,285.63L534.20,277.81L534.20,262.19L525.18,262.19L520.67,270.00L507.14,262.19L493.61,270.00L498.12,277.81L493.61,285.63L507.14,293.44L507.14,309.06L516.16,309.06L520.67,301.25L525.18,293.44 Z" fill="#5b9bd5" fill-opacity="0.85" stroke="#333" stroke-width="1" stroke-linejoin="round"/>
<path d="M520.67,301.25L534.20,309.06L547.73,301.25L552.24,309.06L561.27,309.06L561.27,293.44L547.73,285.63L552.24,277.81L547.73,270.00L543.22,262.19L534.20,262.19L534.20,277.81L520.67,285.63L525.18,293.44 Z" fill="#f39c12" fill-opacity="0.85" stroke="#333" stroke-width="1" stroke-linejoin="round"/>
<path d="M520.67,238.75L507.14,230.94L493.61,238.75L498.12,246.56L507.14,246.56L507.14,262.19L520.67,270.00L525.18,262.19L534.20,262.19L534.20,246.56L547.73,238.75L543.22,230.94L534.20,230.94L525.18,230.94 Z" fill="#5b9bd5" fill-opacity="0.85" stroke="#333" stroke-width="1" stroke-linejoin="round"/>
<path d="M561.27,246.56L561.27,230.94L547.73,223.13L543.22,230.94L547.73,238.75L534.20,246.56L534.20,262.19L543.22,262.19L547.73,270.00L561.27,262.19L574.80,270.00L579.31,262.19L574.80,254.38L570.29,246.56 Z" fill="#5b9bd5" fill-opacity="0.85" stroke="#333" stroke-width="1" stroke-linejoin="round"/>
<path d="M574.80,285.63L588.33,277.81L588.33,262.19L579.31,262.19L574.80,270.00L561.27,262.19L547.73,270.00L552.24,277.81L547.73,285.63L561.27,293.44L561.27,309.06L570.29,309.06L574.80,301.25L579.31,293.44 Z" fill="#5b9bd5" fill-opacity="0.85" stroke="#333" stroke-width="1" stroke-linejoin="round"/>
<path d="M574.80,332.50L588.33,340.31L601.86,332.50L597.35,324.69L588.33,324.69L588.33,309.06L574.80,301.25L570.29,309.06L561.27,309.06L561.27,324.69L547.73,332.50L552.24,340.31L561.27,340.31L570.29,340.31 Z" fill="#5b9bd5" fill-opacity="0.85" stroke="#333" stroke-width="1" stroke-linejoin="round"/>
<path d="M534.20,324.69L534.20,340.31L547.73,348.13L552.24,340.31L547.73,332.50L561.27,324.69L561.27,309.06L552.24,309.06L547.73,301.25L534.20,309.06L520.67,301.25L516.16,309.06L520.67,316.88L525.18,324.69 Z" fill="#5b9bd5" fill-opacity="0.85" stroke="#333" stroke-width="1" stroke-linejoin="round"/>
<path d="M601.86,301.25L615.39,293.44L615.39,277.81L606.37,277.81L601.86,285.63L588.33,277.81L574.80,285.63L579.31,293.44L574.80,301.25L588.33,309.06L588.33,324.69L597.35,324.69L601.86,316.88L606.37,309.06 Z" fill="#5b9bd5" fill-opacity="0.85" stroke="#333" stroke-width="1" stroke-linejoin="round"/>
<path d="M466.54,332.50L480.08,340.31L493.61,332.50L489.10,324.69L480.08,324.69L480.08,309.06L466.54,301.25L462.03,309.06L453.01,309.06L453.01,324.69L439.48,332.50L443.99,340.31L453.01,340.31L462.03,340.31 Z" fill="#5b9bd5" fill-opacity="0.85" stroke="#333" stroke-width="1" stroke-linejoin="round"/>
<path d="M453.01,340.31L453.01,355.94L466.54,363.75L462.03,371.56L466.54,379.38L480.08,371.56L480.08,355.94L489.10,355.94L493.61,348.13L498.12,340.31L493.61,332.50L480.08,340.31L466.54,332.50L462.03,340.31 Z" fill="#f39c12" fill-opacity="0.85" stroke="#333" stroke-width="1" stroke-linejoin="round"/>
<path d="M507.14,309.06L507.14,293.44L493.61,285.63L489.10,293.44L493.61,301.25L480.08,309.06L480.08,324.69L489.10,324.69L493.61,332.50L507.14,324.69L520.67,332.50L525.18,324.69L520.67,316.88L516.16,309.06 Z" fill="#5b9bd5" fill-opacity="0.85" stroke="#333" stroke-width="1" stroke-linejoin="round"/>
<path d="M520.67,348.13L534.20,340.31L534.20,324.69L525.18,324.69L520.67,332.50L507.14,324.69L493.61,332.50L498.12,340.31L493.61,348.13L507.14,355.94L507.14,371.56L516.16,371.56L520.67,363.75L525.18,355.94 Z" fill="#5b9bd5" fill-opacity="0.85" stroke="#333" stroke-width="1" stroke-linejoin="round"/>
<path d="M493.61,379.38L507.14,387.19L520.67,379.38L516.16,371.56L507.14,371.56L507.14,355.94L493.61,348.13L489.10,355.94L480.08,355.94L480.08,371.56L466.54,379.38L471.05,387.19L480.08,387.19L489.10,387.19 Z" fill="#5b9bd5" fill-opacity="0.85" stroke="#333" stroke-width="1" stroke-linejoin="round"/>
<path d="M453.01,402.81L453.01,418.44L466.54,426.25L471.05,418.44L466.54,410.63L480.08,402.81L480.08,387.19L471.05,387.19L466.54,379.38L453.01,387.19L439.48,379.38L434.97,387.19L439.48,395.00L443.99,402.81 Z" fill="#5b9bd5" fill-opacity="0.85" stroke="#333" stroke-width="1" stroke-linejoin="round"/>
<path d="M439.48,363.75L425.95,371.56L425.95,387.19L434.97,387.19L439.48,379.38L453.01,387.19L466.54,379.38L462.03,371.56L466.54,363.75L453.01,355.94L453.01,340.31L443.99,340.31L439.48,348.12L434.97,355.94 Z" fill="#5b9bd5" fill-opacity="0.85" stroke="#333" stroke-width="1" stroke-linejoin="round"/>
<path d="M493.61,410.63L507.14,418.44L520.67,410.63L516.16,402.81L507.14,402.81L507.14,387.19L493.61,379.38L489.10,387.19L480.08,387.19L480.08,402.81L466.54,410.63L471.05,418.44L480.08,418.44L489.10,418.44 Z" fill="#5b9bd5" fill-opacity="0.85" stroke="#333" stroke-width="1" stroke-linejoin="round"/>
<path d="M507.14,215.31L507.14,199.69L493.61,191.88L489.10,199.69L493.61,207.50L480.08,215.31L480.08,230.94L489.10,230.94L493.61,238.75L507.14,230.94L520.67,238.75L525.18,230.94L520.67,223.13L516.16,215.31 Z" fill="#5b9bd5" fill-opacity="0.85" stroke="#333" stroke-width="1" stroke-linejoin="round"/>
<path d="M520.67,223.13L534.20,215.31L534.20,199.69L543.22,199.69L547.73,191.88L534.20,184.06L520.67,191.88L516.16,184.06L507.14,184.06L498.12,184.06L493.61,191.88L507.14,199.69L507.14,215.31L516.16,215.31 Z" fill="#f39c12" fill-opacity="0.85" stroke="#333" stroke-width="1" stroke-linejoin="round"/>
<path d="M466.54,191.88L453.01,199.69L453.01,215.31L462.03,215.31L466.54,207.50L480.08,215.31L493.61,207.50L489.10,199.69L493.61,191.88L480.08,184.06L480.08,168.44L471.05,168.44L466.54,176.25L462.03,184.06 Z" fill="#5b9bd5" fill-opacity="0.85" stroke="#333" stroke-width="1" stroke-linejoin="round"/>
<path d="M493.61,160.63L480.08,152.81L466.54,160.62L471.05,168.44L480.08,168.44L480.08,184.06L493.61,191.88L498.12,184.06L507.14,184.06L507.14,168.44L520.67,160.63L516.16,152.81L507.14,152.81L498.12,152.81 Z" fill="#5b9bd5" fill-opacity="0.85" stroke="#333" stroke-width="1" stroke-linejoin="round"/>
<path d="M534.20,168.44L534.20,152.81L520.67,145.00L516.16,152.81L520.67,160.63L507.14,168.44L507.14,184.06L516.16,184.06L520.67,191.88L534.20,184.06L547.73,191.88L552.24,184.06L547.73,176.25L543.22,168.44 Z" fill="#5b9bd5" fill-opacity="0.85" stroke="#333" stroke-width="1" stroke-linejoin="round"/>
<path d="M574.80,191.88L588.33,184.06L588.33,168.44L579.31,168.44L574.80,176.25L561.27,168.44L547.73,176.25L552.24,184.06L547.73,191.88L561.27,199.69L561.27,215.31L570.29,215.31L574.80,207.50L579.31,199.69 Z" fill="#5b9bd5" fill-opacity="0.85" stroke="#333" stroke-width="1" stroke-linejoin="round"/>
<path d="M547.73,223.12L561.27,230.94L574.80,223.13L570.29,215.31L561.27,215.31L561.27,199.69L547.73,191.88L543.22,199.69L534.20,199.69L534.20,215.31L520.67,223.12L525.18,230.94L534.20,230.94L543.22,230.94 Z" fill="#5b9bd5" fill-opacity="0.85" stroke="#333" stroke-width="1" stroke-linejoin="round"/>
<path d="M561.27,152.81L561.27,137.19L547.73,129.38L543.22,137.19L547.73,145.00L534.20,152.81L534.20,168.44L543.22,168.44L547.73,176.25L561.27,168.44L574.80,176.25L579.31,168.44L574.80,160.63L570.29,152.81 Z" fill="#5b9bd5" fill-opacity="0.85" stroke="#333" stroke-width="1" stroke-linejoin="round"/>
</svg>
