<svg xmlns="http://www.w3.org/2000/svg" width="115" height="98" viewBox="0 0 115 98">
<rect width="100%" height="100%" fill="white"/>
<path d="M 22.660 24.000 L 25.547 29.000 L 22.660 34.000 L 19.774 39.000 L 22.660 44.000 L 14.000 49.000 L 14.000 59.000 L 19.774 59.000 L 22.660 64.000 L 25.547 69.000 L 31.321 69.000 L 31.321 79.000 L 39.981 84.000 L 42.868 79.000 L 39.981 74.000 L 48.641 69.000 L 57.301 74.000 L 60.188 69.000 L 65.962 69.000 L 71.735 69.000 L 74.622 64.000 L 83.282 69.000 L 91.942 64.000 L 89.056 59.000 L 91.942 54.000 L 94.829 49.000 L 91.942 44.000 L 100.603 39.000 L 100.603 29.000 L 94.829 29.000 L 91.942 34.000 L 83.282 29.000 L 83.282 19.000 L 77.509 19.000 L 74.622 14.000 L 65.962 19.000 L 57.301 14.000 L 54.415 19.000 L 48.641 19.000 L 42.868 19.000 L 39.981 24.000 L 31.321 19.000 Z " fill="#dddddd" stroke="black" stroke-width="1.50" fill-rule="evenodd"/>
<path d="M 65.962 59.000 L 65.962 49.000 L 60.188 49.000 L 57.301 44.000 L 48.641 49.000 L 39.981 44.000 L 37.094 49.000 L 39.981 54.000 L 42.868 59.000 L 48.641 59.000 L 48.641 69.000 L 57.301 74.000 L 60.188 69.000 L 57.301 64.000 Z " fill="#d9e9f7" stroke="#666666" stroke-width="0.80" fill-rule="evenodd"/>
<path d="M 83.282 49.000 L 74.622 44.000 L 71.735 49.000 L 65.962 49.000 L 65.962 59.000 L 57.301 64.000 L 60.188 69.000 L 65.962 69.000 L 71.735 69.000 L 74.622 64.000 L 83.282 69.000 L 91.942 64.000 L 89.056 59.000 L 83.282 59.000 Z " fill="#d9e9f7" stroke="#666666" stroke-width="0.80" fill-rule="evenodd"/>
<path d="M 83.282 29.000 L 83.282 19.000 L 77.509 19.000 L 74.622 14.000 L 65.962 19.000 L 57.301 14.000 L 54.415 19.000 L 57.301 24.000 L 60.188 29.000 L 65.962 29.000 L 65.962 39.000 L 74.622 44.000 L 77.509 39.000 L 74.622 34.000 Z " fill="#d9e9f7" stroke="#666666" stroke-width="0.80" fill-rule="evenodd"/>
<path d="M 83.282 29.000 L 74.622 34.000 L 77.509 39.000 L 74.622 44.000 L 83.282 49.000 L 83.282 59.000 L 89.056 59.000 L 91.942 54.000 L 94.829 49.000 L 91.942 44.000 L 100.603 39.000 L 100.603 29.000 L 94.829 29.000 L 91.942 34.000 Z " fill="#d9e9f7" stroke="#666666" stroke-width="0.80" fill-rule="evenodd"/>
<path d="M 31.321 39.000 L 39.981 44.000 L 42.868 39.000 L 48.641 39.000 L 48.641 29.000 L 57.301 24.000 L 54.415 19.000 L 48.641 19.000 L 42.868 19.000 L 39.981 24.000 L 31.321 19.000 L 22.660 24.000 L 25.547 29.000 L 31.321 29.000 Z " fill="#d9e9f7" stroke="#666666" stroke-width="0.80" fill-rule="evenodd"/>
<path d="M 31.321 59.000 L 39.981 54.000 L 37.094 49.000 L 39.981 44.000 L 31.321 39.000 L 31.321 29.000 L 25.547 29.000 L 22.660 34.000 L 19.774 39.000 L 22.660 44.000 L 14.000 49.000 L 14.000 59.000 L 19.774 59.000 L 22.660 54.000 Z " fill="#d9e9f7" stroke="#666666" stroke-width="0.80" fill-rule="evenodd"/>
<path d="M 48.641 69.000 L 48.641 59.000 L 42.868 59.000 L 39.981 54.000 L 31.321 59.000 L 22.660 54.000 L 19.774 59.000 L 22.660 64.000 L 25.547 69.000 L 31.321 69.000 L 31.321 79.000 L 39.981 84.000 L 42.868 79.000 L 39.981 74.000 Z " fill="#d9e9f7" stroke="#666666" stroke-width="0.80" fill-rule="evenodd"/>
<path d="M 48.641 39.000 L 42.868 39.000 L 39.981 44.000 L 48.641 49.000 L 57.301 44.000 L 60.188 49.000 L 65.962 49.000 L 71.735 49.000 L 74.622 44.000 L 65.962 39.000 L 65.962 29.000 L 60.188 29.000 L 57.301 24.000 L 48.641 29.000 Z " fill="#bcd0e2" stroke="#666666" stroke-width="0.80" fill-rule="evenodd"/>
<circle cx="37.094" cy="49.000" r="2.1" fill="#000000" stroke="none"/>
<circle cx="42.868" cy="39.000" r="2.1" fill="#000000" stroke="none"/>
<circle cx="42.868" cy="59.000" r="2.1" fill="#000000" stroke="none"/>
<circle cx="60.188" cy="29.000" r="2.1" fill="#000000" stroke="none"/>
<circle cx="60.188" cy="49.000" r="2.1" fill="#000000" stroke="none"/>
<circle cx="71.735" cy="49.000" r="2.1" fill="#000000" stroke="none"/>
<circle cx="77.509" cy="39.000" r="2.1" fill="#000000" stroke="none"/>
<circle cx="31.321" cy="29.000" r="2.1" fill="#000000" stroke="none"/>
<circle cx="57.301" cy="24.000" r="2.1" fill="#000000" stroke="none"/>
<circle cx="22.660" cy="54.000" r="2.1" fill="#000000" stroke="none"/>
<circle cx="39.981" cy="44.000" r="2.1" fill="#000000" stroke="none"/>
<circle cx="48.641" cy="39.000" r="2.1" fill="#000000" stroke="none"/>
<circle cx="65.962" cy="29.000" r="2.1" fill="#000000" stroke="none"/>
<circle cx="39.981" cy="54.000" r="2.1" fill="#000000" stroke="none"/>
<circle cx="57.301" cy="44.000" r="2.1" fill="#000000" stroke="none"/>
<circle cx="74.622" cy="34.000" r="2.1" fill="#000000" stroke="none"/>
<circle cx="48.641" cy="59.000" r="2.1" fill="#000000" stroke="none"/>
<circle cx="65.962" cy="49.000" r="2.1" fill="#000000" stroke="none"/>
<circle cx="74.622" cy="44.000" r="2.1" fill="#000000" stroke="none"/>
<circle cx="57.301" cy="64.000" r="2.1" fill="#000000" stroke="none"/>
<circle cx="83.282" cy="59.000" r="2.1" fill="#000000" stroke="none"/>
<circle cx="31.321" cy="39.000" r="2.1" fill="#000000" stroke="none"/>
<circle cx="48.641" cy="29.000" r="2.1" fill="#000000" stroke="none"/>
<circle cx="31.321" cy="59.000" r="2.1" fill="#000000" stroke="none"/>
<circle cx="48.641" cy="49.000" r="2.1" fill="#000000" stroke="none"/>
<circle cx="65.962" cy="39.000" r="2.1" fill="#000000" stroke="none"/>
<circle cx="65.962" cy="59.000" r="2.1" fill="#000000" stroke="none"/>
<circle cx="83.282" cy="49.000" r="2.1" fill="#000000" stroke="none"/>
</svg>
