<svg xmlns="http://www.w3.org/2000/svg" width="312" height="174">
<rect width="100%" height="100%" fill="white"/>
<path d="M69.43,44.00L59.03,38.00L55.57,44.00L48.64,44.00L48.64,56.00L38.25,62.00L41.71,68.00L48.64,68.00L55.57,68.00L59.03,62.00L69.43,68.00L79.82,62.00L76.35,56.00L69.43,56.00 Z" fill="#a8d8ea" stroke="#555" stroke-width="0.70" stroke-linejoin="round"/>
<path d="M69.43,20.00L59.03,26.00L62.50,32.00L59.03,38.00L69.43,44.00L69.43,56.00L76.35,56.00L79.82,50.00L83.28,44.00L79.82,38.00L90.21,32.00L90.21,20.00L83.28,20.00L79.82,26.00 Z" fill="#a8d8ea" stroke="#555" stroke-width="0.70" stroke-linejoin="round"/>
<path d="M90.21,56.00L100.60,62.00L104.07,56.00L110.99,56.00L110.99,44.00L121.39,38.00L117.92,32.00L110.99,32.00L104.07,32.00L100.60,38.00L90.21,32.00L79.82,38.00L83.28,44.00L90.21,44.00 Z" fill="#a8d8ea" stroke="#555" stroke-width="0.70" stroke-linejoin="round"/>
<path d="M110.99,92.00L121.39,86.00L117.92,80.00L121.39,74.00L110.99,68.00L110.99,56.00L104.07,56.00L100.60,62.00L97.14,68.00L100.60,74.00L90.21,80.00L90.21,92.00L97.14,92.00L100.60,86.00 Z" fill="#a8d8ea" stroke="#555" stroke-width="0.70" stroke-linejoin="round"/>
<path d="M131.78,104.00L131.78,92.00L124.85,92.00L121.39,86.00L110.99,92.00L100.60,86.00L97.14,92.00L100.60,98.00L104.07,104.00L110.99,104.00L110.99,116.00L121.39,122.00L124.85,116.00L121.39,110.00 Z" fill="#a8d8ea" stroke="#555" stroke-width="0.70" stroke-linejoin="round"/>
<path d="M90.21,104.00L79.82,110.00L83.28,116.00L79.82,122.00L90.21,128.00L90.21,140.00L97.14,140.00L100.60,134.00L104.07,128.00L100.60,122.00L110.99,116.00L110.99,104.00L104.07,104.00L100.60,110.00 Z" fill="#a8d8ea" stroke="#555" stroke-width="0.70" stroke-linejoin="round"/>
<path d="M48.64,104.00L48.64,116.00L55.57,116.00L59.03,122.00L69.43,116.00L79.82,122.00L83.28,116.00L79.82,110.00L76.35,104.00L69.43,104.00L69.43,92.00L59.03,86.00L55.57,92.00L59.03,98.00 Z" fill="#a8d8ea" stroke="#555" stroke-width="0.70" stroke-linejoin="round"/>
<path d="M27.86,116.00L38.25,122.00L41.71,116.00L48.64,116.00L48.64,104.00L59.03,98.00L55.57,92.00L48.64,92.00L41.71,92.00L38.25,98.00L27.86,92.00L17.46,98.00L20.93,104.00L27.86,104.00 Z" fill="#a8d8ea" stroke="#555" stroke-width="0.70" stroke-linejoin="round"/>
<path d="M48.64,80.00L48.64,68.00L41.71,68.00L38.25,62.00L27.86,68.00L17.46,62.00L14.00,68.00L17.46,74.00L20.93,80.00L27.86,80.00L27.86,92.00L38.25,98.00L41.71,92.00L38.25,86.00 Z" fill="#a8d8ea" stroke="#555" stroke-width="0.70" stroke-linejoin="round"/>
<path d="M69.43,68.00L59.03,62.00L55.57,68.00L48.64,68.00L48.64,80.00L38.25,86.00L41.71,92.00L48.64,92.00L55.57,92.00L59.03,86.00L69.43,92.00L79.82,86.00L76.35,80.00L69.43,80.00 Z" fill="#f39c12" stroke="#1a1a1a" stroke-width="1.10" stroke-linejoin="round"/>
<path d="M69.43,92.00L69.43,104.00L76.35,104.00L79.82,110.00L90.21,104.00L100.60,110.00L104.07,104.00L100.60,98.00L97.14,92.00L90.21,92.00L90.21,80.00L79.82,74.00L76.35,80.00L79.82,86.00 Z" fill="#e74c3c" stroke="#1a1a1a" stroke-width="1.10" stroke-linejoin="round"/>
<path d="M90.21,80.00L100.60,74.00L97.14,68.00L100.60,62.00L90.21,56.00L90.21,44.00L83.28,44.00L79.82,50.00L76.35,56.00L79.82,62.00L69.43,68.00L69.43,80.00L76.35,80.00L79.82,74.00 Z" fill="#8e44ad" stroke="#1a1a1a" stroke-width="1.10" stroke-linejoin="round"/>
<path d="M83.28,44.00L79.82,50.00L76.35,56.00L79.82,62.00L69.43,68.00L59.03,62.00L55.57,68.00L48.64,68.00L48.64,80.00L38.25,86.00L41.71,92.00L48.64,92.00L55.57,92.00L59.03,86.00L69.43,92.00L69.43,104.00L76.35,104.00L79.82,110.00L90.21,104.00L100.60,110.00L104.07,104.00L100.60,98.00L97.14,92.00L90.21,92.00L90.21,80.00L100.60,74.00L97.14,68.00L100.60,62.00L90.21,56.00L90.21,44.00 Z" fill="none" stroke="#c0392b" stroke-width="1.80" stroke-linejoin="round"/>
<text x="78.1" y="171.0" text-anchor="middle" font-size="9" font-family="sans-serif" fill="#444">12 tiles</text>
<path d="M225.60,68.00L235.99,62.00L232.53,56.00L235.99,50.00L225.60,44.00L225.60,32.00L218.67,32.00L215.21,38.00L211.74,44.00L215.21,50.00L204.81,56.00L204.81,68.00L211.74,68.00L215.21,62.00 Z" fill="#a8d8ea" stroke="#555" stroke-width="0.70" stroke-linejoin="round"/>
<path d="M246.38,32.00L246.38,20.00L239.45,20.00L235.99,14.00L225.60,20.00L215.21,14.00L211.74,20.00L215.21,26.00L218.67,32.00L225.60,32.00L225.60,44.00L235.99,50.00L239.45,44.00L235.99,38.00 Z" fill="#a8d8ea" stroke="#555" stroke-width="0.70" stroke-linejoin="round"/>
<path d="M246.38,56.00L256.77,62.00L260.24,56.00L267.17,56.00L267.17,44.00L277.56,38.00L274.09,32.00L267.17,32.00L260.24,32.00L256.77,38.00L246.38,32.00L235.99,38.00L239.45,44.00L246.38,44.00 Z" fill="#a8d8ea" stroke="#555" stroke-width="0.70" stroke-linejoin="round"/>
<path d="M246.38,80.00L246.38,92.00L253.31,92.00L256.77,98.00L267.17,92.00L277.56,98.00L281.02,92.00L277.56,86.00L274.09,80.00L267.17,80.00L267.17,68.00L256.77,62.00L253.31,68.00L256.77,74.00 Z" fill="#a8d8ea" stroke="#555" stroke-width="0.70" stroke-linejoin="round"/>
<path d="M287.95,68.00L294.88,68.00L298.34,62.00L287.95,56.00L277.56,62.00L274.09,56.00L267.17,56.00L260.24,56.00L256.77,62.00L267.17,68.00L267.17,80.00L274.09,80.00L277.56,86.00L287.95,80.00 Z" fill="#a8d8ea" stroke="#555" stroke-width="0.70" stroke-linejoin="round"/>
<path d="M267.17,116.00L277.56,122.00L281.02,116.00L287.95,116.00L287.95,104.00L298.34,98.00L294.88,92.00L287.95,92.00L281.02,92.00L277.56,98.00L267.17,92.00L256.77,98.00L260.24,104.00L267.17,104.00 Z" fill="#a8d8ea" stroke="#555" stroke-width="0.70" stroke-linejoin="round"/>
<path d="M246.38,104.00L235.99,110.00L239.45,116.00L235.99,122.00L246.38,128.00L246.38,140.00L253.31,140.00L256.77,134.00L260.24,128.00L256.77,122.00L267.17,116.00L267.17,104.00L260.24,104.00L256.77,110.00 Z" fill="#a8d8ea" stroke="#555" stroke-width="0.70" stroke-linejoin="round"/>
<path d="M225.60,92.00L215.21,86.00L211.74,92.00L204.81,92.00L204.81,104.00L194.42,110.00L197.88,116.00L204.81,116.00L211.74,116.00L215.21,110.00L225.60,116.00L235.99,110.00L232.53,104.00L225.60,104.00 Z" fill="#a8d8ea" stroke="#555" stroke-width="0.70" stroke-linejoin="round"/>
<path d="M215.21,134.00L211.74,140.00L215.21,146.00L225.60,140.00L225.60,128.00L232.53,128.00L235.99,122.00L239.45,116.00L235.99,110.00L225.60,116.00L215.21,110.00L211.74,116.00L204.81,116.00L204.81,128.00 Z" fill="#a8d8ea" stroke="#555" stroke-width="0.70" stroke-linejoin="round"/>
<path d="M184.03,92.00L173.64,98.00L177.10,104.00L173.64,110.00L184.03,116.00L184.03,128.00L190.96,128.00L194.42,122.00L197.88,116.00L194.42,110.00L204.81,104.00L204.81,92.00L197.88,92.00L194.42,98.00 Z" fill="#a8d8ea" stroke="#555" stroke-width="0.70" stroke-linejoin="round"/>
<path d="M204.81,80.00L204.81,68.00L197.88,68.00L194.42,62.00L184.03,68.00L173.64,62.00L170.17,68.00L173.64,74.00L177.10,80.00L184.03,80.00L184.03,92.00L194.42,98.00L197.88,92.00L194.42,86.00 Z" fill="#a8d8ea" stroke="#555" stroke-width="0.70" stroke-linejoin="round"/>
<path d="M194.42,38.00L190.96,32.00L184.03,32.00L184.03,44.00L194.42,50.00L190.96,56.00L194.42,62.00L197.88,68.00L204.81,68.00L204.81,56.00L215.21,50.00L211.74,44.00L215.21,38.00L204.81,32.00 Z" fill="#a8d8ea" stroke="#555" stroke-width="0.70" stroke-linejoin="round"/>
<path d="M225.60,68.00L215.21,62.00L211.74,68.00L204.81,68.00L204.81,80.00L194.42,86.00L197.88,92.00L204.81,92.00L211.74,92.00L215.21,86.00L225.60,92.00L235.99,86.00L232.53,80.00L225.60,80.00 Z" fill="#f39c12" stroke="#1a1a1a" stroke-width="1.10" stroke-linejoin="round"/>
<path d="M225.60,92.00L225.60,104.00L232.53,104.00L235.99,110.00L246.38,104.00L256.77,110.00L260.24,104.00L256.77,98.00L253.31,92.00L246.38,92.00L246.38,80.00L235.99,74.00L232.53,80.00L235.99,86.00 Z" fill="#e74c3c" stroke="#1a1a1a" stroke-width="1.10" stroke-linejoin="round"/>
<path d="M246.38,80.00L256.77,74.00L253.31,68.00L256.77,62.00L246.38,56.00L246.38,44.00L239.45,44.00L235.99,50.00L232.53,56.00L235.99,62.00L225.60,68.00L225.60,80.00L232.53,80.00L235.99,74.00 Z" fill="#8e44ad" stroke="#1a1a1a" stroke-width="1.10" stroke-linejoin="round"/>
<path d="M239.45,44.00L235.99,50.00L232.53,56.00L235.99,62.00L225.60,68.00L215.21,62.00L211.74,68.00L204.81,68.00L204.81,80.00L194.42,86.00L197.88,92.00L204.81,92.00L211.74,92.00L215.21,86.00L225.60,92.00L225.60,104.00L232.53,104.00L235.99,110.00L246.38,104.00L256.77,110.00L260.24,104.00L256.77,98.00L253.31,92.00L246.38,92.00L246.38,80.00L256.77,74.00L253.31,68.00L256.77,62.00L246.38,56.00L246.38,44.00 Z" fill="none" stroke="#c0392b" stroke-width="1.80" stroke-linejoin="round"/>
<text x="234.3" y="171.0" text-anchor="middle" font-size="9" font-family="sans-serif" fill="#444">15 tiles</text>
</svg>
