<svg xmlns="http://www.w3.org/2000/svg" width="451" height="492">
<rect width="100%" height="100%" fill="white"/>
<path d="M107.53,80.00L97.14,74.00L93.67,80.00L86.75,80.00L86.75,92.00L76.35,98.00L79.82,104.00L86.75,104.00L93.67,104.00L97.14,98.00L107.53,104.00L117.92,98.00L114.46,92.00L107.53,92.00 Z" fill="#a8d8ea" stroke="#555" stroke-width="0.70" stroke-linejoin="round"/>
<path d="M107.53,56.00L97.14,62.00L100.60,68.00L97.14,74.00L107.53,80.00L107.53,92.00L114.46,92.00L117.92,86.00L121.39,80.00L117.92,74.00L128.32,68.00L128.32,56.00L121.39,56.00L117.92,62.00 Z" fill="#a8d8ea" stroke="#555" stroke-width="0.70" stroke-linejoin="round"/>
<path d="M128.32,92.00L138.71,98.00L142.17,92.00L149.10,92.00L149.10,80.00L159.49,74.00L156.03,68.00L149.10,68.00L142.17,68.00L138.71,74.00L128.32,68.00L117.92,74.00L121.39,80.00L128.32,80.00 Z" fill="#a8d8ea" stroke="#555" stroke-width="0.70" stroke-linejoin="round"/>
<path d="M149.10,128.00L159.49,122.00L156.03,116.00L159.49,110.00L149.10,104.00L149.10,92.00L142.17,92.00L138.71,98.00L135.24,104.00L138.71,110.00L128.32,116.00L128.32,128.00L135.24,128.00L138.71,122.00 Z" fill="#a8d8ea" stroke="#555" stroke-width="0.70" stroke-linejoin="round"/>
<path d="M169.88,140.00L169.88,128.00L162.96,128.00L159.49,122.00L149.10,128.00L138.71,122.00L135.24,128.00L138.71,134.00L142.17,140.00L149.10,140.00L149.10,152.00L159.49,158.00L162.96,152.00L159.49,146.00 Z" fill="#a8d8ea" stroke="#555" stroke-width="0.70" stroke-linejoin="round"/>
<path d="M128.32,140.00L117.92,146.00L121.39,152.00L117.92,158.00L128.32,164.00L128.32,176.00L135.24,176.00L138.71,170.00L142.17,164.00L138.71,158.00L149.10,152.00L149.10,140.00L142.17,140.00L138.71,146.00 Z" fill="#a8d8ea" stroke="#555" stroke-width="0.70" stroke-linejoin="round"/>
<path d="M86.75,140.00L86.75,152.00L93.67,152.00L97.14,158.00L107.53,152.00L117.92,158.00L121.39,152.00L117.92,146.00L114.46,140.00L107.53,140.00L107.53,128.00L97.14,122.00L93.67,128.00L97.14,134.00 Z" fill="#a8d8ea" stroke="#555" stroke-width="0.70" stroke-linejoin="round"/>
<path d="M65.96,152.00L76.35,158.00L79.82,152.00L86.75,152.00L86.75,140.00L97.14,134.00L93.67,128.00L86.75,128.00L79.82,128.00L76.35,134.00L65.96,128.00L55.57,134.00L59.03,140.00L65.96,140.00 Z" fill="#a8d8ea" stroke="#555" stroke-width="0.70" stroke-linejoin="round"/>
<path d="M86.75,116.00L86.75,104.00L79.82,104.00L76.35,98.00L65.96,104.00L55.57,98.00L52.11,104.00L55.57,110.00L59.03,116.00L65.96,116.00L65.96,128.00L76.35,134.00L79.82,128.00L76.35,122.00 Z" fill="#a8d8ea" stroke="#555" stroke-width="0.70" stroke-linejoin="round"/>
<path d="M76.35,86.00L72.89,92.00L76.35,98.00L86.75,92.00L86.75,80.00L93.67,80.00L97.14,74.00L100.60,68.00L97.14,62.00L86.75,68.00L76.35,62.00L72.89,68.00L65.96,68.00L65.96,80.00 Z" fill="#a8d8ea" stroke="#555" stroke-width="0.70" stroke-linejoin="round"/>
<path d="M65.96,104.00L76.35,98.00L72.89,92.00L76.35,86.00L65.96,80.00L65.96,68.00L59.03,68.00L55.57,74.00L52.11,80.00L55.57,86.00L45.18,92.00L45.18,104.00L52.11,104.00L55.57,98.00 Z" fill="#a8d8ea" stroke="#555" stroke-width="0.70" stroke-linejoin="round"/>
<path d="M24.39,104.00L24.39,116.00L31.32,116.00L34.78,122.00L45.18,116.00L55.57,122.00L59.03,116.00L55.57,110.00L52.11,104.00L45.18,104.00L45.18,92.00L34.78,86.00L31.32,92.00L34.78,98.00 Z" fill="#a8d8ea" stroke="#555" stroke-width="0.70" stroke-linejoin="round"/>
<path d="M45.18,116.00L34.78,122.00L38.25,128.00L34.78,134.00L45.18,140.00L45.18,152.00L52.11,152.00L55.57,146.00L59.03,140.00L55.57,134.00L65.96,128.00L65.96,116.00L59.03,116.00L55.57,122.00 Z" fill="#a8d8ea" stroke="#555" stroke-width="0.70" stroke-linejoin="round"/>
<path d="M65.96,176.00L76.35,170.00L72.89,164.00L76.35,158.00L65.96,152.00L65.96,140.00L59.03,140.00L55.57,146.00L52.11,152.00L55.57,158.00L45.18,164.00L45.18,176.00L52.11,176.00L55.57,170.00 Z" fill="#a8d8ea" stroke="#555" stroke-width="0.70" stroke-linejoin="round"/>
<path d="M65.96,176.00L65.96,188.00L72.89,188.00L76.35,194.00L86.75,188.00L97.14,194.00L100.60,188.00L97.14,182.00L93.67,176.00L86.75,176.00L86.75,164.00L76.35,158.00L72.89,164.00L76.35,170.00 Z" fill="#a8d8ea" stroke="#555" stroke-width="0.70" stroke-linejoin="round"/>
<path d="M107.53,164.00L114.46,164.00L117.92,158.00L107.53,152.00L97.14,158.00L93.67,152.00L86.75,152.00L79.82,152.00L76.35,158.00L86.75,164.00L86.75,176.00L93.67,176.00L97.14,182.00L107.53,176.00 Z" fill="#a8d8ea" stroke="#555" stroke-width="0.70" stroke-linejoin="round"/>
<path d="M128.32,164.00L117.92,158.00L114.46,164.00L107.53,164.00L107.53,176.00L97.14,182.00L100.60,188.00L107.53,188.00L114.46,188.00L117.92,182.00L128.32,188.00L138.71,182.00L135.24,176.00L128.32,176.00 Z" fill="#a8d8ea" stroke="#555" stroke-width="0.70" stroke-linejoin="round"/>
<path d="M149.10,200.00L159.49,194.00L156.03,188.00L159.49,182.00L149.10,176.00L149.10,164.00L142.17,164.00L138.71,170.00L135.24,176.00L138.71,182.00L128.32,188.00L128.32,200.00L135.24,200.00L138.71,194.00 Z" fill="#a8d8ea" stroke="#555" stroke-width="0.70" stroke-linejoin="round"/>
<path d="M149.10,176.00L159.49,182.00L162.96,176.00L169.88,176.00L169.88,164.00L180.28,158.00L176.81,152.00L169.88,152.00L162.96,152.00L159.49,158.00L149.10,152.00L138.71,158.00L142.17,164.00L149.10,164.00 Z" fill="#a8d8ea" stroke="#555" stroke-width="0.70" stroke-linejoin="round"/>
<path d="M190.67,128.00L180.28,122.00L176.81,128.00L169.88,128.00L169.88,140.00L159.49,146.00L162.96,152.00L169.88,152.00L176.81,152.00L180.28,146.00L190.67,152.00L201.06,146.00L197.60,140.00L190.67,140.00 Z" fill="#a8d8ea" stroke="#555" stroke-width="0.70" stroke-linejoin="round"/>
<path d="M190.67,128.00L201.06,122.00L197.60,116.00L201.06,110.00L190.67,104.00L190.67,92.00L183.74,92.00L180.28,98.00L176.81,104.00L180.28,110.00L169.88,116.00L169.88,128.00L176.81,128.00L180.28,122.00 Z" fill="#a8d8ea" stroke="#555" stroke-width="0.70" stroke-linejoin="round"/>
<path d="M159.49,98.00L156.03,92.00L149.10,92.00L149.10,104.00L159.49,110.00L156.03,116.00L159.49,122.00L162.96,128.00L169.88,128.00L169.88,116.00L180.28,110.00L176.81,104.00L180.28,98.00L169.88,92.00 Z" fill="#a8d8ea" stroke="#555" stroke-width="0.70" stroke-linejoin="round"/>
<path d="M149.10,80.00L149.10,92.00L156.03,92.00L159.49,98.00L169.88,92.00L180.28,98.00L183.74,92.00L180.28,86.00L176.81,80.00L169.88,80.00L169.88,68.00L159.49,62.00L156.03,68.00L159.49,74.00 Z" fill="#a8d8ea" stroke="#555" stroke-width="0.70" stroke-linejoin="round"/>
<path d="M169.88,44.00L159.49,38.00L156.03,44.00L149.10,44.00L149.10,56.00L138.71,62.00L142.17,68.00L149.10,68.00L156.03,68.00L159.49,62.00L169.88,68.00L180.28,62.00L176.81,56.00L169.88,56.00 Z" fill="#a8d8ea" stroke="#555" stroke-width="0.70" stroke-linejoin="round"/>
<path d="M149.10,56.00L149.10,44.00L142.17,44.00L138.71,38.00L128.32,44.00L117.92,38.00L114.46,44.00L117.92,50.00L121.39,56.00L128.32,56.00L128.32,68.00L138.71,74.00L142.17,68.00L138.71,62.00 Z" fill="#a8d8ea" stroke="#555" stroke-width="0.70" stroke-linejoin="round"/>
<path d="M86.75,44.00L86.75,56.00L93.67,56.00L97.14,62.00L107.53,56.00L117.92,62.00L121.39,56.00L117.92,50.00L114.46,44.00L107.53,44.00L107.53,32.00L97.14,26.00L93.67,32.00L97.14,38.00 Z" fill="#a8d8ea" stroke="#555" stroke-width="0.70" stroke-linejoin="round"/>
<path d="M86.75,44.00L76.35,38.00L72.89,44.00L65.96,44.00L65.96,56.00L55.57,62.00L59.03,68.00L65.96,68.00L72.89,68.00L76.35,62.00L86.75,68.00L97.14,62.00L93.67,56.00L86.75,56.00 Z" fill="#a8d8ea" stroke="#555" stroke-width="0.70" stroke-linejoin="round"/>
<path d="M107.53,104.00L97.14,98.00L93.67,104.00L86.75,104.00L86.75,116.00L76.35,122.00L79.82,128.00L86.75,128.00L93.67,128.00L97.14,122.00L107.53,128.00L117.92,122.00L114.46,116.00L107.53,116.00 Z" fill="#f39c12" stroke="#1a1a1a" stroke-width="1.10" stroke-linejoin="round"/>
<path d="M107.53,128.00L107.53,140.00L114.46,140.00L117.92,146.00L128.32,140.00L138.71,146.00L142.17,140.00L138.71,134.00L135.24,128.00L128.32,128.00L128.32,116.00L117.92,110.00L114.46,116.00L117.92,122.00 Z" fill="#e74c3c" stroke="#1a1a1a" stroke-width="1.10" stroke-linejoin="round"/>
<path d="M128.32,116.00L138.71,110.00L135.24,104.00L138.71,98.00L128.32,92.00L128.32,80.00L121.39,80.00L117.92,86.00L114.46,92.00L117.92,98.00L107.53,104.00L107.53,116.00L114.46,116.00L117.92,110.00 Z" fill="#8e44ad" stroke="#1a1a1a" stroke-width="1.10" stroke-linejoin="round"/>
<path d="M121.39,80.00L117.92,86.00L114.46,92.00L117.92,98.00L107.53,104.00L97.14,98.00L93.67,104.00L86.75,104.00L86.75,116.00L76.35,122.00L79.82,128.00L86.75,128.00L93.67,128.00L97.14,122.00L107.53,128.00L107.53,140.00L114.46,140.00L117.92,146.00L128.32,140.00L138.71,146.00L142.17,140.00L138.71,134.00L135.24,128.00L128.32,128.00L128.32,116.00L138.71,110.00L135.24,104.00L138.71,98.00L128.32,92.00L128.32,80.00 Z" fill="none" stroke="#c0392b" stroke-width="1.80" stroke-linejoin="round"/>
<text x="112.7" y="243.0" text-anchor="middle" font-size="9" font-family="sans-serif" fill="#444">30 tiles</text>
<path d="M332.98,80.00L322.59,74.00L319.13,80.00L312.20,80.00L312.20,92.00L301.81,98.00L305.27,104.00L312.20,104.00L319.13,104.00L322.59,98.00L332.98,104.00L343.38,98.00L339.91,92.00L332.98,92.00 Z" fill="#a8d8ea" stroke="#555" stroke-width="0.70" stroke-linejoin="round"/>
<path d="M332.98,56.00L322.59,62.00L326.06,68.00L322.59,74.00L332.98,80.00L332.98,92.00L339.91,92.00L343.38,86.00L346.84,80.00L343.38,74.00L353.77,68.00L353.77,56.00L346.84,56.00L343.38,62.00 Z" fill="#a8d8ea" stroke="#555" stroke-width="0.70" stroke-linejoin="round"/>
<path d="M353.77,92.00L364.16,98.00L367.63,92.00L374.55,92.00L374.55,80.00L384.95,74.00L381.48,68.00L374.55,68.00L367.63,68.00L364.16,74.00L353.77,68.00L343.38,74.00L346.84,80.00L353.77,80.00 Z" fill="#a8d8ea" stroke="#555" stroke-width="0.70" stroke-linejoin="round"/>
<path d="M374.55,128.00L384.95,122.00L381.48,116.00L384.95,110.00L374.55,104.00L374.55,92.00L367.63,92.00L364.16,98.00L360.70,104.00L364.16,110.00L353.77,116.00L353.77,128.00L360.70,128.00L364.16,122.00 Z" fill="#a8d8ea" stroke="#555" stroke-width="0.70" stroke-linejoin="round"/>
<path d="M395.34,140.00L395.34,128.00L388.41,128.00L384.95,122.00L374.55,128.00L364.16,122.00L360.70,128.00L364.16,134.00L367.63,140.00L374.55,140.00L374.55,152.00L384.95,158.00L388.41,152.00L384.95,146.00 Z" fill="#a8d8ea" stroke="#555" stroke-width="0.70" stroke-linejoin="round"/>
<path d="M353.77,140.00L343.38,146.00L346.84,152.00L343.38,158.00L353.77,164.00L353.77,176.00L360.70,176.00L364.16,170.00L367.63,164.00L364.16,158.00L374.55,152.00L374.55,140.00L367.63,140.00L364.16,146.00 Z" fill="#a8d8ea" stroke="#555" stroke-width="0.70" stroke-linejoin="round"/>
<path d="M312.20,140.00L312.20,152.00L319.13,152.00L322.59,158.00L332.98,152.00L343.38,158.00L346.84,152.00L343.38,146.00L339.91,140.00L332.98,140.00L332.98,128.00L322.59,122.00L319.13,128.00L322.59,134.00 Z" fill="#a8d8ea" stroke="#555" stroke-width="0.70" stroke-linejoin="round"/>
<path d="M291.42,152.00L301.81,158.00L305.27,152.00L312.20,152.00L312.20,140.00L322.59,134.00L319.13,128.00L312.20,128.00L305.27,128.00L301.81,134.00L291.42,128.00L281.02,134.00L284.49,140.00L291.42,140.00 Z" fill="#a8d8ea" stroke="#555" stroke-width="0.70" stroke-linejoin="round"/>
<path d="M312.20,116.00L312.20,104.00L305.27,104.00L301.81,98.00L291.42,104.00L281.02,98.00L277.56,104.00L281.02,110.00L284.49,116.00L291.42,116.00L291.42,128.00L301.81,134.00L305.27,128.00L301.81,122.00 Z" fill="#a8d8ea" stroke="#555" stroke-width="0.70" stroke-linejoin="round"/>
<path d="M301.81,86.00L298.34,92.00L301.81,98.00L312.20,92.00L312.20,80.00L319.13,80.00L322.59,74.00L326.06,68.00L322.59,62.00L312.20,68.00L301.81,62.00L298.34,68.00L291.42,68.00L291.42,80.00 Z" fill="#a8d8ea" stroke="#555" stroke-width="0.70" stroke-linejoin="round"/>
<path d="M291.42,104.00L301.81,98.00L298.34,92.00L301.81,86.00L291.42,80.00L291.42,68.00L284.49,68.00L281.02,74.00L277.56,80.00L281.02,86.00L270.63,92.00L270.63,104.00L277.56,104.00L281.02,98.00 Z" fill="#a8d8ea" stroke="#555" stroke-width="0.70" stroke-linejoin="round"/>
<path d="M270.63,92.00L260.24,86.00L256.77,92.00L249.85,92.00L249.85,104.00L239.45,110.00L242.92,116.00L249.85,116.00L256.77,116.00L260.24,110.00L270.63,116.00L281.02,110.00L277.56,104.00L270.63,104.00 Z" fill="#a8d8ea" stroke="#555" stroke-width="0.70" stroke-linejoin="round"/>
<path d="M291.42,128.00L291.42,116.00L284.49,116.00L281.02,110.00L270.63,116.00L260.24,110.00L256.77,116.00L260.24,122.00L263.70,128.00L270.63,128.00L270.63,140.00L281.02,146.00L284.49,140.00L281.02,134.00 Z" fill="#a8d8ea" stroke="#555" stroke-width="0.70" stroke-linejoin="round"/>
<path d="M291.42,176.00L301.81,170.00L298.34,164.00L301.81,158.00L291.42,152.00L291.42,140.00L284.49,140.00L281.02,146.00L277.56,152.00L281.02,158.00L270.63,164.00L270.63,176.00L277.56,176.00L281.02,170.00 Z" fill="#a8d8ea" stroke="#555" stroke-width="0.70" stroke-linejoin="round"/>
<path d="M291.42,176.00L291.42,188.00L298.34,188.00L301.81,194.00L312.20,188.00L322.59,194.00L326.06,188.00L322.59,182.00L319.13,176.00L312.20,176.00L312.20,164.00L301.81,158.00L298.34,164.00L301.81,170.00 Z" fill="#a8d8ea" stroke="#555" stroke-width="0.70" stroke-linejoin="round"/>
<path d="M332.98,164.00L339.91,164.00L343.38,158.00L332.98,152.00L322.59,158.00L319.13,152.00L312.20,152.00L305.27,152.00L301.81,158.00L312.20,164.00L312.20,176.00L319.13,176.00L322.59,182.00L332.98,176.00 Z" fill="#a8d8ea" stroke="#555" stroke-width="0.70" stroke-linejoin="round"/>
<path d="M353.77,164.00L343.38,158.00L339.91,164.00L332.98,164.00L332.98,176.00L322.59,182.00L326.06,188.00L332.98,188.00L339.91,188.00L343.38,182.00L353.77,188.00L364.16,182.00L360.70,176.00L353.77,176.00 Z" fill="#a8d8ea" stroke="#555" stroke-width="0.70" stroke-linejoin="round"/>
<path d="M353.77,188.00L353.77,200.00L360.70,200.00L364.16,206.00L374.55,200.00L384.95,206.00L388.41,200.00L384.95,194.00L381.48,188.00L374.55,188.00L374.55,176.00L364.16,170.00L360.70,176.00L364.16,182.00 Z" fill="#a8d8ea" stroke="#555" stroke-width="0.70" stroke-linejoin="round"/>
<path d="M374.55,152.00L364.16,158.00L367.63,164.00L364.16,170.00L374.55,176.00L374.55,188.00L381.48,188.00L384.95,182.00L388.41,176.00L384.95,170.00L395.34,164.00L395.34,152.00L388.41,152.00L384.95,158.00 Z" fill="#a8d8ea" stroke="#555" stroke-width="0.70" stroke-linejoin="round"/>
<path d="M416.12,128.00L405.73,122.00L402.27,128.00L395.34,128.00L395.34,140.00L384.95,146.00L388.41,152.00L395.34,152.00L402.27,152.00L405.73,146.00L416.12,152.00L426.52,146.00L423.05,140.00L416.12,140.00 Z" fill="#a8d8ea" stroke="#555" stroke-width="0.70" stroke-linejoin="round"/>
<path d="M416.12,128.00L426.52,122.00L423.05,116.00L426.52,110.00L416.12,104.00L416.12,92.00L409.19,92.00L405.73,98.00L402.27,104.00L405.73,110.00L395.34,116.00L395.34,128.00L402.27,128.00L405.73,122.00 Z" fill="#a8d8ea" stroke="#555" stroke-width="0.70" stroke-linejoin="round"/>
<path d="M384.95,98.00L381.48,92.00L374.55,92.00L374.55,104.00L384.95,110.00L381.48,116.00L384.95,122.00L388.41,128.00L395.34,128.00L395.34,116.00L405.73,110.00L402.27,104.00L405.73,98.00L395.34,92.00 Z" fill="#a8d8ea" stroke="#555" stroke-width="0.70" stroke-linejoin="round"/>
<path d="M374.55,80.00L374.55,92.00L381.48,92.00L384.95,98.00L395.34,92.00L405.73,98.00L409.19,92.00L405.73,86.00L402.27,80.00L395.34,80.00L395.34,68.00L384.95,62.00L381.48,68.00L384.95,74.00 Z" fill="#a8d8ea" stroke="#555" stroke-width="0.70" stroke-linejoin="round"/>
<path d="M395.34,68.00L405.73,62.00L402.27,56.00L405.73,50.00L395.34,44.00L395.34,32.00L388.41,32.00L384.95,38.00L381.48,44.00L384.95,50.00L374.55,56.00L374.55,68.00L381.48,68.00L384.95,62.00 Z" fill="#a8d8ea" stroke="#555" stroke-width="0.70" stroke-linejoin="round"/>
<path d="M353.77,68.00L364.16,74.00L367.63,68.00L374.55,68.00L374.55,56.00L384.95,50.00L381.48,44.00L374.55,44.00L367.63,44.00L364.16,50.00L353.77,44.00L343.38,50.00L346.84,56.00L353.77,56.00 Z" fill="#a8d8ea" stroke="#555" stroke-width="0.70" stroke-linejoin="round"/>
<path d="M312.20,44.00L312.20,56.00L319.13,56.00L322.59,62.00L332.98,56.00L343.38,62.00L346.84,56.00L343.38,50.00L339.91,44.00L332.98,44.00L332.98,32.00L322.59,26.00L319.13,32.00L322.59,38.00 Z" fill="#a8d8ea" stroke="#555" stroke-width="0.70" stroke-linejoin="round"/>
<path d="M312.20,44.00L301.81,38.00L298.34,44.00L291.42,44.00L291.42,56.00L281.02,62.00L284.49,68.00L291.42,68.00L298.34,68.00L301.81,62.00L312.20,68.00L322.59,62.00L319.13,56.00L312.20,56.00 Z" fill="#a8d8ea" stroke="#555" stroke-width="0.70" stroke-linejoin="round"/>
<path d="M332.98,104.00L322.59,98.00L319.13,104.00L312.20,104.00L312.20,116.00L301.81,122.00L305.27,128.00L312.20,128.00L319.13,128.00L322.59,122.00L332.98,128.00L343.38,122.00L339.91,116.00L332.98,116.00 Z" fill="#f39c12" stroke="#1a1a1a" stroke-width="1.10" stroke-linejoin="round"/>
<path d="M332.98,128.00L332.98,140.00L339.91,140.00L343.38,146.00L353.77,140.00L364.16,146.00L367.63,140.00L364.16,134.00L360.70,128.00L353.77,128.00L353.77,116.00L343.38,110.00L339.91,116.00L343.38,122.00 Z" fill="#e74c3c" stroke="#1a1a1a" stroke-width="1.10" stroke-linejoin="round"/>
<path d="M353.77,116.00L364.16,110.00L360.70,104.00L364.16,98.00L353.77,92.00L353.77,80.00L346.84,80.00L343.38,86.00L339.91,92.00L343.38,98.00L332.98,104.00L332.98,116.00L339.91,116.00L343.38,110.00 Z" fill="#8e44ad" stroke="#1a1a1a" stroke-width="1.10" stroke-linejoin="round"/>
<path d="M346.84,80.00L343.38,86.00L339.91,92.00L343.38,98.00L332.98,104.00L322.59,98.00L319.13,104.00L312.20,104.00L312.20,116.00L301.81,122.00L305.27,128.00L312.20,128.00L319.13,128.00L322.59,122.00L332.98,128.00L332.98,140.00L339.91,140.00L343.38,146.00L353.77,140.00L364.16,146.00L367.63,140.00L364.16,134.00L360.70,128.00L353.77,128.00L353.77,116.00L364.16,110.00L360.70,104.00L364.16,98.00L353.77,92.00L353.77,80.00 Z" fill="none" stroke="#c0392b" stroke-width="1.80" stroke-linejoin="round"/>
<text x="338.2" y="243.0" text-anchor="middle" font-size="9" font-family="sans-serif" fill="#444">30 tiles</text>
<path d="M107.53,350.00L117.92,344.00L114.46,338.00L117.92,332.00L107.53,326.00L107.53,314.00L100.60,314.00L97.14,320.00L93.67,326.00L97.14,332.00L86.75,338.00L86.75,350.00L93.67,350.00L97.14,344.00 Z" fill="#a8d8ea" stroke="#555" stroke-width="0.70" stroke-linejoin="round"/>
<path d="M128.32,314.00L128.32,302.00L121.39,302.00L117.92,296.00L107.53,302.00L97.14,296.00L93.67,302.00L97.14,308.00L100.60,314.00L107.53,314.00L107.53,326.00L117.92,332.00L121.39,326.00L117.92,320.00 Z" fill="#a8d8ea" stroke="#555" stroke-width="0.70" stroke-linejoin="round"/>
<path d="M128.32,338.00L138.71,344.00L142.17,338.00L149.10,338.00L149.10,326.00L159.49,320.00L156.03,314.00L149.10,314.00L142.17,314.00L138.71,320.00L128.32,314.00L117.92,320.00L121.39,326.00L128.32,326.00 Z" fill="#a8d8ea" stroke="#555" stroke-width="0.70" stroke-linejoin="round"/>
<path d="M128.32,362.00L128.32,374.00L135.24,374.00L138.71,380.00L149.10,374.00L159.49,380.00L162.96,374.00L159.49,368.00L156.03,362.00L149.10,362.00L149.10,350.00L138.71,344.00L135.24,350.00L138.71,356.00 Z" fill="#a8d8ea" stroke="#555" stroke-width="0.70" stroke-linejoin="round"/>
<path d="M169.88,350.00L176.81,350.00L180.28,344.00L169.88,338.00L159.49,344.00L156.03,338.00L149.10,338.00L142.17,338.00L138.71,344.00L149.10,350.00L149.10,362.00L156.03,362.00L159.49,368.00L169.88,362.00 Z" fill="#a8d8ea" stroke="#555" stroke-width="0.70" stroke-linejoin="round"/>
<path d="M149.10,398.00L159.49,404.00L162.96,398.00L169.88,398.00L169.88,386.00L180.28,380.00L176.81,374.00L169.88,374.00L162.96,374.00L159.49,380.00L149.10,374.00L138.71,380.00L142.17,386.00L149.10,386.00 Z" fill="#a8d8ea" stroke="#555" stroke-width="0.70" stroke-linejoin="round"/>
<path d="M128.32,386.00L117.92,392.00L121.39,398.00L117.92,404.00L128.32,410.00L128.32,422.00L135.24,422.00L138.71,416.00L142.17,410.00L138.71,404.00L149.10,398.00L149.10,386.00L142.17,386.00L138.71,392.00 Z" fill="#a8d8ea" stroke="#555" stroke-width="0.70" stroke-linejoin="round"/>
<path d="M107.53,374.00L97.14,368.00L93.67,374.00L86.75,374.00L86.75,386.00L76.35,392.00L79.82,398.00L86.75,398.00L93.67,398.00L97.14,392.00L107.53,398.00L117.92,392.00L114.46,386.00L107.53,386.00 Z" fill="#a8d8ea" stroke="#555" stroke-width="0.70" stroke-linejoin="round"/>
<path d="M97.14,416.00L93.67,422.00L97.14,428.00L107.53,422.00L107.53,410.00L114.46,410.00L117.92,404.00L121.39,398.00L117.92,392.00L107.53,398.00L97.14,392.00L93.67,398.00L86.75,398.00L86.75,410.00 Z" fill="#a8d8ea" stroke="#555" stroke-width="0.70" stroke-linejoin="round"/>
<path d="M65.96,374.00L55.57,380.00L59.03,386.00L55.57,392.00L65.96,398.00L65.96,410.00L72.89,410.00L76.35,404.00L79.82,398.00L76.35,392.00L86.75,386.00L86.75,374.00L79.82,374.00L76.35,380.00 Z" fill="#a8d8ea" stroke="#555" stroke-width="0.70" stroke-linejoin="round"/>
<path d="M86.75,362.00L86.75,350.00L79.82,350.00L76.35,344.00L65.96,350.00L55.57,344.00L52.11,350.00L55.57,356.00L59.03,362.00L65.96,362.00L65.96,374.00L76.35,380.00L79.82,374.00L76.35,368.00 Z" fill="#a8d8ea" stroke="#555" stroke-width="0.70" stroke-linejoin="round"/>
<path d="M76.35,320.00L72.89,314.00L65.96,314.00L65.96,326.00L76.35,332.00L72.89,338.00L76.35,344.00L79.82,350.00L86.75,350.00L86.75,338.00L97.14,332.00L93.67,326.00L97.14,320.00L86.75,314.00 Z" fill="#a8d8ea" stroke="#555" stroke-width="0.70" stroke-linejoin="round"/>
<path d="M86.75,434.00L97.14,428.00L93.67,422.00L97.14,416.00L86.75,410.00L86.75,398.00L79.82,398.00L76.35,404.00L72.89,410.00L76.35,416.00L65.96,422.00L65.96,434.00L72.89,434.00L76.35,428.00 Z" fill="#a8d8ea" stroke="#555" stroke-width="0.70" stroke-linejoin="round"/>
<path d="M107.53,446.00L107.53,434.00L100.60,434.00L97.14,428.00L86.75,434.00L76.35,428.00L72.89,434.00L76.35,440.00L79.82,446.00L86.75,446.00L86.75,458.00L97.14,464.00L100.60,458.00L97.14,452.00 Z" fill="#a8d8ea" stroke="#555" stroke-width="0.70" stroke-linejoin="round"/>
<path d="M128.32,410.00L117.92,404.00L114.46,410.00L107.53,410.00L107.53,422.00L97.14,428.00L100.60,434.00L107.53,434.00L114.46,434.00L117.92,428.00L128.32,434.00L138.71,428.00L135.24,422.00L128.32,422.00 Z" fill="#a8d8ea" stroke="#555" stroke-width="0.70" stroke-linejoin="round"/>
<path d="M149.10,446.00L159.49,440.00L156.03,434.00L159.49,428.00L149.10,422.00L149.10,410.00L142.17,410.00L138.71,416.00L135.24,422.00L138.71,428.00L128.32,434.00L128.32,446.00L135.24,446.00L138.71,440.00 Z" fill="#a8d8ea" stroke="#555" stroke-width="0.70" stroke-linejoin="round"/>
<path d="M149.10,422.00L159.49,428.00L162.96,422.00L169.88,422.00L169.88,410.00L180.28,404.00L176.81,398.00L169.88,398.00L162.96,398.00L159.49,404.00L149.10,398.00L138.71,404.00L142.17,410.00L149.10,410.00 Z" fill="#a8d8ea" stroke="#555" stroke-width="0.70" stroke-linejoin="round"/>
<path d="M169.88,386.00L169.88,398.00L176.81,398.00L180.28,404.00L190.67,398.00L201.06,404.00L204.53,398.00L201.06,392.00L197.60,386.00L190.67,386.00L190.67,374.00L180.28,368.00L176.81,374.00L180.28,380.00 Z" fill="#a8d8ea" stroke="#555" stroke-width="0.70" stroke-linejoin="round"/>
<path d="M190.67,350.00L180.28,344.00L176.81,350.00L169.88,350.00L169.88,362.00L159.49,368.00L162.96,374.00L169.88,374.00L176.81,374.00L180.28,368.00L190.67,374.00L201.06,368.00L197.60,362.00L190.67,362.00 Z" fill="#a8d8ea" stroke="#555" stroke-width="0.70" stroke-linejoin="round"/>
<path d="M190.67,326.00L180.28,332.00L183.74,338.00L180.28,344.00L190.67,350.00L190.67,362.00L197.60,362.00L201.06,356.00L204.53,350.00L201.06,344.00L211.45,338.00L211.45,326.00L204.53,326.00L201.06,332.00 Z" fill="#a8d8ea" stroke="#555" stroke-width="0.70" stroke-linejoin="round"/>
<path d="M149.10,326.00L149.10,338.00L156.03,338.00L159.49,344.00L169.88,338.00L180.28,344.00L183.74,338.00L180.28,332.00L176.81,326.00L169.88,326.00L169.88,314.00L159.49,308.00L156.03,314.00L159.49,320.00 Z" fill="#a8d8ea" stroke="#555" stroke-width="0.70" stroke-linejoin="round"/>
<path d="M169.88,290.00L159.49,284.00L156.03,290.00L149.10,290.00L149.10,302.00L138.71,308.00L142.17,314.00L149.10,314.00L156.03,314.00L159.49,308.00L169.88,314.00L180.28,308.00L176.81,302.00L169.88,302.00 Z" fill="#a8d8ea" stroke="#555" stroke-width="0.70" stroke-linejoin="round"/>
<path d="M149.10,302.00L149.10,290.00L142.17,290.00L138.71,284.00L128.32,290.00L117.92,284.00L114.46,290.00L117.92,296.00L121.39,302.00L128.32,302.00L128.32,314.00L138.71,320.00L142.17,314.00L138.71,308.00 Z" fill="#a8d8ea" stroke="#555" stroke-width="0.70" stroke-linejoin="round"/>
<path d="M107.53,302.00L117.92,296.00L114.46,290.00L117.92,284.00L107.53,278.00L107.53,266.00L100.60,266.00L97.14,272.00L93.67,278.00L97.14,284.00L86.75,290.00L86.75,302.00L93.67,302.00L97.14,296.00 Z" fill="#a8d8ea" stroke="#555" stroke-width="0.70" stroke-linejoin="round"/>
<path d="M65.96,302.00L65.96,314.00L72.89,314.00L76.35,320.00L86.75,314.00L97.14,320.00L100.60,314.00L97.14,308.00L93.67,302.00L86.75,302.00L86.75,290.00L76.35,284.00L72.89,290.00L76.35,296.00 Z" fill="#a8d8ea" stroke="#555" stroke-width="0.70" stroke-linejoin="round"/>
<path d="M45.18,314.00L55.57,320.00L59.03,314.00L65.96,314.00L65.96,302.00L76.35,296.00L72.89,290.00L65.96,290.00L59.03,290.00L55.57,296.00L45.18,290.00L34.78,296.00L38.25,302.00L45.18,302.00 Z" fill="#a8d8ea" stroke="#555" stroke-width="0.70" stroke-linejoin="round"/>
<path d="M65.96,350.00L76.35,344.00L72.89,338.00L76.35,332.00L65.96,326.00L65.96,314.00L59.03,314.00L55.57,320.00L52.11,326.00L55.57,332.00L45.18,338.00L45.18,350.00L52.11,350.00L55.57,344.00 Z" fill="#a8d8ea" stroke="#555" stroke-width="0.70" stroke-linejoin="round"/>
<path d="M24.39,350.00L24.39,362.00L31.32,362.00L34.78,368.00L45.18,362.00L55.57,368.00L59.03,362.00L55.57,356.00L52.11,350.00L45.18,350.00L45.18,338.00L34.78,332.00L31.32,338.00L34.78,344.00 Z" fill="#a8d8ea" stroke="#555" stroke-width="0.70" stroke-linejoin="round"/>
<path d="M45.18,362.00L34.78,368.00L38.25,374.00L34.78,380.00L45.18,386.00L45.18,398.00L52.11,398.00L55.57,392.00L59.03,386.00L55.57,380.00L65.96,374.00L65.96,362.00L59.03,362.00L55.57,368.00 Z" fill="#a8d8ea" stroke="#555" stroke-width="0.70" stroke-linejoin="round"/>
<path d="M65.96,398.00L55.57,392.00L52.11,398.00L45.18,398.00L45.18,410.00L34.78,416.00L38.25,422.00L45.18,422.00L52.11,422.00L55.57,416.00L65.96,422.00L76.35,416.00L72.89,410.00L65.96,410.00 Z" fill="#a8d8ea" stroke="#555" stroke-width="0.70" stroke-linejoin="round"/>
<path d="M107.53,350.00L97.14,344.00L93.67,350.00L86.75,350.00L86.75,362.00L76.35,368.00L79.82,374.00L86.75,374.00L93.67,374.00L97.14,368.00L107.53,374.00L117.92,368.00L114.46,362.00L107.53,362.00 Z" fill="#f39c12" stroke="#1a1a1a" stroke-width="1.10" stroke-linejoin="round"/>
<path d="M107.53,374.00L107.53,386.00L114.46,386.00L117.92,392.00L128.32,386.00L138.71,392.00L142.17,386.00L138.71,380.00L135.24,374.00L128.32,374.00L128.32,362.00L117.92,356.00L114.46,362.00L117.92,368.00 Z" fill="#e74c3c" stroke="#1a1a1a" stroke-width="1.10" stroke-linejoin="round"/>
<path d="M128.32,362.00L138.71,356.00L135.24,350.00L138.71,344.00L128.32,338.00L128.32,326.00L121.39,326.00L117.92,332.00L114.46,338.00L117.92,344.00L107.53,350.00L107.53,362.00L114.46,362.00L117.92,356.00 Z" fill="#8e44ad" stroke="#1a1a1a" stroke-width="1.10" stroke-linejoin="round"/>
<path d="M121.39,326.00L117.92,332.00L114.46,338.00L117.92,344.00L107.53,350.00L97.14,344.00L93.67,350.00L86.75,350.00L86.75,362.00L76.35,368.00L79.82,374.00L86.75,374.00L93.67,374.00L97.14,368.00L107.53,374.00L107.53,386.00L114.46,386.00L117.92,392.00L128.32,386.00L138.71,392.00L142.17,386.00L138.71,380.00L135.24,374.00L128.32,374.00L128.32,362.00L138.71,356.00L135.24,350.00L138.71,344.00L128.32,338.00L128.32,326.00 Z" fill="none" stroke="#c0392b" stroke-width="1.80" stroke-linejoin="round"/>
<text x="112.7" y="489.0" text-anchor="middle" font-size="9" font-family="sans-serif" fill="#444">33 tiles</text>
<path d="M332.98,350.00L343.38,344.00L339.91,338.00L343.38,332.00L332.98,326.00L332.98,314.00L326.06,314.00L322.59,320.00L319.13,326.00L322.59,332.00L312.20,338.00L312.20,350.00L319.13,350.00L322.59,344.00 Z" fill="#a8d8ea" stroke="#555" stroke-width="0.70" stroke-linejoin="round"/>
<path d="M353.77,314.00L353.77,302.00L346.84,302.00L343.38,296.00L332.98,302.00L322.59,296.00L319.13,302.00L322.59,308.00L326.06,314.00L332.98,314.00L332.98,326.00L343.38,332.00L346.84,326.00L343.38,320.00 Z" fill="#a8d8ea" stroke="#555" stroke-width="0.70" stroke-linejoin="round"/>
<path d="M353.77,338.00L364.16,344.00L367.63,338.00L374.55,338.00L374.55,326.00L384.95,320.00L381.48,314.00L374.55,314.00L367.63,314.00L364.16,320.00L353.77,314.00L343.38,320.00L346.84,326.00L353.77,326.00 Z" fill="#a8d8ea" stroke="#555" stroke-width="0.70" stroke-linejoin="round"/>
<path d="M353.77,362.00L353.77,374.00L360.70,374.00L364.16,380.00L374.55,374.00L384.95,380.00L388.41,374.00L384.95,368.00L381.48,362.00L374.55,362.00L374.55,350.00L364.16,344.00L360.70,350.00L364.16,356.00 Z" fill="#a8d8ea" stroke="#555" stroke-width="0.70" stroke-linejoin="round"/>
<path d="M395.34,350.00L402.27,350.00L405.73,344.00L395.34,338.00L384.95,344.00L381.48,338.00L374.55,338.00L367.63,338.00L364.16,344.00L374.55,350.00L374.55,362.00L381.48,362.00L384.95,368.00L395.34,362.00 Z" fill="#a8d8ea" stroke="#555" stroke-width="0.70" stroke-linejoin="round"/>
<path d="M374.55,398.00L384.95,404.00L388.41,398.00L395.34,398.00L395.34,386.00L405.73,380.00L402.27,374.00L395.34,374.00L388.41,374.00L384.95,380.00L374.55,374.00L364.16,380.00L367.63,386.00L374.55,386.00 Z" fill="#a8d8ea" stroke="#555" stroke-width="0.70" stroke-linejoin="round"/>
<path d="M353.77,386.00L343.38,392.00L346.84,398.00L343.38,404.00L353.77,410.00L353.77,422.00L360.70,422.00L364.16,416.00L367.63,410.00L364.16,404.00L374.55,398.00L374.55,386.00L367.63,386.00L364.16,392.00 Z" fill="#a8d8ea" stroke="#555" stroke-width="0.70" stroke-linejoin="round"/>
<path d="M332.98,374.00L322.59,368.00L319.13,374.00L312.20,374.00L312.20,386.00L301.81,392.00L305.27,398.00L312.20,398.00L319.13,398.00L322.59,392.00L332.98,398.00L343.38,392.00L339.91,386.00L332.98,386.00 Z" fill="#a8d8ea" stroke="#555" stroke-width="0.70" stroke-linejoin="round"/>
<path d="M322.59,416.00L319.13,422.00L322.59,428.00L332.98,422.00L332.98,410.00L339.91,410.00L343.38,404.00L346.84,398.00L343.38,392.00L332.98,398.00L322.59,392.00L319.13,398.00L312.20,398.00L312.20,410.00 Z" fill="#a8d8ea" stroke="#555" stroke-width="0.70" stroke-linejoin="round"/>
<path d="M291.42,374.00L281.02,380.00L284.49,386.00L281.02,392.00L291.42,398.00L291.42,410.00L298.34,410.00L301.81,404.00L305.27,398.00L301.81,392.00L312.20,386.00L312.20,374.00L305.27,374.00L301.81,380.00 Z" fill="#a8d8ea" stroke="#555" stroke-width="0.70" stroke-linejoin="round"/>
<path d="M312.20,362.00L312.20,350.00L305.27,350.00L301.81,344.00L291.42,350.00L281.02,344.00L277.56,350.00L281.02,356.00L284.49,362.00L291.42,362.00L291.42,374.00L301.81,380.00L305.27,374.00L301.81,368.00 Z" fill="#a8d8ea" stroke="#555" stroke-width="0.70" stroke-linejoin="round"/>
<path d="M301.81,320.00L298.34,314.00L291.42,314.00L291.42,326.00L301.81,332.00L298.34,338.00L301.81,344.00L305.27,350.00L312.20,350.00L312.20,338.00L322.59,332.00L319.13,326.00L322.59,320.00L312.20,314.00 Z" fill="#a8d8ea" stroke="#555" stroke-width="0.70" stroke-linejoin="round"/>
<path d="M312.20,434.00L322.59,428.00L319.13,422.00L322.59,416.00L312.20,410.00L312.20,398.00L305.27,398.00L301.81,404.00L298.34,410.00L301.81,416.00L291.42,422.00L291.42,434.00L298.34,434.00L301.81,428.00 Z" fill="#a8d8ea" stroke="#555" stroke-width="0.70" stroke-linejoin="round"/>
<path d="M332.98,446.00L332.98,434.00L326.06,434.00L322.59,428.00L312.20,434.00L301.81,428.00L298.34,434.00L301.81,440.00L305.27,446.00L312.20,446.00L312.20,458.00L322.59,464.00L326.06,458.00L322.59,452.00 Z" fill="#a8d8ea" stroke="#555" stroke-width="0.70" stroke-linejoin="round"/>
<path d="M353.77,410.00L343.38,404.00L339.91,410.00L332.98,410.00L332.98,422.00L322.59,428.00L326.06,434.00L332.98,434.00L339.91,434.00L343.38,428.00L353.77,434.00L364.16,428.00L360.70,422.00L353.77,422.00 Z" fill="#a8d8ea" stroke="#555" stroke-width="0.70" stroke-linejoin="round"/>
<path d="M353.77,434.00L353.77,446.00L360.70,446.00L364.16,452.00L374.55,446.00L384.95,452.00L388.41,446.00L384.95,440.00L381.48,434.00L374.55,434.00L374.55,422.00L364.16,416.00L360.70,422.00L364.16,428.00 Z" fill="#a8d8ea" stroke="#555" stroke-width="0.70" stroke-linejoin="round"/>
<path d="M374.55,398.00L364.16,404.00L367.63,410.00L364.16,416.00L374.55,422.00L374.55,434.00L381.48,434.00L384.95,428.00L388.41,422.00L384.95,416.00L395.34,410.00L395.34,398.00L388.41,398.00L384.95,404.00 Z" fill="#a8d8ea" stroke="#555" stroke-width="0.70" stroke-linejoin="round"/>
<path d="M405.73,428.00L409.19,434.00L416.12,434.00L416.12,422.00L405.73,416.00L409.19,410.00L405.73,404.00L402.27,398.00L395.34,398.00L395.34,410.00L384.95,416.00L388.41,422.00L384.95,428.00L395.34,434.00 Z" fill="#a8d8ea" stroke="#555" stroke-width="0.70" stroke-linejoin="round"/>
<path d="M395.34,386.00L395.34,398.00L402.27,398.00L405.73,404.00L416.12,398.00L426.52,404.00L429.98,398.00L426.52,392.00L423.05,386.00L416.12,386.00L416.12,374.00L405.73,368.00L402.27,374.00L405.73,380.00 Z" fill="#a8d8ea" stroke="#555" stroke-width="0.70" stroke-linejoin="round"/>
<path d="M416.12,350.00L405.73,344.00L402.27,350.00L395.34,350.00L395.34,362.00L384.95,368.00L388.41,374.00L395.34,374.00L402.27,374.00L405.73,368.00L416.12,374.00L426.52,368.00L423.05,362.00L416.12,362.00 Z" fill="#a8d8ea" stroke="#555" stroke-width="0.70" stroke-linejoin="round"/>
<path d="M416.12,326.00L405.73,332.00L409.19,338.00L405.73,344.00L416.12,350.00L416.12,362.00L423.05,362.00L426.52,356.00L429.98,350.00L426.52,344.00L436.91,338.00L436.91,326.00L429.98,326.00L426.52,332.00 Z" fill="#a8d8ea" stroke="#555" stroke-width="0.70" stroke-linejoin="round"/>
<path d="M374.55,326.00L374.55,338.00L381.48,338.00L384.95,344.00L395.34,338.00L405.73,344.00L409.19,338.00L405.73,332.00L402.27,326.00L395.34,326.00L395.34,314.00L384.95,308.00L381.48,314.00L384.95,320.00 Z" fill="#a8d8ea" stroke="#555" stroke-width="0.70" stroke-linejoin="round"/>
<path d="M395.34,314.00L405.73,308.00L402.27,302.00L405.73,296.00L395.34,290.00L395.34,278.00L388.41,278.00L384.95,284.00L381.48,290.00L384.95,296.00L374.55,302.00L374.55,314.00L381.48,314.00L384.95,308.00 Z" fill="#a8d8ea" stroke="#555" stroke-width="0.70" stroke-linejoin="round"/>
<path d="M353.77,314.00L364.16,320.00L367.63,314.00L374.55,314.00L374.55,302.00L384.95,296.00L381.48,290.00L374.55,290.00L367.63,290.00L364.16,296.00L353.77,290.00L343.38,296.00L346.84,302.00L353.77,302.00 Z" fill="#a8d8ea" stroke="#555" stroke-width="0.70" stroke-linejoin="round"/>
<path d="M364.16,272.00L367.63,266.00L364.16,260.00L353.77,266.00L353.77,278.00L346.84,278.00L343.38,284.00L339.91,290.00L343.38,296.00L353.77,290.00L364.16,296.00L367.63,290.00L374.55,290.00L374.55,278.00 Z" fill="#a8d8ea" stroke="#555" stroke-width="0.70" stroke-linejoin="round"/>
<path d="M332.98,302.00L343.38,296.00L339.91,290.00L343.38,284.00L332.98,278.00L332.98,266.00L326.06,266.00L322.59,272.00L319.13,278.00L322.59,284.00L312.20,290.00L312.20,302.00L319.13,302.00L322.59,296.00 Z" fill="#a8d8ea" stroke="#555" stroke-width="0.70" stroke-linejoin="round"/>
<path d="M291.42,302.00L291.42,314.00L298.34,314.00L301.81,320.00L312.20,314.00L322.59,320.00L326.06,314.00L322.59,308.00L319.13,302.00L312.20,302.00L312.20,290.00L301.81,284.00L298.34,290.00L301.81,296.00 Z" fill="#a8d8ea" stroke="#555" stroke-width="0.70" stroke-linejoin="round"/>
<path d="M270.63,314.00L281.02,320.00L284.49,314.00L291.42,314.00L291.42,302.00L301.81,296.00L298.34,290.00L291.42,290.00L284.49,290.00L281.02,296.00L270.63,290.00L260.24,296.00L263.70,302.00L270.63,302.00 Z" fill="#a8d8ea" stroke="#555" stroke-width="0.70" stroke-linejoin="round"/>
<path d="M291.42,350.00L301.81,344.00L298.34,338.00L301.81,332.00L291.42,326.00L291.42,314.00L284.49,314.00L281.02,320.00L277.56,326.00L281.02,332.00L270.63,338.00L270.63,350.00L277.56,350.00L281.02,344.00 Z" fill="#a8d8ea" stroke="#555" stroke-width="0.70" stroke-linejoin="round"/>
<path d="M270.63,338.00L260.24,332.00L256.77,338.00L249.85,338.00L249.85,350.00L239.45,356.00L242.92,362.00L249.85,362.00L256.77,362.00L260.24,356.00L270.63,362.00L281.02,356.00L277.56,350.00L270.63,350.00 Z" fill="#a8d8ea" stroke="#555" stroke-width="0.70" stroke-linejoin="round"/>
<path d="M291.42,374.00L291.42,362.00L284.49,362.00L281.02,356.00L270.63,362.00L260.24,356.00L256.77,362.00L260.24,368.00L263.70,374.00L270.63,374.00L270.63,386.00L281.02,392.00L284.49,386.00L281.02,380.00 Z" fill="#a8d8ea" stroke="#555" stroke-width="0.70" stroke-linejoin="round"/>
<path d="M249.85,386.00L242.92,386.00L239.45,392.00L249.85,398.00L260.24,392.00L263.70,398.00L270.63,398.00L277.56,398.00L281.02,392.00L270.63,386.00L270.63,374.00L263.70,374.00L260.24,368.00L249.85,374.00 Z" fill="#a8d8ea" stroke="#555" stroke-width="0.70" stroke-linejoin="round"/>
<path d="M291.42,398.00L281.02,392.00L277.56,398.00L270.63,398.00L270.63,410.00L260.24,416.00L263.70,422.00L270.63,422.00L277.56,422.00L281.02,416.00L291.42,422.00L301.81,416.00L298.34,410.00L291.42,410.00 Z" fill="#a8d8ea" stroke="#555" stroke-width="0.70" stroke-linejoin="round"/>
<path d="M332.98,350.00L322.59,344.00L319.13,350.00L312.20,350.00L312.20,362.00L301.81,368.00L305.27,374.00L312.20,374.00L319.13,374.00L322.59,368.00L332.98,374.00L343.38,368.00L339.91,362.00L332.98,362.00 Z" fill="#f39c12" stroke="#1a1a1a" stroke-width="1.10" stroke-linejoin="round"/>
<path d="M332.98,374.00L332.98,386.00L339.91,386.00L343.38,392.00L353.77,386.00L364.16,392.00L367.63,386.00L364.16,380.00L360.70,374.00L353.77,374.00L353.77,362.00L343.38,356.00L339.91,362.00L343.38,368.00 Z" fill="#e74c3c" stroke="#1a1a1a" stroke-width="1.10" stroke-linejoin="round"/>
<path d="M353.77,362.00L364.16,356.00L360.70,350.00L364.16,344.00L353.77,338.00L353.77,326.00L346.84,326.00L343.38,332.00L339.91,338.00L343.38,344.00L332.98,350.00L332.98,362.00L339.91,362.00L343.38,356.00 Z" fill="#8e44ad" stroke="#1a1a1a" stroke-width="1.10" stroke-linejoin="round"/>
<path d="M346.84,326.00L343.38,332.00L339.91,338.00L343.38,344.00L332.98,350.00L322.59,344.00L319.13,350.00L312.20,350.00L312.20,362.00L301.81,368.00L305.27,374.00L312.20,374.00L319.13,374.00L322.59,368.00L332.98,374.00L332.98,386.00L339.91,386.00L343.38,392.00L353.77,386.00L364.16,392.00L367.63,386.00L364.16,380.00L360.70,374.00L353.77,374.00L353.77,362.00L364.16,356.00L360.70,350.00L364.16,344.00L353.77,338.00L353.77,326.00 Z" fill="none" stroke="#c0392b" stroke-width="1.80" stroke-linejoin="round"/>
<text x="338.2" y="489.0" text-anchor="middle" font-size="9" font-family="sans-serif" fill="#444">36 tiles</text>
</svg>
