<svg xmlns="http://www.w3.org/2000/svg" width="194" height="210">
<rect width="100%" height="100%" fill="white"/>
<path d="M65.96,62.00L62.50,56.00L55.57,56.00L55.57,68.00L65.96,74.00L62.50,80.00L65.96,86.00L69.43,92.00L76.35,92.00L76.35,80.00L86.75,74.00L83.28,68.00L86.75,62.00L76.35,56.00 Z" fill="#a8d8ea" stroke="#555" stroke-width="0.70" stroke-linejoin="round"/>
<path d="M76.35,104.00L76.35,92.00L69.43,92.00L65.96,86.00L55.57,92.00L45.18,86.00L41.71,92.00L45.18,98.00L48.64,104.00L55.57,104.00L55.57,116.00L65.96,122.00L69.43,116.00L65.96,110.00 Z" fill="#a8d8ea" stroke="#555" stroke-width="0.70" stroke-linejoin="round"/>
<path d="M55.57,92.00L65.96,86.00L62.50,80.00L65.96,74.00L55.57,68.00L55.57,56.00L48.64,56.00L45.18,62.00L41.71,68.00L45.18,74.00L34.78,80.00L34.78,92.00L41.71,92.00L45.18,86.00 Z" fill="#a8d8ea" stroke="#555" stroke-width="0.70" stroke-linejoin="round"/>
<path d="M86.75,134.00L83.28,140.00L86.75,146.00L97.14,140.00L97.14,128.00L104.07,128.00L107.53,122.00L110.99,116.00L107.53,110.00L97.14,116.00L86.75,110.00L83.28,116.00L76.35,116.00L76.35,128.00 Z" fill="#a8d8ea" stroke="#555" stroke-width="0.70" stroke-linejoin="round"/>
<path d="M117.92,104.00L107.53,110.00L110.99,116.00L107.53,122.00L117.92,128.00L117.92,140.00L124.85,140.00L128.32,134.00L131.78,128.00L128.32,122.00L138.71,116.00L138.71,104.00L131.78,104.00L128.32,110.00 Z" fill="#a8d8ea" stroke="#555" stroke-width="0.70" stroke-linejoin="round"/>
<path d="M117.92,128.00L107.53,122.00L104.07,128.00L97.14,128.00L97.14,140.00L86.75,146.00L90.21,152.00L97.14,152.00L104.07,152.00L107.53,146.00L117.92,152.00L128.32,146.00L124.85,140.00L117.92,140.00 Z" fill="#a8d8ea" stroke="#555" stroke-width="0.70" stroke-linejoin="round"/>
<path d="M138.71,80.00L145.64,80.00L149.10,74.00L138.71,68.00L128.32,74.00L124.85,68.00L117.92,68.00L110.99,68.00L107.53,74.00L117.92,80.00L117.92,92.00L124.85,92.00L128.32,98.00L138.71,92.00 Z" fill="#a8d8ea" stroke="#555" stroke-width="0.70" stroke-linejoin="round"/>
<path d="M97.14,68.00L107.53,74.00L110.99,68.00L117.92,68.00L117.92,56.00L128.32,50.00L124.85,44.00L117.92,44.00L110.99,44.00L107.53,50.00L97.14,44.00L86.75,50.00L90.21,56.00L97.14,56.00 Z" fill="#a8d8ea" stroke="#555" stroke-width="0.70" stroke-linejoin="round"/>
<path d="M117.92,56.00L117.92,68.00L124.85,68.00L128.32,74.00L138.71,68.00L149.10,74.00L152.56,68.00L149.10,62.00L145.64,56.00L138.71,56.00L138.71,44.00L128.32,38.00L124.85,44.00L128.32,50.00 Z" fill="#a8d8ea" stroke="#555" stroke-width="0.70" stroke-linejoin="round"/>
<path d="M76.35,152.00L86.75,146.00L83.28,140.00L86.75,134.00L76.35,128.00L76.35,116.00L69.43,116.00L65.96,122.00L62.50,128.00L65.96,134.00L55.57,140.00L55.57,152.00L62.50,152.00L65.96,146.00 Z" fill="#a8d8ea" stroke="#555" stroke-width="0.70" stroke-linejoin="round"/>
<path d="M55.57,140.00L65.96,134.00L62.50,128.00L65.96,122.00L55.57,116.00L55.57,104.00L48.64,104.00L45.18,110.00L41.71,116.00L45.18,122.00L34.78,128.00L34.78,140.00L41.71,140.00L45.18,134.00 Z" fill="#a8d8ea" stroke="#555" stroke-width="0.70" stroke-linejoin="round"/>
<path d="M14.00,92.00L14.00,104.00L20.93,104.00L24.39,110.00L34.78,104.00L45.18,110.00L48.64,104.00L45.18,98.00L41.71,92.00L34.78,92.00L34.78,80.00L24.39,74.00L20.93,80.00L24.39,86.00 Z" fill="#a8d8ea" stroke="#555" stroke-width="0.70" stroke-linejoin="round"/>
<path d="M34.78,80.00L45.18,74.00L41.71,68.00L45.18,62.00L34.78,56.00L34.78,44.00L27.86,44.00L24.39,50.00L20.93,56.00L24.39,62.00L14.00,68.00L14.00,80.00L20.93,80.00L24.39,74.00 Z" fill="#a8d8ea" stroke="#555" stroke-width="0.70" stroke-linejoin="round"/>
<path d="M34.78,56.00L45.18,62.00L48.64,56.00L55.57,56.00L55.57,44.00L65.96,38.00L62.50,32.00L55.57,32.00L48.64,32.00L45.18,38.00L34.78,32.00L24.39,38.00L27.86,44.00L34.78,44.00 Z" fill="#a8d8ea" stroke="#555" stroke-width="0.70" stroke-linejoin="round"/>
<path d="M55.57,44.00L55.57,56.00L62.50,56.00L65.96,62.00L76.35,56.00L86.75,62.00L90.21,56.00L86.75,50.00L83.28,44.00L76.35,44.00L76.35,32.00L65.96,26.00L62.50,32.00L65.96,38.00 Z" fill="#a8d8ea" stroke="#555" stroke-width="0.70" stroke-linejoin="round"/>
<path d="M76.35,32.00L76.35,44.00L83.28,44.00L86.75,50.00L97.14,44.00L107.53,50.00L110.99,44.00L107.53,38.00L104.07,32.00L97.14,32.00L97.14,20.00L86.75,14.00L83.28,20.00L86.75,26.00 Z" fill="#a8d8ea" stroke="#555" stroke-width="0.70" stroke-linejoin="round"/>
<path d="M138.71,20.00L128.32,14.00L124.85,20.00L117.92,20.00L117.92,32.00L107.53,38.00L110.99,44.00L117.92,44.00L124.85,44.00L128.32,38.00L138.71,44.00L149.10,38.00L145.64,32.00L138.71,32.00 Z" fill="#a8d8ea" stroke="#555" stroke-width="0.70" stroke-linejoin="round"/>
<path d="M138.71,44.00L138.71,56.00L145.64,56.00L149.10,62.00L159.49,56.00L169.88,62.00L173.35,56.00L169.88,50.00L166.42,44.00L159.49,44.00L159.49,32.00L149.10,26.00L145.64,32.00L149.10,38.00 Z" fill="#a8d8ea" stroke="#555" stroke-width="0.70" stroke-linejoin="round"/>
<path d="M159.49,56.00L149.10,62.00L152.56,68.00L149.10,74.00L159.49,80.00L159.49,92.00L166.42,92.00L169.88,86.00L173.35,80.00L169.88,74.00L180.28,68.00L180.28,56.00L173.35,56.00L169.88,62.00 Z" fill="#a8d8ea" stroke="#555" stroke-width="0.70" stroke-linejoin="round"/>
<path d="M159.49,80.00L149.10,74.00L145.64,80.00L138.71,80.00L138.71,92.00L128.32,98.00L131.78,104.00L138.71,104.00L145.64,104.00L149.10,98.00L159.49,104.00L169.88,98.00L166.42,92.00L159.49,92.00 Z" fill="#a8d8ea" stroke="#555" stroke-width="0.70" stroke-linejoin="round"/>
<path d="M159.49,104.00L149.10,98.00L145.64,104.00L138.71,104.00L138.71,116.00L128.32,122.00L131.78,128.00L138.71,128.00L145.64,128.00L149.10,122.00L159.49,128.00L169.88,122.00L166.42,116.00L159.49,116.00 Z" fill="#a8d8ea" stroke="#555" stroke-width="0.70" stroke-linejoin="round"/>
<path d="M138.71,164.00L149.10,158.00L145.64,152.00L149.10,146.00L138.71,140.00L138.71,128.00L131.78,128.00L128.32,134.00L124.85,140.00L128.32,146.00L117.92,152.00L117.92,164.00L124.85,164.00L128.32,158.00 Z" fill="#a8d8ea" stroke="#555" stroke-width="0.70" stroke-linejoin="round"/>
<path d="M117.92,152.00L107.53,146.00L104.07,152.00L97.14,152.00L97.14,164.00L86.75,170.00L90.21,176.00L97.14,176.00L104.07,176.00L107.53,170.00L117.92,176.00L128.32,170.00L124.85,164.00L117.92,164.00 Z" fill="#a8d8ea" stroke="#555" stroke-width="0.70" stroke-linejoin="round"/>
<path d="M97.14,164.00L97.14,152.00L90.21,152.00L86.75,146.00L76.35,152.00L65.96,146.00L62.50,152.00L65.96,158.00L69.43,164.00L76.35,164.00L76.35,176.00L86.75,182.00L90.21,176.00L86.75,170.00 Z" fill="#a8d8ea" stroke="#555" stroke-width="0.70" stroke-linejoin="round"/>
<path d="M97.14,92.00L86.75,86.00L83.28,92.00L76.35,92.00L76.35,104.00L65.96,110.00L69.43,116.00L76.35,116.00L83.28,116.00L86.75,110.00L97.14,116.00L107.53,110.00L104.07,104.00L97.14,104.00 Z" fill="#f39c12" stroke="#1a1a1a" stroke-width="1.10" stroke-linejoin="round"/>
<path d="M97.14,92.00L97.14,104.00L104.07,104.00L107.53,110.00L117.92,104.00L128.32,110.00L131.78,104.00L128.32,98.00L124.85,92.00L117.92,92.00L117.92,80.00L107.53,74.00L104.07,80.00L107.53,86.00 Z" fill="#e74c3c" stroke="#1a1a1a" stroke-width="1.10" stroke-linejoin="round"/>
<path d="M97.14,92.00L107.53,86.00L104.07,80.00L107.53,74.00L97.14,68.00L97.14,56.00L90.21,56.00L86.75,62.00L83.28,68.00L86.75,74.00L76.35,80.00L76.35,92.00L83.28,92.00L86.75,86.00 Z" fill="#8e44ad" stroke="#1a1a1a" stroke-width="1.10" stroke-linejoin="round"/>
<path d="M90.21,56.00L86.75,62.00L83.28,68.00L86.75,74.00L76.35,80.00L76.35,92.00L76.35,104.00L65.96,110.00L69.43,116.00L76.35,116.00L83.28,116.00L86.75,110.00L97.14,116.00L107.53,110.00L117.92,104.00L128.32,110.00L131.78,104.00L128.32,98.00L124.85,92.00L117.92,92.00L117.92,80.00L107.53,74.00L97.14,68.00L97.14,56.00 Z" fill="none" stroke="#c0392b" stroke-width="1.80" stroke-linejoin="round"/>
<text x="97.1" y="207.0" text-anchor="middle" font-size="9" font-family="sans-serif" fill="#444">27 tiles</text>
</svg>
