<svg xmlns="http://www.w3.org/2000/svg" width="246" height="270">
<rect width="100%" height="100%" fill="white"/>
<path d="M97.14,98.00L93.67,92.00L86.75,92.00L86.75,104.00L97.14,110.00L93.67,116.00L97.14,122.00L100.60,128.00L107.53,128.00L107.53,116.00L117.92,110.00L114.46,104.00L117.92,98.00L107.53,92.00 Z" fill="#a8d8ea" stroke="#555" stroke-width="0.70" stroke-linejoin="round"/>
<path d="M107.53,140.00L107.53,128.00L100.60,128.00L97.14,122.00L86.75,128.00L76.35,122.00L72.89,128.00L76.35,134.00L79.82,140.00L86.75,140.00L86.75,152.00L97.14,158.00L100.60,152.00L97.14,146.00 Z" fill="#a8d8ea" stroke="#555" stroke-width="0.70" stroke-linejoin="round"/>
<path d="M86.75,128.00L97.14,122.00L93.67,116.00L97.14,110.00L86.75,104.00L86.75,92.00L79.82,92.00L76.35,98.00L72.89,104.00L76.35,110.00L65.96,116.00L65.96,128.00L72.89,128.00L76.35,122.00 Z" fill="#a8d8ea" stroke="#555" stroke-width="0.70" stroke-linejoin="round"/>
<path d="M117.92,170.00L114.46,176.00L117.92,182.00L128.32,176.00L128.32,164.00L135.24,164.00L138.71,158.00L142.17,152.00L138.71,146.00L128.32,152.00L117.92,146.00L114.46,152.00L107.53,152.00L107.53,164.00 Z" fill="#a8d8ea" stroke="#555" stroke-width="0.70" stroke-linejoin="round"/>
<path d="M149.10,140.00L138.71,146.00L142.17,152.00L138.71,158.00L149.10,164.00L149.10,176.00L156.03,176.00L159.49,170.00L162.96,164.00L159.49,158.00L169.88,152.00L169.88,140.00L162.96,140.00L159.49,146.00 Z" fill="#a8d8ea" stroke="#555" stroke-width="0.70" stroke-linejoin="round"/>
<path d="M149.10,164.00L138.71,158.00L135.24,164.00L128.32,164.00L128.32,176.00L117.92,182.00L121.39,188.00L128.32,188.00L135.24,188.00L138.71,182.00L149.10,188.00L159.49,182.00L156.03,176.00L149.10,176.00 Z" fill="#a8d8ea" stroke="#555" stroke-width="0.70" stroke-linejoin="round"/>
<path d="M169.88,116.00L176.81,116.00L180.28,110.00L169.88,104.00L159.49,110.00L156.03,104.00L149.10,104.00L142.17,104.00L138.71,110.00L149.10,116.00L149.10,128.00L156.03,128.00L159.49,134.00L169.88,128.00 Z" fill="#a8d8ea" stroke="#555" stroke-width="0.70" stroke-linejoin="round"/>
<path d="M128.32,104.00L138.71,110.00L142.17,104.00L149.10,104.00L149.10,92.00L159.49,86.00L156.03,80.00L149.10,80.00L142.17,80.00L138.71,86.00L128.32,80.00L117.92,86.00L121.39,92.00L128.32,92.00 Z" fill="#a8d8ea" stroke="#555" stroke-width="0.70" stroke-linejoin="round"/>
<path d="M149.10,92.00L149.10,104.00L156.03,104.00L159.49,110.00L169.88,104.00L180.28,110.00L183.74,104.00L180.28,98.00L176.81,92.00L169.88,92.00L169.88,80.00L159.49,74.00L156.03,80.00L159.49,86.00 Z" fill="#a8d8ea" stroke="#555" stroke-width="0.70" stroke-linejoin="round"/>
<path d="M107.53,188.00L117.92,182.00L114.46,176.00L117.92,170.00L107.53,164.00L107.53,152.00L100.60,152.00L97.14,158.00L93.67,164.00L97.14,170.00L86.75,176.00L86.75,188.00L93.67,188.00L97.14,182.00 Z" fill="#a8d8ea" stroke="#555" stroke-width="0.70" stroke-linejoin="round"/>
<path d="M86.75,176.00L97.14,170.00L93.67,164.00L97.14,158.00L86.75,152.00L86.75,140.00L79.82,140.00L76.35,146.00L72.89,152.00L76.35,158.00L65.96,164.00L65.96,176.00L72.89,176.00L76.35,170.00 Z" fill="#a8d8ea" stroke="#555" stroke-width="0.70" stroke-linejoin="round"/>
<path d="M45.18,128.00L45.18,140.00L52.11,140.00L55.57,146.00L65.96,140.00L76.35,146.00L79.82,140.00L76.35,134.00L72.89,128.00L65.96,128.00L65.96,116.00L55.57,110.00L52.11,116.00L55.57,122.00 Z" fill="#a8d8ea" stroke="#555" stroke-width="0.70" stroke-linejoin="round"/>
<path d="M65.96,116.00L76.35,110.00L72.89,104.00L76.35,98.00L65.96,92.00L65.96,80.00L59.03,80.00L55.57,86.00L52.11,92.00L55.57,98.00L45.18,104.00L45.18,116.00L52.11,116.00L55.57,110.00 Z" fill="#a8d8ea" stroke="#555" stroke-width="0.70" stroke-linejoin="round"/>
<path d="M65.96,92.00L76.35,98.00L79.82,92.00L86.75,92.00L86.75,80.00L97.14,74.00L93.67,68.00L86.75,68.00L79.82,68.00L76.35,74.00L65.96,68.00L55.57,74.00L59.03,80.00L65.96,80.00 Z" fill="#a8d8ea" stroke="#555" stroke-width="0.70" stroke-linejoin="round"/>
<path d="M86.75,80.00L86.75,92.00L93.67,92.00L97.14,98.00L107.53,92.00L117.92,98.00L121.39,92.00L117.92,86.00L114.46,80.00L107.53,80.00L107.53,68.00L97.14,62.00L93.67,68.00L97.14,74.00 Z" fill="#a8d8ea" stroke="#555" stroke-width="0.70" stroke-linejoin="round"/>
<path d="M107.53,68.00L107.53,80.00L114.46,80.00L117.92,86.00L128.32,80.00L138.71,86.00L142.17,80.00L138.71,74.00L135.24,68.00L128.32,68.00L128.32,56.00L117.92,50.00L114.46,56.00L117.92,62.00 Z" fill="#a8d8ea" stroke="#555" stroke-width="0.70" stroke-linejoin="round"/>
<path d="M169.88,56.00L159.49,50.00L156.03,56.00L149.10,56.00L149.10,68.00L138.71,74.00L142.17,80.00L149.10,80.00L156.03,80.00L159.49,74.00L169.88,80.00L180.28,74.00L176.81,68.00L169.88,68.00 Z" fill="#a8d8ea" stroke="#555" stroke-width="0.70" stroke-linejoin="round"/>
<path d="M169.88,80.00L169.88,92.00L176.81,92.00L180.28,98.00L190.67,92.00L201.06,98.00L204.53,92.00L201.06,86.00L197.60,80.00L190.67,80.00L190.67,68.00L180.28,62.00L176.81,68.00L180.28,74.00 Z" fill="#a8d8ea" stroke="#555" stroke-width="0.70" stroke-linejoin="round"/>
<path d="M190.67,92.00L180.28,98.00L183.74,104.00L180.28,110.00L190.67,116.00L190.67,128.00L197.60,128.00L201.06,122.00L204.53,116.00L201.06,110.00L211.45,104.00L211.45,92.00L204.53,92.00L201.06,98.00 Z" fill="#a8d8ea" stroke="#555" stroke-width="0.70" stroke-linejoin="round"/>
<path d="M190.67,116.00L180.28,110.00L176.81,116.00L169.88,116.00L169.88,128.00L159.49,134.00L162.96,140.00L169.88,140.00L176.81,140.00L180.28,134.00L190.67,140.00L201.06,134.00L197.60,128.00L190.67,128.00 Z" fill="#a8d8ea" stroke="#555" stroke-width="0.70" stroke-linejoin="round"/>
<path d="M190.67,140.00L180.28,134.00L176.81,140.00L169.88,140.00L169.88,152.00L159.49,158.00L162.96,164.00L169.88,164.00L176.81,164.00L180.28,158.00L190.67,164.00L201.06,158.00L197.60,152.00L190.67,152.00 Z" fill="#a8d8ea" stroke="#555" stroke-width="0.70" stroke-linejoin="round"/>
<path d="M169.88,200.00L180.28,194.00L176.81,188.00L180.28,182.00L169.88,176.00L169.88,164.00L162.96,164.00L159.49,170.00L156.03,176.00L159.49,182.00L149.10,188.00L149.10,200.00L156.03,200.00L159.49,194.00 Z" fill="#a8d8ea" stroke="#555" stroke-width="0.70" stroke-linejoin="round"/>
<path d="M149.10,188.00L138.71,182.00L135.24,188.00L128.32,188.00L128.32,200.00L117.92,206.00L121.39,212.00L128.32,212.00L135.24,212.00L138.71,206.00L149.10,212.00L159.49,206.00L156.03,200.00L149.10,200.00 Z" fill="#a8d8ea" stroke="#555" stroke-width="0.70" stroke-linejoin="round"/>
<path d="M128.32,200.00L128.32,188.00L121.39,188.00L117.92,182.00L107.53,188.00L97.14,182.00L93.67,188.00L97.14,194.00L100.60,200.00L107.53,200.00L107.53,212.00L117.92,218.00L121.39,212.00L117.92,206.00 Z" fill="#a8d8ea" stroke="#555" stroke-width="0.70" stroke-linejoin="round"/>
<path d="M55.57,146.00L52.11,140.00L45.18,140.00L45.18,152.00L55.57,158.00L52.11,164.00L55.57,170.00L59.03,176.00L65.96,176.00L65.96,164.00L76.35,158.00L72.89,152.00L76.35,146.00L65.96,140.00 Z" fill="#a8d8ea" stroke="#555" stroke-width="0.70" stroke-linejoin="round"/>
<path d="M65.96,188.00L65.96,176.00L59.03,176.00L55.57,170.00L45.18,176.00L34.78,170.00L31.32,176.00L34.78,182.00L38.25,188.00L45.18,188.00L45.18,200.00L55.57,206.00L59.03,200.00L55.57,194.00 Z" fill="#a8d8ea" stroke="#555" stroke-width="0.70" stroke-linejoin="round"/>
<path d="M86.75,176.00L76.35,170.00L72.89,176.00L65.96,176.00L65.96,188.00L55.57,194.00L59.03,200.00L65.96,200.00L72.89,200.00L76.35,194.00L86.75,200.00L97.14,194.00L93.67,188.00L86.75,188.00 Z" fill="#a8d8ea" stroke="#555" stroke-width="0.70" stroke-linejoin="round"/>
<path d="M107.53,212.00L107.53,200.00L100.60,200.00L97.14,194.00L86.75,200.00L76.35,194.00L72.89,200.00L76.35,206.00L79.82,212.00L86.75,212.00L86.75,224.00L97.14,230.00L100.60,224.00L97.14,218.00 Z" fill="#a8d8ea" stroke="#555" stroke-width="0.70" stroke-linejoin="round"/>
<path d="M107.53,236.00L117.92,242.00L121.39,236.00L128.32,236.00L128.32,224.00L138.71,218.00L135.24,212.00L128.32,212.00L121.39,212.00L117.92,218.00L107.53,212.00L97.14,218.00L100.60,224.00L107.53,224.00 Z" fill="#a8d8ea" stroke="#555" stroke-width="0.70" stroke-linejoin="round"/>
<path d="M169.88,224.00L169.88,212.00L162.96,212.00L159.49,206.00L149.10,212.00L138.71,206.00L135.24,212.00L138.71,218.00L142.17,224.00L149.10,224.00L149.10,236.00L159.49,242.00L162.96,236.00L159.49,230.00 Z" fill="#a8d8ea" stroke="#555" stroke-width="0.70" stroke-linejoin="round"/>
<path d="M190.67,212.00L190.67,200.00L183.74,200.00L180.28,194.00L169.88,200.00L159.49,194.00L156.03,200.00L159.49,206.00L162.96,212.00L169.88,212.00L169.88,224.00L180.28,230.00L183.74,224.00L180.28,218.00 Z" fill="#a8d8ea" stroke="#555" stroke-width="0.70" stroke-linejoin="round"/>
<path d="M211.45,176.00L201.06,170.00L197.60,176.00L190.67,176.00L190.67,188.00L180.28,194.00L183.74,200.00L190.67,200.00L197.60,200.00L201.06,194.00L211.45,200.00L221.85,194.00L218.38,188.00L211.45,188.00 Z" fill="#a8d8ea" stroke="#555" stroke-width="0.70" stroke-linejoin="round"/>
<path d="M180.28,182.00L176.81,188.00L180.28,194.00L190.67,188.00L190.67,176.00L197.60,176.00L201.06,170.00L204.53,164.00L201.06,158.00L190.67,164.00L180.28,158.00L176.81,164.00L169.88,164.00L169.88,176.00 Z" fill="#a8d8ea" stroke="#555" stroke-width="0.70" stroke-linejoin="round"/>
<path d="M211.45,152.00L201.06,158.00L204.53,164.00L201.06,170.00L211.45,176.00L211.45,188.00L218.38,188.00L221.85,182.00L225.31,176.00L221.85,170.00L232.24,164.00L232.24,152.00L225.31,152.00L221.85,158.00 Z" fill="#a8d8ea" stroke="#555" stroke-width="0.70" stroke-linejoin="round"/>
<path d="M190.67,140.00L190.67,152.00L197.60,152.00L201.06,158.00L211.45,152.00L221.85,158.00L225.31,152.00L221.85,146.00L218.38,140.00L211.45,140.00L211.45,128.00L201.06,122.00L197.60,128.00L201.06,134.00 Z" fill="#a8d8ea" stroke="#555" stroke-width="0.70" stroke-linejoin="round"/>
<path d="M211.45,104.00L201.06,110.00L204.53,116.00L201.06,122.00L211.45,128.00L211.45,140.00L218.38,140.00L221.85,134.00L225.31,128.00L221.85,122.00L232.24,116.00L232.24,104.00L225.31,104.00L221.85,110.00 Z" fill="#a8d8ea" stroke="#555" stroke-width="0.70" stroke-linejoin="round"/>
<path d="M232.24,92.00L232.24,80.00L225.31,80.00L221.85,74.00L211.45,80.00L201.06,74.00L197.60,80.00L201.06,86.00L204.53,92.00L211.45,92.00L211.45,104.00L221.85,110.00L225.31,104.00L221.85,98.00 Z" fill="#a8d8ea" stroke="#555" stroke-width="0.70" stroke-linejoin="round"/>
<path d="M190.67,44.00L180.28,50.00L183.74,56.00L180.28,62.00L190.67,68.00L190.67,80.00L197.60,80.00L201.06,74.00L204.53,68.00L201.06,62.00L211.45,56.00L211.45,44.00L204.53,44.00L201.06,50.00 Z" fill="#a8d8ea" stroke="#555" stroke-width="0.70" stroke-linejoin="round"/>
<path d="M169.88,32.00L159.49,38.00L162.96,44.00L159.49,50.00L169.88,56.00L169.88,68.00L176.81,68.00L180.28,62.00L183.74,56.00L180.28,50.00L190.67,44.00L190.67,32.00L183.74,32.00L180.28,38.00 Z" fill="#a8d8ea" stroke="#555" stroke-width="0.70" stroke-linejoin="round"/>
<path d="M128.32,32.00L128.32,44.00L135.24,44.00L138.71,50.00L149.10,44.00L159.49,50.00L162.96,44.00L159.49,38.00L156.03,32.00L149.10,32.00L149.10,20.00L138.71,14.00L135.24,20.00L138.71,26.00 Z" fill="#a8d8ea" stroke="#555" stroke-width="0.70" stroke-linejoin="round"/>
<path d="M149.10,56.00L156.03,56.00L159.49,50.00L149.10,44.00L138.71,50.00L135.24,44.00L128.32,44.00L121.39,44.00L117.92,50.00L128.32,56.00L128.32,68.00L135.24,68.00L138.71,74.00L149.10,68.00 Z" fill="#a8d8ea" stroke="#555" stroke-width="0.70" stroke-linejoin="round"/>
<path d="M107.53,44.00L117.92,50.00L121.39,44.00L128.32,44.00L128.32,32.00L138.71,26.00L135.24,20.00L128.32,20.00L121.39,20.00L117.92,26.00L107.53,20.00L97.14,26.00L100.60,32.00L107.53,32.00 Z" fill="#a8d8ea" stroke="#555" stroke-width="0.70" stroke-linejoin="round"/>
<path d="M107.53,68.00L117.92,62.00L114.46,56.00L117.92,50.00L107.53,44.00L107.53,32.00L100.60,32.00L97.14,38.00L93.67,44.00L97.14,50.00L86.75,56.00L86.75,68.00L93.67,68.00L97.14,62.00 Z" fill="#a8d8ea" stroke="#555" stroke-width="0.70" stroke-linejoin="round"/>
<path d="M65.96,68.00L76.35,74.00L79.82,68.00L86.75,68.00L86.75,56.00L97.14,50.00L93.67,44.00L86.75,44.00L79.82,44.00L76.35,50.00L65.96,44.00L55.57,50.00L59.03,56.00L65.96,56.00 Z" fill="#a8d8ea" stroke="#555" stroke-width="0.70" stroke-linejoin="round"/>
<path d="M45.18,56.00L34.78,62.00L38.25,68.00L34.78,74.00L45.18,80.00L45.18,92.00L52.11,92.00L55.57,86.00L59.03,80.00L55.57,74.00L65.96,68.00L65.96,56.00L59.03,56.00L55.57,62.00 Z" fill="#a8d8ea" stroke="#555" stroke-width="0.70" stroke-linejoin="round"/>
<path d="M24.39,116.00L34.78,122.00L38.25,116.00L45.18,116.00L45.18,104.00L55.57,98.00L52.11,92.00L45.18,92.00L38.25,92.00L34.78,98.00L24.39,92.00L14.00,98.00L17.46,104.00L24.39,104.00 Z" fill="#a8d8ea" stroke="#555" stroke-width="0.70" stroke-linejoin="round"/>
<path d="M24.39,140.00L34.78,146.00L38.25,140.00L45.18,140.00L45.18,128.00L55.57,122.00L52.11,116.00L45.18,116.00L38.25,116.00L34.78,122.00L24.39,116.00L14.00,122.00L17.46,128.00L24.39,128.00 Z" fill="#a8d8ea" stroke="#555" stroke-width="0.70" stroke-linejoin="round"/>
<path d="M45.18,176.00L55.57,170.00L52.11,164.00L55.57,158.00L45.18,152.00L45.18,140.00L38.25,140.00L34.78,146.00L31.32,152.00L34.78,158.00L24.39,164.00L24.39,176.00L31.32,176.00L34.78,170.00 Z" fill="#a8d8ea" stroke="#555" stroke-width="0.70" stroke-linejoin="round"/>
<path d="M128.32,128.00L117.92,122.00L114.46,128.00L107.53,128.00L107.53,140.00L97.14,146.00L100.60,152.00L107.53,152.00L114.46,152.00L117.92,146.00L128.32,152.00L138.71,146.00L135.24,140.00L128.32,140.00 Z" fill="#f39c12" stroke="#1a1a1a" stroke-width="1.10" stroke-linejoin="round"/>
<path d="M128.32,128.00L128.32,140.00L135.24,140.00L138.71,146.00L149.10,140.00L159.49,146.00L162.96,140.00L159.49,134.00L156.03,128.00L149.10,128.00L149.10,116.00L138.71,110.00L135.24,116.00L138.71,122.00 Z" fill="#e74c3c" stroke="#1a1a1a" stroke-width="1.10" stroke-linejoin="round"/>
<path d="M128.32,128.00L138.71,122.00L135.24,116.00L138.71,110.00L128.32,104.00L128.32,92.00L121.39,92.00L117.92,98.00L114.46,104.00L117.92,110.00L107.53,116.00L107.53,128.00L114.46,128.00L117.92,122.00 Z" fill="#8e44ad" stroke="#1a1a1a" stroke-width="1.10" stroke-linejoin="round"/>
<path d="M121.39,92.00L117.92,98.00L114.46,104.00L117.92,110.00L107.53,116.00L107.53,128.00L107.53,140.00L97.14,146.00L100.60,152.00L107.53,152.00L114.46,152.00L117.92,146.00L128.32,152.00L138.71,146.00L149.10,140.00L159.49,146.00L162.96,140.00L159.49,134.00L156.03,128.00L149.10,128.00L149.10,116.00L138.71,110.00L128.32,104.00L128.32,92.00 Z" fill="none" stroke="#c0392b" stroke-width="1.80" stroke-linejoin="round"/>
<text x="123.1" y="267.0" text-anchor="middle" font-size="9" font-family="sans-serif" fill="#444">51 tiles</text>
</svg>
