<svg xmlns="http://www.w3.org/2000/svg" width="1323" height="1448">
<rect width="100%" height="100%" fill="white"/>
<path d="M101.7,706.1L117.3,697.1L117.3,679.1L106.9,679.1L101.7,688.1L86.2,679.1L70.6,688.1L75.8,697.1L70.6,706.1L86.2,715.0L86.2,733.0L96.5,733.0L101.7,724.0L106.9,715.0 Z" fill="#c5d6ea" stroke="#7a8aaa" stroke-width="0.3"/>
<path d="M101.7,724.0L117.3,733.0L132.8,724.0L138.0,733.0L148.4,733.0L148.4,715.0L132.8,706.1L138.0,697.1L132.8,688.1L127.6,679.1L117.3,679.1L117.3,697.1L101.7,706.1L106.9,715.0 Z" fill="#f4d03f" stroke="#7a8aaa" stroke-width="0.3"/>
<path d="M101.7,652.2L86.2,643.2L70.6,652.2L75.8,661.2L86.2,661.2L86.2,679.1L101.7,688.1L106.9,679.1L117.3,679.1L117.3,661.2L132.8,652.2L127.6,643.2L117.3,643.2L106.9,643.2 Z" fill="#c5d6ea" stroke="#7a8aaa" stroke-width="0.3"/>
<path d="M148.4,661.2L148.4,643.2L132.8,634.3L127.6,643.2L132.8,652.2L117.3,661.2L117.3,679.1L127.6,679.1L132.8,688.1L148.4,679.1L163.9,688.1L169.1,679.1L163.9,670.2L158.7,661.2 Z" fill="#c5d6ea" stroke="#7a8aaa" stroke-width="0.3"/>
<path d="M163.9,706.1L179.4,697.1L179.4,679.1L169.1,679.1L163.9,688.1L148.4,679.1L132.8,688.1L138.0,697.1L132.8,706.1L148.4,715.0L148.4,733.0L158.7,733.0L163.9,724.0L169.1,715.0 Z" fill="#c5d6ea" stroke="#7a8aaa" stroke-width="0.3"/>
<path d="M163.9,759.9L179.4,768.9L195.0,759.9L189.8,750.9L179.4,750.9L179.4,733.0L163.9,724.0L158.7,733.0L148.4,733.0L148.4,750.9L132.8,759.9L138.0,768.9L148.4,768.9L158.7,768.9 Z" fill="#c5d6ea" stroke="#7a8aaa" stroke-width="0.3"/>
<path d="M117.3,750.9L117.3,768.9L132.8,777.8L138.0,768.9L132.8,759.9L148.4,750.9L148.4,733.0L138.0,733.0L132.8,724.0L117.3,733.0L101.7,724.0L96.5,733.0L101.7,741.9L106.9,750.9 Z" fill="#c5d6ea" stroke="#7a8aaa" stroke-width="0.3"/>
<path d="M101.7,616.3L86.2,607.3L70.6,616.3L75.8,625.3L86.2,625.3L86.2,643.2L101.7,652.2L106.9,643.2L117.3,643.2L117.3,625.3L132.8,616.3L127.6,607.3L117.3,607.3L106.9,607.3 Z" fill="#c5d6ea" stroke="#7a8aaa" stroke-width="0.3"/>
<path d="M117.3,607.3L117.3,589.4L101.7,580.4L106.9,571.4L101.7,562.5L86.2,571.4L86.2,589.4L75.8,589.4L70.6,598.4L65.5,607.3L70.6,616.3L86.2,607.3L101.7,616.3L106.9,607.3 Z" fill="#f4d03f" stroke="#7a8aaa" stroke-width="0.3"/>
<path d="M55.1,643.2L55.1,661.2L70.6,670.2L75.8,661.2L70.6,652.2L86.2,643.2L86.2,625.3L75.8,625.3L70.6,616.3L55.1,625.3L39.5,616.3L34.4,625.3L39.5,634.3L44.7,643.2 Z" fill="#c5d6ea" stroke="#7a8aaa" stroke-width="0.3"/>
<path d="M39.5,598.4L24.0,607.3L24.0,625.3L34.4,625.3L39.5,616.3L55.1,625.3L70.6,616.3L65.5,607.3L70.6,598.4L55.1,589.4L55.1,571.4L44.7,571.4L39.5,580.4L34.4,589.4 Z" fill="#c5d6ea" stroke="#7a8aaa" stroke-width="0.3"/>
<path d="M70.6,562.5L55.1,553.5L39.5,562.5L44.7,571.4L55.1,571.4L55.1,589.4L70.6,598.4L75.8,589.4L86.2,589.4L86.2,571.4L101.7,562.5L96.5,553.5L86.2,553.5L75.8,553.5 Z" fill="#c5d6ea" stroke="#7a8aaa" stroke-width="0.3"/>
<path d="M117.3,535.5L117.3,517.6L101.7,508.6L96.5,517.6L101.7,526.6L86.2,535.5L86.2,553.5L96.5,553.5L101.7,562.5L117.3,553.5L132.8,562.5L138.0,553.5L132.8,544.5L127.6,535.5 Z" fill="#c5d6ea" stroke="#7a8aaa" stroke-width="0.3"/>
<path d="M132.8,580.4L148.4,571.4L148.4,553.5L138.0,553.5L132.8,562.5L117.3,553.5L101.7,562.5L106.9,571.4L101.7,580.4L117.3,589.4L117.3,607.3L127.6,607.3L132.8,598.4L138.0,589.4 Z" fill="#c5d6ea" stroke="#7a8aaa" stroke-width="0.3"/>
<path d="M70.6,526.6L55.1,517.6L39.5,526.6L44.7,535.5L55.1,535.5L55.1,553.5L70.6,562.5L75.8,553.5L86.2,553.5L86.2,535.5L101.7,526.6L96.5,517.6L86.2,517.6L75.8,517.6 Z" fill="#c5d6ea" stroke="#7a8aaa" stroke-width="0.3"/>
<path d="M179.4,643.2L179.4,625.3L163.9,616.3L158.7,625.3L163.9,634.3L148.4,643.2L148.4,661.2L158.7,661.2L163.9,670.2L179.4,661.2L195.0,670.2L200.2,661.2L195.0,652.2L189.8,643.2 Z" fill="#c5d6ea" stroke="#7a8aaa" stroke-width="0.3"/>
<path d="M195.0,652.2L210.5,643.2L210.5,625.3L220.9,625.3L226.1,616.3L210.5,607.3L195.0,616.3L189.8,607.3L179.4,607.3L169.1,607.3L163.9,616.3L179.4,625.3L179.4,643.2L189.8,643.2 Z" fill="#f4d03f" stroke="#7a8aaa" stroke-width="0.3"/>
<path d="M132.8,616.3L117.3,625.3L117.3,643.2L127.6,643.2L132.8,634.3L148.4,643.2L163.9,634.3L158.7,625.3L163.9,616.3L148.4,607.3L148.4,589.4L138.0,589.4L132.8,598.4L127.6,607.3 Z" fill="#c5d6ea" stroke="#7a8aaa" stroke-width="0.3"/>
<path d="M163.9,580.4L148.4,571.4L132.8,580.4L138.0,589.4L148.4,589.4L148.4,607.3L163.9,616.3L169.1,607.3L179.4,607.3L179.4,589.4L195.0,580.4L189.8,571.4L179.4,571.4L169.1,571.4 Z" fill="#c5d6ea" stroke="#7a8aaa" stroke-width="0.3"/>
<path d="M210.5,589.4L210.5,571.4L195.0,562.5L189.8,571.4L195.0,580.4L179.4,589.4L179.4,607.3L189.8,607.3L195.0,616.3L210.5,607.3L226.1,616.3L231.3,607.3L226.1,598.4L220.9,589.4 Z" fill="#c5d6ea" stroke="#7a8aaa" stroke-width="0.3"/>
<path d="M257.2,616.3L272.7,607.3L272.7,589.4L262.3,589.4L257.2,598.4L241.6,589.4L226.1,598.4L231.3,607.3L226.1,616.3L241.6,625.3L241.6,643.2L252.0,643.2L257.2,634.3L262.3,625.3 Z" fill="#c5d6ea" stroke="#7a8aaa" stroke-width="0.3"/>
<path d="M226.1,652.2L241.6,661.2L257.2,652.2L252.0,643.2L241.6,643.2L241.6,625.3L226.1,616.3L220.9,625.3L210.5,625.3L210.5,643.2L195.0,652.2L200.2,661.2L210.5,661.2L220.9,661.2 Z" fill="#c5d6ea" stroke="#7a8aaa" stroke-width="0.3"/>
<path d="M241.6,571.4L241.6,553.5L226.1,544.5L220.9,553.5L226.1,562.5L210.5,571.4L210.5,589.4L220.9,589.4L226.1,598.4L241.6,589.4L257.2,598.4L262.3,589.4L257.2,580.4L252.0,571.4 Z" fill="#c5d6ea" stroke="#7a8aaa" stroke-width="0.3"/>
<path d="M195.0,724.0L210.5,715.0L210.5,697.1L200.2,697.1L195.0,706.1L179.4,697.1L163.9,706.1L169.1,715.0L163.9,724.0L179.4,733.0L179.4,750.9L189.8,750.9L195.0,741.9L200.2,733.0 Z" fill="#c5d6ea" stroke="#7a8aaa" stroke-width="0.3"/>
<path d="M195.0,741.9L210.5,750.9L226.1,741.9L231.3,750.9L241.6,750.9L241.6,733.0L226.1,724.0L231.3,715.0L226.1,706.1L220.9,697.1L210.5,697.1L210.5,715.0L195.0,724.0L200.2,733.0 Z" fill="#f4d03f" stroke="#7a8aaa" stroke-width="0.3"/>
<path d="M195.0,670.2L179.4,661.2L163.9,670.2L169.1,679.1L179.4,679.1L179.4,697.1L195.0,706.1L200.2,697.1L210.5,697.1L210.5,679.1L226.1,670.2L220.9,661.2L210.5,661.2L200.2,661.2 Z" fill="#c5d6ea" stroke="#7a8aaa" stroke-width="0.3"/>
<path d="M241.6,679.1L241.6,661.2L226.1,652.2L220.9,661.2L226.1,670.2L210.5,679.1L210.5,697.1L220.9,697.1L226.1,706.1L241.6,697.1L257.2,706.1L262.3,697.1L257.2,688.1L252.0,679.1 Z" fill="#c5d6ea" stroke="#7a8aaa" stroke-width="0.3"/>
<path d="M257.2,724.0L272.7,715.0L272.7,697.1L262.3,697.1L257.2,706.1L241.6,697.1L226.1,706.1L231.3,715.0L226.1,724.0L241.6,733.0L241.6,750.9L252.0,750.9L257.2,741.9L262.3,733.0 Z" fill="#c5d6ea" stroke="#7a8aaa" stroke-width="0.3"/>
<path d="M257.2,777.8L272.7,786.8L288.2,777.8L283.1,768.9L272.7,768.9L272.7,750.9L257.2,741.9L252.0,750.9L241.6,750.9L241.6,768.9L226.1,777.8L231.3,786.8L241.6,786.8L252.0,786.8 Z" fill="#c5d6ea" stroke="#7a8aaa" stroke-width="0.3"/>
<path d="M210.5,768.9L210.5,786.8L226.1,795.8L231.3,786.8L226.1,777.8L241.6,768.9L241.6,750.9L231.3,750.9L226.1,741.9L210.5,750.9L195.0,741.9L189.8,750.9L195.0,759.9L200.2,768.9 Z" fill="#c5d6ea" stroke="#7a8aaa" stroke-width="0.3"/>
<path d="M288.2,741.9L303.8,733.0L303.8,715.0L293.4,715.0L288.2,724.0L272.7,715.0L257.2,724.0L262.3,733.0L257.2,741.9L272.7,750.9L272.7,768.9L283.1,768.9L288.2,759.9L293.4,750.9 Z" fill="#c5d6ea" stroke="#7a8aaa" stroke-width="0.3"/>
<path d="M257.2,813.7L272.7,822.7L288.2,813.7L283.1,804.8L272.7,804.8L272.7,786.8L257.2,777.8L252.0,786.8L241.6,786.8L241.6,804.8L226.1,813.7L231.3,822.7L241.6,822.7L252.0,822.7 Z" fill="#c5d6ea" stroke="#7a8aaa" stroke-width="0.3"/>
<path d="M241.6,822.7L241.6,840.7L257.2,849.6L252.0,858.6L257.2,867.6L272.7,858.6L272.7,840.7L283.1,840.7L288.2,831.7L293.4,822.7L288.2,813.7L272.7,822.7L257.2,813.7L252.0,822.7 Z" fill="#f4d03f" stroke="#7a8aaa" stroke-width="0.3"/>
<path d="M303.8,786.8L303.8,768.9L288.2,759.9L283.1,768.9L288.2,777.8L272.7,786.8L272.7,804.8L283.1,804.8L288.2,813.7L303.8,804.8L319.3,813.7L324.5,804.8L319.3,795.8L314.2,786.8 Z" fill="#c5d6ea" stroke="#7a8aaa" stroke-width="0.3"/>
<path d="M319.3,831.7L334.9,822.7L334.9,804.8L324.5,804.8L319.3,813.7L303.8,804.8L288.2,813.7L293.4,822.7L288.2,831.7L303.8,840.7L303.8,858.6L314.2,858.6L319.3,849.6L324.5,840.7 Z" fill="#c5d6ea" stroke="#7a8aaa" stroke-width="0.3"/>
<path d="M288.2,867.6L303.8,876.6L319.3,867.6L314.2,858.6L303.8,858.6L303.8,840.7L288.2,831.7L283.1,840.7L272.7,840.7L272.7,858.6L257.2,867.6L262.3,876.6L272.7,876.6L283.1,876.6 Z" fill="#c5d6ea" stroke="#7a8aaa" stroke-width="0.3"/>
<path d="M241.6,894.5L241.6,912.5L257.2,921.4L262.3,912.5L257.2,903.5L272.7,894.5L272.7,876.6L262.3,876.6L257.2,867.6L241.6,876.6L226.1,867.6L220.9,876.6L226.1,885.5L231.3,894.5 Z" fill="#c5d6ea" stroke="#7a8aaa" stroke-width="0.3"/>
<path d="M226.1,849.6L210.5,858.6L210.5,876.6L220.9,876.6L226.1,867.6L241.6,876.6L257.2,867.6L252.0,858.6L257.2,849.6L241.6,840.7L241.6,822.7L231.3,822.7L226.1,831.7L220.9,840.7 Z" fill="#c5d6ea" stroke="#7a8aaa" stroke-width="0.3"/>
<path d="M288.2,903.5L303.8,912.5L319.3,903.5L314.2,894.5L303.8,894.5L303.8,876.6L288.2,867.6L283.1,876.6L272.7,876.6L272.7,894.5L257.2,903.5L262.3,912.5L272.7,912.5L283.1,912.5 Z" fill="#c5d6ea" stroke="#7a8aaa" stroke-width="0.3"/>
<path d="M179.4,786.8L179.4,804.8L195.0,813.7L200.2,804.8L195.0,795.8L210.5,786.8L210.5,768.9L200.2,768.9L195.0,759.9L179.4,768.9L163.9,759.9L158.7,768.9L163.9,777.8L169.1,786.8 Z" fill="#c5d6ea" stroke="#7a8aaa" stroke-width="0.3"/>
<path d="M163.9,777.8L148.4,786.8L148.4,804.8L138.0,804.8L132.8,813.7L148.4,822.7L163.9,813.7L169.1,822.7L179.4,822.7L189.8,822.7L195.0,813.7L179.4,804.8L179.4,786.8L169.1,786.8 Z" fill="#f4d03f" stroke="#7a8aaa" stroke-width="0.3"/>
<path d="M226.1,813.7L241.6,804.8L241.6,786.8L231.3,786.8L226.1,795.8L210.5,786.8L195.0,795.8L200.2,804.8L195.0,813.7L210.5,822.7L210.5,840.7L220.9,840.7L226.1,831.7L231.3,822.7 Z" fill="#c5d6ea" stroke="#7a8aaa" stroke-width="0.3"/>
<path d="M195.0,849.6L210.5,858.6L226.1,849.6L220.9,840.7L210.5,840.7L210.5,822.7L195.0,813.7L189.8,822.7L179.4,822.7L179.4,840.7L163.9,849.6L169.1,858.6L179.4,858.6L189.8,858.6 Z" fill="#c5d6ea" stroke="#7a8aaa" stroke-width="0.3"/>
<path d="M148.4,840.7L148.4,858.6L163.9,867.6L169.1,858.6L163.9,849.6L179.4,840.7L179.4,822.7L169.1,822.7L163.9,813.7L148.4,822.7L132.8,813.7L127.6,822.7L132.8,831.7L138.0,840.7 Z" fill="#c5d6ea" stroke="#7a8aaa" stroke-width="0.3"/>
<path d="M101.7,813.7L86.2,822.7L86.2,840.7L96.5,840.7L101.7,831.7L117.3,840.7L132.8,831.7L127.6,822.7L132.8,813.7L117.3,804.8L117.3,786.8L106.9,786.8L101.7,795.8L96.5,804.8 Z" fill="#c5d6ea" stroke="#7a8aaa" stroke-width="0.3"/>
<path d="M132.8,777.8L117.3,768.9L101.7,777.8L106.9,786.8L117.3,786.8L117.3,804.8L132.8,813.7L138.0,804.8L148.4,804.8L148.4,786.8L163.9,777.8L158.7,768.9L148.4,768.9L138.0,768.9 Z" fill="#c5d6ea" stroke="#7a8aaa" stroke-width="0.3"/>
<path d="M117.3,858.6L117.3,876.6L132.8,885.5L138.0,876.6L132.8,867.6L148.4,858.6L148.4,840.7L138.0,840.7L132.8,831.7L117.3,840.7L101.7,831.7L96.5,840.7L101.7,849.6L106.9,858.6 Z" fill="#c5d6ea" stroke="#7a8aaa" stroke-width="0.3"/>
<path d="M319.3,759.9L334.9,750.9L334.9,733.0L324.5,733.0L319.3,741.9L303.8,733.0L288.2,741.9L293.4,750.9L288.2,759.9L303.8,768.9L303.8,786.8L314.2,786.8L319.3,777.8L324.5,768.9 Z" fill="#c5d6ea" stroke="#7a8aaa" stroke-width="0.3"/>
<path d="M319.3,777.8L334.9,786.8L350.4,777.8L355.6,786.8L366.0,786.8L366.0,768.9L350.4,759.9L355.6,750.9L350.4,741.9L345.2,733.0L334.9,733.0L334.9,750.9L319.3,759.9L324.5,768.9 Z" fill="#f4d03f" stroke="#7a8aaa" stroke-width="0.3"/>
<path d="M319.3,706.1L303.8,697.1L288.2,706.1L293.4,715.0L303.8,715.0L303.8,733.0L319.3,741.9L324.5,733.0L334.9,733.0L334.9,715.0L350.4,706.1L345.2,697.1L334.9,697.1L324.5,697.1 Z" fill="#c5d6ea" stroke="#7a8aaa" stroke-width="0.3"/>
<path d="M366.0,715.0L366.0,697.1L350.4,688.1L345.2,697.1L350.4,706.1L334.9,715.0L334.9,733.0L345.2,733.0L350.4,741.9L366.0,733.0L381.5,741.9L386.7,733.0L381.5,724.0L376.3,715.0 Z" fill="#c5d6ea" stroke="#7a8aaa" stroke-width="0.3"/>
<path d="M381.5,759.9L397.1,750.9L397.1,733.0L386.7,733.0L381.5,741.9L366.0,733.0L350.4,741.9L355.6,750.9L350.4,759.9L366.0,768.9L366.0,786.8L376.3,786.8L381.5,777.8L386.7,768.9 Z" fill="#c5d6ea" stroke="#7a8aaa" stroke-width="0.3"/>
<path d="M381.5,813.7L397.1,822.7L412.6,813.7L407.4,804.8L397.1,804.8L397.1,786.8L381.5,777.8L376.3,786.8L366.0,786.8L366.0,804.8L350.4,813.7L355.6,822.7L366.0,822.7L376.3,822.7 Z" fill="#c5d6ea" stroke="#7a8aaa" stroke-width="0.3"/>
<path d="M334.9,804.8L334.9,822.7L350.4,831.7L355.6,822.7L350.4,813.7L366.0,804.8L366.0,786.8L355.6,786.8L350.4,777.8L334.9,786.8L319.3,777.8L314.2,786.8L319.3,795.8L324.5,804.8 Z" fill="#c5d6ea" stroke="#7a8aaa" stroke-width="0.3"/>
<path d="M412.6,777.8L428.1,768.9L428.1,750.9L417.8,750.9L412.6,759.9L397.1,750.9L381.5,759.9L386.7,768.9L381.5,777.8L397.1,786.8L397.1,804.8L407.4,804.8L412.6,795.8L417.8,786.8 Z" fill="#c5d6ea" stroke="#7a8aaa" stroke-width="0.3"/>
<path d="M1127.6,1280.4L1112.1,1271.4L1096.5,1280.4L1101.7,1289.4L1112.1,1289.4L1112.1,1307.3L1127.6,1316.3L1132.8,1307.3L1143.2,1307.3L1143.2,1289.4L1158.7,1280.4L1153.5,1271.4L1143.2,1271.4L1132.8,1271.4 Z" fill="#c8e6c9" stroke="#7a8aaa" stroke-width="0.3"/>
<path d="M1143.2,1271.4L1143.2,1253.5L1127.6,1244.5L1132.8,1235.5L1127.6,1226.6L1112.1,1235.5L1112.1,1253.5L1101.7,1253.5L1096.5,1262.5L1091.4,1271.4L1096.5,1280.4L1112.1,1271.4L1127.6,1280.4L1132.8,1271.4 Z" fill="#f4d03f" stroke="#7a8aaa" stroke-width="0.3"/>
<path d="M1081.0,1307.3L1081.0,1325.3L1096.5,1334.3L1101.7,1325.3L1096.5,1316.3L1112.1,1307.3L1112.1,1289.4L1101.7,1289.4L1096.5,1280.4L1081.0,1289.4L1065.5,1280.4L1060.3,1289.4L1065.5,1298.4L1070.6,1307.3 Z" fill="#c8e6c9" stroke="#7a8aaa" stroke-width="0.3"/>
<path d="M1065.5,1262.5L1049.9,1271.4L1049.9,1289.4L1060.3,1289.4L1065.5,1280.4L1081.0,1289.4L1096.5,1280.4L1091.4,1271.4L1096.5,1262.5L1081.0,1253.5L1081.0,1235.5L1070.6,1235.5L1065.5,1244.5L1060.3,1253.5 Z" fill="#c8e6c9" stroke="#7a8aaa" stroke-width="0.3"/>
<path d="M1096.5,1226.6L1081.0,1217.6L1065.5,1226.6L1070.6,1235.5L1081.0,1235.5L1081.0,1253.5L1096.5,1262.5L1101.7,1253.5L1112.1,1253.5L1112.1,1235.5L1127.6,1226.6L1122.4,1217.6L1112.1,1217.6L1101.7,1217.6 Z" fill="#c8e6c9" stroke="#7a8aaa" stroke-width="0.3"/>
<path d="M1143.2,1199.6L1143.2,1181.7L1127.6,1172.7L1122.4,1181.7L1127.6,1190.7L1112.1,1199.6L1112.1,1217.6L1122.4,1217.6L1127.6,1226.6L1143.2,1217.6L1158.7,1226.6L1163.9,1217.6L1158.7,1208.6L1153.5,1199.6 Z" fill="#c8e6c9" stroke="#7a8aaa" stroke-width="0.3"/>
<path d="M1158.7,1244.5L1174.3,1235.5L1174.3,1217.6L1163.9,1217.6L1158.7,1226.6L1143.2,1217.6L1127.6,1226.6L1132.8,1235.5L1127.6,1244.5L1143.2,1253.5L1143.2,1271.4L1153.5,1271.4L1158.7,1262.5L1163.9,1253.5 Z" fill="#c8e6c9" stroke="#7a8aaa" stroke-width="0.3"/>
<path d="M1049.9,1325.3L1049.9,1343.2L1065.5,1352.2L1070.6,1343.2L1065.5,1334.3L1081.0,1325.3L1081.0,1307.3L1070.6,1307.3L1065.5,1298.4L1049.9,1307.3L1034.4,1298.4L1029.2,1307.3L1034.4,1316.3L1039.5,1325.3 Z" fill="#c8e6c9" stroke="#7a8aaa" stroke-width="0.3"/>
<path d="M1034.4,1316.3L1018.8,1325.3L1018.8,1343.2L1008.5,1343.2L1003.3,1352.2L1018.8,1361.2L1034.4,1352.2L1039.5,1361.2L1049.9,1361.2L1060.3,1361.2L1065.5,1352.2L1049.9,1343.2L1049.9,1325.3L1039.5,1325.3 Z" fill="#f4d03f" stroke="#7a8aaa" stroke-width="0.3"/>
<path d="M1096.5,1352.2L1112.1,1343.2L1112.1,1325.3L1101.7,1325.3L1096.5,1334.3L1081.0,1325.3L1065.5,1334.3L1070.6,1343.2L1065.5,1352.2L1081.0,1361.2L1081.0,1379.1L1091.4,1379.1L1096.5,1370.2L1101.7,1361.2 Z" fill="#c8e6c9" stroke="#7a8aaa" stroke-width="0.3"/>
<path d="M1065.5,1388.1L1081.0,1397.1L1096.5,1388.1L1091.4,1379.1L1081.0,1379.1L1081.0,1361.2L1065.5,1352.2L1060.3,1361.2L1049.9,1361.2L1049.9,1379.1L1034.4,1388.1L1039.5,1397.1L1049.9,1397.1L1060.3,1397.1 Z" fill="#c8e6c9" stroke="#7a8aaa" stroke-width="0.3"/>
<path d="M1018.8,1379.1L1018.8,1397.1L1034.4,1406.1L1039.5,1397.1L1034.4,1388.1L1049.9,1379.1L1049.9,1361.2L1039.5,1361.2L1034.4,1352.2L1018.8,1361.2L1003.3,1352.2L998.1,1361.2L1003.3,1370.2L1008.5,1379.1 Z" fill="#c8e6c9" stroke="#7a8aaa" stroke-width="0.3"/>
<path d="M972.2,1352.2L956.6,1361.2L956.6,1379.1L967.0,1379.1L972.2,1370.2L987.7,1379.1L1003.3,1370.2L998.1,1361.2L1003.3,1352.2L987.7,1343.2L987.7,1325.3L977.4,1325.3L972.2,1334.3L967.0,1343.2 Z" fill="#c8e6c9" stroke="#7a8aaa" stroke-width="0.3"/>
<path d="M1003.3,1316.3L987.7,1307.3L972.2,1316.3L977.4,1325.3L987.7,1325.3L987.7,1343.2L1003.3,1352.2L1008.5,1343.2L1018.8,1343.2L1018.8,1325.3L1034.4,1316.3L1029.2,1307.3L1018.8,1307.3L1008.5,1307.3 Z" fill="#c8e6c9" stroke="#7a8aaa" stroke-width="0.3"/>
<path d="M987.7,1397.1L987.7,1415.0L1003.3,1424.0L1008.5,1415.0L1003.3,1406.1L1018.8,1397.1L1018.8,1379.1L1008.5,1379.1L1003.3,1370.2L987.7,1379.1L972.2,1370.2L967.0,1379.1L972.2,1388.1L977.4,1397.1 Z" fill="#c8e6c9" stroke="#7a8aaa" stroke-width="0.3"/>
<path d="M1034.4,1244.5L1018.8,1253.5L1018.8,1271.4L1029.2,1271.4L1034.4,1262.5L1049.9,1271.4L1065.5,1262.5L1060.3,1253.5L1065.5,1244.5L1049.9,1235.5L1049.9,1217.6L1039.5,1217.6L1034.4,1226.6L1029.2,1235.5 Z" fill="#c8e6c9" stroke="#7a8aaa" stroke-width="0.3"/>
<path d="M1034.4,1226.6L1018.8,1217.6L1003.3,1226.6L998.1,1217.6L987.7,1217.6L987.7,1235.5L1003.3,1244.5L998.1,1253.5L1003.3,1262.5L1008.5,1271.4L1018.8,1271.4L1018.8,1253.5L1034.4,1244.5L1029.2,1235.5 Z" fill="#f4d03f" stroke="#7a8aaa" stroke-width="0.3"/>
<path d="M1034.4,1298.4L1049.9,1307.3L1065.5,1298.4L1060.3,1289.4L1049.9,1289.4L1049.9,1271.4L1034.4,1262.5L1029.2,1271.4L1018.8,1271.4L1018.8,1289.4L1003.3,1298.4L1008.5,1307.3L1018.8,1307.3L1029.2,1307.3 Z" fill="#c8e6c9" stroke="#7a8aaa" stroke-width="0.3"/>
<path d="M987.7,1289.4L987.7,1307.3L1003.3,1316.3L1008.5,1307.3L1003.3,1298.4L1018.8,1289.4L1018.8,1271.4L1008.5,1271.4L1003.3,1262.5L987.7,1271.4L972.2,1262.5L967.0,1271.4L972.2,1280.4L977.4,1289.4 Z" fill="#c8e6c9" stroke="#7a8aaa" stroke-width="0.3"/>
<path d="M972.2,1244.5L956.6,1253.5L956.6,1271.4L967.0,1271.4L972.2,1262.5L987.7,1271.4L1003.3,1262.5L998.1,1253.5L1003.3,1244.5L987.7,1235.5L987.7,1217.6L977.4,1217.6L972.2,1226.6L967.0,1235.5 Z" fill="#c8e6c9" stroke="#7a8aaa" stroke-width="0.3"/>
<path d="M972.2,1190.7L956.6,1181.7L941.1,1190.7L946.3,1199.6L956.6,1199.6L956.6,1217.6L972.2,1226.6L977.4,1217.6L987.7,1217.6L987.7,1199.6L1003.3,1190.7L998.1,1181.7L987.7,1181.7L977.4,1181.7 Z" fill="#c8e6c9" stroke="#7a8aaa" stroke-width="0.3"/>
<path d="M1018.8,1199.6L1018.8,1181.7L1003.3,1172.7L998.1,1181.7L1003.3,1190.7L987.7,1199.6L987.7,1217.6L998.1,1217.6L1003.3,1226.6L1018.8,1217.6L1034.4,1226.6L1039.5,1217.6L1034.4,1208.6L1029.2,1199.6 Z" fill="#c8e6c9" stroke="#7a8aaa" stroke-width="0.3"/>
<path d="M941.1,1226.6L925.6,1235.5L925.6,1253.5L935.9,1253.5L941.1,1244.5L956.6,1253.5L972.2,1244.5L967.0,1235.5L972.2,1226.6L956.6,1217.6L956.6,1199.6L946.3,1199.6L941.1,1208.6L935.9,1217.6 Z" fill="#c8e6c9" stroke="#7a8aaa" stroke-width="0.3"/>
<path d="M1096.5,1190.7L1081.0,1181.7L1065.5,1190.7L1070.6,1199.6L1081.0,1199.6L1081.0,1217.6L1096.5,1226.6L1101.7,1217.6L1112.1,1217.6L1112.1,1199.6L1127.6,1190.7L1122.4,1181.7L1112.1,1181.7L1101.7,1181.7 Z" fill="#c8e6c9" stroke="#7a8aaa" stroke-width="0.3"/>
<path d="M1112.1,1181.7L1112.1,1163.7L1096.5,1154.8L1101.7,1145.8L1096.5,1136.8L1081.0,1145.8L1081.0,1163.7L1070.6,1163.7L1065.5,1172.7L1060.3,1181.7L1065.5,1190.7L1081.0,1181.7L1096.5,1190.7L1101.7,1181.7 Z" fill="#f4d03f" stroke="#7a8aaa" stroke-width="0.3"/>
<path d="M1049.9,1217.6L1049.9,1235.5L1065.5,1244.5L1070.6,1235.5L1065.5,1226.6L1081.0,1217.6L1081.0,1199.6L1070.6,1199.6L1065.5,1190.7L1049.9,1199.6L1034.4,1190.7L1029.2,1199.6L1034.4,1208.6L1039.5,1217.6 Z" fill="#c8e6c9" stroke="#7a8aaa" stroke-width="0.3"/>
<path d="M1034.4,1172.7L1018.8,1181.7L1018.8,1199.6L1029.2,1199.6L1034.4,1190.7L1049.9,1199.6L1065.5,1190.7L1060.3,1181.7L1065.5,1172.7L1049.9,1163.7L1049.9,1145.8L1039.5,1145.8L1034.4,1154.8L1029.2,1163.7 Z" fill="#c8e6c9" stroke="#7a8aaa" stroke-width="0.3"/>
<path d="M1065.5,1136.8L1049.9,1127.8L1034.4,1136.8L1039.5,1145.8L1049.9,1145.8L1049.9,1163.7L1065.5,1172.7L1070.6,1163.7L1081.0,1163.7L1081.0,1145.8L1096.5,1136.8L1091.4,1127.8L1081.0,1127.8L1070.6,1127.8 Z" fill="#c8e6c9" stroke="#7a8aaa" stroke-width="0.3"/>
<path d="M1112.1,1109.9L1112.1,1091.9L1096.5,1083.0L1091.4,1091.9L1096.5,1100.9L1081.0,1109.9L1081.0,1127.8L1091.4,1127.8L1096.5,1136.8L1112.1,1127.8L1127.6,1136.8L1132.8,1127.8L1127.6,1118.9L1122.4,1109.9 Z" fill="#c8e6c9" stroke="#7a8aaa" stroke-width="0.3"/>
<path d="M1127.6,1154.8L1143.2,1145.8L1143.2,1127.8L1132.8,1127.8L1127.6,1136.8L1112.1,1127.8L1096.5,1136.8L1101.7,1145.8L1096.5,1154.8L1112.1,1163.7L1112.1,1181.7L1122.4,1181.7L1127.6,1172.7L1132.8,1163.7 Z" fill="#c8e6c9" stroke="#7a8aaa" stroke-width="0.3"/>
<path d="M1065.5,1100.9L1049.9,1091.9L1034.4,1100.9L1039.5,1109.9L1049.9,1109.9L1049.9,1127.8L1065.5,1136.8L1070.6,1127.8L1081.0,1127.8L1081.0,1109.9L1096.5,1100.9L1091.4,1091.9L1081.0,1091.9L1070.6,1091.9 Z" fill="#c8e6c9" stroke="#7a8aaa" stroke-width="0.3"/>
<path d="M1143.2,1091.9L1143.2,1074.0L1127.6,1065.0L1122.4,1074.0L1127.6,1083.0L1112.1,1091.9L1112.1,1109.9L1122.4,1109.9L1127.6,1118.9L1143.2,1109.9L1158.7,1118.9L1163.9,1109.9L1158.7,1100.9L1153.5,1091.9 Z" fill="#c8e6c9" stroke="#7a8aaa" stroke-width="0.3"/>
<path d="M1158.7,1100.9L1174.3,1091.9L1174.3,1074.0L1184.6,1074.0L1189.8,1065.0L1174.3,1056.1L1158.7,1065.0L1153.5,1056.1L1143.2,1056.1L1132.8,1056.1L1127.6,1065.0L1143.2,1074.0L1143.2,1091.9L1153.5,1091.9 Z" fill="#f4d03f" stroke="#7a8aaa" stroke-width="0.3"/>
<path d="M1096.5,1065.0L1081.0,1074.0L1081.0,1091.9L1091.4,1091.9L1096.5,1083.0L1112.1,1091.9L1127.6,1083.0L1122.4,1074.0L1127.6,1065.0L1112.1,1056.1L1112.1,1038.1L1101.7,1038.1L1096.5,1047.1L1091.4,1056.1 Z" fill="#c8e6c9" stroke="#7a8aaa" stroke-width="0.3"/>
<path d="M1127.6,1029.1L1112.1,1020.2L1096.5,1029.1L1101.7,1038.1L1112.1,1038.1L1112.1,1056.1L1127.6,1065.0L1132.8,1056.1L1143.2,1056.1L1143.2,1038.1L1158.7,1029.1L1153.5,1020.2L1143.2,1020.2L1132.8,1020.2 Z" fill="#c8e6c9" stroke="#7a8aaa" stroke-width="0.3"/>
<path d="M1174.3,1038.1L1174.3,1020.2L1158.7,1011.2L1153.5,1020.2L1158.7,1029.1L1143.2,1038.1L1143.2,1056.1L1153.5,1056.1L1158.7,1065.0L1174.3,1056.1L1189.8,1065.0L1195.0,1056.1L1189.8,1047.1L1184.6,1038.1 Z" fill="#c8e6c9" stroke="#7a8aaa" stroke-width="0.3"/>
<path d="M1220.9,1065.0L1236.4,1056.1L1236.4,1038.1L1226.1,1038.1L1220.9,1047.1L1205.3,1038.1L1189.8,1047.1L1195.0,1056.1L1189.8,1065.0L1205.3,1074.0L1205.3,1091.9L1215.7,1091.9L1220.9,1083.0L1226.1,1074.0 Z" fill="#c8e6c9" stroke="#7a8aaa" stroke-width="0.3"/>
<path d="M1189.8,1100.9L1205.3,1109.9L1220.9,1100.9L1215.7,1091.9L1205.3,1091.9L1205.3,1074.0L1189.8,1065.0L1184.6,1074.0L1174.3,1074.0L1174.3,1091.9L1158.7,1100.9L1163.9,1109.9L1174.3,1109.9L1184.6,1109.9 Z" fill="#c8e6c9" stroke="#7a8aaa" stroke-width="0.3"/>
<path d="M1205.3,1020.2L1205.3,1002.2L1189.8,993.2L1184.6,1002.2L1189.8,1011.2L1174.3,1020.2L1174.3,1038.1L1184.6,1038.1L1189.8,1047.1L1205.3,1038.1L1220.9,1047.1L1226.1,1038.1L1220.9,1029.1L1215.7,1020.2 Z" fill="#c8e6c9" stroke="#7a8aaa" stroke-width="0.3"/>
<path d="M1158.7,1172.7L1174.3,1163.7L1174.3,1145.8L1163.9,1145.8L1158.7,1154.8L1143.2,1145.8L1127.6,1154.8L1132.8,1163.7L1127.6,1172.7L1143.2,1181.7L1143.2,1199.6L1153.5,1199.6L1158.7,1190.7L1163.9,1181.7 Z" fill="#c8e6c9" stroke="#7a8aaa" stroke-width="0.3"/>
<path d="M1158.7,1190.7L1174.3,1199.6L1189.8,1190.7L1195.0,1199.6L1205.3,1199.6L1205.3,1181.7L1189.8,1172.7L1195.0,1163.7L1189.8,1154.8L1184.6,1145.8L1174.3,1145.8L1174.3,1163.7L1158.7,1172.7L1163.9,1181.7 Z" fill="#f4d03f" stroke="#7a8aaa" stroke-width="0.3"/>
<path d="M1158.7,1118.9L1143.2,1109.9L1127.6,1118.9L1132.8,1127.8L1143.2,1127.8L1143.2,1145.8L1158.7,1154.8L1163.9,1145.8L1174.3,1145.8L1174.3,1127.8L1189.8,1118.9L1184.6,1109.9L1174.3,1109.9L1163.9,1109.9 Z" fill="#c8e6c9" stroke="#7a8aaa" stroke-width="0.3"/>
<path d="M1205.3,1127.8L1205.3,1109.9L1189.8,1100.9L1184.6,1109.9L1189.8,1118.9L1174.3,1127.8L1174.3,1145.8L1184.6,1145.8L1189.8,1154.8L1205.3,1145.8L1220.9,1154.8L1226.1,1145.8L1220.9,1136.8L1215.7,1127.8 Z" fill="#c8e6c9" stroke="#7a8aaa" stroke-width="0.3"/>
<path d="M1220.9,1172.7L1236.4,1163.7L1236.4,1145.8L1226.1,1145.8L1220.9,1154.8L1205.3,1145.8L1189.8,1154.8L1195.0,1163.7L1189.8,1172.7L1205.3,1181.7L1205.3,1199.6L1215.7,1199.6L1220.9,1190.7L1226.1,1181.7 Z" fill="#c8e6c9" stroke="#7a8aaa" stroke-width="0.3"/>
<path d="M1220.9,1226.6L1236.4,1235.5L1252.0,1226.6L1246.8,1217.6L1236.4,1217.6L1236.4,1199.6L1220.9,1190.7L1215.7,1199.6L1205.3,1199.6L1205.3,1217.6L1189.8,1226.6L1195.0,1235.5L1205.3,1235.5L1215.7,1235.5 Z" fill="#c8e6c9" stroke="#7a8aaa" stroke-width="0.3"/>
<path d="M1174.3,1217.6L1174.3,1235.5L1189.8,1244.5L1195.0,1235.5L1189.8,1226.6L1205.3,1217.6L1205.3,1199.6L1195.0,1199.6L1189.8,1190.7L1174.3,1199.6L1158.7,1190.7L1153.5,1199.6L1158.7,1208.6L1163.9,1217.6 Z" fill="#c8e6c9" stroke="#7a8aaa" stroke-width="0.3"/>
<path d="M1252.0,1190.7L1267.5,1181.7L1267.5,1163.7L1257.2,1163.7L1252.0,1172.7L1236.4,1163.7L1220.9,1172.7L1226.1,1181.7L1220.9,1190.7L1236.4,1199.6L1236.4,1217.6L1246.8,1217.6L1252.0,1208.6L1257.2,1199.6 Z" fill="#c8e6c9" stroke="#7a8aaa" stroke-width="0.3"/>
<path d="M1065.5,1065.0L1049.9,1056.1L1034.4,1065.0L1039.5,1074.0L1049.9,1074.0L1049.9,1091.9L1065.5,1100.9L1070.6,1091.9L1081.0,1091.9L1081.0,1074.0L1096.5,1065.0L1091.4,1056.1L1081.0,1056.1L1070.6,1056.1 Z" fill="#c8e6c9" stroke="#7a8aaa" stroke-width="0.3"/>
<path d="M1081.0,1056.1L1081.0,1038.1L1065.5,1029.1L1070.6,1020.2L1065.5,1011.2L1049.9,1020.2L1049.9,1038.1L1039.5,1038.1L1034.4,1047.1L1029.2,1056.1L1034.4,1065.0L1049.9,1056.1L1065.5,1065.0L1070.6,1056.1 Z" fill="#f4d03f" stroke="#7a8aaa" stroke-width="0.3"/>
<path d="M1018.8,1091.9L1018.8,1109.9L1034.4,1118.9L1039.5,1109.9L1034.4,1100.9L1049.9,1091.9L1049.9,1074.0L1039.5,1074.0L1034.4,1065.0L1018.8,1074.0L1003.3,1065.0L998.1,1074.0L1003.3,1083.0L1008.5,1091.9 Z" fill="#c8e6c9" stroke="#7a8aaa" stroke-width="0.3"/>
<path d="M1003.3,1047.1L987.7,1056.1L987.7,1074.0L998.1,1074.0L1003.3,1065.0L1018.8,1074.0L1034.4,1065.0L1029.2,1056.1L1034.4,1047.1L1018.8,1038.1L1018.8,1020.2L1008.5,1020.2L1003.3,1029.1L998.1,1038.1 Z" fill="#c8e6c9" stroke="#7a8aaa" stroke-width="0.3"/>
<path d="M1034.4,1011.2L1018.8,1002.2L1003.3,1011.2L1008.5,1020.2L1018.8,1020.2L1018.8,1038.1L1034.4,1047.1L1039.5,1038.1L1049.9,1038.1L1049.9,1020.2L1065.5,1011.2L1060.3,1002.2L1049.9,1002.2L1039.5,1002.2 Z" fill="#c8e6c9" stroke="#7a8aaa" stroke-width="0.3"/>
<path d="M1081.0,984.3L1081.0,966.3L1065.5,957.3L1060.3,966.3L1065.5,975.3L1049.9,984.3L1049.9,1002.2L1060.3,1002.2L1065.5,1011.2L1081.0,1002.2L1096.5,1011.2L1101.7,1002.2L1096.5,993.2L1091.4,984.3 Z" fill="#c8e6c9" stroke="#7a8aaa" stroke-width="0.3"/>
<path d="M1096.5,1029.1L1112.1,1020.2L1112.1,1002.2L1101.7,1002.2L1096.5,1011.2L1081.0,1002.2L1065.5,1011.2L1070.6,1020.2L1065.5,1029.1L1081.0,1038.1L1081.0,1056.1L1091.4,1056.1L1096.5,1047.1L1101.7,1038.1 Z" fill="#c8e6c9" stroke="#7a8aaa" stroke-width="0.3"/>
<path d="M1034.4,975.3L1018.8,966.3L1003.3,975.3L1008.5,984.3L1018.8,984.3L1018.8,1002.2L1034.4,1011.2L1039.5,1002.2L1049.9,1002.2L1049.9,984.3L1065.5,975.3L1060.3,966.3L1049.9,966.3L1039.5,966.3 Z" fill="#c8e6c9" stroke="#7a8aaa" stroke-width="0.3"/>
<path d="M1112.1,104.8L1112.1,122.7L1127.6,131.7L1132.8,122.7L1127.6,113.7L1143.2,104.8L1143.2,86.8L1132.8,86.8L1127.6,77.8L1112.1,86.8L1096.5,77.8L1091.4,86.8L1096.5,95.8L1101.7,104.8 Z" fill="#ffe0b2" stroke="#7a8aaa" stroke-width="0.3"/>
<path d="M1096.5,95.8L1081.0,104.8L1081.0,122.7L1070.6,122.7L1065.5,131.7L1081.0,140.7L1096.5,131.7L1101.7,140.7L1112.1,140.7L1122.4,140.7L1127.6,131.7L1112.1,122.7L1112.1,104.8L1101.7,104.8 Z" fill="#f4d03f" stroke="#7a8aaa" stroke-width="0.3"/>
<path d="M1158.7,131.7L1174.3,122.7L1174.3,104.8L1163.9,104.8L1158.7,113.7L1143.2,104.8L1127.6,113.7L1132.8,122.7L1127.6,131.7L1143.2,140.7L1143.2,158.6L1153.5,158.6L1158.7,149.6L1163.9,140.7 Z" fill="#ffe0b2" stroke="#7a8aaa" stroke-width="0.3"/>
<path d="M1127.6,167.6L1143.2,176.6L1158.7,167.6L1153.5,158.6L1143.2,158.6L1143.2,140.7L1127.6,131.7L1122.4,140.7L1112.1,140.7L1112.1,158.6L1096.5,167.6L1101.7,176.6L1112.1,176.6L1122.4,176.6 Z" fill="#ffe0b2" stroke="#7a8aaa" stroke-width="0.3"/>
<path d="M1081.0,158.6L1081.0,176.6L1096.5,185.5L1101.7,176.6L1096.5,167.6L1112.1,158.6L1112.1,140.7L1101.7,140.7L1096.5,131.7L1081.0,140.7L1065.5,131.7L1060.3,140.7L1065.5,149.6L1070.6,158.6 Z" fill="#ffe0b2" stroke="#7a8aaa" stroke-width="0.3"/>
<path d="M1034.4,131.7L1018.8,140.7L1018.8,158.6L1029.2,158.6L1034.4,149.6L1049.9,158.6L1065.5,149.6L1060.3,140.7L1065.5,131.7L1049.9,122.7L1049.9,104.8L1039.5,104.8L1034.4,113.7L1029.2,122.7 Z" fill="#ffe0b2" stroke="#7a8aaa" stroke-width="0.3"/>
<path d="M1065.5,95.8L1049.9,86.8L1034.4,95.8L1039.5,104.8L1049.9,104.8L1049.9,122.7L1065.5,131.7L1070.6,122.7L1081.0,122.7L1081.0,104.8L1096.5,95.8L1091.4,86.8L1081.0,86.8L1070.6,86.8 Z" fill="#ffe0b2" stroke="#7a8aaa" stroke-width="0.3"/>
<path d="M1189.8,149.6L1205.3,140.7L1205.3,122.7L1195.0,122.7L1189.8,131.7L1174.3,122.7L1158.7,131.7L1163.9,140.7L1158.7,149.6L1174.3,158.6L1174.3,176.6L1184.6,176.6L1189.8,167.6L1195.0,158.6 Z" fill="#ffe0b2" stroke="#7a8aaa" stroke-width="0.3"/>
<path d="M1189.8,167.6L1205.3,176.6L1220.9,167.6L1226.1,176.6L1236.4,176.6L1236.4,158.6L1220.9,149.6L1226.1,140.7L1220.9,131.7L1215.7,122.7L1205.3,122.7L1205.3,140.7L1189.8,149.6L1195.0,158.6 Z" fill="#f4d03f" stroke="#7a8aaa" stroke-width="0.3"/>
<path d="M1189.8,95.8L1174.3,86.8L1158.7,95.8L1163.9,104.8L1174.3,104.8L1174.3,122.7L1189.8,131.7L1195.0,122.7L1205.3,122.7L1205.3,104.8L1220.9,95.8L1215.7,86.8L1205.3,86.8L1195.0,86.8 Z" fill="#ffe0b2" stroke="#7a8aaa" stroke-width="0.3"/>
<path d="M1236.4,104.8L1236.4,86.8L1220.9,77.8L1215.7,86.8L1220.9,95.8L1205.3,104.8L1205.3,122.7L1215.7,122.7L1220.9,131.7L1236.4,122.7L1252.0,131.7L1257.2,122.7L1252.0,113.7L1246.8,104.8 Z" fill="#ffe0b2" stroke="#7a8aaa" stroke-width="0.3"/>
<path d="M1252.0,149.6L1267.5,140.7L1267.5,122.7L1257.2,122.7L1252.0,131.7L1236.4,122.7L1220.9,131.7L1226.1,140.7L1220.9,149.6L1236.4,158.6L1236.4,176.6L1246.8,176.6L1252.0,167.6L1257.2,158.6 Z" fill="#ffe0b2" stroke="#7a8aaa" stroke-width="0.3"/>
<path d="M1252.0,203.5L1267.5,212.5L1283.1,203.5L1277.9,194.5L1267.5,194.5L1267.5,176.6L1252.0,167.6L1246.8,176.6L1236.4,176.6L1236.4,194.5L1220.9,203.5L1226.1,212.5L1236.4,212.5L1246.8,212.5 Z" fill="#ffe0b2" stroke="#7a8aaa" stroke-width="0.3"/>
<path d="M1205.3,194.5L1205.3,212.5L1220.9,221.4L1226.1,212.5L1220.9,203.5L1236.4,194.5L1236.4,176.6L1226.1,176.6L1220.9,167.6L1205.3,176.6L1189.8,167.6L1184.6,176.6L1189.8,185.5L1195.0,194.5 Z" fill="#ffe0b2" stroke="#7a8aaa" stroke-width="0.3"/>
<path d="M1283.1,167.6L1298.6,158.6L1298.6,140.7L1288.2,140.7L1283.1,149.6L1267.5,140.7L1252.0,149.6L1257.2,158.6L1252.0,167.6L1267.5,176.6L1267.5,194.5L1277.9,194.5L1283.1,185.5L1288.2,176.6 Z" fill="#ffe0b2" stroke="#7a8aaa" stroke-width="0.3"/>
<path d="M1127.6,203.5L1143.2,212.5L1158.7,203.5L1153.5,194.5L1143.2,194.5L1143.2,176.6L1127.6,167.6L1122.4,176.6L1112.1,176.6L1112.1,194.5L1096.5,203.5L1101.7,212.5L1112.1,212.5L1122.4,212.5 Z" fill="#ffe0b2" stroke="#7a8aaa" stroke-width="0.3"/>
<path d="M1112.1,212.5L1112.1,230.4L1127.6,239.4L1122.4,248.4L1127.6,257.3L1143.2,248.4L1143.2,230.4L1153.5,230.4L1158.7,221.4L1163.9,212.5L1158.7,203.5L1143.2,212.5L1127.6,203.5L1122.4,212.5 Z" fill="#f4d03f" stroke="#7a8aaa" stroke-width="0.3"/>
<path d="M1174.3,176.6L1174.3,158.6L1158.7,149.6L1153.5,158.6L1158.7,167.6L1143.2,176.6L1143.2,194.5L1153.5,194.5L1158.7,203.5L1174.3,194.5L1189.8,203.5L1195.0,194.5L1189.8,185.5L1184.6,176.6 Z" fill="#ffe0b2" stroke="#7a8aaa" stroke-width="0.3"/>
<path d="M1189.8,221.4L1205.3,212.5L1205.3,194.5L1195.0,194.5L1189.8,203.5L1174.3,194.5L1158.7,203.5L1163.9,212.5L1158.7,221.4L1174.3,230.4L1174.3,248.4L1184.6,248.4L1189.8,239.4L1195.0,230.4 Z" fill="#ffe0b2" stroke="#7a8aaa" stroke-width="0.3"/>
<path d="M1158.7,257.3L1174.3,266.3L1189.8,257.3L1184.6,248.4L1174.3,248.4L1174.3,230.4L1158.7,221.4L1153.5,230.4L1143.2,230.4L1143.2,248.4L1127.6,257.3L1132.8,266.3L1143.2,266.3L1153.5,266.3 Z" fill="#ffe0b2" stroke="#7a8aaa" stroke-width="0.3"/>
<path d="M1112.1,284.3L1112.1,302.2L1127.6,311.2L1132.8,302.2L1127.6,293.2L1143.2,284.3L1143.2,266.3L1132.8,266.3L1127.6,257.3L1112.1,266.3L1096.5,257.3L1091.4,266.3L1096.5,275.3L1101.7,284.3 Z" fill="#ffe0b2" stroke="#7a8aaa" stroke-width="0.3"/>
<path d="M1096.5,239.4L1081.0,248.4L1081.0,266.3L1091.4,266.3L1096.5,257.3L1112.1,266.3L1127.6,257.3L1122.4,248.4L1127.6,239.4L1112.1,230.4L1112.1,212.5L1101.7,212.5L1096.5,221.4L1091.4,230.4 Z" fill="#ffe0b2" stroke="#7a8aaa" stroke-width="0.3"/>
<path d="M1158.7,293.2L1174.3,302.2L1189.8,293.2L1184.6,284.3L1174.3,284.3L1174.3,266.3L1158.7,257.3L1153.5,266.3L1143.2,266.3L1143.2,284.3L1127.6,293.2L1132.8,302.2L1143.2,302.2L1153.5,302.2 Z" fill="#ffe0b2" stroke="#7a8aaa" stroke-width="0.3"/>
<path d="M1049.9,176.6L1049.9,194.5L1065.5,203.5L1070.6,194.5L1065.5,185.5L1081.0,176.6L1081.0,158.6L1070.6,158.6L1065.5,149.6L1049.9,158.6L1034.4,149.6L1029.2,158.6L1034.4,167.6L1039.5,176.6 Z" fill="#ffe0b2" stroke="#7a8aaa" stroke-width="0.3"/>
<path d="M1034.4,167.6L1018.8,176.6L1018.8,194.5L1008.5,194.5L1003.3,203.5L1018.8,212.5L1034.4,203.5L1039.5,212.5L1049.9,212.5L1060.3,212.5L1065.5,203.5L1049.9,194.5L1049.9,176.6L1039.5,176.6 Z" fill="#f4d03f" stroke="#7a8aaa" stroke-width="0.3"/>
<path d="M1096.5,203.5L1112.1,194.5L1112.1,176.6L1101.7,176.6L1096.5,185.5L1081.0,176.6L1065.5,185.5L1070.6,194.5L1065.5,203.5L1081.0,212.5L1081.0,230.4L1091.4,230.4L1096.5,221.4L1101.7,212.5 Z" fill="#ffe0b2" stroke="#7a8aaa" stroke-width="0.3"/>
<path d="M1065.5,239.4L1081.0,248.4L1096.5,239.4L1091.4,230.4L1081.0,230.4L1081.0,212.5L1065.5,203.5L1060.3,212.5L1049.9,212.5L1049.9,230.4L1034.4,239.4L1039.5,248.4L1049.9,248.4L1060.3,248.4 Z" fill="#ffe0b2" stroke="#7a8aaa" stroke-width="0.3"/>
<path d="M1018.8,230.4L1018.8,248.4L1034.4,257.3L1039.5,248.4L1034.4,239.4L1049.9,230.4L1049.9,212.5L1039.5,212.5L1034.4,203.5L1018.8,212.5L1003.3,203.5L998.1,212.5L1003.3,221.4L1008.5,230.4 Z" fill="#ffe0b2" stroke="#7a8aaa" stroke-width="0.3"/>
<path d="M972.2,203.5L956.6,212.5L956.6,230.4L967.0,230.4L972.2,221.4L987.7,230.4L1003.3,221.4L998.1,212.5L1003.3,203.5L987.7,194.5L987.7,176.6L977.4,176.6L972.2,185.5L967.0,194.5 Z" fill="#ffe0b2" stroke="#7a8aaa" stroke-width="0.3"/>
<path d="M1003.3,167.6L987.7,158.6L972.2,167.6L977.4,176.6L987.7,176.6L987.7,194.5L1003.3,203.5L1008.5,194.5L1018.8,194.5L1018.8,176.6L1034.4,167.6L1029.2,158.6L1018.8,158.6L1008.5,158.6 Z" fill="#ffe0b2" stroke="#7a8aaa" stroke-width="0.3"/>
<path d="M987.7,248.4L987.7,266.3L1003.3,275.3L1008.5,266.3L1003.3,257.3L1018.8,248.4L1018.8,230.4L1008.5,230.4L1003.3,221.4L987.7,230.4L972.2,221.4L967.0,230.4L972.2,239.4L977.4,248.4 Z" fill="#ffe0b2" stroke="#7a8aaa" stroke-width="0.3"/>
<path d="M941.1,185.5L925.6,194.5L925.6,212.5L935.9,212.5L941.1,203.5L956.6,212.5L972.2,203.5L967.0,194.5L972.2,185.5L956.6,176.6L956.6,158.6L946.3,158.6L941.1,167.6L935.9,176.6 Z" fill="#ffe0b2" stroke="#7a8aaa" stroke-width="0.3"/>
<path d="M941.1,167.6L925.6,158.6L910.0,167.6L904.8,158.6L894.5,158.6L894.5,176.6L910.0,185.5L904.8,194.5L910.0,203.5L915.2,212.5L925.6,212.5L925.6,194.5L941.1,185.5L935.9,176.6 Z" fill="#f4d03f" stroke="#7a8aaa" stroke-width="0.3"/>
<path d="M941.1,239.4L956.6,248.4L972.2,239.4L967.0,230.4L956.6,230.4L956.6,212.5L941.1,203.5L935.9,212.5L925.6,212.5L925.6,230.4L910.0,239.4L915.2,248.4L925.6,248.4L935.9,248.4 Z" fill="#ffe0b2" stroke="#7a8aaa" stroke-width="0.3"/>
<path d="M894.5,230.4L894.5,248.4L910.0,257.3L915.2,248.4L910.0,239.4L925.6,230.4L925.6,212.5L915.2,212.5L910.0,203.5L894.5,212.5L878.9,203.5L873.7,212.5L878.9,221.4L884.1,230.4 Z" fill="#ffe0b2" stroke="#7a8aaa" stroke-width="0.3"/>
<path d="M878.9,185.5L863.4,194.5L863.4,212.5L873.7,212.5L878.9,203.5L894.5,212.5L910.0,203.5L904.8,194.5L910.0,185.5L894.5,176.6L894.5,158.6L884.1,158.6L878.9,167.6L873.7,176.6 Z" fill="#ffe0b2" stroke="#7a8aaa" stroke-width="0.3"/>
<path d="M878.9,131.7L863.4,122.7L847.8,131.7L853.0,140.7L863.4,140.7L863.4,158.6L878.9,167.6L884.1,158.6L894.5,158.6L894.5,140.7L910.0,131.7L904.8,122.7L894.5,122.7L884.1,122.7 Z" fill="#ffe0b2" stroke="#7a8aaa" stroke-width="0.3"/>
<path d="M925.6,140.7L925.6,122.7L910.0,113.7L904.8,122.7L910.0,131.7L894.5,140.7L894.5,158.6L904.8,158.6L910.0,167.6L925.6,158.6L941.1,167.6L946.3,158.6L941.1,149.6L935.9,140.7 Z" fill="#ffe0b2" stroke="#7a8aaa" stroke-width="0.3"/>
<path d="M847.8,167.6L832.3,176.6L832.3,194.5L842.7,194.5L847.8,185.5L863.4,194.5L878.9,185.5L873.7,176.6L878.9,167.6L863.4,158.6L863.4,140.7L853.0,140.7L847.8,149.6L842.7,158.6 Z" fill="#ffe0b2" stroke="#7a8aaa" stroke-width="0.3"/>
<path d="M1003.3,131.7L987.7,122.7L972.2,131.7L977.4,140.7L987.7,140.7L987.7,158.6L1003.3,167.6L1008.5,158.6L1018.8,158.6L1018.8,140.7L1034.4,131.7L1029.2,122.7L1018.8,122.7L1008.5,122.7 Z" fill="#ffe0b2" stroke="#7a8aaa" stroke-width="0.3"/>
<path d="M1018.8,122.7L1018.8,104.8L1003.3,95.8L1008.5,86.8L1003.3,77.8L987.7,86.8L987.7,104.8L977.4,104.8L972.2,113.7L967.0,122.7L972.2,131.7L987.7,122.7L1003.3,131.7L1008.5,122.7 Z" fill="#f4d03f" stroke="#7a8aaa" stroke-width="0.3"/>
<path d="M956.6,158.6L956.6,176.6L972.2,185.5L977.4,176.6L972.2,167.6L987.7,158.6L987.7,140.7L977.4,140.7L972.2,131.7L956.6,140.7L941.1,131.7L935.9,140.7L941.1,149.6L946.3,158.6 Z" fill="#ffe0b2" stroke="#7a8aaa" stroke-width="0.3"/>
<path d="M941.1,113.7L925.6,122.7L925.6,140.7L935.9,140.7L941.1,131.7L956.6,140.7L972.2,131.7L967.0,122.7L972.2,113.7L956.6,104.8L956.6,86.8L946.3,86.8L941.1,95.8L935.9,104.8 Z" fill="#ffe0b2" stroke="#7a8aaa" stroke-width="0.3"/>
<path d="M972.2,77.8L956.6,68.9L941.1,77.8L946.3,86.8L956.6,86.8L956.6,104.8L972.2,113.7L977.4,104.8L987.7,104.8L987.7,86.8L1003.3,77.8L998.1,68.9L987.7,68.9L977.4,68.9 Z" fill="#ffe0b2" stroke="#7a8aaa" stroke-width="0.3"/>
<path d="M1018.8,50.9L1018.8,33.0L1003.3,24.0L998.1,33.0L1003.3,41.9L987.7,50.9L987.7,68.9L998.1,68.9L1003.3,77.8L1018.8,68.9L1034.4,77.8L1039.5,68.9L1034.4,59.9L1029.2,50.9 Z" fill="#ffe0b2" stroke="#7a8aaa" stroke-width="0.3"/>
<path d="M1034.4,95.8L1049.9,86.8L1049.9,68.9L1039.5,68.9L1034.4,77.8L1018.8,68.9L1003.3,77.8L1008.5,86.8L1003.3,95.8L1018.8,104.8L1018.8,122.7L1029.2,122.7L1034.4,113.7L1039.5,104.8 Z" fill="#ffe0b2" stroke="#7a8aaa" stroke-width="0.3"/>
<path d="M972.2,41.9L956.6,33.0L941.1,41.9L946.3,50.9L956.6,50.9L956.6,68.9L972.2,77.8L977.4,68.9L987.7,68.9L987.7,50.9L1003.3,41.9L998.1,33.0L987.7,33.0L977.4,33.0 Z" fill="#ffe0b2" stroke="#7a8aaa" stroke-width="0.3"/>
<path d="M956.6,266.3L956.6,284.3L972.2,293.2L977.4,284.3L972.2,275.3L987.7,266.3L987.7,248.4L977.4,248.4L972.2,239.4L956.6,248.4L941.1,239.4L935.9,248.4L941.1,257.3L946.3,266.3 Z" fill="#ffe0b2" stroke="#7a8aaa" stroke-width="0.3"/>
<path d="M941.1,257.3L925.6,266.3L925.6,284.3L915.2,284.3L910.0,293.2L925.6,302.2L941.1,293.2L946.3,302.2L956.6,302.2L967.0,302.2L972.2,293.2L956.6,284.3L956.6,266.3L946.3,266.3 Z" fill="#f4d03f" stroke="#7a8aaa" stroke-width="0.3"/>
<path d="M1003.3,293.2L1018.8,284.3L1018.8,266.3L1008.5,266.3L1003.3,275.3L987.7,266.3L972.2,275.3L977.4,284.3L972.2,293.2L987.7,302.2L987.7,320.2L998.1,320.2L1003.3,311.2L1008.5,302.2 Z" fill="#ffe0b2" stroke="#7a8aaa" stroke-width="0.3"/>
<path d="M972.2,329.1L987.7,338.1L1003.3,329.1L998.1,320.2L987.7,320.2L987.7,302.2L972.2,293.2L967.0,302.2L956.6,302.2L956.6,320.2L941.1,329.1L946.3,338.1L956.6,338.1L967.0,338.1 Z" fill="#ffe0b2" stroke="#7a8aaa" stroke-width="0.3"/>
<path d="M925.6,320.2L925.6,338.1L941.1,347.1L946.3,338.1L941.1,329.1L956.6,320.2L956.6,302.2L946.3,302.2L941.1,293.2L925.6,302.2L910.0,293.2L904.8,302.2L910.0,311.2L915.2,320.2 Z" fill="#ffe0b2" stroke="#7a8aaa" stroke-width="0.3"/>
<path d="M878.9,293.2L863.4,302.2L863.4,320.2L873.7,320.2L878.9,311.2L894.5,320.2L910.0,311.2L904.8,302.2L910.0,293.2L894.5,284.3L894.5,266.3L884.1,266.3L878.9,275.3L873.7,284.3 Z" fill="#ffe0b2" stroke="#7a8aaa" stroke-width="0.3"/>
<path d="M910.0,257.3L894.5,248.4L878.9,257.3L884.1,266.3L894.5,266.3L894.5,284.3L910.0,293.2L915.2,284.3L925.6,284.3L925.6,266.3L941.1,257.3L935.9,248.4L925.6,248.4L915.2,248.4 Z" fill="#ffe0b2" stroke="#7a8aaa" stroke-width="0.3"/>
<path d="M894.5,338.1L894.5,356.1L910.0,365.0L915.2,356.1L910.0,347.1L925.6,338.1L925.6,320.2L915.2,320.2L910.0,311.2L894.5,320.2L878.9,311.2L873.7,320.2L878.9,329.1L884.1,338.1 Z" fill="#ffe0b2" stroke="#7a8aaa" stroke-width="0.3"/>
<line x1="86.2" y1="679.1" x2="70.6" y2="688.1" stroke="#1a5276" stroke-width="2.0"/>
<line x1="70.6" y1="688.1" x2="75.8" y2="697.1" stroke="#1a5276" stroke-width="2.0"/>
<line x1="75.8" y1="697.1" x2="70.6" y2="706.1" stroke="#1a5276" stroke-width="2.0"/>
<line x1="70.6" y1="706.1" x2="86.2" y2="715.0" stroke="#1a5276" stroke-width="2.0"/>
<line x1="86.2" y1="715.0" x2="86.2" y2="733.0" stroke="#1a5276" stroke-width="2.0"/>
<line x1="86.2" y1="733.0" x2="96.5" y2="733.0" stroke="#1a5276" stroke-width="2.0"/>
<line x1="75.8" y1="661.2" x2="86.2" y2="661.2" stroke="#1a5276" stroke-width="2.0"/>
<line x1="86.2" y1="661.2" x2="86.2" y2="679.1" stroke="#1a5276" stroke-width="2.0"/>
<line x1="117.3" y1="750.9" x2="117.3" y2="768.9" stroke="#1a5276" stroke-width="2.0"/>
<line x1="96.5" y1="733.0" x2="101.7" y2="741.9" stroke="#1a5276" stroke-width="2.0"/>
<line x1="101.7" y1="741.9" x2="106.9" y2="750.9" stroke="#1a5276" stroke-width="2.0"/>
<line x1="106.9" y1="750.9" x2="117.3" y2="750.9" stroke="#1a5276" stroke-width="2.0"/>
<line x1="55.1" y1="643.2" x2="55.1" y2="661.2" stroke="#1a5276" stroke-width="2.0"/>
<line x1="55.1" y1="661.2" x2="70.6" y2="670.2" stroke="#1a5276" stroke-width="2.0"/>
<line x1="70.6" y1="670.2" x2="75.8" y2="661.2" stroke="#1a5276" stroke-width="2.0"/>
<line x1="34.4" y1="625.3" x2="39.5" y2="634.3" stroke="#1a5276" stroke-width="2.0"/>
<line x1="39.5" y1="634.3" x2="44.7" y2="643.2" stroke="#1a5276" stroke-width="2.0"/>
<line x1="44.7" y1="643.2" x2="55.1" y2="643.2" stroke="#1a5276" stroke-width="2.0"/>
<line x1="39.5" y1="598.4" x2="24.0" y2="607.3" stroke="#1a5276" stroke-width="2.0"/>
<line x1="24.0" y1="607.3" x2="24.0" y2="625.3" stroke="#1a5276" stroke-width="2.0"/>
<line x1="24.0" y1="625.3" x2="34.4" y2="625.3" stroke="#1a5276" stroke-width="2.0"/>
<line x1="44.7" y1="571.4" x2="39.5" y2="580.4" stroke="#1a5276" stroke-width="2.0"/>
<line x1="39.5" y1="580.4" x2="34.4" y2="589.4" stroke="#1a5276" stroke-width="2.0"/>
<line x1="34.4" y1="589.4" x2="39.5" y2="598.4" stroke="#1a5276" stroke-width="2.0"/>
<line x1="55.1" y1="553.5" x2="39.5" y2="562.5" stroke="#1a5276" stroke-width="2.0"/>
<line x1="39.5" y1="562.5" x2="44.7" y2="571.4" stroke="#1a5276" stroke-width="2.0"/>
<line x1="117.3" y1="535.5" x2="117.3" y2="517.6" stroke="#1a5276" stroke-width="2.0"/>
<line x1="117.3" y1="517.6" x2="101.7" y2="508.6" stroke="#1a5276" stroke-width="2.0"/>
<line x1="101.7" y1="508.6" x2="96.5" y2="517.6" stroke="#1a5276" stroke-width="2.0"/>
<line x1="138.0" y1="553.5" x2="132.8" y2="544.5" stroke="#1a5276" stroke-width="2.0"/>
<line x1="132.8" y1="544.5" x2="127.6" y2="535.5" stroke="#1a5276" stroke-width="2.0"/>
<line x1="127.6" y1="535.5" x2="117.3" y2="535.5" stroke="#1a5276" stroke-width="2.0"/>
<line x1="148.4" y1="571.4" x2="148.4" y2="553.5" stroke="#1a5276" stroke-width="2.0"/>
<line x1="148.4" y1="553.5" x2="138.0" y2="553.5" stroke="#1a5276" stroke-width="2.0"/>
<line x1="70.6" y1="526.6" x2="55.1" y2="517.6" stroke="#1a5276" stroke-width="2.0"/>
<line x1="55.1" y1="517.6" x2="39.5" y2="526.6" stroke="#1a5276" stroke-width="2.0"/>
<line x1="39.5" y1="526.6" x2="44.7" y2="535.5" stroke="#1a5276" stroke-width="2.0"/>
<line x1="44.7" y1="535.5" x2="55.1" y2="535.5" stroke="#1a5276" stroke-width="2.0"/>
<line x1="55.1" y1="535.5" x2="55.1" y2="553.5" stroke="#1a5276" stroke-width="2.0"/>
<line x1="96.5" y1="517.6" x2="86.2" y2="517.6" stroke="#1a5276" stroke-width="2.0"/>
<line x1="86.2" y1="517.6" x2="75.8" y2="517.6" stroke="#1a5276" stroke-width="2.0"/>
<line x1="75.8" y1="517.6" x2="70.6" y2="526.6" stroke="#1a5276" stroke-width="2.0"/>
<line x1="163.9" y1="580.4" x2="148.4" y2="571.4" stroke="#1a5276" stroke-width="2.0"/>
<line x1="189.8" y1="571.4" x2="179.4" y2="571.4" stroke="#1a5276" stroke-width="2.0"/>
<line x1="179.4" y1="571.4" x2="169.1" y2="571.4" stroke="#1a5276" stroke-width="2.0"/>
<line x1="169.1" y1="571.4" x2="163.9" y2="580.4" stroke="#1a5276" stroke-width="2.0"/>
<line x1="210.5" y1="571.4" x2="195.0" y2="562.5" stroke="#1a5276" stroke-width="2.0"/>
<line x1="195.0" y1="562.5" x2="189.8" y2="571.4" stroke="#1a5276" stroke-width="2.0"/>
<line x1="257.2" y1="616.3" x2="272.7" y2="607.3" stroke="#1a5276" stroke-width="2.0"/>
<line x1="272.7" y1="607.3" x2="272.7" y2="589.4" stroke="#1a5276" stroke-width="2.0"/>
<line x1="272.7" y1="589.4" x2="262.3" y2="589.4" stroke="#1a5276" stroke-width="2.0"/>
<line x1="252.0" y1="643.2" x2="257.2" y2="634.3" stroke="#1a5276" stroke-width="2.0"/>
<line x1="257.2" y1="634.3" x2="262.3" y2="625.3" stroke="#1a5276" stroke-width="2.0"/>
<line x1="262.3" y1="625.3" x2="257.2" y2="616.3" stroke="#1a5276" stroke-width="2.0"/>
<line x1="241.6" y1="661.2" x2="257.2" y2="652.2" stroke="#1a5276" stroke-width="2.0"/>
<line x1="257.2" y1="652.2" x2="252.0" y2="643.2" stroke="#1a5276" stroke-width="2.0"/>
<line x1="241.6" y1="571.4" x2="241.6" y2="553.5" stroke="#1a5276" stroke-width="2.0"/>
<line x1="241.6" y1="553.5" x2="226.1" y2="544.5" stroke="#1a5276" stroke-width="2.0"/>
<line x1="226.1" y1="544.5" x2="220.9" y2="553.5" stroke="#1a5276" stroke-width="2.0"/>
<line x1="220.9" y1="553.5" x2="226.1" y2="562.5" stroke="#1a5276" stroke-width="2.0"/>
<line x1="226.1" y1="562.5" x2="210.5" y2="571.4" stroke="#1a5276" stroke-width="2.0"/>
<line x1="262.3" y1="589.4" x2="257.2" y2="580.4" stroke="#1a5276" stroke-width="2.0"/>
<line x1="257.2" y1="580.4" x2="252.0" y2="571.4" stroke="#1a5276" stroke-width="2.0"/>
<line x1="252.0" y1="571.4" x2="241.6" y2="571.4" stroke="#1a5276" stroke-width="2.0"/>
<line x1="241.6" y1="679.1" x2="241.6" y2="661.2" stroke="#1a5276" stroke-width="2.0"/>
<line x1="262.3" y1="697.1" x2="257.2" y2="688.1" stroke="#1a5276" stroke-width="2.0"/>
<line x1="257.2" y1="688.1" x2="252.0" y2="679.1" stroke="#1a5276" stroke-width="2.0"/>
<line x1="252.0" y1="679.1" x2="241.6" y2="679.1" stroke="#1a5276" stroke-width="2.0"/>
<line x1="272.7" y1="715.0" x2="272.7" y2="697.1" stroke="#1a5276" stroke-width="2.0"/>
<line x1="272.7" y1="697.1" x2="262.3" y2="697.1" stroke="#1a5276" stroke-width="2.0"/>
<line x1="293.4" y1="715.0" x2="288.2" y2="724.0" stroke="#1a5276" stroke-width="2.0"/>
<line x1="288.2" y1="724.0" x2="272.7" y2="715.0" stroke="#1a5276" stroke-width="2.0"/>
<line x1="319.3" y1="831.7" x2="334.9" y2="822.7" stroke="#1a5276" stroke-width="2.0"/>
<line x1="314.2" y1="858.6" x2="319.3" y2="849.6" stroke="#1a5276" stroke-width="2.0"/>
<line x1="319.3" y1="849.6" x2="324.5" y2="840.7" stroke="#1a5276" stroke-width="2.0"/>
<line x1="324.5" y1="840.7" x2="319.3" y2="831.7" stroke="#1a5276" stroke-width="2.0"/>
<line x1="303.8" y1="876.6" x2="319.3" y2="867.6" stroke="#1a5276" stroke-width="2.0"/>
<line x1="319.3" y1="867.6" x2="314.2" y2="858.6" stroke="#1a5276" stroke-width="2.0"/>
<line x1="241.6" y1="894.5" x2="241.6" y2="912.5" stroke="#1a5276" stroke-width="2.0"/>
<line x1="241.6" y1="912.5" x2="257.2" y2="921.4" stroke="#1a5276" stroke-width="2.0"/>
<line x1="257.2" y1="921.4" x2="262.3" y2="912.5" stroke="#1a5276" stroke-width="2.0"/>
<line x1="220.9" y1="876.6" x2="226.1" y2="885.5" stroke="#1a5276" stroke-width="2.0"/>
<line x1="226.1" y1="885.5" x2="231.3" y2="894.5" stroke="#1a5276" stroke-width="2.0"/>
<line x1="231.3" y1="894.5" x2="241.6" y2="894.5" stroke="#1a5276" stroke-width="2.0"/>
<line x1="210.5" y1="858.6" x2="210.5" y2="876.6" stroke="#1a5276" stroke-width="2.0"/>
<line x1="210.5" y1="876.6" x2="220.9" y2="876.6" stroke="#1a5276" stroke-width="2.0"/>
<line x1="288.2" y1="903.5" x2="303.8" y2="912.5" stroke="#1a5276" stroke-width="2.0"/>
<line x1="303.8" y1="912.5" x2="319.3" y2="903.5" stroke="#1a5276" stroke-width="2.0"/>
<line x1="319.3" y1="903.5" x2="314.2" y2="894.5" stroke="#1a5276" stroke-width="2.0"/>
<line x1="314.2" y1="894.5" x2="303.8" y2="894.5" stroke="#1a5276" stroke-width="2.0"/>
<line x1="303.8" y1="894.5" x2="303.8" y2="876.6" stroke="#1a5276" stroke-width="2.0"/>
<line x1="262.3" y1="912.5" x2="272.7" y2="912.5" stroke="#1a5276" stroke-width="2.0"/>
<line x1="272.7" y1="912.5" x2="283.1" y2="912.5" stroke="#1a5276" stroke-width="2.0"/>
<line x1="283.1" y1="912.5" x2="288.2" y2="903.5" stroke="#1a5276" stroke-width="2.0"/>
<line x1="195.0" y1="849.6" x2="210.5" y2="858.6" stroke="#1a5276" stroke-width="2.0"/>
<line x1="169.1" y1="858.6" x2="179.4" y2="858.6" stroke="#1a5276" stroke-width="2.0"/>
<line x1="179.4" y1="858.6" x2="189.8" y2="858.6" stroke="#1a5276" stroke-width="2.0"/>
<line x1="189.8" y1="858.6" x2="195.0" y2="849.6" stroke="#1a5276" stroke-width="2.0"/>
<line x1="148.4" y1="858.6" x2="163.9" y2="867.6" stroke="#1a5276" stroke-width="2.0"/>
<line x1="163.9" y1="867.6" x2="169.1" y2="858.6" stroke="#1a5276" stroke-width="2.0"/>
<line x1="101.7" y1="813.7" x2="86.2" y2="822.7" stroke="#1a5276" stroke-width="2.0"/>
<line x1="86.2" y1="822.7" x2="86.2" y2="840.7" stroke="#1a5276" stroke-width="2.0"/>
<line x1="86.2" y1="840.7" x2="96.5" y2="840.7" stroke="#1a5276" stroke-width="2.0"/>
<line x1="106.9" y1="786.8" x2="101.7" y2="795.8" stroke="#1a5276" stroke-width="2.0"/>
<line x1="101.7" y1="795.8" x2="96.5" y2="804.8" stroke="#1a5276" stroke-width="2.0"/>
<line x1="96.5" y1="804.8" x2="101.7" y2="813.7" stroke="#1a5276" stroke-width="2.0"/>
<line x1="117.3" y1="768.9" x2="101.7" y2="777.8" stroke="#1a5276" stroke-width="2.0"/>
<line x1="101.7" y1="777.8" x2="106.9" y2="786.8" stroke="#1a5276" stroke-width="2.0"/>
<line x1="117.3" y1="858.6" x2="117.3" y2="876.6" stroke="#1a5276" stroke-width="2.0"/>
<line x1="117.3" y1="876.6" x2="132.8" y2="885.5" stroke="#1a5276" stroke-width="2.0"/>
<line x1="132.8" y1="885.5" x2="138.0" y2="876.6" stroke="#1a5276" stroke-width="2.0"/>
<line x1="138.0" y1="876.6" x2="132.8" y2="867.6" stroke="#1a5276" stroke-width="2.0"/>
<line x1="132.8" y1="867.6" x2="148.4" y2="858.6" stroke="#1a5276" stroke-width="2.0"/>
<line x1="96.5" y1="840.7" x2="101.7" y2="849.6" stroke="#1a5276" stroke-width="2.0"/>
<line x1="101.7" y1="849.6" x2="106.9" y2="858.6" stroke="#1a5276" stroke-width="2.0"/>
<line x1="106.9" y1="858.6" x2="117.3" y2="858.6" stroke="#1a5276" stroke-width="2.0"/>
<line x1="319.3" y1="706.1" x2="303.8" y2="697.1" stroke="#1a5276" stroke-width="2.0"/>
<line x1="303.8" y1="697.1" x2="288.2" y2="706.1" stroke="#1a5276" stroke-width="2.0"/>
<line x1="288.2" y1="706.1" x2="293.4" y2="715.0" stroke="#1a5276" stroke-width="2.0"/>
<line x1="345.2" y1="697.1" x2="334.9" y2="697.1" stroke="#1a5276" stroke-width="2.0"/>
<line x1="334.9" y1="697.1" x2="324.5" y2="697.1" stroke="#1a5276" stroke-width="2.0"/>
<line x1="324.5" y1="697.1" x2="319.3" y2="706.1" stroke="#1a5276" stroke-width="2.0"/>
<line x1="366.0" y1="715.0" x2="366.0" y2="697.1" stroke="#1a5276" stroke-width="2.0"/>
<line x1="366.0" y1="697.1" x2="350.4" y2="688.1" stroke="#1a5276" stroke-width="2.0"/>
<line x1="350.4" y1="688.1" x2="345.2" y2="697.1" stroke="#1a5276" stroke-width="2.0"/>
<line x1="386.7" y1="733.0" x2="381.5" y2="724.0" stroke="#1a5276" stroke-width="2.0"/>
<line x1="381.5" y1="724.0" x2="376.3" y2="715.0" stroke="#1a5276" stroke-width="2.0"/>
<line x1="376.3" y1="715.0" x2="366.0" y2="715.0" stroke="#1a5276" stroke-width="2.0"/>
<line x1="397.1" y1="750.9" x2="397.1" y2="733.0" stroke="#1a5276" stroke-width="2.0"/>
<line x1="397.1" y1="733.0" x2="386.7" y2="733.0" stroke="#1a5276" stroke-width="2.0"/>
<line x1="381.5" y1="813.7" x2="397.1" y2="822.7" stroke="#1a5276" stroke-width="2.0"/>
<line x1="397.1" y1="822.7" x2="412.6" y2="813.7" stroke="#1a5276" stroke-width="2.0"/>
<line x1="412.6" y1="813.7" x2="407.4" y2="804.8" stroke="#1a5276" stroke-width="2.0"/>
<line x1="355.6" y1="822.7" x2="366.0" y2="822.7" stroke="#1a5276" stroke-width="2.0"/>
<line x1="366.0" y1="822.7" x2="376.3" y2="822.7" stroke="#1a5276" stroke-width="2.0"/>
<line x1="376.3" y1="822.7" x2="381.5" y2="813.7" stroke="#1a5276" stroke-width="2.0"/>
<line x1="334.9" y1="822.7" x2="350.4" y2="831.7" stroke="#1a5276" stroke-width="2.0"/>
<line x1="350.4" y1="831.7" x2="355.6" y2="822.7" stroke="#1a5276" stroke-width="2.0"/>
<line x1="412.6" y1="777.8" x2="428.1" y2="768.9" stroke="#1a5276" stroke-width="2.0"/>
<line x1="428.1" y1="768.9" x2="428.1" y2="750.9" stroke="#1a5276" stroke-width="2.0"/>
<line x1="428.1" y1="750.9" x2="417.8" y2="750.9" stroke="#1a5276" stroke-width="2.0"/>
<line x1="417.8" y1="750.9" x2="412.6" y2="759.9" stroke="#1a5276" stroke-width="2.0"/>
<line x1="412.6" y1="759.9" x2="397.1" y2="750.9" stroke="#1a5276" stroke-width="2.0"/>
<line x1="407.4" y1="804.8" x2="412.6" y2="795.8" stroke="#1a5276" stroke-width="2.0"/>
<line x1="412.6" y1="795.8" x2="417.8" y2="786.8" stroke="#1a5276" stroke-width="2.0"/>
<line x1="417.8" y1="786.8" x2="412.6" y2="777.8" stroke="#1a5276" stroke-width="2.0"/>
<line x1="1112.1" y1="1307.3" x2="1127.6" y2="1316.3" stroke="#1e8449" stroke-width="2.0"/>
<line x1="1127.6" y1="1316.3" x2="1132.8" y2="1307.3" stroke="#1e8449" stroke-width="2.0"/>
<line x1="1132.8" y1="1307.3" x2="1143.2" y2="1307.3" stroke="#1e8449" stroke-width="2.0"/>
<line x1="1143.2" y1="1307.3" x2="1143.2" y2="1289.4" stroke="#1e8449" stroke-width="2.0"/>
<line x1="1143.2" y1="1289.4" x2="1158.7" y2="1280.4" stroke="#1e8449" stroke-width="2.0"/>
<line x1="1158.7" y1="1280.4" x2="1153.5" y2="1271.4" stroke="#1e8449" stroke-width="2.0"/>
<line x1="1101.7" y1="1325.3" x2="1096.5" y2="1316.3" stroke="#1e8449" stroke-width="2.0"/>
<line x1="1096.5" y1="1316.3" x2="1112.1" y2="1307.3" stroke="#1e8449" stroke-width="2.0"/>
<line x1="1158.7" y1="1244.5" x2="1174.3" y2="1235.5" stroke="#1e8449" stroke-width="2.0"/>
<line x1="1153.5" y1="1271.4" x2="1158.7" y2="1262.5" stroke="#1e8449" stroke-width="2.0"/>
<line x1="1158.7" y1="1262.5" x2="1163.9" y2="1253.5" stroke="#1e8449" stroke-width="2.0"/>
<line x1="1163.9" y1="1253.5" x2="1158.7" y2="1244.5" stroke="#1e8449" stroke-width="2.0"/>
<line x1="1096.5" y1="1352.2" x2="1112.1" y2="1343.2" stroke="#1e8449" stroke-width="2.0"/>
<line x1="1112.1" y1="1343.2" x2="1112.1" y2="1325.3" stroke="#1e8449" stroke-width="2.0"/>
<line x1="1112.1" y1="1325.3" x2="1101.7" y2="1325.3" stroke="#1e8449" stroke-width="2.0"/>
<line x1="1091.4" y1="1379.1" x2="1096.5" y2="1370.2" stroke="#1e8449" stroke-width="2.0"/>
<line x1="1096.5" y1="1370.2" x2="1101.7" y2="1361.2" stroke="#1e8449" stroke-width="2.0"/>
<line x1="1101.7" y1="1361.2" x2="1096.5" y2="1352.2" stroke="#1e8449" stroke-width="2.0"/>
<line x1="1065.5" y1="1388.1" x2="1081.0" y2="1397.1" stroke="#1e8449" stroke-width="2.0"/>
<line x1="1081.0" y1="1397.1" x2="1096.5" y2="1388.1" stroke="#1e8449" stroke-width="2.0"/>
<line x1="1096.5" y1="1388.1" x2="1091.4" y2="1379.1" stroke="#1e8449" stroke-width="2.0"/>
<line x1="1039.5" y1="1397.1" x2="1049.9" y2="1397.1" stroke="#1e8449" stroke-width="2.0"/>
<line x1="1049.9" y1="1397.1" x2="1060.3" y2="1397.1" stroke="#1e8449" stroke-width="2.0"/>
<line x1="1060.3" y1="1397.1" x2="1065.5" y2="1388.1" stroke="#1e8449" stroke-width="2.0"/>
<line x1="1018.8" y1="1397.1" x2="1034.4" y2="1406.1" stroke="#1e8449" stroke-width="2.0"/>
<line x1="1034.4" y1="1406.1" x2="1039.5" y2="1397.1" stroke="#1e8449" stroke-width="2.0"/>
<line x1="972.2" y1="1352.2" x2="956.6" y2="1361.2" stroke="#1e8449" stroke-width="2.0"/>
<line x1="956.6" y1="1361.2" x2="956.6" y2="1379.1" stroke="#1e8449" stroke-width="2.0"/>
<line x1="956.6" y1="1379.1" x2="967.0" y2="1379.1" stroke="#1e8449" stroke-width="2.0"/>
<line x1="977.4" y1="1325.3" x2="972.2" y2="1334.3" stroke="#1e8449" stroke-width="2.0"/>
<line x1="972.2" y1="1334.3" x2="967.0" y2="1343.2" stroke="#1e8449" stroke-width="2.0"/>
<line x1="967.0" y1="1343.2" x2="972.2" y2="1352.2" stroke="#1e8449" stroke-width="2.0"/>
<line x1="987.7" y1="1307.3" x2="972.2" y2="1316.3" stroke="#1e8449" stroke-width="2.0"/>
<line x1="972.2" y1="1316.3" x2="977.4" y2="1325.3" stroke="#1e8449" stroke-width="2.0"/>
<line x1="987.7" y1="1397.1" x2="987.7" y2="1415.0" stroke="#1e8449" stroke-width="2.0"/>
<line x1="987.7" y1="1415.0" x2="1003.3" y2="1424.0" stroke="#1e8449" stroke-width="2.0"/>
<line x1="1003.3" y1="1424.0" x2="1008.5" y2="1415.0" stroke="#1e8449" stroke-width="2.0"/>
<line x1="1008.5" y1="1415.0" x2="1003.3" y2="1406.1" stroke="#1e8449" stroke-width="2.0"/>
<line x1="1003.3" y1="1406.1" x2="1018.8" y2="1397.1" stroke="#1e8449" stroke-width="2.0"/>
<line x1="967.0" y1="1379.1" x2="972.2" y2="1388.1" stroke="#1e8449" stroke-width="2.0"/>
<line x1="972.2" y1="1388.1" x2="977.4" y2="1397.1" stroke="#1e8449" stroke-width="2.0"/>
<line x1="977.4" y1="1397.1" x2="987.7" y2="1397.1" stroke="#1e8449" stroke-width="2.0"/>
<line x1="987.7" y1="1289.4" x2="987.7" y2="1307.3" stroke="#1e8449" stroke-width="2.0"/>
<line x1="967.0" y1="1271.4" x2="972.2" y2="1280.4" stroke="#1e8449" stroke-width="2.0"/>
<line x1="972.2" y1="1280.4" x2="977.4" y2="1289.4" stroke="#1e8449" stroke-width="2.0"/>
<line x1="977.4" y1="1289.4" x2="987.7" y2="1289.4" stroke="#1e8449" stroke-width="2.0"/>
<line x1="956.6" y1="1253.5" x2="956.6" y2="1271.4" stroke="#1e8449" stroke-width="2.0"/>
<line x1="956.6" y1="1271.4" x2="967.0" y2="1271.4" stroke="#1e8449" stroke-width="2.0"/>
<line x1="972.2" y1="1190.7" x2="956.6" y2="1181.7" stroke="#1e8449" stroke-width="2.0"/>
<line x1="956.6" y1="1181.7" x2="941.1" y2="1190.7" stroke="#1e8449" stroke-width="2.0"/>
<line x1="941.1" y1="1190.7" x2="946.3" y2="1199.6" stroke="#1e8449" stroke-width="2.0"/>
<line x1="998.1" y1="1181.7" x2="987.7" y2="1181.7" stroke="#1e8449" stroke-width="2.0"/>
<line x1="987.7" y1="1181.7" x2="977.4" y2="1181.7" stroke="#1e8449" stroke-width="2.0"/>
<line x1="977.4" y1="1181.7" x2="972.2" y2="1190.7" stroke="#1e8449" stroke-width="2.0"/>
<line x1="1018.8" y1="1181.7" x2="1003.3" y2="1172.7" stroke="#1e8449" stroke-width="2.0"/>
<line x1="1003.3" y1="1172.7" x2="998.1" y2="1181.7" stroke="#1e8449" stroke-width="2.0"/>
<line x1="941.1" y1="1226.6" x2="925.6" y2="1235.5" stroke="#1e8449" stroke-width="2.0"/>
<line x1="925.6" y1="1235.5" x2="925.6" y2="1253.5" stroke="#1e8449" stroke-width="2.0"/>
<line x1="925.6" y1="1253.5" x2="935.9" y2="1253.5" stroke="#1e8449" stroke-width="2.0"/>
<line x1="935.9" y1="1253.5" x2="941.1" y2="1244.5" stroke="#1e8449" stroke-width="2.0"/>
<line x1="941.1" y1="1244.5" x2="956.6" y2="1253.5" stroke="#1e8449" stroke-width="2.0"/>
<line x1="946.3" y1="1199.6" x2="941.1" y2="1208.6" stroke="#1e8449" stroke-width="2.0"/>
<line x1="941.1" y1="1208.6" x2="935.9" y2="1217.6" stroke="#1e8449" stroke-width="2.0"/>
<line x1="935.9" y1="1217.6" x2="941.1" y2="1226.6" stroke="#1e8449" stroke-width="2.0"/>
<line x1="1034.4" y1="1172.7" x2="1018.8" y2="1181.7" stroke="#1e8449" stroke-width="2.0"/>
<line x1="1039.5" y1="1145.8" x2="1034.4" y2="1154.8" stroke="#1e8449" stroke-width="2.0"/>
<line x1="1034.4" y1="1154.8" x2="1029.2" y2="1163.7" stroke="#1e8449" stroke-width="2.0"/>
<line x1="1029.2" y1="1163.7" x2="1034.4" y2="1172.7" stroke="#1e8449" stroke-width="2.0"/>
<line x1="1049.9" y1="1127.8" x2="1034.4" y2="1136.8" stroke="#1e8449" stroke-width="2.0"/>
<line x1="1034.4" y1="1136.8" x2="1039.5" y2="1145.8" stroke="#1e8449" stroke-width="2.0"/>
<line x1="1039.5" y1="1109.9" x2="1049.9" y2="1109.9" stroke="#1e8449" stroke-width="2.0"/>
<line x1="1049.9" y1="1109.9" x2="1049.9" y2="1127.8" stroke="#1e8449" stroke-width="2.0"/>
<line x1="1127.6" y1="1029.1" x2="1112.1" y2="1020.2" stroke="#1e8449" stroke-width="2.0"/>
<line x1="1153.5" y1="1020.2" x2="1143.2" y2="1020.2" stroke="#1e8449" stroke-width="2.0"/>
<line x1="1143.2" y1="1020.2" x2="1132.8" y2="1020.2" stroke="#1e8449" stroke-width="2.0"/>
<line x1="1132.8" y1="1020.2" x2="1127.6" y2="1029.1" stroke="#1e8449" stroke-width="2.0"/>
<line x1="1174.3" y1="1020.2" x2="1158.7" y2="1011.2" stroke="#1e8449" stroke-width="2.0"/>
<line x1="1158.7" y1="1011.2" x2="1153.5" y2="1020.2" stroke="#1e8449" stroke-width="2.0"/>
<line x1="1220.9" y1="1065.0" x2="1236.4" y2="1056.1" stroke="#1e8449" stroke-width="2.0"/>
<line x1="1236.4" y1="1056.1" x2="1236.4" y2="1038.1" stroke="#1e8449" stroke-width="2.0"/>
<line x1="1236.4" y1="1038.1" x2="1226.1" y2="1038.1" stroke="#1e8449" stroke-width="2.0"/>
<line x1="1215.7" y1="1091.9" x2="1220.9" y2="1083.0" stroke="#1e8449" stroke-width="2.0"/>
<line x1="1220.9" y1="1083.0" x2="1226.1" y2="1074.0" stroke="#1e8449" stroke-width="2.0"/>
<line x1="1226.1" y1="1074.0" x2="1220.9" y2="1065.0" stroke="#1e8449" stroke-width="2.0"/>
<line x1="1205.3" y1="1109.9" x2="1220.9" y2="1100.9" stroke="#1e8449" stroke-width="2.0"/>
<line x1="1220.9" y1="1100.9" x2="1215.7" y2="1091.9" stroke="#1e8449" stroke-width="2.0"/>
<line x1="1205.3" y1="1020.2" x2="1205.3" y2="1002.2" stroke="#1e8449" stroke-width="2.0"/>
<line x1="1205.3" y1="1002.2" x2="1189.8" y2="993.2" stroke="#1e8449" stroke-width="2.0"/>
<line x1="1189.8" y1="993.2" x2="1184.6" y2="1002.2" stroke="#1e8449" stroke-width="2.0"/>
<line x1="1184.6" y1="1002.2" x2="1189.8" y2="1011.2" stroke="#1e8449" stroke-width="2.0"/>
<line x1="1189.8" y1="1011.2" x2="1174.3" y2="1020.2" stroke="#1e8449" stroke-width="2.0"/>
<line x1="1226.1" y1="1038.1" x2="1220.9" y2="1029.1" stroke="#1e8449" stroke-width="2.0"/>
<line x1="1220.9" y1="1029.1" x2="1215.7" y2="1020.2" stroke="#1e8449" stroke-width="2.0"/>
<line x1="1215.7" y1="1020.2" x2="1205.3" y2="1020.2" stroke="#1e8449" stroke-width="2.0"/>
<line x1="1205.3" y1="1127.8" x2="1205.3" y2="1109.9" stroke="#1e8449" stroke-width="2.0"/>
<line x1="1226.1" y1="1145.8" x2="1220.9" y2="1136.8" stroke="#1e8449" stroke-width="2.0"/>
<line x1="1220.9" y1="1136.8" x2="1215.7" y2="1127.8" stroke="#1e8449" stroke-width="2.0"/>
<line x1="1215.7" y1="1127.8" x2="1205.3" y2="1127.8" stroke="#1e8449" stroke-width="2.0"/>
<line x1="1236.4" y1="1163.7" x2="1236.4" y2="1145.8" stroke="#1e8449" stroke-width="2.0"/>
<line x1="1236.4" y1="1145.8" x2="1226.1" y2="1145.8" stroke="#1e8449" stroke-width="2.0"/>
<line x1="1220.9" y1="1226.6" x2="1236.4" y2="1235.5" stroke="#1e8449" stroke-width="2.0"/>
<line x1="1236.4" y1="1235.5" x2="1252.0" y2="1226.6" stroke="#1e8449" stroke-width="2.0"/>
<line x1="1252.0" y1="1226.6" x2="1246.8" y2="1217.6" stroke="#1e8449" stroke-width="2.0"/>
<line x1="1195.0" y1="1235.5" x2="1205.3" y2="1235.5" stroke="#1e8449" stroke-width="2.0"/>
<line x1="1205.3" y1="1235.5" x2="1215.7" y2="1235.5" stroke="#1e8449" stroke-width="2.0"/>
<line x1="1215.7" y1="1235.5" x2="1220.9" y2="1226.6" stroke="#1e8449" stroke-width="2.0"/>
<line x1="1174.3" y1="1235.5" x2="1189.8" y2="1244.5" stroke="#1e8449" stroke-width="2.0"/>
<line x1="1189.8" y1="1244.5" x2="1195.0" y2="1235.5" stroke="#1e8449" stroke-width="2.0"/>
<line x1="1252.0" y1="1190.7" x2="1267.5" y2="1181.7" stroke="#1e8449" stroke-width="2.0"/>
<line x1="1267.5" y1="1181.7" x2="1267.5" y2="1163.7" stroke="#1e8449" stroke-width="2.0"/>
<line x1="1267.5" y1="1163.7" x2="1257.2" y2="1163.7" stroke="#1e8449" stroke-width="2.0"/>
<line x1="1257.2" y1="1163.7" x2="1252.0" y2="1172.7" stroke="#1e8449" stroke-width="2.0"/>
<line x1="1252.0" y1="1172.7" x2="1236.4" y2="1163.7" stroke="#1e8449" stroke-width="2.0"/>
<line x1="1246.8" y1="1217.6" x2="1252.0" y2="1208.6" stroke="#1e8449" stroke-width="2.0"/>
<line x1="1252.0" y1="1208.6" x2="1257.2" y2="1199.6" stroke="#1e8449" stroke-width="2.0"/>
<line x1="1257.2" y1="1199.6" x2="1252.0" y2="1190.7" stroke="#1e8449" stroke-width="2.0"/>
<line x1="1018.8" y1="1091.9" x2="1018.8" y2="1109.9" stroke="#1e8449" stroke-width="2.0"/>
<line x1="1018.8" y1="1109.9" x2="1034.4" y2="1118.9" stroke="#1e8449" stroke-width="2.0"/>
<line x1="1034.4" y1="1118.9" x2="1039.5" y2="1109.9" stroke="#1e8449" stroke-width="2.0"/>
<line x1="998.1" y1="1074.0" x2="1003.3" y2="1083.0" stroke="#1e8449" stroke-width="2.0"/>
<line x1="1003.3" y1="1083.0" x2="1008.5" y2="1091.9" stroke="#1e8449" stroke-width="2.0"/>
<line x1="1008.5" y1="1091.9" x2="1018.8" y2="1091.9" stroke="#1e8449" stroke-width="2.0"/>
<line x1="1003.3" y1="1047.1" x2="987.7" y2="1056.1" stroke="#1e8449" stroke-width="2.0"/>
<line x1="987.7" y1="1056.1" x2="987.7" y2="1074.0" stroke="#1e8449" stroke-width="2.0"/>
<line x1="987.7" y1="1074.0" x2="998.1" y2="1074.0" stroke="#1e8449" stroke-width="2.0"/>
<line x1="1008.5" y1="1020.2" x2="1003.3" y2="1029.1" stroke="#1e8449" stroke-width="2.0"/>
<line x1="1003.3" y1="1029.1" x2="998.1" y2="1038.1" stroke="#1e8449" stroke-width="2.0"/>
<line x1="998.1" y1="1038.1" x2="1003.3" y2="1047.1" stroke="#1e8449" stroke-width="2.0"/>
<line x1="1018.8" y1="1002.2" x2="1003.3" y2="1011.2" stroke="#1e8449" stroke-width="2.0"/>
<line x1="1003.3" y1="1011.2" x2="1008.5" y2="1020.2" stroke="#1e8449" stroke-width="2.0"/>
<line x1="1081.0" y1="984.3" x2="1081.0" y2="966.3" stroke="#1e8449" stroke-width="2.0"/>
<line x1="1081.0" y1="966.3" x2="1065.5" y2="957.3" stroke="#1e8449" stroke-width="2.0"/>
<line x1="1065.5" y1="957.3" x2="1060.3" y2="966.3" stroke="#1e8449" stroke-width="2.0"/>
<line x1="1101.7" y1="1002.2" x2="1096.5" y2="993.2" stroke="#1e8449" stroke-width="2.0"/>
<line x1="1096.5" y1="993.2" x2="1091.4" y2="984.3" stroke="#1e8449" stroke-width="2.0"/>
<line x1="1091.4" y1="984.3" x2="1081.0" y2="984.3" stroke="#1e8449" stroke-width="2.0"/>
<line x1="1112.1" y1="1020.2" x2="1112.1" y2="1002.2" stroke="#1e8449" stroke-width="2.0"/>
<line x1="1112.1" y1="1002.2" x2="1101.7" y2="1002.2" stroke="#1e8449" stroke-width="2.0"/>
<line x1="1034.4" y1="975.3" x2="1018.8" y2="966.3" stroke="#1e8449" stroke-width="2.0"/>
<line x1="1018.8" y1="966.3" x2="1003.3" y2="975.3" stroke="#1e8449" stroke-width="2.0"/>
<line x1="1003.3" y1="975.3" x2="1008.5" y2="984.3" stroke="#1e8449" stroke-width="2.0"/>
<line x1="1008.5" y1="984.3" x2="1018.8" y2="984.3" stroke="#1e8449" stroke-width="2.0"/>
<line x1="1018.8" y1="984.3" x2="1018.8" y2="1002.2" stroke="#1e8449" stroke-width="2.0"/>
<line x1="1060.3" y1="966.3" x2="1049.9" y2="966.3" stroke="#1e8449" stroke-width="2.0"/>
<line x1="1049.9" y1="966.3" x2="1039.5" y2="966.3" stroke="#1e8449" stroke-width="2.0"/>
<line x1="1039.5" y1="966.3" x2="1034.4" y2="975.3" stroke="#1e8449" stroke-width="2.0"/>
<line x1="1143.2" y1="104.8" x2="1143.2" y2="86.8" stroke="#784212" stroke-width="2.0"/>
<line x1="1143.2" y1="86.8" x2="1132.8" y2="86.8" stroke="#784212" stroke-width="2.0"/>
<line x1="1132.8" y1="86.8" x2="1127.6" y2="77.8" stroke="#784212" stroke-width="2.0"/>
<line x1="1127.6" y1="77.8" x2="1112.1" y2="86.8" stroke="#784212" stroke-width="2.0"/>
<line x1="1112.1" y1="86.8" x2="1096.5" y2="77.8" stroke="#784212" stroke-width="2.0"/>
<line x1="1096.5" y1="77.8" x2="1091.4" y2="86.8" stroke="#784212" stroke-width="2.0"/>
<line x1="1163.9" y1="104.8" x2="1158.7" y2="113.7" stroke="#784212" stroke-width="2.0"/>
<line x1="1158.7" y1="113.7" x2="1143.2" y2="104.8" stroke="#784212" stroke-width="2.0"/>
<line x1="1065.5" y1="95.8" x2="1049.9" y2="86.8" stroke="#784212" stroke-width="2.0"/>
<line x1="1091.4" y1="86.8" x2="1081.0" y2="86.8" stroke="#784212" stroke-width="2.0"/>
<line x1="1081.0" y1="86.8" x2="1070.6" y2="86.8" stroke="#784212" stroke-width="2.0"/>
<line x1="1070.6" y1="86.8" x2="1065.5" y2="95.8" stroke="#784212" stroke-width="2.0"/>
<line x1="1189.8" y1="95.8" x2="1174.3" y2="86.8" stroke="#784212" stroke-width="2.0"/>
<line x1="1174.3" y1="86.8" x2="1158.7" y2="95.8" stroke="#784212" stroke-width="2.0"/>
<line x1="1158.7" y1="95.8" x2="1163.9" y2="104.8" stroke="#784212" stroke-width="2.0"/>
<line x1="1215.7" y1="86.8" x2="1205.3" y2="86.8" stroke="#784212" stroke-width="2.0"/>
<line x1="1205.3" y1="86.8" x2="1195.0" y2="86.8" stroke="#784212" stroke-width="2.0"/>
<line x1="1195.0" y1="86.8" x2="1189.8" y2="95.8" stroke="#784212" stroke-width="2.0"/>
<line x1="1236.4" y1="104.8" x2="1236.4" y2="86.8" stroke="#784212" stroke-width="2.0"/>
<line x1="1236.4" y1="86.8" x2="1220.9" y2="77.8" stroke="#784212" stroke-width="2.0"/>
<line x1="1220.9" y1="77.8" x2="1215.7" y2="86.8" stroke="#784212" stroke-width="2.0"/>
<line x1="1257.2" y1="122.7" x2="1252.0" y2="113.7" stroke="#784212" stroke-width="2.0"/>
<line x1="1252.0" y1="113.7" x2="1246.8" y2="104.8" stroke="#784212" stroke-width="2.0"/>
<line x1="1246.8" y1="104.8" x2="1236.4" y2="104.8" stroke="#784212" stroke-width="2.0"/>
<line x1="1267.5" y1="140.7" x2="1267.5" y2="122.7" stroke="#784212" stroke-width="2.0"/>
<line x1="1267.5" y1="122.7" x2="1257.2" y2="122.7" stroke="#784212" stroke-width="2.0"/>
<line x1="1252.0" y1="203.5" x2="1267.5" y2="212.5" stroke="#784212" stroke-width="2.0"/>
<line x1="1267.5" y1="212.5" x2="1283.1" y2="203.5" stroke="#784212" stroke-width="2.0"/>
<line x1="1283.1" y1="203.5" x2="1277.9" y2="194.5" stroke="#784212" stroke-width="2.0"/>
<line x1="1226.1" y1="212.5" x2="1236.4" y2="212.5" stroke="#784212" stroke-width="2.0"/>
<line x1="1236.4" y1="212.5" x2="1246.8" y2="212.5" stroke="#784212" stroke-width="2.0"/>
<line x1="1246.8" y1="212.5" x2="1252.0" y2="203.5" stroke="#784212" stroke-width="2.0"/>
<line x1="1205.3" y1="212.5" x2="1220.9" y2="221.4" stroke="#784212" stroke-width="2.0"/>
<line x1="1220.9" y1="221.4" x2="1226.1" y2="212.5" stroke="#784212" stroke-width="2.0"/>
<line x1="1283.1" y1="167.6" x2="1298.6" y2="158.6" stroke="#784212" stroke-width="2.0"/>
<line x1="1298.6" y1="158.6" x2="1298.6" y2="140.7" stroke="#784212" stroke-width="2.0"/>
<line x1="1298.6" y1="140.7" x2="1288.2" y2="140.7" stroke="#784212" stroke-width="2.0"/>
<line x1="1288.2" y1="140.7" x2="1283.1" y2="149.6" stroke="#784212" stroke-width="2.0"/>
<line x1="1283.1" y1="149.6" x2="1267.5" y2="140.7" stroke="#784212" stroke-width="2.0"/>
<line x1="1277.9" y1="194.5" x2="1283.1" y2="185.5" stroke="#784212" stroke-width="2.0"/>
<line x1="1283.1" y1="185.5" x2="1288.2" y2="176.6" stroke="#784212" stroke-width="2.0"/>
<line x1="1288.2" y1="176.6" x2="1283.1" y2="167.6" stroke="#784212" stroke-width="2.0"/>
<line x1="1189.8" y1="221.4" x2="1205.3" y2="212.5" stroke="#784212" stroke-width="2.0"/>
<line x1="1184.6" y1="248.4" x2="1189.8" y2="239.4" stroke="#784212" stroke-width="2.0"/>
<line x1="1189.8" y1="239.4" x2="1195.0" y2="230.4" stroke="#784212" stroke-width="2.0"/>
<line x1="1195.0" y1="230.4" x2="1189.8" y2="221.4" stroke="#784212" stroke-width="2.0"/>
<line x1="1174.3" y1="266.3" x2="1189.8" y2="257.3" stroke="#784212" stroke-width="2.0"/>
<line x1="1189.8" y1="257.3" x2="1184.6" y2="248.4" stroke="#784212" stroke-width="2.0"/>
<line x1="1112.1" y1="284.3" x2="1112.1" y2="302.2" stroke="#784212" stroke-width="2.0"/>
<line x1="1112.1" y1="302.2" x2="1127.6" y2="311.2" stroke="#784212" stroke-width="2.0"/>
<line x1="1127.6" y1="311.2" x2="1132.8" y2="302.2" stroke="#784212" stroke-width="2.0"/>
<line x1="1091.4" y1="266.3" x2="1096.5" y2="275.3" stroke="#784212" stroke-width="2.0"/>
<line x1="1096.5" y1="275.3" x2="1101.7" y2="284.3" stroke="#784212" stroke-width="2.0"/>
<line x1="1101.7" y1="284.3" x2="1112.1" y2="284.3" stroke="#784212" stroke-width="2.0"/>
<line x1="1081.0" y1="248.4" x2="1081.0" y2="266.3" stroke="#784212" stroke-width="2.0"/>
<line x1="1081.0" y1="266.3" x2="1091.4" y2="266.3" stroke="#784212" stroke-width="2.0"/>
<line x1="1158.7" y1="293.2" x2="1174.3" y2="302.2" stroke="#784212" stroke-width="2.0"/>
<line x1="1174.3" y1="302.2" x2="1189.8" y2="293.2" stroke="#784212" stroke-width="2.0"/>
<line x1="1189.8" y1="293.2" x2="1184.6" y2="284.3" stroke="#784212" stroke-width="2.0"/>
<line x1="1184.6" y1="284.3" x2="1174.3" y2="284.3" stroke="#784212" stroke-width="2.0"/>
<line x1="1174.3" y1="284.3" x2="1174.3" y2="266.3" stroke="#784212" stroke-width="2.0"/>
<line x1="1132.8" y1="302.2" x2="1143.2" y2="302.2" stroke="#784212" stroke-width="2.0"/>
<line x1="1143.2" y1="302.2" x2="1153.5" y2="302.2" stroke="#784212" stroke-width="2.0"/>
<line x1="1153.5" y1="302.2" x2="1158.7" y2="293.2" stroke="#784212" stroke-width="2.0"/>
<line x1="1065.5" y1="239.4" x2="1081.0" y2="248.4" stroke="#784212" stroke-width="2.0"/>
<line x1="1039.5" y1="248.4" x2="1049.9" y2="248.4" stroke="#784212" stroke-width="2.0"/>
<line x1="1049.9" y1="248.4" x2="1060.3" y2="248.4" stroke="#784212" stroke-width="2.0"/>
<line x1="1060.3" y1="248.4" x2="1065.5" y2="239.4" stroke="#784212" stroke-width="2.0"/>
<line x1="1018.8" y1="248.4" x2="1034.4" y2="257.3" stroke="#784212" stroke-width="2.0"/>
<line x1="1034.4" y1="257.3" x2="1039.5" y2="248.4" stroke="#784212" stroke-width="2.0"/>
<line x1="1008.5" y1="266.3" x2="1003.3" y2="257.3" stroke="#784212" stroke-width="2.0"/>
<line x1="1003.3" y1="257.3" x2="1018.8" y2="248.4" stroke="#784212" stroke-width="2.0"/>
<line x1="894.5" y1="230.4" x2="894.5" y2="248.4" stroke="#784212" stroke-width="2.0"/>
<line x1="873.7" y1="212.5" x2="878.9" y2="221.4" stroke="#784212" stroke-width="2.0"/>
<line x1="878.9" y1="221.4" x2="884.1" y2="230.4" stroke="#784212" stroke-width="2.0"/>
<line x1="884.1" y1="230.4" x2="894.5" y2="230.4" stroke="#784212" stroke-width="2.0"/>
<line x1="863.4" y1="194.5" x2="863.4" y2="212.5" stroke="#784212" stroke-width="2.0"/>
<line x1="863.4" y1="212.5" x2="873.7" y2="212.5" stroke="#784212" stroke-width="2.0"/>
<line x1="878.9" y1="131.7" x2="863.4" y2="122.7" stroke="#784212" stroke-width="2.0"/>
<line x1="863.4" y1="122.7" x2="847.8" y2="131.7" stroke="#784212" stroke-width="2.0"/>
<line x1="847.8" y1="131.7" x2="853.0" y2="140.7" stroke="#784212" stroke-width="2.0"/>
<line x1="904.8" y1="122.7" x2="894.5" y2="122.7" stroke="#784212" stroke-width="2.0"/>
<line x1="894.5" y1="122.7" x2="884.1" y2="122.7" stroke="#784212" stroke-width="2.0"/>
<line x1="884.1" y1="122.7" x2="878.9" y2="131.7" stroke="#784212" stroke-width="2.0"/>
<line x1="925.6" y1="122.7" x2="910.0" y2="113.7" stroke="#784212" stroke-width="2.0"/>
<line x1="910.0" y1="113.7" x2="904.8" y2="122.7" stroke="#784212" stroke-width="2.0"/>
<line x1="847.8" y1="167.6" x2="832.3" y2="176.6" stroke="#784212" stroke-width="2.0"/>
<line x1="832.3" y1="176.6" x2="832.3" y2="194.5" stroke="#784212" stroke-width="2.0"/>
<line x1="832.3" y1="194.5" x2="842.7" y2="194.5" stroke="#784212" stroke-width="2.0"/>
<line x1="842.7" y1="194.5" x2="847.8" y2="185.5" stroke="#784212" stroke-width="2.0"/>
<line x1="847.8" y1="185.5" x2="863.4" y2="194.5" stroke="#784212" stroke-width="2.0"/>
<line x1="853.0" y1="140.7" x2="847.8" y2="149.6" stroke="#784212" stroke-width="2.0"/>
<line x1="847.8" y1="149.6" x2="842.7" y2="158.6" stroke="#784212" stroke-width="2.0"/>
<line x1="842.7" y1="158.6" x2="847.8" y2="167.6" stroke="#784212" stroke-width="2.0"/>
<line x1="941.1" y1="113.7" x2="925.6" y2="122.7" stroke="#784212" stroke-width="2.0"/>
<line x1="946.3" y1="86.8" x2="941.1" y2="95.8" stroke="#784212" stroke-width="2.0"/>
<line x1="941.1" y1="95.8" x2="935.9" y2="104.8" stroke="#784212" stroke-width="2.0"/>
<line x1="935.9" y1="104.8" x2="941.1" y2="113.7" stroke="#784212" stroke-width="2.0"/>
<line x1="956.6" y1="68.9" x2="941.1" y2="77.8" stroke="#784212" stroke-width="2.0"/>
<line x1="941.1" y1="77.8" x2="946.3" y2="86.8" stroke="#784212" stroke-width="2.0"/>
<line x1="1018.8" y1="50.9" x2="1018.8" y2="33.0" stroke="#784212" stroke-width="2.0"/>
<line x1="1018.8" y1="33.0" x2="1003.3" y2="24.0" stroke="#784212" stroke-width="2.0"/>
<line x1="1003.3" y1="24.0" x2="998.1" y2="33.0" stroke="#784212" stroke-width="2.0"/>
<line x1="1039.5" y1="68.9" x2="1034.4" y2="59.9" stroke="#784212" stroke-width="2.0"/>
<line x1="1034.4" y1="59.9" x2="1029.2" y2="50.9" stroke="#784212" stroke-width="2.0"/>
<line x1="1029.2" y1="50.9" x2="1018.8" y2="50.9" stroke="#784212" stroke-width="2.0"/>
<line x1="1049.9" y1="86.8" x2="1049.9" y2="68.9" stroke="#784212" stroke-width="2.0"/>
<line x1="1049.9" y1="68.9" x2="1039.5" y2="68.9" stroke="#784212" stroke-width="2.0"/>
<line x1="972.2" y1="41.9" x2="956.6" y2="33.0" stroke="#784212" stroke-width="2.0"/>
<line x1="956.6" y1="33.0" x2="941.1" y2="41.9" stroke="#784212" stroke-width="2.0"/>
<line x1="941.1" y1="41.9" x2="946.3" y2="50.9" stroke="#784212" stroke-width="2.0"/>
<line x1="946.3" y1="50.9" x2="956.6" y2="50.9" stroke="#784212" stroke-width="2.0"/>
<line x1="956.6" y1="50.9" x2="956.6" y2="68.9" stroke="#784212" stroke-width="2.0"/>
<line x1="998.1" y1="33.0" x2="987.7" y2="33.0" stroke="#784212" stroke-width="2.0"/>
<line x1="987.7" y1="33.0" x2="977.4" y2="33.0" stroke="#784212" stroke-width="2.0"/>
<line x1="977.4" y1="33.0" x2="972.2" y2="41.9" stroke="#784212" stroke-width="2.0"/>
<line x1="1003.3" y1="293.2" x2="1018.8" y2="284.3" stroke="#784212" stroke-width="2.0"/>
<line x1="1018.8" y1="284.3" x2="1018.8" y2="266.3" stroke="#784212" stroke-width="2.0"/>
<line x1="1018.8" y1="266.3" x2="1008.5" y2="266.3" stroke="#784212" stroke-width="2.0"/>
<line x1="998.1" y1="320.2" x2="1003.3" y2="311.2" stroke="#784212" stroke-width="2.0"/>
<line x1="1003.3" y1="311.2" x2="1008.5" y2="302.2" stroke="#784212" stroke-width="2.0"/>
<line x1="1008.5" y1="302.2" x2="1003.3" y2="293.2" stroke="#784212" stroke-width="2.0"/>
<line x1="972.2" y1="329.1" x2="987.7" y2="338.1" stroke="#784212" stroke-width="2.0"/>
<line x1="987.7" y1="338.1" x2="1003.3" y2="329.1" stroke="#784212" stroke-width="2.0"/>
<line x1="1003.3" y1="329.1" x2="998.1" y2="320.2" stroke="#784212" stroke-width="2.0"/>
<line x1="946.3" y1="338.1" x2="956.6" y2="338.1" stroke="#784212" stroke-width="2.0"/>
<line x1="956.6" y1="338.1" x2="967.0" y2="338.1" stroke="#784212" stroke-width="2.0"/>
<line x1="967.0" y1="338.1" x2="972.2" y2="329.1" stroke="#784212" stroke-width="2.0"/>
<line x1="925.6" y1="338.1" x2="941.1" y2="347.1" stroke="#784212" stroke-width="2.0"/>
<line x1="941.1" y1="347.1" x2="946.3" y2="338.1" stroke="#784212" stroke-width="2.0"/>
<line x1="878.9" y1="293.2" x2="863.4" y2="302.2" stroke="#784212" stroke-width="2.0"/>
<line x1="863.4" y1="302.2" x2="863.4" y2="320.2" stroke="#784212" stroke-width="2.0"/>
<line x1="863.4" y1="320.2" x2="873.7" y2="320.2" stroke="#784212" stroke-width="2.0"/>
<line x1="884.1" y1="266.3" x2="878.9" y2="275.3" stroke="#784212" stroke-width="2.0"/>
<line x1="878.9" y1="275.3" x2="873.7" y2="284.3" stroke="#784212" stroke-width="2.0"/>
<line x1="873.7" y1="284.3" x2="878.9" y2="293.2" stroke="#784212" stroke-width="2.0"/>
<line x1="894.5" y1="248.4" x2="878.9" y2="257.3" stroke="#784212" stroke-width="2.0"/>
<line x1="878.9" y1="257.3" x2="884.1" y2="266.3" stroke="#784212" stroke-width="2.0"/>
<line x1="894.5" y1="338.1" x2="894.5" y2="356.1" stroke="#784212" stroke-width="2.0"/>
<line x1="894.5" y1="356.1" x2="910.0" y2="365.0" stroke="#784212" stroke-width="2.0"/>
<line x1="910.0" y1="365.0" x2="915.2" y2="356.1" stroke="#784212" stroke-width="2.0"/>
<line x1="915.2" y1="356.1" x2="910.0" y2="347.1" stroke="#784212" stroke-width="2.0"/>
<line x1="910.0" y1="347.1" x2="925.6" y2="338.1" stroke="#784212" stroke-width="2.0"/>
<line x1="873.7" y1="320.2" x2="878.9" y2="329.1" stroke="#784212" stroke-width="2.0"/>
<line x1="878.9" y1="329.1" x2="884.1" y2="338.1" stroke="#784212" stroke-width="2.0"/>
<line x1="884.1" y1="338.1" x2="894.5" y2="338.1" stroke="#784212" stroke-width="2.0"/>
<circle cx="780.5" cy="697.1" r="6" fill="red" stroke="white" stroke-width="1.5"/>
<rect x="20" y="20" width="20" height="20" fill="#c5d6ea" stroke="#1a5276" stroke-width="1.5"/><text x="46" y="36" font-size="16" font-family="sans-serif">copy 0 (0°)</text>
<rect x="20" y="46" width="20" height="20" fill="#c8e6c9" stroke="#1e8449" stroke-width="1.5"/><text x="46" y="62" font-size="16" font-family="sans-serif">copy 1 (120°)</text>
<rect x="20" y="72" width="20" height="20" fill="#ffe0b2" stroke="#784212" stroke-width="1.5"/><text x="46" y="88" font-size="16" font-family="sans-serif">copy 2 (240°)</text>
<rect x="20" y="98" width="20" height="20" fill="#f4d03f"/><text x="46" y="114" font-size="16" font-family="sans-serif">anti-hat</text>
<circle cx="30" cy="134" r="6" fill="red"/><text x="46" y="140" font-size="16" font-family="sans-serif">centre C</text>
</svg>
