<svg xmlns="http://www.w3.org/2000/svg" width="1040" height="1011">
<rect width="100%" height="100%" fill="white"/>
<path d="M679.09,334.92L656.36,348.04L656.36,374.28L671.52,374.28L679.09,361.16L701.82,374.28L724.55,361.16L716.97,348.04L724.55,334.92L701.82,321.80L701.82,295.55L686.67,295.55L679.09,308.68L671.52,321.80 Z" fill="#5b9bd5" fill-opacity="0.8" stroke="#333" stroke-width="0.6" stroke-linejoin="round"/>
<path d="M679.09,308.68L656.36,295.55L633.64,308.68L626.06,295.55L610.91,295.55L610.91,321.80L633.64,334.92L626.06,348.04L633.64,361.16L641.21,374.28L656.36,374.28L656.36,348.04L679.09,334.92L671.52,321.80 Z" fill="#5b9bd5" fill-opacity="0.8" stroke="#333" stroke-width="0.6" stroke-linejoin="round"/>
<path d="M679.09,413.65L701.82,426.77L724.55,413.65L716.97,400.53L701.82,400.53L701.82,374.28L679.09,361.16L671.52,374.28L656.36,374.28L656.36,400.53L633.64,413.65L641.21,426.77L656.36,426.77L671.52,426.77 Z" fill="#5b9bd5" fill-opacity="0.8" stroke="#333" stroke-width="0.6" stroke-linejoin="round"/>
<path d="M610.91,400.53L610.91,426.77L633.64,439.89L641.21,426.77L633.64,413.65L656.36,400.53L656.36,374.28L641.21,374.28L633.64,361.16L610.91,374.28L588.18,361.16L580.61,374.28L588.18,387.40L595.76,400.53 Z" fill="#5b9bd5" fill-opacity="0.8" stroke="#333" stroke-width="0.6" stroke-linejoin="round"/>
<path d="M588.18,334.92L565.45,348.04L565.45,374.28L580.61,374.28L588.18,361.16L610.91,374.28L633.64,361.16L626.06,348.04L633.64,334.92L610.91,321.80L610.91,295.55L595.76,295.55L588.18,308.68L580.61,321.80 Z" fill="#5b9bd5" fill-opacity="0.8" stroke="#333" stroke-width="0.6" stroke-linejoin="round"/>
<path d="M588.18,256.19L565.45,243.07L542.73,256.19L550.30,269.31L565.45,269.31L565.45,295.55L588.18,308.68L595.76,295.55L610.91,295.55L610.91,269.31L633.64,256.19L626.06,243.07L610.91,243.07L595.76,243.07 Z" fill="#5b9bd5" fill-opacity="0.8" stroke="#333" stroke-width="0.6" stroke-linejoin="round"/>
<path d="M656.36,269.31L656.36,243.07L633.64,229.95L626.06,243.07L633.64,256.19L610.91,269.31L610.91,295.55L626.06,295.55L633.64,308.68L656.36,295.55L679.09,308.68L686.67,295.55L679.09,282.43L671.52,269.31 Z" fill="#5b9bd5" fill-opacity="0.8" stroke="#333" stroke-width="0.6" stroke-linejoin="round"/>
<path d="M679.09,466.13L701.82,479.26L724.55,466.13L716.97,453.01L701.82,453.01L701.82,426.77L679.09,413.65L671.52,426.77L656.36,426.77L656.36,453.01L633.64,466.13L641.21,479.26L656.36,479.26L671.52,479.26 Z" fill="#5b9bd5" fill-opacity="0.8" stroke="#333" stroke-width="0.6" stroke-linejoin="round"/>
<path d="M656.36,479.26L656.36,505.50L679.09,518.62L671.52,531.74L679.09,544.86L701.82,531.74L701.82,505.50L716.97,505.50L724.55,492.38L732.12,479.26L724.55,466.13L701.82,479.26L679.09,466.13L671.52,479.26 Z" fill="#5b9bd5" fill-opacity="0.8" stroke="#333" stroke-width="0.6" stroke-linejoin="round"/>
<path d="M747.27,426.77L747.27,400.53L724.55,387.40L716.97,400.53L724.55,413.65L701.82,426.77L701.82,453.01L716.97,453.01L724.55,466.13L747.27,453.01L770.00,466.13L777.58,453.01L770.00,439.89L762.42,426.77 Z" fill="#5b9bd5" fill-opacity="0.8" stroke="#333" stroke-width="0.6" stroke-linejoin="round"/>
<path d="M770.00,492.38L792.73,479.26L792.73,453.01L777.58,453.01L770.00,466.13L747.27,453.01L724.55,466.13L732.12,479.26L724.55,492.38L747.27,505.50L747.27,531.74L762.42,531.74L770.00,518.62L777.58,505.50 Z" fill="#5b9bd5" fill-opacity="0.8" stroke="#333" stroke-width="0.6" stroke-linejoin="round"/>
<path d="M724.55,544.86L747.27,557.99L770.00,544.86L762.42,531.74L747.27,531.74L747.27,505.50L724.55,492.38L716.97,505.50L701.82,505.50L701.82,531.74L679.09,544.86L686.67,557.99L701.82,557.99L716.97,557.99 Z" fill="#5b9bd5" fill-opacity="0.8" stroke="#333" stroke-width="0.6" stroke-linejoin="round"/>
<path d="M656.36,584.23L656.36,610.47L679.09,623.59L686.67,610.47L679.09,597.35L701.82,584.23L701.82,557.99L686.67,557.99L679.09,544.86L656.36,557.99L633.64,544.86L626.06,557.99L633.64,571.11L641.21,584.23 Z" fill="#5b9bd5" fill-opacity="0.8" stroke="#333" stroke-width="0.6" stroke-linejoin="round"/>
<path d="M633.64,518.62L610.91,531.74L610.91,557.99L626.06,557.99L633.64,544.86L656.36,557.99L679.09,544.86L671.52,531.74L679.09,518.62L656.36,505.50L656.36,479.26L641.21,479.26L633.64,492.38L626.06,505.50 Z" fill="#5b9bd5" fill-opacity="0.8" stroke="#333" stroke-width="0.6" stroke-linejoin="round"/>
<path d="M724.55,597.35L747.27,610.47L770.00,597.35L762.42,584.23L747.27,584.23L747.27,557.99L724.55,544.86L716.97,557.99L701.82,557.99L701.82,584.23L679.09,597.35L686.67,610.47L701.82,610.47L716.97,610.47 Z" fill="#5b9bd5" fill-opacity="0.8" stroke="#333" stroke-width="0.6" stroke-linejoin="round"/>
<path d="M565.45,426.77L565.45,453.01L588.18,466.13L595.76,453.01L588.18,439.89L610.91,426.77L610.91,400.53L595.76,400.53L588.18,387.40L565.45,400.53L542.73,387.40L535.15,400.53L542.73,413.65L550.30,426.77 Z" fill="#5b9bd5" fill-opacity="0.8" stroke="#333" stroke-width="0.6" stroke-linejoin="round"/>
<path d="M542.73,413.65L520.00,426.77L520.00,453.01L504.85,453.01L497.27,466.13L520.00,479.26L542.73,466.13L550.30,479.26L565.45,479.26L580.61,479.26L588.18,466.13L565.45,453.01L565.45,426.77L550.30,426.77 Z" fill="#5b9bd5" fill-opacity="0.8" stroke="#333" stroke-width="0.6" stroke-linejoin="round"/>
<path d="M633.64,466.13L656.36,453.01L656.36,426.77L641.21,426.77L633.64,439.89L610.91,426.77L588.18,439.89L595.76,453.01L588.18,466.13L610.91,479.26L610.91,505.50L626.06,505.50L633.64,492.38L641.21,479.26 Z" fill="#5b9bd5" fill-opacity="0.8" stroke="#333" stroke-width="0.6" stroke-linejoin="round"/>
<path d="M588.18,518.62L610.91,531.74L633.64,518.62L626.06,505.50L610.91,505.50L610.91,479.26L588.18,466.13L580.61,479.26L565.45,479.26L565.45,505.50L542.73,518.62L550.30,531.74L565.45,531.74L580.61,531.74 Z" fill="#5b9bd5" fill-opacity="0.8" stroke="#333" stroke-width="0.6" stroke-linejoin="round"/>
<path d="M520.00,505.50L520.00,531.74L542.73,544.86L550.30,531.74L542.73,518.62L565.45,505.50L565.45,479.26L550.30,479.26L542.73,466.13L520.00,479.26L497.27,466.13L489.70,479.26L497.27,492.38L504.85,505.50 Z" fill="#5b9bd5" fill-opacity="0.8" stroke="#333" stroke-width="0.6" stroke-linejoin="round"/>
<path d="M451.82,466.13L429.09,479.26L429.09,505.50L444.24,505.50L451.82,492.38L474.55,505.50L497.27,492.38L489.70,479.26L497.27,466.13L474.55,453.01L474.55,426.77L459.39,426.77L451.82,439.89L444.24,453.01 Z" fill="#5b9bd5" fill-opacity="0.8" stroke="#333" stroke-width="0.6" stroke-linejoin="round"/>
<path d="M497.27,413.65L474.55,400.53L451.82,413.65L459.39,426.77L474.55,426.77L474.55,453.01L497.27,466.13L504.85,453.01L520.00,453.01L520.00,426.77L542.73,413.65L535.15,400.53L520.00,400.53L504.85,400.53 Z" fill="#5b9bd5" fill-opacity="0.8" stroke="#333" stroke-width="0.6" stroke-linejoin="round"/>
<path d="M474.55,531.74L474.55,557.99L497.27,571.11L504.85,557.99L497.27,544.86L520.00,531.74L520.00,505.50L504.85,505.50L497.27,492.38L474.55,505.50L451.82,492.38L444.24,505.50L451.82,518.62L459.39,531.74 Z" fill="#5b9bd5" fill-opacity="0.8" stroke="#333" stroke-width="0.6" stroke-linejoin="round"/>
<path d="M542.73,308.68L520.00,321.80L520.00,348.04L535.15,348.04L542.73,334.92L565.45,348.04L588.18,334.92L580.61,321.80L588.18,308.68L565.45,295.55L565.45,269.31L550.30,269.31L542.73,282.43L535.15,295.55 Z" fill="#5b9bd5" fill-opacity="0.8" stroke="#333" stroke-width="0.6" stroke-linejoin="round"/>
<path d="M542.73,282.43L520.00,269.31L497.27,282.43L489.70,269.31L474.55,269.31L474.55,295.55L497.27,308.68L489.70,321.80L497.27,334.92L504.85,348.04L520.00,348.04L520.00,321.80L542.73,308.68L535.15,295.55 Z" fill="#5b9bd5" fill-opacity="0.8" stroke="#333" stroke-width="0.6" stroke-linejoin="round"/>
<path d="M542.73,387.40L565.45,400.53L588.18,387.40L580.61,374.28L565.45,374.28L565.45,348.04L542.73,334.92L535.15,348.04L520.00,348.04L520.00,374.28L497.27,387.40L504.85,400.53L520.00,400.53L535.15,400.53 Z" fill="#5b9bd5" fill-opacity="0.8" stroke="#333" stroke-width="0.6" stroke-linejoin="round"/>
<path d="M474.55,374.28L474.55,400.53L497.27,413.65L504.85,400.53L497.27,387.40L520.00,374.28L520.00,348.04L504.85,348.04L497.27,334.92L474.55,348.04L451.82,334.92L444.24,348.04L451.82,361.16L459.39,374.28 Z" fill="#5b9bd5" fill-opacity="0.8" stroke="#333" stroke-width="0.6" stroke-linejoin="round"/>
<path d="M451.82,308.68L429.09,321.80L429.09,348.04L444.24,348.04L451.82,334.92L474.55,348.04L497.27,334.92L489.70,321.80L497.27,308.68L474.55,295.55L474.55,269.31L459.39,269.31L451.82,282.43L444.24,295.55 Z" fill="#5b9bd5" fill-opacity="0.8" stroke="#333" stroke-width="0.6" stroke-linejoin="round"/>
<path d="M451.82,229.95L429.09,216.82L406.36,229.95L413.94,243.07L429.09,243.07L429.09,269.31L451.82,282.43L459.39,269.31L474.55,269.31L474.55,243.07L497.27,229.95L489.70,216.82L474.55,216.82L459.39,216.82 Z" fill="#5b9bd5" fill-opacity="0.8" stroke="#333" stroke-width="0.6" stroke-linejoin="round"/>
<path d="M520.00,243.07L520.00,216.82L497.27,203.70L489.70,216.82L497.27,229.95L474.55,243.07L474.55,269.31L489.70,269.31L497.27,282.43L520.00,269.31L542.73,282.43L550.30,269.31L542.73,256.19L535.15,243.07 Z" fill="#5b9bd5" fill-opacity="0.8" stroke="#333" stroke-width="0.6" stroke-linejoin="round"/>
<path d="M406.36,282.43L383.64,295.55L383.64,321.80L398.79,321.80L406.36,308.68L429.09,321.80L451.82,308.68L444.24,295.55L451.82,282.43L429.09,269.31L429.09,243.07L413.94,243.07L406.36,256.19L398.79,269.31 Z" fill="#5b9bd5" fill-opacity="0.8" stroke="#333" stroke-width="0.6" stroke-linejoin="round"/>
<path d="M451.82,177.46L429.09,164.34L406.36,177.46L413.94,190.58L429.09,190.58L429.09,216.82L451.82,229.95L459.39,216.82L474.55,216.82L474.55,190.58L497.27,177.46L489.70,164.34L474.55,164.34L459.39,164.34 Z" fill="#5b9bd5" fill-opacity="0.8" stroke="#333" stroke-width="0.6" stroke-linejoin="round"/>
<path d="M474.55,164.34L474.55,138.09L451.82,124.97L459.39,111.85L451.82,98.73L429.09,111.85L429.09,138.09L413.94,138.09L406.36,151.22L398.79,164.34L406.36,177.46L429.09,164.34L451.82,177.46L459.39,164.34 Z" fill="#5b9bd5" fill-opacity="0.8" stroke="#333" stroke-width="0.6" stroke-linejoin="round"/>
<path d="M383.64,216.82L383.64,243.07L406.36,256.19L413.94,243.07L406.36,229.95L429.09,216.82L429.09,190.58L413.94,190.58L406.36,177.46L383.64,190.58L360.91,177.46L353.33,190.58L360.91,203.70L368.48,216.82 Z" fill="#5b9bd5" fill-opacity="0.8" stroke="#333" stroke-width="0.6" stroke-linejoin="round"/>
<path d="M360.91,151.22L338.18,164.34L338.18,190.58L353.33,190.58L360.91,177.46L383.64,190.58L406.36,177.46L398.79,164.34L406.36,151.22L383.64,138.09L383.64,111.85L368.48,111.85L360.91,124.97L353.33,138.09 Z" fill="#5b9bd5" fill-opacity="0.8" stroke="#333" stroke-width="0.6" stroke-linejoin="round"/>
<path d="M406.36,98.73L383.64,85.61L360.91,98.73L368.48,111.85L383.64,111.85L383.64,138.09L406.36,151.22L413.94,138.09L429.09,138.09L429.09,111.85L451.82,98.73L444.24,85.61L429.09,85.61L413.94,85.61 Z" fill="#5b9bd5" fill-opacity="0.8" stroke="#333" stroke-width="0.6" stroke-linejoin="round"/>
<path d="M474.55,59.36L474.55,33.12L451.82,20.00L444.24,33.12L451.82,46.24L429.09,59.36L429.09,85.61L444.24,85.61L451.82,98.73L474.55,85.61L497.27,98.73L504.85,85.61L497.27,72.49L489.70,59.36 Z" fill="#5b9bd5" fill-opacity="0.8" stroke="#333" stroke-width="0.6" stroke-linejoin="round"/>
<path d="M497.27,124.97L520.00,111.85L520.00,85.61L504.85,85.61L497.27,98.73L474.55,85.61L451.82,98.73L459.39,111.85L451.82,124.97L474.55,138.09L474.55,164.34L489.70,164.34L497.27,151.22L504.85,138.09 Z" fill="#5b9bd5" fill-opacity="0.8" stroke="#333" stroke-width="0.6" stroke-linejoin="round"/>
<path d="M406.36,46.24L383.64,33.12L360.91,46.24L368.48,59.36L383.64,59.36L383.64,85.61L406.36,98.73L413.94,85.61L429.09,85.61L429.09,59.36L451.82,46.24L444.24,33.12L429.09,33.12L413.94,33.12 Z" fill="#5b9bd5" fill-opacity="0.8" stroke="#333" stroke-width="0.6" stroke-linejoin="round"/>
<path d="M565.45,216.82L565.45,190.58L542.73,177.46L535.15,190.58L542.73,203.70L520.00,216.82L520.00,243.07L535.15,243.07L542.73,256.19L565.45,243.07L588.18,256.19L595.76,243.07L588.18,229.95L580.61,216.82 Z" fill="#5b9bd5" fill-opacity="0.8" stroke="#333" stroke-width="0.6" stroke-linejoin="round"/>
<path d="M588.18,229.95L610.91,216.82L610.91,190.58L626.06,190.58L633.64,177.46L610.91,164.34L588.18,177.46L580.61,164.34L565.45,164.34L550.30,164.34L542.73,177.46L565.45,190.58L565.45,216.82L580.61,216.82 Z" fill="#5b9bd5" fill-opacity="0.8" stroke="#333" stroke-width="0.6" stroke-linejoin="round"/>
<path d="M497.27,177.46L474.55,190.58L474.55,216.82L489.70,216.82L497.27,203.70L520.00,216.82L542.73,203.70L535.15,190.58L542.73,177.46L520.00,164.34L520.00,138.09L504.85,138.09L497.27,151.22L489.70,164.34 Z" fill="#5b9bd5" fill-opacity="0.8" stroke="#333" stroke-width="0.6" stroke-linejoin="round"/>
<path d="M542.73,124.97L520.00,111.85L497.27,124.97L504.85,138.09L520.00,138.09L520.00,164.34L542.73,177.46L550.30,164.34L565.45,164.34L565.45,138.09L588.18,124.97L580.61,111.85L565.45,111.85L550.30,111.85 Z" fill="#5b9bd5" fill-opacity="0.8" stroke="#333" stroke-width="0.6" stroke-linejoin="round"/>
<path d="M610.91,138.09L610.91,111.85L588.18,98.73L580.61,111.85L588.18,124.97L565.45,138.09L565.45,164.34L580.61,164.34L588.18,177.46L610.91,164.34L633.64,177.46L641.21,164.34L633.64,151.22L626.06,138.09 Z" fill="#5b9bd5" fill-opacity="0.8" stroke="#333" stroke-width="0.6" stroke-linejoin="round"/>
<path d="M679.09,177.46L701.82,164.34L701.82,138.09L686.67,138.09L679.09,151.22L656.36,138.09L633.64,151.22L641.21,164.34L633.64,177.46L656.36,190.58L656.36,216.82L671.52,216.82L679.09,203.70L686.67,190.58 Z" fill="#5b9bd5" fill-opacity="0.8" stroke="#333" stroke-width="0.6" stroke-linejoin="round"/>
<path d="M633.64,229.95L656.36,243.07L679.09,229.95L671.52,216.82L656.36,216.82L656.36,190.58L633.64,177.46L626.06,190.58L610.91,190.58L610.91,216.82L588.18,229.95L595.76,243.07L610.91,243.07L626.06,243.07 Z" fill="#5b9bd5" fill-opacity="0.8" stroke="#333" stroke-width="0.6" stroke-linejoin="round"/>
<path d="M656.36,111.85L656.36,85.61L633.64,72.49L626.06,85.61L633.64,98.73L610.91,111.85L610.91,138.09L626.06,138.09L633.64,151.22L656.36,138.09L679.09,151.22L686.67,138.09L679.09,124.97L671.52,111.85 Z" fill="#5b9bd5" fill-opacity="0.8" stroke="#333" stroke-width="0.6" stroke-linejoin="round"/>
<path d="M360.91,256.19L338.18,269.31L338.18,295.55L353.33,295.55L360.91,282.43L383.64,295.55L406.36,282.43L398.79,269.31L406.36,256.19L383.64,243.07L383.64,216.82L368.48,216.82L360.91,229.95L353.33,243.07 Z" fill="#5b9bd5" fill-opacity="0.8" stroke="#333" stroke-width="0.6" stroke-linejoin="round"/>
<path d="M360.91,229.95L338.18,216.82L315.45,229.95L307.88,216.82L292.73,216.82L292.73,243.07L315.45,256.19L307.88,269.31L315.45,282.43L323.03,295.55L338.18,295.55L338.18,269.31L360.91,256.19L353.33,243.07 Z" fill="#5b9bd5" fill-opacity="0.8" stroke="#333" stroke-width="0.6" stroke-linejoin="round"/>
<path d="M360.91,334.92L383.64,348.04L406.36,334.92L398.79,321.80L383.64,321.80L383.64,295.55L360.91,282.43L353.33,295.55L338.18,295.55L338.18,321.80L315.45,334.92L323.03,348.04L338.18,348.04L353.33,348.04 Z" fill="#5b9bd5" fill-opacity="0.8" stroke="#333" stroke-width="0.6" stroke-linejoin="round"/>
<path d="M292.73,321.80L292.73,348.04L315.45,361.16L323.03,348.04L315.45,334.92L338.18,321.80L338.18,295.55L323.03,295.55L315.45,282.43L292.73,295.55L270.00,282.43L262.42,295.55L270.00,308.68L277.58,321.80 Z" fill="#5b9bd5" fill-opacity="0.8" stroke="#333" stroke-width="0.6" stroke-linejoin="round"/>
<path d="M270.00,256.19L247.27,269.31L247.27,295.55L262.42,295.55L270.00,282.43L292.73,295.55L315.45,282.43L307.88,269.31L315.45,256.19L292.73,243.07L292.73,216.82L277.58,216.82L270.00,229.95L262.42,243.07 Z" fill="#5b9bd5" fill-opacity="0.8" stroke="#333" stroke-width="0.6" stroke-linejoin="round"/>
<path d="M270.00,177.46L247.27,164.34L224.55,177.46L232.12,190.58L247.27,190.58L247.27,216.82L270.00,229.95L277.58,216.82L292.73,216.82L292.73,190.58L315.45,177.46L307.88,164.34L292.73,164.34L277.58,164.34 Z" fill="#5b9bd5" fill-opacity="0.8" stroke="#333" stroke-width="0.6" stroke-linejoin="round"/>
<path d="M338.18,190.58L338.18,164.34L315.45,151.22L307.88,164.34L315.45,177.46L292.73,190.58L292.73,216.82L307.88,216.82L315.45,229.95L338.18,216.82L360.91,229.95L368.48,216.82L360.91,203.70L353.33,190.58 Z" fill="#5b9bd5" fill-opacity="0.8" stroke="#333" stroke-width="0.6" stroke-linejoin="round"/>
<path d="M224.55,229.95L201.82,243.07L201.82,269.31L216.97,269.31L224.55,256.19L247.27,269.31L270.00,256.19L262.42,243.07L270.00,229.95L247.27,216.82L247.27,190.58L232.12,190.58L224.55,203.70L216.97,216.82 Z" fill="#5b9bd5" fill-opacity="0.8" stroke="#333" stroke-width="0.6" stroke-linejoin="round"/>
<path d="M224.55,518.62L247.27,531.74L270.00,518.62L262.42,505.50L247.27,505.50L247.27,479.26L224.55,466.13L216.97,479.26L201.82,479.26L201.82,505.50L179.09,518.62L186.67,531.74L201.82,531.74L216.97,531.74 Z" fill="#f39c12" fill-opacity="0.8" stroke="#333" stroke-width="0.6" stroke-linejoin="round"/>
<path d="M201.82,531.74L201.82,557.99L224.55,571.11L216.97,584.23L224.55,597.35L247.27,584.23L247.27,557.99L262.42,557.99L270.00,544.86L277.58,531.74L270.00,518.62L247.27,531.74L224.55,518.62L216.97,531.74 Z" fill="#f39c12" fill-opacity="0.8" stroke="#333" stroke-width="0.6" stroke-linejoin="round"/>
<path d="M292.73,479.26L292.73,453.01L270.00,439.89L262.42,453.01L270.00,466.13L247.27,479.26L247.27,505.50L262.42,505.50L270.00,518.62L292.73,505.50L315.45,518.62L323.03,505.50L315.45,492.38L307.88,479.26 Z" fill="#f39c12" fill-opacity="0.8" stroke="#333" stroke-width="0.6" stroke-linejoin="round"/>
<path d="M315.45,544.86L338.18,531.74L338.18,505.50L323.03,505.50L315.45,518.62L292.73,505.50L270.00,518.62L277.58,531.74L270.00,544.86L292.73,557.99L292.73,584.23L307.88,584.23L315.45,571.11L323.03,557.99 Z" fill="#f39c12" fill-opacity="0.8" stroke="#333" stroke-width="0.6" stroke-linejoin="round"/>
<path d="M270.00,597.35L292.73,610.47L315.45,597.35L307.88,584.23L292.73,584.23L292.73,557.99L270.00,544.86L262.42,557.99L247.27,557.99L247.27,584.23L224.55,597.35L232.12,610.47L247.27,610.47L262.42,610.47 Z" fill="#f39c12" fill-opacity="0.8" stroke="#333" stroke-width="0.6" stroke-linejoin="round"/>
<path d="M201.82,636.72L201.82,662.96L224.55,676.08L232.12,662.96L224.55,649.84L247.27,636.72L247.27,610.47L232.12,610.47L224.55,597.35L201.82,610.47L179.09,597.35L171.52,610.47L179.09,623.59L186.67,636.72 Z" fill="#f39c12" fill-opacity="0.8" stroke="#333" stroke-width="0.6" stroke-linejoin="round"/>
<path d="M179.09,571.11L156.36,584.23L156.36,610.47L171.52,610.47L179.09,597.35L201.82,610.47L224.55,597.35L216.97,584.23L224.55,571.11L201.82,557.99L201.82,531.74L186.67,531.74L179.09,544.86L171.52,557.99 Z" fill="#f39c12" fill-opacity="0.8" stroke="#333" stroke-width="0.6" stroke-linejoin="round"/>
<path d="M338.18,453.01L338.18,426.77L315.45,413.65L307.88,426.77L315.45,439.89L292.73,453.01L292.73,479.26L307.88,479.26L315.45,492.38L338.18,479.26L360.91,492.38L368.48,479.26L360.91,466.13L353.33,453.01 Z" fill="#f39c12" fill-opacity="0.8" stroke="#333" stroke-width="0.6" stroke-linejoin="round"/>
<path d="M360.91,466.13L383.64,453.01L383.64,426.77L398.79,426.77L406.36,413.65L383.64,400.53L360.91,413.65L353.33,400.53L338.18,400.53L323.03,400.53L315.45,413.65L338.18,426.77L338.18,453.01L353.33,453.01 Z" fill="#f39c12" fill-opacity="0.8" stroke="#333" stroke-width="0.6" stroke-linejoin="round"/>
<path d="M270.00,413.65L247.27,426.77L247.27,453.01L262.42,453.01L270.00,439.89L292.73,453.01L315.45,439.89L307.88,426.77L315.45,413.65L292.73,400.53L292.73,374.28L277.58,374.28L270.00,387.40L262.42,400.53 Z" fill="#f39c12" fill-opacity="0.8" stroke="#333" stroke-width="0.6" stroke-linejoin="round"/>
<path d="M315.45,361.16L292.73,348.04L270.00,361.16L277.58,374.28L292.73,374.28L292.73,400.53L315.45,413.65L323.03,400.53L338.18,400.53L338.18,374.28L360.91,361.16L353.33,348.04L338.18,348.04L323.03,348.04 Z" fill="#f39c12" fill-opacity="0.8" stroke="#333" stroke-width="0.6" stroke-linejoin="round"/>
<path d="M383.64,374.28L383.64,348.04L360.91,334.92L353.33,348.04L360.91,361.16L338.18,374.28L338.18,400.53L353.33,400.53L360.91,413.65L383.64,400.53L406.36,413.65L413.94,400.53L406.36,387.40L398.79,374.28 Z" fill="#f39c12" fill-opacity="0.8" stroke="#333" stroke-width="0.6" stroke-linejoin="round"/>
<path d="M451.82,413.65L474.55,400.53L474.55,374.28L459.39,374.28L451.82,387.40L429.09,374.28L406.36,387.40L413.94,400.53L406.36,413.65L429.09,426.77L429.09,453.01L444.24,453.01L451.82,439.89L459.39,426.77 Z" fill="#f39c12" fill-opacity="0.8" stroke="#333" stroke-width="0.6" stroke-linejoin="round"/>
<path d="M406.36,466.13L429.09,479.26L451.82,466.13L444.24,453.01L429.09,453.01L429.09,426.77L406.36,413.65L398.79,426.77L383.64,426.77L383.64,453.01L360.91,466.13L368.48,479.26L383.64,479.26L398.79,479.26 Z" fill="#f39c12" fill-opacity="0.8" stroke="#333" stroke-width="0.6" stroke-linejoin="round"/>
<path d="M429.09,348.04L429.09,321.80L406.36,308.68L398.79,321.80L406.36,334.92L383.64,348.04L383.64,374.28L398.79,374.28L406.36,387.40L429.09,374.28L451.82,387.40L459.39,374.28L451.82,361.16L444.24,348.04 Z" fill="#f39c12" fill-opacity="0.8" stroke="#333" stroke-width="0.6" stroke-linejoin="round"/>
<path d="M360.91,571.11L383.64,557.99L383.64,531.74L368.48,531.74L360.91,544.86L338.18,531.74L315.45,544.86L323.03,557.99L315.45,571.11L338.18,584.23L338.18,610.47L353.33,610.47L360.91,597.35L368.48,584.23 Z" fill="#f39c12" fill-opacity="0.8" stroke="#333" stroke-width="0.6" stroke-linejoin="round"/>
<path d="M360.91,597.35L383.64,610.47L406.36,597.35L413.94,610.47L429.09,610.47L429.09,584.23L406.36,571.11L413.94,557.99L406.36,544.86L398.79,531.74L383.64,531.74L383.64,557.99L360.91,571.11L368.48,584.23 Z" fill="#f39c12" fill-opacity="0.8" stroke="#333" stroke-width="0.6" stroke-linejoin="round"/>
<path d="M360.91,492.38L338.18,479.26L315.45,492.38L323.03,505.50L338.18,505.50L338.18,531.74L360.91,544.86L368.48,531.74L383.64,531.74L383.64,505.50L406.36,492.38L398.79,479.26L383.64,479.26L368.48,479.26 Z" fill="#f39c12" fill-opacity="0.8" stroke="#333" stroke-width="0.6" stroke-linejoin="round"/>
<path d="M429.09,505.50L429.09,479.26L406.36,466.13L398.79,479.26L406.36,492.38L383.64,505.50L383.64,531.74L398.79,531.74L406.36,544.86L429.09,531.74L451.82,544.86L459.39,531.74L451.82,518.62L444.24,505.50 Z" fill="#f39c12" fill-opacity="0.8" stroke="#333" stroke-width="0.6" stroke-linejoin="round"/>
<path d="M451.82,571.11L474.55,557.99L474.55,531.74L459.39,531.74L451.82,544.86L429.09,531.74L406.36,544.86L413.94,557.99L406.36,571.11L429.09,584.23L429.09,610.47L444.24,610.47L451.82,597.35L459.39,584.23 Z" fill="#f39c12" fill-opacity="0.8" stroke="#333" stroke-width="0.6" stroke-linejoin="round"/>
<path d="M451.82,649.84L474.55,662.96L497.27,649.84L489.70,636.72L474.55,636.72L474.55,610.47L451.82,597.35L444.24,610.47L429.09,610.47L429.09,636.72L406.36,649.84L413.94,662.96L429.09,662.96L444.24,662.96 Z" fill="#f39c12" fill-opacity="0.8" stroke="#333" stroke-width="0.6" stroke-linejoin="round"/>
<path d="M383.64,636.72L383.64,662.96L406.36,676.08L413.94,662.96L406.36,649.84L429.09,636.72L429.09,610.47L413.94,610.47L406.36,597.35L383.64,610.47L360.91,597.35L353.33,610.47L360.91,623.59L368.48,636.72 Z" fill="#f39c12" fill-opacity="0.8" stroke="#333" stroke-width="0.6" stroke-linejoin="round"/>
<path d="M497.27,597.35L520.00,584.23L520.00,557.99L504.85,557.99L497.27,571.11L474.55,557.99L451.82,571.11L459.39,584.23L451.82,597.35L474.55,610.47L474.55,636.72L489.70,636.72L497.27,623.59L504.85,610.47 Z" fill="#f39c12" fill-opacity="0.8" stroke="#333" stroke-width="0.6" stroke-linejoin="round"/>
<path d="M270.00,649.84L292.73,662.96L315.45,649.84L307.88,636.72L292.73,636.72L292.73,610.47L270.00,597.35L262.42,610.47L247.27,610.47L247.27,636.72L224.55,649.84L232.12,662.96L247.27,662.96L262.42,662.96 Z" fill="#f39c12" fill-opacity="0.8" stroke="#333" stroke-width="0.6" stroke-linejoin="round"/>
<path d="M247.27,662.96L247.27,689.20L270.00,702.32L262.42,715.44L270.00,728.57L292.73,715.44L292.73,689.20L307.88,689.20L315.45,676.08L323.03,662.96L315.45,649.84L292.73,662.96L270.00,649.84L262.42,662.96 Z" fill="#f39c12" fill-opacity="0.8" stroke="#333" stroke-width="0.6" stroke-linejoin="round"/>
<path d="M338.18,610.47L338.18,584.23L315.45,571.11L307.88,584.23L315.45,597.35L292.73,610.47L292.73,636.72L307.88,636.72L315.45,649.84L338.18,636.72L360.91,649.84L368.48,636.72L360.91,623.59L353.33,610.47 Z" fill="#f39c12" fill-opacity="0.8" stroke="#333" stroke-width="0.6" stroke-linejoin="round"/>
<path d="M360.91,676.08L383.64,662.96L383.64,636.72L368.48,636.72L360.91,649.84L338.18,636.72L315.45,649.84L323.03,662.96L315.45,676.08L338.18,689.20L338.18,715.44L353.33,715.44L360.91,702.32L368.48,689.20 Z" fill="#f39c12" fill-opacity="0.8" stroke="#333" stroke-width="0.6" stroke-linejoin="round"/>
<path d="M315.45,728.57L338.18,741.69L360.91,728.57L353.33,715.44L338.18,715.44L338.18,689.20L315.45,676.08L307.88,689.20L292.73,689.20L292.73,715.44L270.00,728.57L277.58,741.69L292.73,741.69L307.88,741.69 Z" fill="#f39c12" fill-opacity="0.8" stroke="#333" stroke-width="0.6" stroke-linejoin="round"/>
<path d="M247.27,767.93L247.27,794.17L270.00,807.30L277.58,794.17L270.00,781.05L292.73,767.93L292.73,741.69L277.58,741.69L270.00,728.57L247.27,741.69L224.55,728.57L216.97,741.69L224.55,754.81L232.12,767.93 Z" fill="#f39c12" fill-opacity="0.8" stroke="#333" stroke-width="0.6" stroke-linejoin="round"/>
<path d="M224.55,702.32L201.82,715.44L201.82,741.69L216.97,741.69L224.55,728.57L247.27,741.69L270.00,728.57L262.42,715.44L270.00,702.32L247.27,689.20L247.27,662.96L232.12,662.96L224.55,676.08L216.97,689.20 Z" fill="#f39c12" fill-opacity="0.8" stroke="#333" stroke-width="0.6" stroke-linejoin="round"/>
<path d="M315.45,781.05L338.18,794.17L360.91,781.05L353.33,767.93L338.18,767.93L338.18,741.69L315.45,728.57L307.88,741.69L292.73,741.69L292.73,767.93L270.00,781.05L277.58,794.17L292.73,794.17L307.88,794.17 Z" fill="#f39c12" fill-opacity="0.8" stroke="#333" stroke-width="0.6" stroke-linejoin="round"/>
<path d="M201.82,794.17L201.82,820.42L224.55,833.54L232.12,820.42L224.55,807.30L247.27,794.17L247.27,767.93L232.12,767.93L224.55,754.81L201.82,767.93L179.09,754.81L171.52,767.93L179.09,781.05L186.67,794.17 Z" fill="#f39c12" fill-opacity="0.8" stroke="#333" stroke-width="0.6" stroke-linejoin="round"/>
<path d="M179.09,781.05L156.36,794.17L156.36,820.42L141.21,820.42L133.64,833.54L156.36,846.66L179.09,833.54L186.67,846.66L201.82,846.66L216.97,846.66L224.55,833.54L201.82,820.42L201.82,794.17L186.67,794.17 Z" fill="#f39c12" fill-opacity="0.8" stroke="#333" stroke-width="0.6" stroke-linejoin="round"/>
<path d="M270.00,833.54L292.73,820.42L292.73,794.17L277.58,794.17L270.00,807.30L247.27,794.17L224.55,807.30L232.12,820.42L224.55,833.54L247.27,846.66L247.27,872.90L262.42,872.90L270.00,859.78L277.58,846.66 Z" fill="#f39c12" fill-opacity="0.8" stroke="#333" stroke-width="0.6" stroke-linejoin="round"/>
<path d="M224.55,886.03L247.27,899.15L270.00,886.03L262.42,872.90L247.27,872.90L247.27,846.66L224.55,833.54L216.97,846.66L201.82,846.66L201.82,872.90L179.09,886.03L186.67,899.15L201.82,899.15L216.97,899.15 Z" fill="#f39c12" fill-opacity="0.8" stroke="#333" stroke-width="0.6" stroke-linejoin="round"/>
<path d="M156.36,872.90L156.36,899.15L179.09,912.27L186.67,899.15L179.09,886.03L201.82,872.90L201.82,846.66L186.67,846.66L179.09,833.54L156.36,846.66L133.64,833.54L126.06,846.66L133.64,859.78L141.21,872.90 Z" fill="#f39c12" fill-opacity="0.8" stroke="#333" stroke-width="0.6" stroke-linejoin="round"/>
<path d="M88.18,833.54L65.45,846.66L65.45,872.90L80.61,872.90L88.18,859.78L110.91,872.90L133.64,859.78L126.06,846.66L133.64,833.54L110.91,820.42L110.91,794.17L95.76,794.17L88.18,807.30L80.61,820.42 Z" fill="#f39c12" fill-opacity="0.8" stroke="#333" stroke-width="0.6" stroke-linejoin="round"/>
<path d="M133.64,781.05L110.91,767.93L88.18,781.05L95.76,794.17L110.91,794.17L110.91,820.42L133.64,833.54L141.21,820.42L156.36,820.42L156.36,794.17L179.09,781.05L171.52,767.93L156.36,767.93L141.21,767.93 Z" fill="#f39c12" fill-opacity="0.8" stroke="#333" stroke-width="0.6" stroke-linejoin="round"/>
<path d="M110.91,899.15L110.91,925.39L133.64,938.51L141.21,925.39L133.64,912.27L156.36,899.15L156.36,872.90L141.21,872.90L133.64,859.78L110.91,872.90L88.18,859.78L80.61,872.90L88.18,886.03L95.76,899.15 Z" fill="#f39c12" fill-opacity="0.8" stroke="#333" stroke-width="0.6" stroke-linejoin="round"/>
<path d="M179.09,676.08L156.36,689.20L156.36,715.44L171.52,715.44L179.09,702.32L201.82,715.44L224.55,702.32L216.97,689.20L224.55,676.08L201.82,662.96L201.82,636.72L186.67,636.72L179.09,649.84L171.52,662.96 Z" fill="#f39c12" fill-opacity="0.8" stroke="#333" stroke-width="0.6" stroke-linejoin="round"/>
<path d="M179.09,649.84L156.36,636.72L133.64,649.84L126.06,636.72L110.91,636.72L110.91,662.96L133.64,676.08L126.06,689.20L133.64,702.32L141.21,715.44L156.36,715.44L156.36,689.20L179.09,676.08L171.52,662.96 Z" fill="#f39c12" fill-opacity="0.8" stroke="#333" stroke-width="0.6" stroke-linejoin="round"/>
<path d="M179.09,754.81L201.82,767.93L224.55,754.81L216.97,741.69L201.82,741.69L201.82,715.44L179.09,702.32L171.52,715.44L156.36,715.44L156.36,741.69L133.64,754.81L141.21,767.93L156.36,767.93L171.52,767.93 Z" fill="#f39c12" fill-opacity="0.8" stroke="#333" stroke-width="0.6" stroke-linejoin="round"/>
<path d="M110.91,741.69L110.91,767.93L133.64,781.05L141.21,767.93L133.64,754.81L156.36,741.69L156.36,715.44L141.21,715.44L133.64,702.32L110.91,715.44L88.18,702.32L80.61,715.44L88.18,728.57L95.76,741.69 Z" fill="#f39c12" fill-opacity="0.8" stroke="#333" stroke-width="0.6" stroke-linejoin="round"/>
<path d="M88.18,676.08L65.45,689.20L65.45,715.44L80.61,715.44L88.18,702.32L110.91,715.44L133.64,702.32L126.06,689.20L133.64,676.08L110.91,662.96L110.91,636.72L95.76,636.72L88.18,649.84L80.61,662.96 Z" fill="#f39c12" fill-opacity="0.8" stroke="#333" stroke-width="0.6" stroke-linejoin="round"/>
<path d="M88.18,597.35L65.45,584.23L42.73,597.35L50.30,610.47L65.45,610.47L65.45,636.72L88.18,649.84L95.76,636.72L110.91,636.72L110.91,610.47L133.64,597.35L126.06,584.23L110.91,584.23L95.76,584.23 Z" fill="#f39c12" fill-opacity="0.8" stroke="#333" stroke-width="0.6" stroke-linejoin="round"/>
<path d="M156.36,610.47L156.36,584.23L133.64,571.11L126.06,584.23L133.64,597.35L110.91,610.47L110.91,636.72L126.06,636.72L133.64,649.84L156.36,636.72L179.09,649.84L186.67,636.72L179.09,623.59L171.52,610.47 Z" fill="#f39c12" fill-opacity="0.8" stroke="#333" stroke-width="0.6" stroke-linejoin="round"/>
<path d="M42.73,649.84L20.00,662.96L20.00,689.20L35.15,689.20L42.73,676.08L65.45,689.20L88.18,676.08L80.61,662.96L88.18,649.84L65.45,636.72L65.45,610.47L50.30,610.47L42.73,623.59L35.15,636.72 Z" fill="#f39c12" fill-opacity="0.8" stroke="#333" stroke-width="0.6" stroke-linejoin="round"/>
<path d="M315.45,833.54L338.18,846.66L360.91,833.54L353.33,820.42L338.18,820.42L338.18,794.17L315.45,781.05L307.88,794.17L292.73,794.17L292.73,820.42L270.00,833.54L277.58,846.66L292.73,846.66L307.88,846.66 Z" fill="#f39c12" fill-opacity="0.8" stroke="#333" stroke-width="0.6" stroke-linejoin="round"/>
<path d="M292.73,846.66L292.73,872.90L315.45,886.03L307.88,899.15L315.45,912.27L338.18,899.15L338.18,872.90L353.33,872.90L360.91,859.78L368.48,846.66L360.91,833.54L338.18,846.66L315.45,833.54L307.88,846.66 Z" fill="#f39c12" fill-opacity="0.8" stroke="#333" stroke-width="0.6" stroke-linejoin="round"/>
<path d="M383.64,794.17L383.64,767.93L360.91,754.81L353.33,767.93L360.91,781.05L338.18,794.17L338.18,820.42L353.33,820.42L360.91,833.54L383.64,820.42L406.36,833.54L413.94,820.42L406.36,807.30L398.79,794.17 Z" fill="#f39c12" fill-opacity="0.8" stroke="#333" stroke-width="0.6" stroke-linejoin="round"/>
<path d="M406.36,859.78L429.09,846.66L429.09,820.42L413.94,820.42L406.36,833.54L383.64,820.42L360.91,833.54L368.48,846.66L360.91,859.78L383.64,872.90L383.64,899.15L398.79,899.15L406.36,886.03L413.94,872.90 Z" fill="#f39c12" fill-opacity="0.8" stroke="#333" stroke-width="0.6" stroke-linejoin="round"/>
<path d="M360.91,912.27L383.64,925.39L406.36,912.27L398.79,899.15L383.64,899.15L383.64,872.90L360.91,859.78L353.33,872.90L338.18,872.90L338.18,899.15L315.45,912.27L323.03,925.39L338.18,925.39L353.33,925.39 Z" fill="#f39c12" fill-opacity="0.8" stroke="#333" stroke-width="0.6" stroke-linejoin="round"/>
<path d="M292.73,951.63L292.73,977.88L315.45,991.00L323.03,977.88L315.45,964.75L338.18,951.63L338.18,925.39L323.03,925.39L315.45,912.27L292.73,925.39L270.00,912.27L262.42,925.39L270.00,938.51L277.58,951.63 Z" fill="#f39c12" fill-opacity="0.8" stroke="#333" stroke-width="0.6" stroke-linejoin="round"/>
<path d="M270.00,886.03L247.27,899.15L247.27,925.39L262.42,925.39L270.00,912.27L292.73,925.39L315.45,912.27L307.88,899.15L315.45,886.03L292.73,872.90L292.73,846.66L277.58,846.66L270.00,859.78L262.42,872.90 Z" fill="#f39c12" fill-opacity="0.8" stroke="#333" stroke-width="0.6" stroke-linejoin="round"/>
<path d="M360.91,964.75L383.64,977.88L406.36,964.75L398.79,951.63L383.64,951.63L383.64,925.39L360.91,912.27L353.33,925.39L338.18,925.39L338.18,951.63L315.45,964.75L323.03,977.88L338.18,977.88L353.33,977.88 Z" fill="#f39c12" fill-opacity="0.8" stroke="#333" stroke-width="0.6" stroke-linejoin="round"/>
<path d="M610.91,820.42L610.91,794.17L588.18,781.05L580.61,794.17L588.18,807.30L565.45,820.42L565.45,846.66L580.61,846.66L588.18,859.78L610.91,846.66L633.64,859.78L641.21,846.66L633.64,833.54L626.06,820.42 Z" fill="#27ae60" fill-opacity="0.8" stroke="#333" stroke-width="0.6" stroke-linejoin="round"/>
<path d="M633.64,833.54L656.36,820.42L656.36,794.17L671.52,794.17L679.09,781.05L656.36,767.93L633.64,781.05L626.06,767.93L610.91,767.93L595.76,767.93L588.18,781.05L610.91,794.17L610.91,820.42L626.06,820.42 Z" fill="#27ae60" fill-opacity="0.8" stroke="#333" stroke-width="0.6" stroke-linejoin="round"/>
<path d="M542.73,781.05L520.00,794.17L520.00,820.42L535.15,820.42L542.73,807.30L565.45,820.42L588.18,807.30L580.61,794.17L588.18,781.05L565.45,767.93L565.45,741.69L550.30,741.69L542.73,754.81L535.15,767.93 Z" fill="#27ae60" fill-opacity="0.8" stroke="#333" stroke-width="0.6" stroke-linejoin="round"/>
<path d="M588.18,728.57L565.45,715.44L542.73,728.57L550.30,741.69L565.45,741.69L565.45,767.93L588.18,781.05L595.76,767.93L610.91,767.93L610.91,741.69L633.64,728.57L626.06,715.44L610.91,715.44L595.76,715.44 Z" fill="#27ae60" fill-opacity="0.8" stroke="#333" stroke-width="0.6" stroke-linejoin="round"/>
<path d="M656.36,741.69L656.36,715.44L633.64,702.32L626.06,715.44L633.64,728.57L610.91,741.69L610.91,767.93L626.06,767.93L633.64,781.05L656.36,767.93L679.09,781.05L686.67,767.93L679.09,754.81L671.52,741.69 Z" fill="#27ae60" fill-opacity="0.8" stroke="#333" stroke-width="0.6" stroke-linejoin="round"/>
<path d="M724.55,781.05L747.27,767.93L747.27,741.69L732.12,741.69L724.55,754.81L701.82,741.69L679.09,754.81L686.67,767.93L679.09,781.05L701.82,794.17L701.82,820.42L716.97,820.42L724.55,807.30L732.12,794.17 Z" fill="#27ae60" fill-opacity="0.8" stroke="#333" stroke-width="0.6" stroke-linejoin="round"/>
<path d="M679.09,833.54L701.82,846.66L724.55,833.54L716.97,820.42L701.82,820.42L701.82,794.17L679.09,781.05L671.52,794.17L656.36,794.17L656.36,820.42L633.64,833.54L641.21,846.66L656.36,846.66L671.52,846.66 Z" fill="#27ae60" fill-opacity="0.8" stroke="#333" stroke-width="0.6" stroke-linejoin="round"/>
<path d="M497.27,754.81L474.55,767.93L474.55,794.17L489.70,794.17L497.27,781.05L520.00,794.17L542.73,781.05L535.15,767.93L542.73,754.81L520.00,741.69L520.00,715.44L504.85,715.44L497.27,728.57L489.70,741.69 Z" fill="#27ae60" fill-opacity="0.8" stroke="#333" stroke-width="0.6" stroke-linejoin="round"/>
<path d="M497.27,728.57L474.55,715.44L451.82,728.57L444.24,715.44L429.09,715.44L429.09,741.69L451.82,754.81L444.24,767.93L451.82,781.05L459.39,794.17L474.55,794.17L474.55,767.93L497.27,754.81L489.70,741.69 Z" fill="#27ae60" fill-opacity="0.8" stroke="#333" stroke-width="0.6" stroke-linejoin="round"/>
<path d="M497.27,833.54L520.00,846.66L542.73,833.54L535.15,820.42L520.00,820.42L520.00,794.17L497.27,781.05L489.70,794.17L474.55,794.17L474.55,820.42L451.82,833.54L459.39,846.66L474.55,846.66L489.70,846.66 Z" fill="#27ae60" fill-opacity="0.8" stroke="#333" stroke-width="0.6" stroke-linejoin="round"/>
<path d="M429.09,820.42L429.09,846.66L451.82,859.78L459.39,846.66L451.82,833.54L474.55,820.42L474.55,794.17L459.39,794.17L451.82,781.05L429.09,794.17L406.36,781.05L398.79,794.17L406.36,807.30L413.94,820.42 Z" fill="#27ae60" fill-opacity="0.8" stroke="#333" stroke-width="0.6" stroke-linejoin="round"/>
<path d="M406.36,754.81L383.64,767.93L383.64,794.17L398.79,794.17L406.36,781.05L429.09,794.17L451.82,781.05L444.24,767.93L451.82,754.81L429.09,741.69L429.09,715.44L413.94,715.44L406.36,728.57L398.79,741.69 Z" fill="#27ae60" fill-opacity="0.8" stroke="#333" stroke-width="0.6" stroke-linejoin="round"/>
<path d="M406.36,676.08L383.64,662.96L360.91,676.08L368.48,689.20L383.64,689.20L383.64,715.44L406.36,728.57L413.94,715.44L429.09,715.44L429.09,689.20L451.82,676.08L444.24,662.96L429.09,662.96L413.94,662.96 Z" fill="#27ae60" fill-opacity="0.8" stroke="#333" stroke-width="0.6" stroke-linejoin="round"/>
<path d="M474.55,689.20L474.55,662.96L451.82,649.84L444.24,662.96L451.82,676.08L429.09,689.20L429.09,715.44L444.24,715.44L451.82,728.57L474.55,715.44L497.27,728.57L504.85,715.44L497.27,702.32L489.70,689.20 Z" fill="#27ae60" fill-opacity="0.8" stroke="#333" stroke-width="0.6" stroke-linejoin="round"/>
<path d="M360.91,728.57L338.18,741.69L338.18,767.93L353.33,767.93L360.91,754.81L383.64,767.93L406.36,754.81L398.79,741.69L406.36,728.57L383.64,715.44L383.64,689.20L368.48,689.20L360.91,702.32L353.33,715.44 Z" fill="#27ae60" fill-opacity="0.8" stroke="#333" stroke-width="0.6" stroke-linejoin="round"/>
<path d="M588.18,676.08L565.45,662.96L542.73,676.08L550.30,689.20L565.45,689.20L565.45,715.44L588.18,728.57L595.76,715.44L610.91,715.44L610.91,689.20L633.64,676.08L626.06,662.96L610.91,662.96L595.76,662.96 Z" fill="#27ae60" fill-opacity="0.8" stroke="#333" stroke-width="0.6" stroke-linejoin="round"/>
<path d="M610.91,662.96L610.91,636.72L588.18,623.59L595.76,610.47L588.18,597.35L565.45,610.47L565.45,636.72L550.30,636.72L542.73,649.84L535.15,662.96L542.73,676.08L565.45,662.96L588.18,676.08L595.76,662.96 Z" fill="#27ae60" fill-opacity="0.8" stroke="#333" stroke-width="0.6" stroke-linejoin="round"/>
<path d="M520.00,715.44L520.00,741.69L542.73,754.81L550.30,741.69L542.73,728.57L565.45,715.44L565.45,689.20L550.30,689.20L542.73,676.08L520.00,689.20L497.27,676.08L489.70,689.20L497.27,702.32L504.85,715.44 Z" fill="#27ae60" fill-opacity="0.8" stroke="#333" stroke-width="0.6" stroke-linejoin="round"/>
<path d="M497.27,649.84L474.55,662.96L474.55,689.20L489.70,689.20L497.27,676.08L520.00,689.20L542.73,676.08L535.15,662.96L542.73,649.84L520.00,636.72L520.00,610.47L504.85,610.47L497.27,623.59L489.70,636.72 Z" fill="#27ae60" fill-opacity="0.8" stroke="#333" stroke-width="0.6" stroke-linejoin="round"/>
<path d="M542.73,597.35L520.00,584.23L497.27,597.35L504.85,610.47L520.00,610.47L520.00,636.72L542.73,649.84L550.30,636.72L565.45,636.72L565.45,610.47L588.18,597.35L580.61,584.23L565.45,584.23L550.30,584.23 Z" fill="#27ae60" fill-opacity="0.8" stroke="#333" stroke-width="0.6" stroke-linejoin="round"/>
<path d="M610.91,557.99L610.91,531.74L588.18,518.62L580.61,531.74L588.18,544.86L565.45,557.99L565.45,584.23L580.61,584.23L588.18,597.35L610.91,584.23L633.64,597.35L641.21,584.23L633.64,571.11L626.06,557.99 Z" fill="#27ae60" fill-opacity="0.8" stroke="#333" stroke-width="0.6" stroke-linejoin="round"/>
<path d="M633.64,623.59L656.36,610.47L656.36,584.23L641.21,584.23L633.64,597.35L610.91,584.23L588.18,597.35L595.76,610.47L588.18,623.59L610.91,636.72L610.91,662.96L626.06,662.96L633.64,649.84L641.21,636.72 Z" fill="#27ae60" fill-opacity="0.8" stroke="#333" stroke-width="0.6" stroke-linejoin="round"/>
<path d="M542.73,544.86L520.00,531.74L497.27,544.86L504.85,557.99L520.00,557.99L520.00,584.23L542.73,597.35L550.30,584.23L565.45,584.23L565.45,557.99L588.18,544.86L580.61,531.74L565.45,531.74L550.30,531.74 Z" fill="#27ae60" fill-opacity="0.8" stroke="#333" stroke-width="0.6" stroke-linejoin="round"/>
<path d="M701.82,715.44L701.82,689.20L679.09,676.08L671.52,689.20L679.09,702.32L656.36,715.44L656.36,741.69L671.52,741.69L679.09,754.81L701.82,741.69L724.55,754.81L732.12,741.69L724.55,728.57L716.97,715.44 Z" fill="#27ae60" fill-opacity="0.8" stroke="#333" stroke-width="0.6" stroke-linejoin="round"/>
<path d="M724.55,728.57L747.27,715.44L747.27,689.20L762.42,689.20L770.00,676.08L747.27,662.96L724.55,676.08L716.97,662.96L701.82,662.96L686.67,662.96L679.09,676.08L701.82,689.20L701.82,715.44L716.97,715.44 Z" fill="#27ae60" fill-opacity="0.8" stroke="#333" stroke-width="0.6" stroke-linejoin="round"/>
<path d="M633.64,676.08L610.91,689.20L610.91,715.44L626.06,715.44L633.64,702.32L656.36,715.44L679.09,702.32L671.52,689.20L679.09,676.08L656.36,662.96L656.36,636.72L641.21,636.72L633.64,649.84L626.06,662.96 Z" fill="#27ae60" fill-opacity="0.8" stroke="#333" stroke-width="0.6" stroke-linejoin="round"/>
<path d="M679.09,623.59L656.36,610.47L633.64,623.59L641.21,636.72L656.36,636.72L656.36,662.96L679.09,676.08L686.67,662.96L701.82,662.96L701.82,636.72L724.55,623.59L716.97,610.47L701.82,610.47L686.67,610.47 Z" fill="#27ae60" fill-opacity="0.8" stroke="#333" stroke-width="0.6" stroke-linejoin="round"/>
<path d="M747.27,636.72L747.27,610.47L724.55,597.35L716.97,610.47L724.55,623.59L701.82,636.72L701.82,662.96L716.97,662.96L724.55,676.08L747.27,662.96L770.00,676.08L777.58,662.96L770.00,649.84L762.42,636.72 Z" fill="#27ae60" fill-opacity="0.8" stroke="#333" stroke-width="0.6" stroke-linejoin="round"/>
<path d="M815.45,676.08L838.18,662.96L838.18,636.72L823.03,636.72L815.45,649.84L792.73,636.72L770.00,649.84L777.58,662.96L770.00,676.08L792.73,689.20L792.73,715.44L807.88,715.44L815.45,702.32L823.03,689.20 Z" fill="#27ae60" fill-opacity="0.8" stroke="#333" stroke-width="0.6" stroke-linejoin="round"/>
<path d="M770.00,728.57L792.73,741.69L815.45,728.57L807.88,715.44L792.73,715.44L792.73,689.20L770.00,676.08L762.42,689.20L747.27,689.20L747.27,715.44L724.55,728.57L732.12,741.69L747.27,741.69L762.42,741.69 Z" fill="#27ae60" fill-opacity="0.8" stroke="#333" stroke-width="0.6" stroke-linejoin="round"/>
<path d="M792.73,610.47L792.73,584.23L770.00,571.11L762.42,584.23L770.00,597.35L747.27,610.47L747.27,636.72L762.42,636.72L770.00,649.84L792.73,636.72L815.45,649.84L823.03,636.72L815.45,623.59L807.88,610.47 Z" fill="#27ae60" fill-opacity="0.8" stroke="#333" stroke-width="0.6" stroke-linejoin="round"/>
<path d="M860.91,702.32L883.64,689.20L883.64,662.96L868.48,662.96L860.91,676.08L838.18,662.96L815.45,676.08L823.03,689.20L815.45,702.32L838.18,715.44L838.18,741.69L853.33,741.69L860.91,728.57L868.48,715.44 Z" fill="#27ae60" fill-opacity="0.8" stroke="#333" stroke-width="0.6" stroke-linejoin="round"/>
<path d="M860.91,728.57L883.64,741.69L906.36,728.57L913.94,741.69L929.09,741.69L929.09,715.44L906.36,702.32L913.94,689.20L906.36,676.08L898.79,662.96L883.64,662.96L883.64,689.20L860.91,702.32L868.48,715.44 Z" fill="#27ae60" fill-opacity="0.8" stroke="#333" stroke-width="0.6" stroke-linejoin="round"/>
<path d="M860.91,623.59L838.18,610.47L815.45,623.59L823.03,636.72L838.18,636.72L838.18,662.96L860.91,676.08L868.48,662.96L883.64,662.96L883.64,636.72L906.36,623.59L898.79,610.47L883.64,610.47L868.48,610.47 Z" fill="#27ae60" fill-opacity="0.8" stroke="#333" stroke-width="0.6" stroke-linejoin="round"/>
<path d="M929.09,636.72L929.09,610.47L906.36,597.35L898.79,610.47L906.36,623.59L883.64,636.72L883.64,662.96L898.79,662.96L906.36,676.08L929.09,662.96L951.82,676.08L959.39,662.96L951.82,649.84L944.24,636.72 Z" fill="#27ae60" fill-opacity="0.8" stroke="#333" stroke-width="0.6" stroke-linejoin="round"/>
<path d="M951.82,702.32L974.55,689.20L974.55,662.96L959.39,662.96L951.82,676.08L929.09,662.96L906.36,676.08L913.94,689.20L906.36,702.32L929.09,715.44L929.09,741.69L944.24,741.69L951.82,728.57L959.39,715.44 Z" fill="#27ae60" fill-opacity="0.8" stroke="#333" stroke-width="0.6" stroke-linejoin="round"/>
<path d="M951.82,781.05L974.55,794.17L997.27,781.05L989.70,767.93L974.55,767.93L974.55,741.69L951.82,728.57L944.24,741.69L929.09,741.69L929.09,767.93L906.36,781.05L913.94,794.17L929.09,794.17L944.24,794.17 Z" fill="#27ae60" fill-opacity="0.8" stroke="#333" stroke-width="0.6" stroke-linejoin="round"/>
<path d="M883.64,767.93L883.64,794.17L906.36,807.30L913.94,794.17L906.36,781.05L929.09,767.93L929.09,741.69L913.94,741.69L906.36,728.57L883.64,741.69L860.91,728.57L853.33,741.69L860.91,754.81L868.48,767.93 Z" fill="#27ae60" fill-opacity="0.8" stroke="#333" stroke-width="0.6" stroke-linejoin="round"/>
<path d="M997.27,728.57L1020.00,715.44L1020.00,689.20L1004.85,689.20L997.27,702.32L974.55,689.20L951.82,702.32L959.39,715.44L951.82,728.57L974.55,741.69L974.55,767.93L989.70,767.93L997.27,754.81L1004.85,741.69 Z" fill="#27ae60" fill-opacity="0.8" stroke="#333" stroke-width="0.6" stroke-linejoin="round"/>
<path d="M770.00,781.05L792.73,794.17L815.45,781.05L807.88,767.93L792.73,767.93L792.73,741.69L770.00,728.57L762.42,741.69L747.27,741.69L747.27,767.93L724.55,781.05L732.12,794.17L747.27,794.17L762.42,794.17 Z" fill="#27ae60" fill-opacity="0.8" stroke="#333" stroke-width="0.6" stroke-linejoin="round"/>
<path d="M747.27,794.17L747.27,820.42L770.00,833.54L762.42,846.66L770.00,859.78L792.73,846.66L792.73,820.42L807.88,820.42L815.45,807.30L823.03,794.17L815.45,781.05L792.73,794.17L770.00,781.05L762.42,794.17 Z" fill="#27ae60" fill-opacity="0.8" stroke="#333" stroke-width="0.6" stroke-linejoin="round"/>
<path d="M838.18,741.69L838.18,715.44L815.45,702.32L807.88,715.44L815.45,728.57L792.73,741.69L792.73,767.93L807.88,767.93L815.45,781.05L838.18,767.93L860.91,781.05L868.48,767.93L860.91,754.81L853.33,741.69 Z" fill="#27ae60" fill-opacity="0.8" stroke="#333" stroke-width="0.6" stroke-linejoin="round"/>
<path d="M860.91,807.30L883.64,794.17L883.64,767.93L868.48,767.93L860.91,781.05L838.18,767.93L815.45,781.05L823.03,794.17L815.45,807.30L838.18,820.42L838.18,846.66L853.33,846.66L860.91,833.54L868.48,820.42 Z" fill="#27ae60" fill-opacity="0.8" stroke="#333" stroke-width="0.6" stroke-linejoin="round"/>
<path d="M815.45,859.78L838.18,872.90L860.91,859.78L853.33,846.66L838.18,846.66L838.18,820.42L815.45,807.30L807.88,820.42L792.73,820.42L792.73,846.66L770.00,859.78L777.58,872.90L792.73,872.90L807.88,872.90 Z" fill="#27ae60" fill-opacity="0.8" stroke="#333" stroke-width="0.6" stroke-linejoin="round"/>
<path d="M747.27,899.15L747.27,925.39L770.00,938.51L777.58,925.39L770.00,912.27L792.73,899.15L792.73,872.90L777.58,872.90L770.00,859.78L747.27,872.90L724.55,859.78L716.97,872.90L724.55,886.03L732.12,899.15 Z" fill="#27ae60" fill-opacity="0.8" stroke="#333" stroke-width="0.6" stroke-linejoin="round"/>
<path d="M724.55,833.54L701.82,846.66L701.82,872.90L716.97,872.90L724.55,859.78L747.27,872.90L770.00,859.78L762.42,846.66L770.00,833.54L747.27,820.42L747.27,794.17L732.12,794.17L724.55,807.30L716.97,820.42 Z" fill="#27ae60" fill-opacity="0.8" stroke="#333" stroke-width="0.6" stroke-linejoin="round"/>
<path d="M815.45,912.27L838.18,925.39L860.91,912.27L853.33,899.15L838.18,899.15L838.18,872.90L815.45,859.78L807.88,872.90L792.73,872.90L792.73,899.15L770.00,912.27L777.58,925.39L792.73,925.39L807.88,925.39 Z" fill="#27ae60" fill-opacity="0.8" stroke="#333" stroke-width="0.6" stroke-linejoin="round"/>
<path d="M838.18,584.23L838.18,557.99L815.45,544.86L807.88,557.99L815.45,571.11L792.73,584.23L792.73,610.47L807.88,610.47L815.45,623.59L838.18,610.47L860.91,623.59L868.48,610.47L860.91,597.35L853.33,584.23 Z" fill="#27ae60" fill-opacity="0.8" stroke="#333" stroke-width="0.6" stroke-linejoin="round"/>
<path d="M860.91,597.35L883.64,584.23L883.64,557.99L898.79,557.99L906.36,544.86L883.64,531.74L860.91,544.86L853.33,531.74L838.18,531.74L823.03,531.74L815.45,544.86L838.18,557.99L838.18,584.23L853.33,584.23 Z" fill="#27ae60" fill-opacity="0.8" stroke="#333" stroke-width="0.6" stroke-linejoin="round"/>
<path d="M770.00,544.86L747.27,557.99L747.27,584.23L762.42,584.23L770.00,571.11L792.73,584.23L815.45,571.11L807.88,557.99L815.45,544.86L792.73,531.74L792.73,505.50L777.58,505.50L770.00,518.62L762.42,531.74 Z" fill="#27ae60" fill-opacity="0.8" stroke="#333" stroke-width="0.6" stroke-linejoin="round"/>
<path d="M815.45,492.38L792.73,479.26L770.00,492.38L777.58,505.50L792.73,505.50L792.73,531.74L815.45,544.86L823.03,531.74L838.18,531.74L838.18,505.50L860.91,492.38L853.33,479.26L838.18,479.26L823.03,479.26 Z" fill="#27ae60" fill-opacity="0.8" stroke="#333" stroke-width="0.6" stroke-linejoin="round"/>
<path d="M883.64,505.50L883.64,479.26L860.91,466.13L853.33,479.26L860.91,492.38L838.18,505.50L838.18,531.74L853.33,531.74L860.91,544.86L883.64,531.74L906.36,544.86L913.94,531.74L906.36,518.62L898.79,505.50 Z" fill="#27ae60" fill-opacity="0.8" stroke="#333" stroke-width="0.6" stroke-linejoin="round"/>
<path d="M951.82,544.86L974.55,531.74L974.55,505.50L959.39,505.50L951.82,518.62L929.09,505.50L906.36,518.62L913.94,531.74L906.36,544.86L929.09,557.99L929.09,584.23L944.24,584.23L951.82,571.11L959.39,557.99 Z" fill="#27ae60" fill-opacity="0.8" stroke="#333" stroke-width="0.6" stroke-linejoin="round"/>
<path d="M906.36,597.35L929.09,610.47L951.82,597.35L944.24,584.23L929.09,584.23L929.09,557.99L906.36,544.86L898.79,557.99L883.64,557.99L883.64,584.23L860.91,597.35L868.48,610.47L883.64,610.47L898.79,610.47 Z" fill="#27ae60" fill-opacity="0.8" stroke="#333" stroke-width="0.6" stroke-linejoin="round"/>
<path d="M929.09,479.26L929.09,453.01L906.36,439.89L898.79,453.01L906.36,466.13L883.64,479.26L883.64,505.50L898.79,505.50L906.36,518.62L929.09,505.50L951.82,518.62L959.39,505.50L951.82,492.38L944.24,479.26 Z" fill="#27ae60" fill-opacity="0.8" stroke="#333" stroke-width="0.6" stroke-linejoin="round"/>
<circle cx="504.85" cy="557.99" r="6" fill="red"/>
</svg>
