<svg xmlns="http://www.w3.org/2000/svg" width="1080" height="1140">
<rect width="100%" height="100%" fill="white"/>
<path d="M243.38,118.02L222.25,130.21L222.25,154.61L236.33,154.61L243.38,142.41L264.50,154.61L285.63,142.41L278.58,130.21L285.63,118.02L264.50,105.82L264.50,81.43L250.42,81.43L243.38,93.62L236.33,105.82 Z" fill="#5b9bd5" fill-opacity="0.8" stroke="#333" stroke-width="0.3" stroke-linejoin="round"/>
<path d="M243.38,93.62L222.25,81.43L201.13,93.62L194.08,81.43L180.00,81.43L180.00,105.82L201.13,118.02L194.08,130.21L201.13,142.41L208.17,154.61L222.25,154.61L222.25,130.21L243.38,118.02L236.33,105.82 Z" fill="#5b9bd5" fill-opacity="0.8" stroke="#333" stroke-width="0.3" stroke-linejoin="round"/>
<path d="M243.38,191.20L264.50,203.39L285.63,191.20L278.58,179.00L264.50,179.00L264.50,154.61L243.38,142.41L236.33,154.61L222.25,154.61L222.25,179.00L201.13,191.20L208.17,203.39L222.25,203.39L236.33,203.39 Z" fill="#5b9bd5" fill-opacity="0.8" stroke="#333" stroke-width="0.3" stroke-linejoin="round"/>
<path d="M180.00,179.00L180.00,203.39L201.13,215.59L208.17,203.39L201.13,191.20L222.25,179.00L222.25,154.61L208.17,154.61L201.13,142.41L180.00,154.61L158.88,142.41L151.83,154.61L158.88,166.80L165.92,179.00 Z" fill="#5b9bd5" fill-opacity="0.8" stroke="#333" stroke-width="0.3" stroke-linejoin="round"/>
<path d="M158.88,118.02L137.75,130.21L137.75,154.61L151.83,154.61L158.88,142.41L180.00,154.61L201.13,142.41L194.08,130.21L201.13,118.02L180.00,105.82L180.00,81.43L165.92,81.43L158.88,93.62L151.83,105.82 Z" fill="#5b9bd5" fill-opacity="0.8" stroke="#333" stroke-width="0.3" stroke-linejoin="round"/>
<path d="M158.88,44.84L137.75,32.64L116.63,44.84L123.67,57.03L137.75,57.03L137.75,81.43L158.88,93.62L165.92,81.43L180.00,81.43L180.00,57.03L201.13,44.84L194.08,32.64L180.00,32.64L165.92,32.64 Z" fill="#5b9bd5" fill-opacity="0.8" stroke="#333" stroke-width="0.3" stroke-linejoin="round"/>
<path d="M222.25,57.03L222.25,32.64L201.13,20.45L194.08,32.64L201.13,44.84L180.00,57.03L180.00,81.43L194.08,81.43L201.13,93.62L222.25,81.43L243.38,93.62L250.42,81.43L243.38,69.23L236.33,57.03 Z" fill="#5b9bd5" fill-opacity="0.8" stroke="#333" stroke-width="0.3" stroke-linejoin="round"/>
<path d="M116.63,93.62L95.50,105.82L95.50,130.21L109.58,130.21L116.63,118.02L137.75,130.21L158.88,118.02L151.83,105.82L158.88,93.62L137.75,81.43L137.75,57.03L123.67,57.03L116.63,69.23L109.58,81.43 Z" fill="#5b9bd5" fill-opacity="0.8" stroke="#333" stroke-width="0.3" stroke-linejoin="round"/>
<path d="M74.38,191.20L95.50,203.39L116.63,191.20L109.58,179.00L95.50,179.00L95.50,154.61L74.38,142.41L67.33,154.61L53.25,154.61L53.25,179.00L32.13,191.20L39.17,203.39L53.25,203.39L67.33,203.39 Z" fill="#f39c12" fill-opacity="0.8" stroke="#333" stroke-width="0.3" stroke-linejoin="round"/>
<path d="M53.25,203.39L53.25,227.79L74.38,239.98L67.33,252.18L74.38,264.38L95.50,252.18L95.50,227.79L109.58,227.79L116.63,215.59L123.67,203.39L116.63,191.20L95.50,203.39L74.38,191.20L67.33,203.39 Z" fill="#f39c12" fill-opacity="0.8" stroke="#333" stroke-width="0.3" stroke-linejoin="round"/>
<path d="M137.75,154.61L137.75,130.21L116.63,118.02L109.58,130.21L116.63,142.41L95.50,154.61L95.50,179.00L109.58,179.00L116.63,191.20L137.75,179.00L158.88,191.20L165.92,179.00L158.88,166.80L151.83,154.61 Z" fill="#f39c12" fill-opacity="0.8" stroke="#333" stroke-width="0.3" stroke-linejoin="round"/>
<path d="M158.88,215.59L180.00,203.39L180.00,179.00L165.92,179.00L158.88,191.20L137.75,179.00L116.63,191.20L123.67,203.39L116.62,215.59L137.75,227.79L137.75,252.18L151.83,252.18L158.87,239.98L165.92,227.79 Z" fill="#f39c12" fill-opacity="0.8" stroke="#333" stroke-width="0.3" stroke-linejoin="round"/>
<path d="M116.62,264.38L137.75,276.57L158.87,264.38L151.83,252.18L137.75,252.18L137.75,227.79L116.63,215.59L109.58,227.79L95.50,227.79L95.50,252.18L74.37,264.38L81.42,276.57L95.50,276.57L109.58,276.57 Z" fill="#f39c12" fill-opacity="0.8" stroke="#333" stroke-width="0.3" stroke-linejoin="round"/>
<path d="M53.25,300.97L53.25,325.36L74.37,337.55L81.42,325.36L74.37,313.16L95.50,300.97L95.50,276.57L81.42,276.57L74.38,264.38L53.25,276.57L32.13,264.38L25.08,276.57L32.12,288.77L39.17,300.97 Z" fill="#f39c12" fill-opacity="0.8" stroke="#333" stroke-width="0.3" stroke-linejoin="round"/>
<path d="M32.13,239.98L11.00,252.18L11.00,276.57L25.08,276.57L32.13,264.38L53.25,276.57L74.38,264.38L67.33,252.18L74.38,239.98L53.25,227.79L53.25,203.39L39.17,203.39L32.13,215.59L25.08,227.79 Z" fill="#f39c12" fill-opacity="0.8" stroke="#333" stroke-width="0.3" stroke-linejoin="round"/>
<path d="M116.62,313.16L137.75,325.36L158.87,313.16L151.83,300.97L137.75,300.97L137.75,276.57L116.63,264.38L109.58,276.57L95.50,276.57L95.50,300.97L74.37,313.16L81.42,325.36L95.50,325.36L109.58,325.36 Z" fill="#f39c12" fill-opacity="0.8" stroke="#333" stroke-width="0.3" stroke-linejoin="round"/>
<path d="M222.25,300.97L222.25,276.57L201.12,264.38L194.08,276.57L201.12,288.77L180.00,300.97L180.00,325.36L194.08,325.36L201.12,337.55L222.25,325.36L243.37,337.55L250.42,325.36L243.37,313.16L236.33,300.97 Z" fill="#27ae60" fill-opacity="0.8" stroke="#333" stroke-width="0.3" stroke-linejoin="round"/>
<path d="M243.37,313.16L264.50,300.97L264.50,276.57L278.58,276.57L285.62,264.38L264.50,252.18L243.37,264.38L236.33,252.18L222.25,252.18L208.17,252.18L201.12,264.38L222.25,276.57L222.25,300.97L236.33,300.97 Z" fill="#27ae60" fill-opacity="0.8" stroke="#333" stroke-width="0.3" stroke-linejoin="round"/>
<path d="M158.87,264.38L137.75,276.57L137.75,300.97L151.83,300.97L158.87,288.77L180.00,300.97L201.12,288.77L194.08,276.57L201.12,264.38L180.00,252.18L180.00,227.79L165.92,227.79L158.87,239.98L151.83,252.18 Z" fill="#27ae60" fill-opacity="0.8" stroke="#333" stroke-width="0.3" stroke-linejoin="round"/>
<path d="M201.12,215.59L180.00,203.39L158.88,215.59L165.92,227.79L180.00,227.79L180.00,252.18L201.12,264.38L208.17,252.18L222.25,252.18L222.25,227.79L243.38,215.59L236.33,203.39L222.25,203.39L208.17,203.39 Z" fill="#27ae60" fill-opacity="0.8" stroke="#333" stroke-width="0.3" stroke-linejoin="round"/>
<path d="M264.50,227.79L264.50,203.39L243.38,191.20L236.33,203.39L243.38,215.59L222.25,227.79L222.25,252.18L236.33,252.18L243.37,264.38L264.50,252.18L285.62,264.38L292.67,252.18L285.62,239.98L278.58,227.79 Z" fill="#27ae60" fill-opacity="0.8" stroke="#333" stroke-width="0.3" stroke-linejoin="round"/>
<path d="M327.87,264.38L349.00,252.18L349.00,227.79L334.92,227.79L327.87,239.98L306.75,227.79L285.62,239.98L292.67,252.18L285.62,264.38L306.75,276.57L306.75,300.97L320.83,300.97L327.87,288.77L334.92,276.57 Z" fill="#27ae60" fill-opacity="0.8" stroke="#333" stroke-width="0.3" stroke-linejoin="round"/>
<path d="M285.62,313.16L306.75,325.36L327.87,313.16L320.83,300.97L306.75,300.97L306.75,276.57L285.62,264.38L278.58,276.57L264.50,276.57L264.50,300.97L243.37,313.16L250.42,325.36L264.50,325.36L278.58,325.36 Z" fill="#27ae60" fill-opacity="0.8" stroke="#333" stroke-width="0.3" stroke-linejoin="round"/>
<path d="M306.75,203.39L306.75,179.00L285.63,166.80L278.58,179.00L285.62,191.20L264.50,203.39L264.50,227.79L278.58,227.79L285.62,239.98L306.75,227.79L327.88,239.98L334.92,227.79L327.88,215.59L320.83,203.39 Z" fill="#27ae60" fill-opacity="0.8" stroke="#333" stroke-width="0.3" stroke-linejoin="round"/>
<circle cx="180.00" cy="203.39" r="4" fill="red"/>
<text x="180.0" y="374.0" text-anchor="middle" font-size="13" font-family="sans-serif" fill="#222">#1  r=2.249  edges=8</text>
<path d="M560.91,251.43L540.00,263.50L540.00,287.64L553.94,287.64L560.91,275.57L581.82,287.64L602.72,275.57L595.76,263.50L602.72,251.43L581.82,239.36L581.82,215.21L567.88,215.21L560.91,227.29L553.94,239.36 Z" fill="#5b9bd5" fill-opacity="0.8" stroke="#333" stroke-width="0.3" stroke-linejoin="round"/>
<path d="M560.91,227.29L540.00,215.21L519.09,227.29L512.12,215.21L498.18,215.21L498.18,239.36L519.09,251.43L512.12,263.50L519.09,275.57L526.06,287.64L540.00,287.64L540.00,263.50L560.91,251.43L553.94,239.36 Z" fill="#5b9bd5" fill-opacity="0.8" stroke="#333" stroke-width="0.3" stroke-linejoin="round"/>
<path d="M560.91,323.86L581.82,335.93L602.72,323.86L595.76,311.79L581.82,311.79L581.82,287.64L560.91,275.57L553.94,287.64L540.00,287.64L540.00,311.79L519.09,323.86L526.06,335.93L540.00,335.93L553.94,335.93 Z" fill="#5b9bd5" fill-opacity="0.8" stroke="#333" stroke-width="0.3" stroke-linejoin="round"/>
<path d="M498.18,311.79L498.18,335.93L519.09,348.00L526.06,335.93L519.09,323.86L540.00,311.79L540.00,287.64L526.06,287.64L519.09,275.57L498.18,287.64L477.28,275.57L470.31,287.64L477.28,299.71L484.24,311.79 Z" fill="#5b9bd5" fill-opacity="0.8" stroke="#333" stroke-width="0.3" stroke-linejoin="round"/>
<path d="M477.28,251.43L456.37,263.50L456.37,287.64L470.31,287.64L477.28,275.57L498.18,287.64L519.09,275.57L512.12,263.50L519.09,251.43L498.18,239.36L498.18,215.21L484.24,215.21L477.28,227.29L470.31,239.36 Z" fill="#5b9bd5" fill-opacity="0.8" stroke="#333" stroke-width="0.3" stroke-linejoin="round"/>
<path d="M477.28,179.00L456.37,166.93L435.46,179.00L442.43,191.07L456.37,191.07L456.37,215.21L477.28,227.29L484.24,215.21L498.18,215.21L498.18,191.07L519.09,179.00L512.12,166.93L498.18,166.93L484.24,166.93 Z" fill="#5b9bd5" fill-opacity="0.8" stroke="#333" stroke-width="0.3" stroke-linejoin="round"/>
<path d="M540.00,191.07L540.00,166.93L519.09,154.86L512.12,166.93L519.09,179.00L498.18,191.07L498.18,215.21L512.12,215.21L519.09,227.29L540.00,215.21L560.91,227.29L567.88,215.21L560.91,203.14L553.94,191.07 Z" fill="#5b9bd5" fill-opacity="0.8" stroke="#333" stroke-width="0.3" stroke-linejoin="round"/>
<path d="M435.46,227.29L414.55,239.36L414.55,263.50L428.49,263.50L435.46,251.43L456.37,263.50L477.28,251.43L470.31,239.36L477.28,227.29L456.37,215.21L456.37,191.07L442.43,191.07L435.46,203.14L428.49,215.21 Z" fill="#5b9bd5" fill-opacity="0.8" stroke="#333" stroke-width="0.3" stroke-linejoin="round"/>
<path d="M602.72,106.57L623.63,118.64L644.54,106.57L637.57,94.50L623.63,94.50L623.63,70.36L602.72,58.29L595.76,70.36L581.82,70.36L581.82,94.50L560.91,106.57L567.88,118.64L581.82,118.64L595.76,118.64 Z" fill="#f39c12" fill-opacity="0.8" stroke="#333" stroke-width="0.3" stroke-linejoin="round"/>
<path d="M581.82,118.64L581.82,142.79L602.72,154.86L595.76,166.93L602.72,179.00L623.63,166.93L623.63,142.79L637.57,142.79L644.54,130.71L651.51,118.64L644.54,106.57L623.63,118.64L602.72,106.57L595.76,118.64 Z" fill="#f39c12" fill-opacity="0.8" stroke="#333" stroke-width="0.3" stroke-linejoin="round"/>
<path d="M665.45,70.36L665.45,46.21L644.54,34.14L637.57,46.21L644.54,58.29L623.63,70.36L623.63,94.50L637.57,94.50L644.54,106.57L665.45,94.50L686.36,106.57L693.33,94.50L686.36,82.43L679.39,70.36 Z" fill="#f39c12" fill-opacity="0.8" stroke="#333" stroke-width="0.3" stroke-linejoin="round"/>
<path d="M686.36,130.71L707.27,118.64L707.27,94.50L693.33,94.50L686.36,106.57L665.45,94.50L644.54,106.57L651.51,118.64L644.54,130.71L665.45,142.79L665.45,166.93L679.39,166.93L686.36,154.86L693.33,142.79 Z" fill="#f39c12" fill-opacity="0.8" stroke="#333" stroke-width="0.3" stroke-linejoin="round"/>
<path d="M644.54,179.00L665.45,191.07L686.36,179.00L679.39,166.93L665.45,166.93L665.45,142.79L644.54,130.71L637.57,142.79L623.63,142.79L623.63,166.93L602.72,179.00L609.69,191.07L623.63,191.07L637.57,191.07 Z" fill="#f39c12" fill-opacity="0.8" stroke="#333" stroke-width="0.3" stroke-linejoin="round"/>
<path d="M581.82,215.21L581.82,239.36L602.72,251.43L609.69,239.36L602.72,227.29L623.63,215.21L623.63,191.07L609.69,191.07L602.72,179.00L581.82,191.07L560.91,179.00L553.94,191.07L560.91,203.14L567.88,215.21 Z" fill="#f39c12" fill-opacity="0.8" stroke="#333" stroke-width="0.3" stroke-linejoin="round"/>
<path d="M560.91,154.86L540.00,166.93L540.00,191.07L553.94,191.07L560.91,179.00L581.82,191.07L602.72,179.00L595.76,166.93L602.72,154.86L581.82,142.79L581.82,118.64L567.88,118.64L560.91,130.71L553.94,142.79 Z" fill="#f39c12" fill-opacity="0.8" stroke="#333" stroke-width="0.3" stroke-linejoin="round"/>
<path d="M644.54,227.29L665.45,239.36L686.36,227.29L679.39,215.21L665.45,215.21L665.45,191.07L644.54,179.00L637.57,191.07L623.63,191.07L623.63,215.21L602.72,227.29L609.69,239.36L623.63,239.36L637.57,239.36 Z" fill="#f39c12" fill-opacity="0.8" stroke="#333" stroke-width="0.3" stroke-linejoin="round"/>
<path d="M456.37,142.79L456.37,118.64L435.46,106.57L428.49,118.64L435.46,130.71L414.55,142.79L414.55,166.93L428.49,166.93L435.46,179.00L456.37,166.93L477.28,179.00L484.24,166.93L477.28,154.86L470.31,142.79 Z" fill="#27ae60" fill-opacity="0.8" stroke="#333" stroke-width="0.3" stroke-linejoin="round"/>
<path d="M477.28,154.86L498.18,142.79L498.18,118.64L512.12,118.64L519.09,106.57L498.18,94.50L477.28,106.57L470.31,94.50L456.37,94.50L442.43,94.50L435.46,106.57L456.37,118.64L456.37,142.79L470.31,142.79 Z" fill="#27ae60" fill-opacity="0.8" stroke="#333" stroke-width="0.3" stroke-linejoin="round"/>
<path d="M393.64,106.57L372.73,118.64L372.73,142.79L386.67,142.79L393.64,130.71L414.55,142.79L435.46,130.71L428.49,118.64L435.46,106.57L414.55,94.50L414.55,70.36L400.61,70.36L393.64,82.43L386.67,94.50 Z" fill="#27ae60" fill-opacity="0.8" stroke="#333" stroke-width="0.3" stroke-linejoin="round"/>
<path d="M435.46,58.29L414.55,46.21L393.64,58.29L400.61,70.36L414.55,70.36L414.55,94.50L435.46,106.57L442.43,94.50L456.37,94.50L456.37,70.36L477.28,58.29L470.31,46.21L456.37,46.21L442.43,46.21 Z" fill="#27ae60" fill-opacity="0.8" stroke="#333" stroke-width="0.3" stroke-linejoin="round"/>
<path d="M498.18,70.36L498.18,46.21L477.28,34.14L470.31,46.21L477.28,58.29L456.37,70.36L456.37,94.50L470.31,94.50L477.28,106.57L498.18,94.50L519.09,106.57L526.06,94.50L519.09,82.43L512.12,70.36 Z" fill="#27ae60" fill-opacity="0.8" stroke="#333" stroke-width="0.3" stroke-linejoin="round"/>
<path d="M560.91,106.57L581.82,94.50L581.82,70.36L567.88,70.36L560.91,82.43L540.00,70.36L519.09,82.43L526.06,94.50L519.09,106.57L540.00,118.64L540.00,142.79L553.94,142.79L560.91,130.71L567.88,118.64 Z" fill="#27ae60" fill-opacity="0.8" stroke="#333" stroke-width="0.3" stroke-linejoin="round"/>
<path d="M519.09,154.86L540.00,166.93L560.91,154.86L553.94,142.79L540.00,142.79L540.00,118.64L519.09,106.57L512.12,118.64L498.18,118.64L498.18,142.79L477.28,154.86L484.24,166.93L498.18,166.93L512.12,166.93 Z" fill="#27ae60" fill-opacity="0.8" stroke="#333" stroke-width="0.3" stroke-linejoin="round"/>
<path d="M540.00,46.21L540.00,22.07L519.09,10.00L512.12,22.07L519.09,34.14L498.18,46.21L498.18,70.36L512.12,70.36L519.09,82.43L540.00,70.36L560.91,82.43L567.88,70.36L560.91,58.29L553.94,46.21 Z" fill="#27ae60" fill-opacity="0.8" stroke="#333" stroke-width="0.3" stroke-linejoin="round"/>
<circle cx="540.00" cy="166.93" r="4" fill="red"/>
<text x="540.0" y="374.0" text-anchor="middle" font-size="13" font-family="sans-serif" fill="#222">#2  r=2.249  edges=7</text>
<path d="M1018.92,263.50L1000.62,274.06L1000.62,295.19L1012.82,295.19L1018.92,284.62L1037.21,295.19L1055.51,284.63L1049.41,274.06L1055.51,263.50L1037.21,252.94L1037.21,231.81L1025.01,231.81L1018.92,242.38L1012.82,252.94 Z" fill="#5b9bd5" fill-opacity="0.8" stroke="#333" stroke-width="0.3" stroke-linejoin="round"/>
<path d="M1018.92,242.37L1000.62,231.81L982.33,242.38L976.23,231.81L964.03,231.81L964.03,252.94L982.33,263.50L976.23,274.06L982.33,284.62L988.42,295.19L1000.62,295.19L1000.62,274.06L1018.92,263.50L1012.82,252.94 Z" fill="#5b9bd5" fill-opacity="0.8" stroke="#333" stroke-width="0.3" stroke-linejoin="round"/>
<path d="M1018.92,326.88L1037.21,337.44L1055.51,326.88L1049.41,316.31L1037.21,316.31L1037.21,295.19L1018.92,284.62L1012.82,295.19L1000.62,295.19L1000.62,316.31L982.33,326.88L988.42,337.44L1000.62,337.44L1012.82,337.44 Z" fill="#5b9bd5" fill-opacity="0.8" stroke="#333" stroke-width="0.3" stroke-linejoin="round"/>
<path d="M964.03,316.31L964.03,337.44L982.33,348.00L988.42,337.44L982.33,326.88L1000.62,316.31L1000.62,295.19L988.42,295.19L982.33,284.62L964.03,295.19L945.74,284.62L939.64,295.19L945.74,305.75L951.84,316.31 Z" fill="#5b9bd5" fill-opacity="0.8" stroke="#333" stroke-width="0.3" stroke-linejoin="round"/>
<path d="M945.74,263.50L927.44,274.06L927.44,295.19L939.64,295.19L945.74,284.62L964.03,295.19L982.33,284.62L976.23,274.06L982.33,263.50L964.03,252.94L964.03,231.81L951.84,231.81L945.74,242.37L939.64,252.94 Z" fill="#5b9bd5" fill-opacity="0.8" stroke="#333" stroke-width="0.3" stroke-linejoin="round"/>
<path d="M945.74,200.12L927.44,189.56L909.15,200.12L915.25,210.69L927.44,210.69L927.44,231.81L945.74,242.38L951.84,231.81L964.03,231.81L964.03,210.69L982.33,200.12L976.23,189.56L964.03,189.56L951.84,189.56 Z" fill="#5b9bd5" fill-opacity="0.8" stroke="#333" stroke-width="0.3" stroke-linejoin="round"/>
<path d="M1000.62,210.69L1000.62,189.56L982.33,179.00L976.23,189.56L982.33,200.12L964.03,210.69L964.03,231.81L976.23,231.81L982.33,242.38L1000.62,231.81L1018.92,242.38L1025.01,231.81L1018.92,221.25L1012.82,210.69 Z" fill="#5b9bd5" fill-opacity="0.8" stroke="#333" stroke-width="0.3" stroke-linejoin="round"/>
<path d="M909.15,242.37L890.85,252.94L890.85,274.06L903.05,274.06L909.15,263.50L927.44,274.06L945.74,263.50L939.64,252.94L945.74,242.38L927.44,231.81L927.44,210.69L915.25,210.69L909.15,221.25L903.05,231.81 Z" fill="#5b9bd5" fill-opacity="0.8" stroke="#333" stroke-width="0.3" stroke-linejoin="round"/>
<path d="M945.74,73.37L964.03,83.94L982.33,73.37L976.23,62.81L964.03,62.81L964.03,41.69L945.74,31.12L939.64,41.69L927.44,41.69L927.44,62.81L909.15,73.37L915.25,83.94L927.44,83.94L939.64,83.94 Z" fill="#f39c12" fill-opacity="0.8" stroke="#333" stroke-width="0.3" stroke-linejoin="round"/>
<path d="M927.44,83.94L927.44,105.06L945.74,115.62L939.64,126.19L945.74,136.75L964.03,126.19L964.03,105.06L976.23,105.06L982.33,94.50L988.42,83.94L982.33,73.37L964.03,83.94L945.74,73.38L939.64,83.94 Z" fill="#f39c12" fill-opacity="0.8" stroke="#333" stroke-width="0.3" stroke-linejoin="round"/>
<path d="M1000.62,41.69L1000.62,20.56L982.33,10.00L976.23,20.56L982.33,31.12L964.03,41.69L964.03,62.81L976.23,62.81L982.33,73.37L1000.62,62.81L1018.92,73.38L1025.01,62.81L1018.92,52.25L1012.82,41.69 Z" fill="#f39c12" fill-opacity="0.8" stroke="#333" stroke-width="0.3" stroke-linejoin="round"/>
<path d="M1018.92,94.50L1037.21,83.94L1037.21,62.81L1025.01,62.81L1018.92,73.38L1000.62,62.81L982.33,73.37L988.42,83.94L982.33,94.50L1000.62,105.06L1000.62,126.19L1012.82,126.19L1018.92,115.62L1025.01,105.06 Z" fill="#f39c12" fill-opacity="0.8" stroke="#333" stroke-width="0.3" stroke-linejoin="round"/>
<path d="M982.33,136.75L1000.62,147.31L1018.92,136.75L1012.82,126.19L1000.62,126.19L1000.62,105.06L982.33,94.50L976.23,105.06L964.03,105.06L964.03,126.19L945.74,136.75L951.84,147.31L964.03,147.31L976.23,147.31 Z" fill="#f39c12" fill-opacity="0.8" stroke="#333" stroke-width="0.3" stroke-linejoin="round"/>
<path d="M927.44,168.44L927.44,189.56L945.74,200.12L951.84,189.56L945.74,179.00L964.03,168.44L964.03,147.31L951.84,147.31L945.74,136.75L927.44,147.31L909.15,136.75L903.05,147.31L909.15,157.87L915.25,168.44 Z" fill="#f39c12" fill-opacity="0.8" stroke="#333" stroke-width="0.3" stroke-linejoin="round"/>
<path d="M909.15,115.62L890.85,126.19L890.85,147.31L903.05,147.31L909.15,136.75L927.44,147.31L945.74,136.75L939.64,126.19L945.74,115.62L927.44,105.06L927.44,83.94L915.25,83.94L909.15,94.50L903.05,105.06 Z" fill="#f39c12" fill-opacity="0.8" stroke="#333" stroke-width="0.3" stroke-linejoin="round"/>
<path d="M982.33,179.00L1000.62,189.56L1018.92,179.00L1012.82,168.44L1000.62,168.44L1000.62,147.31L982.33,136.75L976.23,147.31L964.03,147.31L964.03,168.44L945.74,179.00L951.84,189.56L964.03,189.56L976.23,189.56 Z" fill="#f39c12" fill-opacity="0.8" stroke="#333" stroke-width="0.3" stroke-linejoin="round"/>
<path d="M817.67,231.81L817.67,210.69L799.38,200.12L793.28,210.69L799.38,221.25L781.08,231.81L781.08,252.94L793.28,252.94L799.38,263.50L817.67,252.94L835.97,263.50L842.07,252.94L835.97,242.37L829.87,231.81 Z" fill="#27ae60" fill-opacity="0.8" stroke="#333" stroke-width="0.3" stroke-linejoin="round"/>
<path d="M835.97,242.37L854.26,231.81L854.26,210.69L866.46,210.69L872.56,200.12L854.26,189.56L835.97,200.12L829.87,189.56L817.67,189.56L805.48,189.56L799.38,200.12L817.67,210.69L817.67,231.81L829.87,231.81 Z" fill="#27ae60" fill-opacity="0.8" stroke="#333" stroke-width="0.3" stroke-linejoin="round"/>
<path d="M762.79,200.12L744.49,210.69L744.49,231.81L756.69,231.81L762.79,221.25L781.08,231.81L799.38,221.25L793.28,210.69L799.38,200.12L781.08,189.56L781.08,168.44L768.89,168.44L762.79,179.00L756.69,189.56 Z" fill="#27ae60" fill-opacity="0.8" stroke="#333" stroke-width="0.3" stroke-linejoin="round"/>
<path d="M799.38,157.87L781.08,147.31L762.79,157.87L768.89,168.44L781.08,168.44L781.08,189.56L799.38,200.12L805.48,189.56L817.67,189.56L817.67,168.44L835.97,157.87L829.87,147.31L817.67,147.31L805.48,147.31 Z" fill="#27ae60" fill-opacity="0.8" stroke="#333" stroke-width="0.3" stroke-linejoin="round"/>
<path d="M854.26,168.44L854.26,147.31L835.97,136.75L829.87,147.31L835.97,157.87L817.67,168.44L817.67,189.56L829.87,189.56L835.97,200.12L854.26,189.56L872.56,200.12L878.66,189.56L872.56,179.00L866.46,168.44 Z" fill="#27ae60" fill-opacity="0.8" stroke="#333" stroke-width="0.3" stroke-linejoin="round"/>
<path d="M909.15,200.12L927.44,189.56L927.44,168.44L915.25,168.44L909.15,179.00L890.85,168.44L872.56,179.00L878.66,189.56L872.56,200.12L890.85,210.69L890.85,231.81L903.05,231.81L909.15,221.25L915.25,210.69 Z" fill="#27ae60" fill-opacity="0.8" stroke="#333" stroke-width="0.3" stroke-linejoin="round"/>
<path d="M872.56,242.37L890.85,252.94L909.15,242.38L903.05,231.81L890.85,231.81L890.85,210.69L872.56,200.12L866.46,210.69L854.26,210.69L854.26,231.81L835.97,242.37L842.07,252.94L854.26,252.94L866.46,252.94 Z" fill="#27ae60" fill-opacity="0.8" stroke="#333" stroke-width="0.3" stroke-linejoin="round"/>
<path d="M890.85,147.31L890.85,126.19L872.56,115.62L866.46,126.19L872.56,136.75L854.26,147.31L854.26,168.44L866.46,168.44L872.56,179.00L890.85,168.44L909.15,179.00L915.25,168.44L909.15,157.88L903.05,147.31 Z" fill="#27ae60" fill-opacity="0.8" stroke="#333" stroke-width="0.3" stroke-linejoin="round"/>
<circle cx="927.44" cy="189.56" r="4" fill="red"/>
<text x="900.0" y="374.0" text-anchor="middle" font-size="13" font-family="sans-serif" fill="#222">#3  r=2.249  edges=6</text>
<path d="M306.84,592.80L287.33,604.07L287.33,626.60L300.34,626.60L306.84,615.33L326.36,626.60L345.87,615.33L339.37,604.07L345.87,592.80L326.36,581.53L326.36,559.00L313.35,559.00L306.84,570.27L300.34,581.53 Z" fill="#5b9bd5" fill-opacity="0.8" stroke="#333" stroke-width="0.3" stroke-linejoin="round"/>
<path d="M306.84,570.27L287.33,559.00L267.81,570.27L261.31,559.00L248.30,559.00L248.30,581.53L267.81,592.80L261.31,604.07L267.81,615.33L274.32,626.60L287.33,626.60L287.33,604.07L306.84,592.80L300.34,581.53 Z" fill="#5b9bd5" fill-opacity="0.8" stroke="#333" stroke-width="0.3" stroke-linejoin="round"/>
<path d="M306.84,660.40L326.36,671.67L345.87,660.40L339.37,649.13L326.36,649.13L326.36,626.60L306.84,615.33L300.34,626.60L287.33,626.60L287.33,649.13L267.81,660.40L274.32,671.67L287.33,671.67L300.34,671.67 Z" fill="#5b9bd5" fill-opacity="0.8" stroke="#333" stroke-width="0.3" stroke-linejoin="round"/>
<path d="M248.30,649.13L248.30,671.67L267.81,682.93L274.32,671.67L267.81,660.40L287.33,649.13L287.33,626.60L274.32,626.60L267.81,615.33L248.30,626.60L228.79,615.33L222.28,626.60L228.79,637.87L235.29,649.13 Z" fill="#5b9bd5" fill-opacity="0.8" stroke="#333" stroke-width="0.3" stroke-linejoin="round"/>
<path d="M228.79,592.80L209.27,604.07L209.27,626.60L222.28,626.60L228.79,615.33L248.30,626.60L267.81,615.33L261.31,604.07L267.81,592.80L248.30,581.53L248.30,559.00L235.29,559.00L228.79,570.27L222.28,581.53 Z" fill="#5b9bd5" fill-opacity="0.8" stroke="#333" stroke-width="0.3" stroke-linejoin="round"/>
<path d="M228.79,525.20L209.27,513.93L189.76,525.20L196.26,536.47L209.27,536.47L209.27,559.00L228.79,570.27L235.29,559.00L248.30,559.00L248.30,536.47L267.81,525.20L261.31,513.93L248.30,513.93L235.29,513.93 Z" fill="#5b9bd5" fill-opacity="0.8" stroke="#333" stroke-width="0.3" stroke-linejoin="round"/>
<path d="M287.33,536.47L287.33,513.93L267.81,502.67L261.31,513.93L267.81,525.20L248.30,536.47L248.30,559.00L261.31,559.00L267.81,570.27L287.33,559.00L306.84,570.27L313.35,559.00L306.84,547.73L300.34,536.47 Z" fill="#5b9bd5" fill-opacity="0.8" stroke="#333" stroke-width="0.3" stroke-linejoin="round"/>
<path d="M189.76,570.27L170.24,581.53L170.24,604.07L183.25,604.07L189.76,592.80L209.27,604.07L228.79,592.80L222.28,581.53L228.79,570.27L209.27,559.00L209.27,536.47L196.26,536.47L189.76,547.73L183.25,559.00 Z" fill="#5b9bd5" fill-opacity="0.8" stroke="#333" stroke-width="0.3" stroke-linejoin="round"/>
<path d="M111.70,457.60L131.21,468.87L150.73,457.60L144.22,446.33L131.21,446.33L131.21,423.80L111.70,412.53L105.19,423.80L92.19,423.80L92.19,446.33L72.67,457.60L79.18,468.87L92.19,468.87L105.19,468.87 Z" fill="#f39c12" fill-opacity="0.8" stroke="#333" stroke-width="0.3" stroke-linejoin="round"/>
<path d="M92.19,468.87L92.19,491.40L111.70,502.67L105.19,513.93L111.70,525.20L131.21,513.93L131.21,491.40L144.22,491.40L150.73,480.13L157.23,468.87L150.73,457.60L131.21,468.87L111.70,457.60L105.19,468.87 Z" fill="#f39c12" fill-opacity="0.8" stroke="#333" stroke-width="0.3" stroke-linejoin="round"/>
<path d="M170.24,423.80L170.24,401.27L150.73,390.00L144.22,401.27L150.73,412.53L131.21,423.80L131.21,446.33L144.22,446.33L150.73,457.60L170.24,446.33L189.76,457.60L196.26,446.33L189.76,435.07L183.25,423.80 Z" fill="#f39c12" fill-opacity="0.8" stroke="#333" stroke-width="0.3" stroke-linejoin="round"/>
<path d="M189.76,480.13L209.27,468.87L209.27,446.33L196.26,446.33L189.76,457.60L170.24,446.33L150.73,457.60L157.23,468.87L150.73,480.13L170.24,491.40L170.24,513.93L183.25,513.93L189.76,502.67L196.26,491.40 Z" fill="#f39c12" fill-opacity="0.8" stroke="#333" stroke-width="0.3" stroke-linejoin="round"/>
<path d="M150.73,525.20L170.24,536.47L189.76,525.20L183.25,513.93L170.24,513.93L170.24,491.40L150.73,480.13L144.22,491.40L131.21,491.40L131.21,513.93L111.70,525.20L118.20,536.47L131.21,536.47L144.22,536.47 Z" fill="#f39c12" fill-opacity="0.8" stroke="#333" stroke-width="0.3" stroke-linejoin="round"/>
<path d="M92.19,559.00L92.19,581.53L111.70,592.80L118.20,581.53L111.70,570.27L131.21,559.00L131.21,536.47L118.20,536.47L111.70,525.20L92.19,536.47L72.67,525.20L66.17,536.47L72.67,547.73L79.18,559.00 Z" fill="#f39c12" fill-opacity="0.8" stroke="#333" stroke-width="0.3" stroke-linejoin="round"/>
<path d="M72.67,502.67L53.16,513.93L53.16,536.47L66.17,536.47L72.67,525.20L92.19,536.47L111.70,525.20L105.19,513.93L111.70,502.67L92.19,491.40L92.19,468.87L79.18,468.87L72.67,480.13L66.17,491.40 Z" fill="#f39c12" fill-opacity="0.8" stroke="#333" stroke-width="0.3" stroke-linejoin="round"/>
<path d="M150.73,570.27L170.24,581.53L189.76,570.27L183.25,559.00L170.24,559.00L170.24,536.47L150.73,525.20L144.22,536.47L131.21,536.47L131.21,559.00L111.70,570.27L118.20,581.53L131.21,581.53L144.22,581.53 Z" fill="#f39c12" fill-opacity="0.8" stroke="#333" stroke-width="0.3" stroke-linejoin="round"/>
<path d="M92.19,694.20L92.19,671.67L72.67,660.40L66.17,671.67L72.67,682.93L53.16,694.20L53.16,716.73L66.17,716.73L72.67,728.00L92.19,716.73L111.70,728.00L118.20,716.73L111.70,705.47L105.19,694.20 Z" fill="#27ae60" fill-opacity="0.8" stroke="#333" stroke-width="0.3" stroke-linejoin="round"/>
<path d="M111.70,705.47L131.21,694.20L131.21,671.67L144.22,671.67L150.73,660.40L131.21,649.13L111.70,660.40L105.19,649.13L92.19,649.13L79.18,649.13L72.67,660.40L92.19,671.67L92.19,694.20L105.19,694.20 Z" fill="#27ae60" fill-opacity="0.8" stroke="#333" stroke-width="0.3" stroke-linejoin="round"/>
<path d="M33.64,660.40L14.13,671.67L14.13,694.20L27.14,694.20L33.64,682.93L53.16,694.20L72.67,682.93L66.17,671.67L72.67,660.40L53.16,649.13L53.16,626.60L40.15,626.60L33.64,637.87L27.14,649.13 Z" fill="#27ae60" fill-opacity="0.8" stroke="#333" stroke-width="0.3" stroke-linejoin="round"/>
<path d="M72.67,615.33L53.16,604.07L33.64,615.33L40.15,626.60L53.16,626.60L53.16,649.13L72.67,660.40L79.18,649.13L92.19,649.13L92.19,626.60L111.70,615.33L105.19,604.07L92.19,604.07L79.18,604.07 Z" fill="#27ae60" fill-opacity="0.8" stroke="#333" stroke-width="0.3" stroke-linejoin="round"/>
<path d="M131.21,626.60L131.21,604.07L111.70,592.80L105.19,604.07L111.70,615.33L92.19,626.60L92.19,649.13L105.19,649.13L111.70,660.40L131.21,649.13L150.73,660.40L157.23,649.13L150.73,637.87L144.22,626.60 Z" fill="#27ae60" fill-opacity="0.8" stroke="#333" stroke-width="0.3" stroke-linejoin="round"/>
<path d="M189.76,660.40L209.27,649.13L209.27,626.60L196.26,626.60L189.76,637.87L170.24,626.60L150.73,637.87L157.23,649.13L150.73,660.40L170.24,671.67L170.24,694.20L183.25,694.20L189.76,682.93L196.26,671.67 Z" fill="#27ae60" fill-opacity="0.8" stroke="#333" stroke-width="0.3" stroke-linejoin="round"/>
<path d="M150.73,705.47L170.24,716.73L189.76,705.47L183.25,694.20L170.24,694.20L170.24,671.67L150.73,660.40L144.22,671.67L131.21,671.67L131.21,694.20L111.70,705.47L118.20,716.73L131.21,716.73L144.22,716.73 Z" fill="#27ae60" fill-opacity="0.8" stroke="#333" stroke-width="0.3" stroke-linejoin="round"/>
<path d="M170.24,604.07L170.24,581.53L150.73,570.27L144.22,581.53L150.73,592.80L131.21,604.07L131.21,626.60L144.22,626.60L150.73,637.87L170.24,626.60L189.76,637.87L196.26,626.60L189.76,615.33L183.25,604.07 Z" fill="#27ae60" fill-opacity="0.8" stroke="#333" stroke-width="0.3" stroke-linejoin="round"/>
<circle cx="170.24" cy="581.53" r="4" fill="red"/>
<text x="180.0" y="754.0" text-anchor="middle" font-size="13" font-family="sans-serif" fill="#222">#4  r=2.249  edges=2</text>
<path d="M503.41,474.50L485.12,485.06L485.12,506.19L497.31,506.19L503.41,495.62L521.71,506.19L540.00,495.63L533.90,485.06L540.00,474.50L521.71,463.94L521.71,442.81L509.51,442.81L503.41,453.38L497.31,463.94 Z" fill="#5b9bd5" fill-opacity="0.8" stroke="#333" stroke-width="0.3" stroke-linejoin="round"/>
<path d="M503.41,453.38L485.12,442.81L466.82,453.38L460.72,442.81L448.53,442.81L448.53,463.94L466.82,474.50L460.72,485.06L466.82,495.62L472.92,506.19L485.12,506.19L485.12,485.06L503.41,474.50L497.31,463.94 Z" fill="#5b9bd5" fill-opacity="0.8" stroke="#333" stroke-width="0.3" stroke-linejoin="round"/>
<path d="M503.41,537.88L521.71,548.44L540.00,537.88L533.90,527.31L521.71,527.31L521.71,506.19L503.41,495.62L497.31,506.19L485.12,506.19L485.12,527.31L466.82,537.88L472.92,548.44L485.12,548.44L497.31,548.44 Z" fill="#5b9bd5" fill-opacity="0.8" stroke="#333" stroke-width="0.3" stroke-linejoin="round"/>
<path d="M448.53,527.31L448.53,548.44L466.82,559.00L472.92,548.44L466.82,537.88L485.12,527.31L485.12,506.19L472.92,506.19L466.82,495.62L448.53,506.19L430.23,495.62L424.13,506.19L430.23,516.75L436.33,527.31 Z" fill="#5b9bd5" fill-opacity="0.8" stroke="#333" stroke-width="0.3" stroke-linejoin="round"/>
<path d="M430.23,474.50L411.94,485.06L411.94,506.19L424.13,506.19L430.23,495.62L448.53,506.19L466.82,495.62L460.72,485.06L466.82,474.50L448.53,463.94L448.53,442.81L436.33,442.81L430.23,453.37L424.13,463.94 Z" fill="#5b9bd5" fill-opacity="0.8" stroke="#333" stroke-width="0.3" stroke-linejoin="round"/>
<path d="M430.23,411.12L411.94,400.56L393.64,411.12L399.74,421.69L411.94,421.69L411.94,442.81L430.23,453.38L436.33,442.81L448.53,442.81L448.53,421.69L466.82,411.12L460.72,400.56L448.53,400.56L436.33,400.56 Z" fill="#5b9bd5" fill-opacity="0.8" stroke="#333" stroke-width="0.3" stroke-linejoin="round"/>
<path d="M485.12,421.69L485.12,400.56L466.82,390.00L460.72,400.56L466.82,411.12L448.53,421.69L448.53,442.81L460.72,442.81L466.82,453.38L485.12,442.81L503.41,453.38L509.51,442.81L503.41,432.25L497.31,421.69 Z" fill="#5b9bd5" fill-opacity="0.8" stroke="#333" stroke-width="0.3" stroke-linejoin="round"/>
<path d="M393.64,453.37L375.35,463.94L375.35,485.06L387.54,485.06L393.64,474.50L411.94,485.06L430.23,474.50L424.13,463.94L430.23,453.38L411.94,442.81L411.94,421.69L399.74,421.69L393.64,432.25L387.54,442.81 Z" fill="#5b9bd5" fill-opacity="0.8" stroke="#333" stroke-width="0.3" stroke-linejoin="round"/>
<path d="M466.82,601.25L485.12,611.81L503.41,601.25L497.31,590.69L485.12,590.69L485.12,569.56L466.82,559.00L460.72,569.56L448.53,569.56L448.53,590.69L430.23,601.25L436.33,611.81L448.53,611.81L460.72,611.81 Z" fill="#f39c12" fill-opacity="0.8" stroke="#333" stroke-width="0.3" stroke-linejoin="round"/>
<path d="M448.53,611.81L448.53,632.94L466.82,643.50L460.72,654.06L466.82,664.62L485.12,654.06L485.12,632.94L497.31,632.94L503.41,622.38L509.51,611.81L503.41,601.25L485.12,611.81L466.82,601.25L460.72,611.81 Z" fill="#f39c12" fill-opacity="0.8" stroke="#333" stroke-width="0.3" stroke-linejoin="round"/>
<path d="M521.71,569.56L521.71,548.44L503.41,537.88L497.31,548.44L503.41,559.00L485.12,569.56L485.12,590.69L497.31,590.69L503.41,601.25L521.71,590.69L540.00,601.25L546.10,590.69L540.00,580.12L533.90,569.56 Z" fill="#f39c12" fill-opacity="0.8" stroke="#333" stroke-width="0.3" stroke-linejoin="round"/>
<path d="M540.00,622.38L558.29,611.81L558.29,590.69L546.10,590.69L540.00,601.25L521.71,590.69L503.41,601.25L509.51,611.81L503.41,622.38L521.71,632.94L521.71,654.06L533.90,654.06L540.00,643.50L546.10,632.94 Z" fill="#f39c12" fill-opacity="0.8" stroke="#333" stroke-width="0.3" stroke-linejoin="round"/>
<path d="M503.41,664.62L521.71,675.19L540.00,664.63L533.90,654.06L521.71,654.06L521.71,632.94L503.41,622.38L497.31,632.94L485.12,632.94L485.12,654.06L466.82,664.62L472.92,675.19L485.12,675.19L497.31,675.19 Z" fill="#f39c12" fill-opacity="0.8" stroke="#333" stroke-width="0.3" stroke-linejoin="round"/>
<path d="M448.53,696.31L448.53,717.44L466.82,728.00L472.92,717.44L466.82,706.88L485.12,696.31L485.12,675.19L472.92,675.19L466.82,664.62L448.53,675.19L430.23,664.62L424.13,675.19L430.23,685.75L436.33,696.31 Z" fill="#f39c12" fill-opacity="0.8" stroke="#333" stroke-width="0.3" stroke-linejoin="round"/>
<path d="M430.23,643.50L411.94,654.06L411.94,675.19L424.13,675.19L430.23,664.62L448.53,675.19L466.82,664.62L460.72,654.06L466.82,643.50L448.53,632.94L448.53,611.81L436.33,611.81L430.23,622.38L424.13,632.94 Z" fill="#f39c12" fill-opacity="0.8" stroke="#333" stroke-width="0.3" stroke-linejoin="round"/>
<path d="M503.41,706.88L521.71,717.44L540.00,706.88L533.90,696.31L521.71,696.31L521.71,675.19L503.41,664.62L497.31,675.19L485.12,675.19L485.12,696.31L466.82,706.88L472.92,717.44L485.12,717.44L497.31,717.44 Z" fill="#f39c12" fill-opacity="0.8" stroke="#333" stroke-width="0.3" stroke-linejoin="round"/>
<path d="M594.88,569.56L594.88,548.44L576.59,537.88L570.49,548.44L576.59,559.00L558.29,569.56L558.29,590.69L570.49,590.69L576.59,601.25L594.88,590.69L613.18,601.25L619.28,590.69L613.18,580.13L607.08,569.56 Z" fill="#27ae60" fill-opacity="0.8" stroke="#333" stroke-width="0.3" stroke-linejoin="round"/>
<path d="M613.18,580.13L631.47,569.56L631.47,548.44L643.67,548.44L649.77,537.88L631.47,527.31L613.18,537.88L607.08,527.31L594.88,527.31L582.69,527.31L576.59,537.88L594.88,548.44L594.88,569.56L607.08,569.56 Z" fill="#27ae60" fill-opacity="0.8" stroke="#333" stroke-width="0.3" stroke-linejoin="round"/>
<path d="M540.00,537.88L521.71,548.44L521.71,569.56L533.90,569.56L540.00,559.00L558.29,569.56L576.59,559.00L570.49,548.44L576.59,537.88L558.29,527.31L558.29,506.19L546.10,506.19L540.00,516.75L533.90,527.31 Z" fill="#27ae60" fill-opacity="0.8" stroke="#333" stroke-width="0.3" stroke-linejoin="round"/>
<path d="M576.59,495.63L558.29,485.06L540.00,495.62L546.10,506.19L558.29,506.19L558.29,527.31L576.59,537.88L582.69,527.31L594.88,527.31L594.88,506.19L613.18,495.63L607.08,485.06L594.88,485.06L582.69,485.06 Z" fill="#27ae60" fill-opacity="0.8" stroke="#333" stroke-width="0.3" stroke-linejoin="round"/>
<path d="M631.47,506.19L631.47,485.06L613.18,474.50L607.08,485.06L613.18,495.63L594.88,506.19L594.88,527.31L607.08,527.31L613.18,537.88L631.47,527.31L649.77,537.88L655.87,527.31L649.77,516.75L643.67,506.19 Z" fill="#27ae60" fill-opacity="0.8" stroke="#333" stroke-width="0.3" stroke-linejoin="round"/>
<path d="M686.36,537.88L704.65,527.31L704.65,506.19L692.46,506.19L686.36,516.75L668.06,506.19L649.77,516.75L655.87,527.31L649.77,537.88L668.06,548.44L668.06,569.56L680.26,569.56L686.36,559.00L692.46,548.44 Z" fill="#27ae60" fill-opacity="0.8" stroke="#333" stroke-width="0.3" stroke-linejoin="round"/>
<path d="M649.77,580.13L668.06,590.69L686.36,580.13L680.26,569.56L668.06,569.56L668.06,548.44L649.77,537.88L643.67,548.44L631.47,548.44L631.47,569.56L613.18,580.12L619.28,590.69L631.47,590.69L643.67,590.69 Z" fill="#27ae60" fill-opacity="0.8" stroke="#333" stroke-width="0.3" stroke-linejoin="round"/>
<path d="M668.06,485.06L668.06,463.94L649.77,453.38L643.67,463.94L649.77,474.50L631.47,485.06L631.47,506.19L643.67,506.19L649.77,516.75L668.06,506.19L686.36,516.75L692.46,506.19L686.36,495.63L680.26,485.06 Z" fill="#27ae60" fill-opacity="0.8" stroke="#333" stroke-width="0.3" stroke-linejoin="round"/>
<circle cx="521.71" cy="548.44" r="4" fill="red"/>
<text x="540.0" y="754.0" text-anchor="middle" font-size="13" font-family="sans-serif" fill="#222">#5  r=2.249  edges=2</text>
<path d="M1015.00,559.00L994.09,571.07L994.09,595.21L1008.03,595.21L1015.00,583.14L1035.90,595.21L1056.81,583.14L1049.84,571.07L1056.81,559.00L1035.90,546.93L1035.90,522.79L1021.97,522.79L1015.00,534.86L1008.03,546.93 Z" fill="#5b9bd5" fill-opacity="0.8" stroke="#333" stroke-width="0.3" stroke-linejoin="round"/>
<path d="M1015.00,534.86L994.09,522.79L973.18,534.86L966.21,522.79L952.27,522.79L952.27,546.93L973.18,559.00L966.21,571.07L973.18,583.14L980.15,595.21L994.09,595.21L994.09,571.07L1015.00,559.00L1008.03,546.93 Z" fill="#5b9bd5" fill-opacity="0.8" stroke="#333" stroke-width="0.3" stroke-linejoin="round"/>
<path d="M1015.00,631.43L1035.90,643.50L1056.81,631.43L1049.84,619.36L1035.90,619.36L1035.90,595.21L1015.00,583.14L1008.03,595.21L994.09,595.21L994.09,619.36L973.18,631.43L980.15,643.50L994.09,643.50L1008.03,643.50 Z" fill="#5b9bd5" fill-opacity="0.8" stroke="#333" stroke-width="0.3" stroke-linejoin="round"/>
<path d="M952.27,619.36L952.27,643.50L973.18,655.57L980.15,643.50L973.18,631.43L994.09,619.36L994.09,595.21L980.15,595.21L973.18,583.14L952.27,595.21L931.36,583.14L924.39,595.21L931.36,607.29L938.33,619.36 Z" fill="#5b9bd5" fill-opacity="0.8" stroke="#333" stroke-width="0.3" stroke-linejoin="round"/>
<path d="M931.36,559.00L910.45,571.07L910.45,595.21L924.39,595.21L931.36,583.14L952.27,595.21L973.18,583.14L966.21,571.07L973.18,559.00L952.27,546.93L952.27,522.79L938.33,522.79L931.36,534.86L924.39,546.93 Z" fill="#5b9bd5" fill-opacity="0.8" stroke="#333" stroke-width="0.3" stroke-linejoin="round"/>
<path d="M931.36,486.57L910.45,474.50L889.55,486.57L896.52,498.64L910.45,498.64L910.45,522.79L931.36,534.86L938.33,522.79L952.27,522.79L952.27,498.64L973.18,486.57L966.21,474.50L952.27,474.50L938.33,474.50 Z" fill="#5b9bd5" fill-opacity="0.8" stroke="#333" stroke-width="0.3" stroke-linejoin="round"/>
<path d="M994.09,498.64L994.09,474.50L973.18,462.43L966.21,474.50L973.18,486.57L952.27,498.64L952.27,522.79L966.21,522.79L973.18,534.86L994.09,522.79L1015.00,534.86L1021.97,522.79L1015.00,510.71L1008.03,498.64 Z" fill="#5b9bd5" fill-opacity="0.8" stroke="#333" stroke-width="0.3" stroke-linejoin="round"/>
<path d="M889.55,534.86L868.64,546.93L868.64,571.07L882.58,571.07L889.55,559.00L910.45,571.07L931.36,559.00L924.39,546.93L931.36,534.86L910.45,522.79L910.45,498.64L896.52,498.64L889.55,510.71L882.58,522.79 Z" fill="#5b9bd5" fill-opacity="0.8" stroke="#333" stroke-width="0.3" stroke-linejoin="round"/>
<path d="M805.91,462.43L826.82,474.50L847.73,462.43L840.76,450.36L826.82,450.36L826.82,426.21L805.91,414.14L798.94,426.21L785.00,426.21L785.00,450.36L764.10,462.43L771.07,474.50L785.00,474.50L798.94,474.50 Z" fill="#f39c12" fill-opacity="0.8" stroke="#333" stroke-width="0.3" stroke-linejoin="round"/>
<path d="M785.00,474.50L785.00,498.64L805.91,510.71L798.94,522.79L805.91,534.86L826.82,522.79L826.82,498.64L840.76,498.64L847.73,486.57L854.70,474.50L847.73,462.43L826.82,474.50L805.91,462.43L798.94,474.50 Z" fill="#f39c12" fill-opacity="0.8" stroke="#333" stroke-width="0.3" stroke-linejoin="round"/>
<path d="M868.64,426.21L868.64,402.07L847.73,390.00L840.76,402.07L847.73,414.14L826.82,426.21L826.82,450.36L840.76,450.36L847.73,462.43L868.64,450.36L889.55,462.43L896.52,450.36L889.55,438.29L882.58,426.21 Z" fill="#f39c12" fill-opacity="0.8" stroke="#333" stroke-width="0.3" stroke-linejoin="round"/>
<path d="M889.55,486.57L910.45,474.50L910.45,450.36L896.52,450.36L889.55,462.43L868.64,450.36L847.73,462.43L854.70,474.50L847.73,486.57L868.64,498.64L868.64,522.79L882.58,522.79L889.55,510.71L896.52,498.64 Z" fill="#f39c12" fill-opacity="0.8" stroke="#333" stroke-width="0.3" stroke-linejoin="round"/>
<path d="M847.73,534.86L868.64,546.93L889.55,534.86L882.58,522.79L868.64,522.79L868.64,498.64L847.73,486.57L840.76,498.64L826.82,498.64L826.82,522.79L805.91,534.86L812.88,546.93L826.82,546.93L840.76,546.93 Z" fill="#f39c12" fill-opacity="0.8" stroke="#333" stroke-width="0.3" stroke-linejoin="round"/>
<path d="M785.00,571.07L785.00,595.21L805.91,607.29L812.88,595.21L805.91,583.14L826.82,571.07L826.82,546.93L812.88,546.93L805.91,534.86L785.00,546.93L764.10,534.86L757.13,546.93L764.10,559.00L771.07,571.07 Z" fill="#f39c12" fill-opacity="0.8" stroke="#333" stroke-width="0.3" stroke-linejoin="round"/>
<path d="M764.10,510.71L743.19,522.79L743.19,546.93L757.13,546.93L764.10,534.86L785.00,546.93L805.91,534.86L798.94,522.79L805.91,510.71L785.00,498.64L785.00,474.50L771.07,474.50L764.10,486.57L757.13,498.64 Z" fill="#f39c12" fill-opacity="0.8" stroke="#333" stroke-width="0.3" stroke-linejoin="round"/>
<path d="M847.73,583.14L868.64,595.21L889.55,583.14L882.58,571.07L868.64,571.07L868.64,546.93L847.73,534.86L840.76,546.93L826.82,546.93L826.82,571.07L805.91,583.14L812.88,595.21L826.82,595.21L840.76,595.21 Z" fill="#f39c12" fill-opacity="0.8" stroke="#333" stroke-width="0.3" stroke-linejoin="round"/>
<path d="M826.82,691.79L826.82,667.64L805.91,655.57L798.94,667.64L805.91,679.71L785.00,691.79L785.00,715.93L798.94,715.93L805.91,728.00L826.82,715.93L847.73,728.00L854.70,715.93L847.73,703.86L840.76,691.79 Z" fill="#27ae60" fill-opacity="0.8" stroke="#333" stroke-width="0.3" stroke-linejoin="round"/>
<path d="M847.73,703.86L868.64,691.79L868.64,667.64L882.58,667.64L889.55,655.57L868.64,643.50L847.73,655.57L840.76,643.50L826.82,643.50L812.88,643.50L805.91,655.57L826.82,667.64L826.82,691.79L840.76,691.79 Z" fill="#27ae60" fill-opacity="0.8" stroke="#333" stroke-width="0.3" stroke-linejoin="round"/>
<path d="M764.10,655.57L743.19,667.64L743.19,691.79L757.13,691.79L764.10,679.71L785.00,691.79L805.91,679.71L798.94,667.64L805.91,655.57L785.00,643.50L785.00,619.36L771.07,619.36L764.10,631.43L757.13,643.50 Z" fill="#27ae60" fill-opacity="0.8" stroke="#333" stroke-width="0.3" stroke-linejoin="round"/>
<path d="M805.91,607.29L785.00,595.21L764.10,607.29L771.07,619.36L785.00,619.36L785.00,643.50L805.91,655.57L812.88,643.50L826.82,643.50L826.82,619.36L847.73,607.29L840.76,595.21L826.82,595.21L812.88,595.21 Z" fill="#27ae60" fill-opacity="0.8" stroke="#333" stroke-width="0.3" stroke-linejoin="round"/>
<path d="M868.64,619.36L868.64,595.21L847.73,583.14L840.76,595.21L847.73,607.29L826.82,619.36L826.82,643.50L840.76,643.50L847.73,655.57L868.64,643.50L889.55,655.57L896.52,643.50L889.55,631.43L882.58,619.36 Z" fill="#27ae60" fill-opacity="0.8" stroke="#333" stroke-width="0.3" stroke-linejoin="round"/>
<path d="M931.36,655.57L952.27,643.50L952.27,619.36L938.33,619.36L931.36,631.43L910.45,619.36L889.55,631.43L896.52,643.50L889.55,655.57L910.45,667.64L910.45,691.79L924.39,691.79L931.36,679.71L938.33,667.64 Z" fill="#27ae60" fill-opacity="0.8" stroke="#333" stroke-width="0.3" stroke-linejoin="round"/>
<path d="M889.55,703.86L910.45,715.93L931.36,703.86L924.39,691.79L910.45,691.79L910.45,667.64L889.55,655.57L882.58,667.64L868.64,667.64L868.64,691.79L847.73,703.86L854.70,715.93L868.64,715.93L882.58,715.93 Z" fill="#27ae60" fill-opacity="0.8" stroke="#333" stroke-width="0.3" stroke-linejoin="round"/>
<path d="M910.45,595.21L910.45,571.07L889.55,559.00L882.58,571.07L889.55,583.14L868.64,595.21L868.64,619.36L882.58,619.36L889.55,631.43L910.45,619.36L931.36,631.43L938.33,619.36L931.36,607.29L924.39,595.21 Z" fill="#27ae60" fill-opacity="0.8" stroke="#333" stroke-width="0.3" stroke-linejoin="round"/>
<circle cx="882.58" cy="571.07" r="4" fill="red"/>
<text x="900.0" y="754.0" text-anchor="middle" font-size="13" font-family="sans-serif" fill="#222">#6  r=2.574  edges=8</text>
<path d="M142.44,863.11L123.67,873.95L123.67,895.63L136.19,895.63L142.44,884.79L161.22,895.63L180.00,884.79L173.74,873.95L180.00,863.11L161.22,852.27L161.22,830.59L148.70,830.59L142.44,841.43L136.19,852.27 Z" fill="#5b9bd5" fill-opacity="0.8" stroke="#333" stroke-width="0.3" stroke-linejoin="round"/>
<path d="M142.44,841.43L123.67,830.59L104.89,841.43L98.63,830.59L86.11,830.59L86.11,852.27L104.89,863.11L98.63,873.95L104.89,884.79L111.15,895.63L123.67,895.63L123.67,873.95L142.44,863.11L136.19,852.27 Z" fill="#5b9bd5" fill-opacity="0.8" stroke="#333" stroke-width="0.3" stroke-linejoin="round"/>
<path d="M142.44,928.16L161.22,939.00L180.00,928.16L173.74,917.32L161.22,917.32L161.22,895.63L142.44,884.79L136.19,895.63L123.67,895.63L123.67,917.32L104.89,928.16L111.15,939.00L123.67,939.00L136.19,939.00 Z" fill="#5b9bd5" fill-opacity="0.8" stroke="#333" stroke-width="0.3" stroke-linejoin="round"/>
<path d="M86.11,917.32L86.11,939.00L104.89,949.84L111.15,939.00L104.89,928.16L123.67,917.32L123.67,895.63L111.15,895.63L104.89,884.79L86.11,895.63L67.33,884.79L61.07,895.63L67.33,906.48L73.59,917.32 Z" fill="#5b9bd5" fill-opacity="0.8" stroke="#333" stroke-width="0.3" stroke-linejoin="round"/>
<path d="M67.33,863.11L48.56,873.95L48.56,895.63L61.07,895.63L67.33,884.79L86.11,895.63L104.89,884.79L98.63,873.95L104.89,863.11L86.11,852.27L86.11,830.59L73.59,830.59L67.33,841.43L61.07,852.27 Z" fill="#5b9bd5" fill-opacity="0.8" stroke="#333" stroke-width="0.3" stroke-linejoin="round"/>
<path d="M67.33,798.06L48.56,787.22L29.78,798.06L36.04,808.90L48.56,808.90L48.56,830.59L67.33,841.43L73.59,830.59L86.11,830.59L86.11,808.90L104.89,798.06L98.63,787.22L86.11,787.22L73.59,787.22 Z" fill="#5b9bd5" fill-opacity="0.8" stroke="#333" stroke-width="0.3" stroke-linejoin="round"/>
<path d="M123.67,808.90L123.67,787.22L104.89,776.38L98.63,787.22L104.89,798.06L86.11,808.90L86.11,830.59L98.63,830.59L104.89,841.43L123.67,830.59L142.44,841.43L148.70,830.59L142.44,819.75L136.19,808.90 Z" fill="#5b9bd5" fill-opacity="0.8" stroke="#333" stroke-width="0.3" stroke-linejoin="round"/>
<path d="M29.78,841.43L11.00,852.27L11.00,873.95L23.52,873.95L29.78,863.11L48.56,873.95L67.33,863.11L61.07,852.27L67.33,841.43L48.56,830.59L48.56,808.90L36.04,808.90L29.78,819.75L23.52,830.59 Z" fill="#5b9bd5" fill-opacity="0.8" stroke="#333" stroke-width="0.3" stroke-linejoin="round"/>
<path d="M142.44,971.52L161.22,982.37L180.00,971.52L173.74,960.68L161.22,960.68L161.22,939.00L142.44,928.16L136.19,939.00L123.67,939.00L123.67,960.68L104.89,971.52L111.15,982.37L123.67,982.37L136.19,982.37 Z" fill="#f39c12" fill-opacity="0.8" stroke="#333" stroke-width="0.3" stroke-linejoin="round"/>
<path d="M123.67,982.37L123.67,1004.05L142.44,1014.89L136.19,1025.73L142.44,1036.57L161.22,1025.73L161.22,1004.05L173.74,1004.05L180.00,993.21L186.26,982.37L180.00,971.52L161.22,982.37L142.44,971.52L136.19,982.37 Z" fill="#f39c12" fill-opacity="0.8" stroke="#333" stroke-width="0.3" stroke-linejoin="round"/>
<path d="M198.78,939.00L198.78,917.32L180.00,906.48L173.74,917.32L180.00,928.16L161.22,939.00L161.22,960.68L173.74,960.68L180.00,971.52L198.78,960.68L217.56,971.52L223.81,960.68L217.56,949.84L211.30,939.00 Z" fill="#f39c12" fill-opacity="0.8" stroke="#333" stroke-width="0.3" stroke-linejoin="round"/>
<path d="M217.56,993.21L236.33,982.37L236.33,960.68L223.81,960.68L217.56,971.52L198.78,960.68L180.00,971.52L186.26,982.37L180.00,993.21L198.78,1004.05L198.78,1025.73L211.30,1025.73L217.56,1014.89L223.81,1004.05 Z" fill="#f39c12" fill-opacity="0.8" stroke="#333" stroke-width="0.3" stroke-linejoin="round"/>
<path d="M180.00,1036.57L198.78,1047.41L217.56,1036.57L211.30,1025.73L198.78,1025.73L198.78,1004.05L180.00,993.21L173.74,1004.05L161.22,1004.05L161.22,1025.73L142.44,1036.57L148.70,1047.41L161.22,1047.41L173.74,1047.41 Z" fill="#f39c12" fill-opacity="0.8" stroke="#333" stroke-width="0.3" stroke-linejoin="round"/>
<path d="M123.67,1069.10L123.67,1090.78L142.44,1101.62L148.70,1090.78L142.44,1079.94L161.22,1069.10L161.22,1047.41L148.70,1047.41L142.44,1036.57L123.67,1047.41L104.89,1036.57L98.63,1047.41L104.89,1058.25L111.15,1069.10 Z" fill="#f39c12" fill-opacity="0.8" stroke="#333" stroke-width="0.3" stroke-linejoin="round"/>
<path d="M104.89,1014.89L86.11,1025.73L86.11,1047.41L98.63,1047.41L104.89,1036.57L123.67,1047.41L142.44,1036.57L136.19,1025.73L142.44,1014.89L123.67,1004.05L123.67,982.37L111.15,982.37L104.89,993.21L98.63,1004.05 Z" fill="#f39c12" fill-opacity="0.8" stroke="#333" stroke-width="0.3" stroke-linejoin="round"/>
<path d="M180.00,1079.94L198.78,1090.78L217.56,1079.94L211.30,1069.10L198.78,1069.10L198.78,1047.41L180.00,1036.57L173.74,1047.41L161.22,1047.41L161.22,1069.10L142.44,1079.94L148.70,1090.78L161.22,1090.78L173.74,1090.78 Z" fill="#f39c12" fill-opacity="0.8" stroke="#333" stroke-width="0.3" stroke-linejoin="round"/>
<path d="M236.33,917.32L236.33,895.63L217.56,884.79L211.30,895.63L217.56,906.48L198.78,917.32L198.78,939.00L211.30,939.00L217.56,949.84L236.33,939.00L255.11,949.84L261.37,939.00L255.11,928.16L248.85,917.32 Z" fill="#27ae60" fill-opacity="0.8" stroke="#333" stroke-width="0.3" stroke-linejoin="round"/>
<path d="M255.11,928.16L273.89,917.32L273.89,895.63L286.41,895.63L292.67,884.79L273.89,873.95L255.11,884.79L248.85,873.95L236.33,873.95L223.81,873.95L217.56,884.79L236.33,895.63L236.33,917.32L248.85,917.32 Z" fill="#27ae60" fill-opacity="0.8" stroke="#333" stroke-width="0.3" stroke-linejoin="round"/>
<path d="M180.00,884.79L161.22,895.63L161.22,917.32L173.74,917.32L180.00,906.48L198.78,917.32L217.56,906.48L211.30,895.63L217.56,884.79L198.78,873.95L198.78,852.27L186.26,852.27L180.00,863.11L173.74,873.95 Z" fill="#27ae60" fill-opacity="0.8" stroke="#333" stroke-width="0.3" stroke-linejoin="round"/>
<path d="M217.56,841.43L198.78,830.59L180.00,841.43L186.26,852.27L198.78,852.27L198.78,873.95L217.56,884.79L223.81,873.95L236.33,873.95L236.33,852.27L255.11,841.43L248.85,830.59L236.33,830.59L223.81,830.59 Z" fill="#27ae60" fill-opacity="0.8" stroke="#333" stroke-width="0.3" stroke-linejoin="round"/>
<path d="M273.89,852.27L273.89,830.59L255.11,819.75L248.85,830.59L255.11,841.43L236.33,852.27L236.33,873.95L248.85,873.95L255.11,884.79L273.89,873.95L292.67,884.79L298.93,873.95L292.67,863.11L286.41,852.27 Z" fill="#27ae60" fill-opacity="0.8" stroke="#333" stroke-width="0.3" stroke-linejoin="round"/>
<path d="M330.22,884.79L349.00,873.95L349.00,852.27L336.48,852.27L330.22,863.11L311.44,852.27L292.67,863.11L298.93,873.95L292.67,884.79L311.44,895.63L311.44,917.32L323.96,917.32L330.22,906.48L336.48,895.63 Z" fill="#27ae60" fill-opacity="0.8" stroke="#333" stroke-width="0.3" stroke-linejoin="round"/>
<path d="M292.67,928.16L311.44,939.00L330.22,928.16L323.96,917.32L311.44,917.32L311.44,895.63L292.67,884.79L286.41,895.63L273.89,895.63L273.89,917.32L255.11,928.16L261.37,939.00L273.89,939.00L286.41,939.00 Z" fill="#27ae60" fill-opacity="0.8" stroke="#333" stroke-width="0.3" stroke-linejoin="round"/>
<path d="M311.44,830.59L311.44,808.90L292.67,798.06L286.41,808.90L292.67,819.75L273.89,830.59L273.89,852.27L286.41,852.27L292.67,863.11L311.44,852.27L330.22,863.11L336.48,852.27L330.22,841.43L323.96,830.59 Z" fill="#27ae60" fill-opacity="0.8" stroke="#333" stroke-width="0.3" stroke-linejoin="round"/>
<circle cx="173.74" cy="917.32" r="4" fill="red"/>
<text x="180.0" y="1134.0" text-anchor="middle" font-size="13" font-family="sans-serif" fill="#222">#7  r=2.574  edges=5</text>
</svg>
