<svg xmlns="http://www.w3.org/2000/svg" width="1037" height="1040">
<rect width="100%" height="100%" fill="white"/>
<path d="M334.92,656.36L492.38,747.27L649.84,656.36L597.35,565.45L492.38,565.45L492.38,383.64L334.92,292.73L282.43,383.64L177.46,383.64L177.46,565.45L20.00,656.36L72.49,747.27L177.46,747.27L282.43,747.27 Z" fill="#5b9bd5" fill-opacity="0.8" stroke="#333" stroke-width="0.6" stroke-linejoin="round"/>
<path d="M807.30,747.27L807.30,565.45L649.84,474.55L597.35,565.45L649.84,656.36L492.38,747.27L492.38,929.09L597.35,929.09L649.84,1020.00L807.30,929.09L964.75,1020.00L1017.24,929.09L964.75,838.18L912.27,747.27 Z" fill="#f39c12" fill-opacity="0.8" stroke="#333" stroke-width="0.6" stroke-linejoin="round"/>
<path d="M649.84,292.73L492.38,383.64L492.38,565.45L597.35,565.45L649.84,474.55L807.30,565.45L964.75,474.55L912.27,383.64L964.75,292.73L807.30,201.82L807.30,20.00L702.32,20.00L649.84,110.91L597.35,201.82 Z" fill="#27ae60" fill-opacity="0.8" stroke="#333" stroke-width="0.6" stroke-linejoin="round"/>
<circle cx="597.35" cy="565.45" r="6" fill="red"/>
</svg>
