<svg xmlns="http://www.w3.org/2000/svg" width="720" height="760">
<rect width="100%" height="100%" fill="white"/>
<path d="M123.67,146.48L180.00,179.00L236.33,146.48L217.56,113.95L180.00,113.95L180.00,48.90L123.67,16.38L104.89,48.90L67.33,48.90L67.33,113.95L11.00,146.48L29.78,179.00L67.33,179.00L104.89,179.00 Z" fill="#5b9bd5" fill-opacity="0.8" stroke="#333" stroke-width="0.3" stroke-linejoin="round"/>
<path d="M180.00,244.05L180.00,179.00L123.67,146.48L104.89,179.00L123.67,211.52L67.33,244.05L67.33,309.10L104.89,309.10L123.67,341.62L180.00,309.10L236.33,341.62L255.11,309.10L236.33,276.57L217.56,244.05 Z" fill="#f39c12" fill-opacity="0.8" stroke="#333" stroke-width="0.3" stroke-linejoin="round"/>
<path d="M236.33,146.48L180.00,179.00L180.00,244.05L217.56,244.05L236.33,211.52L292.67,244.05L349.00,211.52L330.22,179.00L349.00,146.48L292.67,113.95L292.67,48.90L255.11,48.90L236.33,81.43L217.56,113.95 Z" fill="#27ae60" fill-opacity="0.8" stroke="#333" stroke-width="0.3" stroke-linejoin="round"/>
<circle cx="180.00" cy="179.00" r="4" fill="red"/>
<text x="180.0" y="374.0" text-anchor="middle" font-size="13" font-family="sans-serif" fill="#222">#1  r=2.249  edges=2</text>
<path d="M477.74,302.25L531.11,333.06L584.47,302.25L566.68,271.44L531.11,271.44L531.11,209.81L477.74,179.00L459.95,209.81L424.37,209.81L424.37,271.44L371.00,302.25L388.79,333.06L424.37,333.06L459.95,333.06 Z" fill="#5b9bd5" fill-opacity="0.8" stroke="#333" stroke-width="0.3" stroke-linejoin="round"/>
<path d="M637.84,209.81L637.84,148.19L584.47,117.38L566.68,148.19L584.47,179.00L531.11,209.81L531.11,271.44L566.68,271.44L584.47,302.25L637.84,271.44L691.21,302.25L709.00,271.44L691.21,240.62L673.42,209.81 Z" fill="#f39c12" fill-opacity="0.8" stroke="#333" stroke-width="0.3" stroke-linejoin="round"/>
<path d="M477.74,117.38L424.37,148.19L424.37,209.81L459.95,209.81L477.74,179.00L531.11,209.81L584.47,179.00L566.68,148.19L584.47,117.38L531.11,86.56L531.11,24.94L495.53,24.94L477.74,55.75L459.95,86.56 Z" fill="#27ae60" fill-opacity="0.8" stroke="#333" stroke-width="0.3" stroke-linejoin="round"/>
<circle cx="531.11" cy="209.81" r="4" fill="red"/>
<text x="540.0" y="374.0" text-anchor="middle" font-size="13" font-family="sans-serif" fill="#222">#2  r=2.432  edges=3</text>
<path d="M117.91,605.09L171.13,635.82L224.35,605.09L206.61,574.36L171.13,574.36L171.13,512.91L117.91,482.18L100.17,512.91L64.69,512.91L64.69,574.36L11.47,605.09L29.21,635.82L64.69,635.82L100.17,635.82 Z" fill="#5b9bd5" fill-opacity="0.8" stroke="#333" stroke-width="0.3" stroke-linejoin="round"/>
<path d="M277.57,635.82L277.57,574.36L224.35,543.64L206.61,574.36L224.35,605.09L171.13,635.82L171.13,697.27L206.61,697.27L224.35,728.00L277.57,697.27L330.79,728.00L348.53,697.27L330.79,666.55L313.05,635.82 Z" fill="#f39c12" fill-opacity="0.8" stroke="#333" stroke-width="0.3" stroke-linejoin="round"/>
<path d="M224.35,482.18L171.13,512.91L171.13,574.36L206.61,574.36L224.35,543.64L277.57,574.36L330.79,543.64L313.05,512.91L330.79,482.18L277.57,451.45L277.57,390.00L242.09,390.00L224.35,420.73L206.61,451.45 Z" fill="#27ae60" fill-opacity="0.8" stroke="#333" stroke-width="0.3" stroke-linejoin="round"/>
<circle cx="206.61" cy="574.36" r="4" fill="red"/>
<text x="180.0" y="754.0" text-anchor="middle" font-size="13" font-family="sans-serif" fill="#222">#3  r=2.574  edges=2</text>
<path d="M612.43,517.18L660.71,545.06L709.00,517.18L692.90,489.31L660.71,489.31L660.71,433.55L612.43,405.67L596.33,433.55L564.14,433.55L564.14,489.31L515.86,517.18L531.95,545.06L564.14,545.06L596.33,545.06 Z" fill="#5b9bd5" fill-opacity="0.8" stroke="#333" stroke-width="0.3" stroke-linejoin="round"/>
<path d="M467.57,489.31L467.57,433.55L419.29,405.67L403.19,433.55L419.29,461.43L371.00,489.31L371.00,545.06L403.19,545.06L419.29,572.94L467.57,545.06L515.86,572.94L531.95,545.06L515.86,517.18L499.76,489.31 Z" fill="#f39c12" fill-opacity="0.8" stroke="#333" stroke-width="0.3" stroke-linejoin="round"/>
<path d="M515.86,628.69L467.57,656.57L467.57,712.33L499.76,712.33L515.86,684.45L564.14,712.33L612.43,684.45L596.33,656.57L612.43,628.69L564.14,600.82L564.14,545.06L531.95,545.06L515.86,572.94L499.76,600.82 Z" fill="#27ae60" fill-opacity="0.8" stroke="#333" stroke-width="0.3" stroke-linejoin="round"/>
<circle cx="531.95" cy="545.06" r="4" fill="red"/>
<text x="540.0" y="754.0" text-anchor="middle" font-size="13" font-family="sans-serif" fill="#222">#4  r=2.913  edges=1</text>
</svg>
