<svg xmlns="http://www.w3.org/2000/svg" width="968" height="1040">
<rect width="100%" height="100%" fill="white"/>
<path d="M824.17,520.00L762.31,555.71L762.31,627.14L803.55,627.14L824.17,591.43L886.03,627.14L947.88,591.43L927.26,555.71L947.88,520.00L886.03,484.29L886.03,412.86L844.79,412.86L824.17,448.57L803.55,484.29 Z" fill="#5b9bd5" fill-opacity="0.8" stroke="#333" stroke-width="0.6" stroke-linejoin="round"/>
<path d="M824.17,448.57L762.31,412.86L700.45,448.57L679.83,412.86L638.59,412.86L638.59,484.29L700.45,520.00L679.83,555.71L700.45,591.43L721.07,627.14L762.31,627.14L762.31,555.71L824.17,520.00L803.55,484.29 Z" fill="#5b9bd5" fill-opacity="0.8" stroke="#333" stroke-width="0.6" stroke-linejoin="round"/>
<path d="M824.17,734.29L886.03,770.00L947.88,734.29L927.26,698.57L886.03,698.57L886.03,627.14L824.17,591.43L803.55,627.14L762.31,627.14L762.31,698.57L700.45,734.29L721.07,770.00L762.31,770.00L803.55,770.00 Z" fill="#5b9bd5" fill-opacity="0.8" stroke="#333" stroke-width="0.6" stroke-linejoin="round"/>
<path d="M638.59,698.57L638.59,770.00L700.45,805.71L721.07,770.00L700.45,734.29L762.31,698.57L762.31,627.14L721.07,627.14L700.45,591.43L638.59,627.14L576.73,591.43L556.11,627.14L576.73,662.86L597.35,698.57 Z" fill="#5b9bd5" fill-opacity="0.8" stroke="#333" stroke-width="0.6" stroke-linejoin="round"/>
<path d="M576.73,520.00L514.87,555.71L514.87,627.14L556.11,627.14L576.73,591.43L638.59,627.14L700.45,591.43L679.83,555.71L700.45,520.00L638.59,484.29L638.59,412.86L597.35,412.86L576.73,448.57L556.11,484.29 Z" fill="#5b9bd5" fill-opacity="0.8" stroke="#333" stroke-width="0.6" stroke-linejoin="round"/>
<path d="M576.73,305.71L514.87,270.00L453.01,305.71L473.63,341.43L514.87,341.43L514.87,412.86L576.73,448.57L597.35,412.86L638.59,412.86L638.59,341.43L700.45,305.71L679.83,270.00L638.59,270.00L597.35,270.00 Z" fill="#5b9bd5" fill-opacity="0.8" stroke="#333" stroke-width="0.6" stroke-linejoin="round"/>
<path d="M762.31,341.43L762.31,270.00L700.45,234.29L679.83,270.00L700.45,305.71L638.59,341.43L638.59,412.86L679.83,412.86L700.45,448.57L762.31,412.86L824.17,448.57L844.79,412.86L824.17,377.14L803.55,341.43 Z" fill="#5b9bd5" fill-opacity="0.8" stroke="#333" stroke-width="0.6" stroke-linejoin="round"/>
<path d="M453.01,448.57L391.15,484.29L391.15,555.71L432.39,555.71L453.01,520.00L514.87,555.71L576.73,520.00L556.11,484.29L576.73,448.57L514.87,412.86L514.87,341.43L473.63,341.43L453.01,377.14L432.39,412.86 Z" fill="#5b9bd5" fill-opacity="0.8" stroke="#333" stroke-width="0.6" stroke-linejoin="round"/>
<path d="M205.58,234.29L267.44,270.00L329.29,234.29L308.68,198.57L267.44,198.57L267.44,127.14L205.58,91.43L184.96,127.14L143.72,127.14L143.72,198.57L81.86,234.29L102.48,270.00L143.72,270.00L184.96,270.00 Z" fill="#f39c12" fill-opacity="0.8" stroke="#333" stroke-width="0.6" stroke-linejoin="round"/>
<path d="M143.72,270.00L143.72,341.43L205.58,377.14L184.96,412.86L205.58,448.57L267.44,412.86L267.44,341.43L308.68,341.43L329.29,305.71L349.91,270.00L329.29,234.29L267.44,270.00L205.58,234.29L184.96,270.00 Z" fill="#f39c12" fill-opacity="0.8" stroke="#333" stroke-width="0.6" stroke-linejoin="round"/>
<path d="M391.15,127.14L391.15,55.71L329.29,20.00L308.68,55.71L329.29,91.43L267.44,127.14L267.44,198.57L308.68,198.57L329.29,234.29L391.15,198.57L453.01,234.29L473.63,198.57L453.01,162.86L432.39,127.14 Z" fill="#f39c12" fill-opacity="0.8" stroke="#333" stroke-width="0.6" stroke-linejoin="round"/>
<path d="M453.01,305.71L514.87,270.00L514.87,198.57L473.63,198.57L453.01,234.29L391.15,198.57L329.29,234.29L349.91,270.00L329.29,305.71L391.15,341.43L391.15,412.86L432.39,412.86L453.01,377.14L473.63,341.43 Z" fill="#f39c12" fill-opacity="0.8" stroke="#333" stroke-width="0.6" stroke-linejoin="round"/>
<path d="M329.29,448.57L391.15,484.29L453.01,448.57L432.39,412.86L391.15,412.86L391.15,341.43L329.29,305.71L308.68,341.43L267.44,341.43L267.44,412.86L205.58,448.57L226.20,484.29L267.44,484.29L308.68,484.29 Z" fill="#f39c12" fill-opacity="0.8" stroke="#333" stroke-width="0.6" stroke-linejoin="round"/>
<path d="M143.72,555.71L143.72,627.14L205.58,662.86L226.20,627.14L205.58,591.43L267.44,555.71L267.44,484.29L226.20,484.29L205.58,448.57L143.72,484.29L81.86,448.57L61.24,484.29L81.86,520.00L102.48,555.71 Z" fill="#f39c12" fill-opacity="0.8" stroke="#333" stroke-width="0.6" stroke-linejoin="round"/>
<path d="M81.86,377.14L20.00,412.86L20.00,484.29L61.24,484.29L81.86,448.57L143.72,484.29L205.58,448.57L184.96,412.86L205.58,377.14L143.72,341.43L143.72,270.00L102.48,270.00L81.86,305.71L61.24,341.43 Z" fill="#f39c12" fill-opacity="0.8" stroke="#333" stroke-width="0.6" stroke-linejoin="round"/>
<path d="M329.29,591.43L391.15,627.14L453.01,591.43L432.39,555.71L391.15,555.71L391.15,484.29L329.29,448.57L308.68,484.29L267.44,484.29L267.44,555.71L205.58,591.43L226.20,627.14L267.44,627.14L308.68,627.14 Z" fill="#f39c12" fill-opacity="0.8" stroke="#333" stroke-width="0.6" stroke-linejoin="round"/>
<path d="M267.44,912.86L267.44,841.43L205.58,805.71L184.96,841.43L205.58,877.14L143.72,912.86L143.72,984.29L184.96,984.29L205.58,1020.00L267.44,984.29L329.29,1020.00L349.91,984.29L329.29,948.57L308.68,912.86 Z" fill="#27ae60" fill-opacity="0.8" stroke="#333" stroke-width="0.6" stroke-linejoin="round"/>
<path d="M329.29,948.57L391.15,912.86L391.15,841.43L432.39,841.43L453.01,805.71L391.15,770.00L329.29,805.71L308.68,770.00L267.44,770.00L226.20,770.00L205.58,805.71L267.44,841.43L267.44,912.86L308.68,912.86 Z" fill="#27ae60" fill-opacity="0.8" stroke="#333" stroke-width="0.6" stroke-linejoin="round"/>
<path d="M81.86,805.71L20.00,841.43L20.00,912.86L61.24,912.86L81.86,877.14L143.72,912.86L205.58,877.14L184.96,841.43L205.58,805.71L143.72,770.00L143.72,698.57L102.48,698.57L81.86,734.29L61.24,770.00 Z" fill="#27ae60" fill-opacity="0.8" stroke="#333" stroke-width="0.6" stroke-linejoin="round"/>
<path d="M205.58,662.86L143.72,627.14L81.86,662.86L102.48,698.57L143.72,698.57L143.72,770.00L205.58,805.71L226.20,770.00L267.44,770.00L267.44,698.57L329.29,662.86L308.68,627.14L267.44,627.14L226.20,627.14 Z" fill="#27ae60" fill-opacity="0.8" stroke="#333" stroke-width="0.6" stroke-linejoin="round"/>
<path d="M391.15,698.57L391.15,627.14L329.29,591.43L308.68,627.14L329.29,662.86L267.44,698.57L267.44,770.00L308.68,770.00L329.29,805.71L391.15,770.00L453.01,805.71L473.63,770.00L453.01,734.29L432.39,698.57 Z" fill="#27ae60" fill-opacity="0.8" stroke="#333" stroke-width="0.6" stroke-linejoin="round"/>
<path d="M576.73,805.71L638.59,770.00L638.59,698.57L597.35,698.57L576.73,734.29L514.87,698.57L453.01,734.29L473.63,770.00L453.01,805.71L514.87,841.43L514.87,912.86L556.11,912.86L576.73,877.14L597.35,841.43 Z" fill="#27ae60" fill-opacity="0.8" stroke="#333" stroke-width="0.6" stroke-linejoin="round"/>
<path d="M453.01,948.57L514.87,984.29L576.73,948.57L556.11,912.86L514.87,912.86L514.87,841.43L453.01,805.71L432.39,841.43L391.15,841.43L391.15,912.86L329.29,948.57L349.91,984.29L391.15,984.29L432.39,984.29 Z" fill="#27ae60" fill-opacity="0.8" stroke="#333" stroke-width="0.6" stroke-linejoin="round"/>
<path d="M514.87,627.14L514.87,555.71L453.01,520.00L432.39,555.71L453.01,591.43L391.15,627.14L391.15,698.57L432.39,698.57L453.01,734.29L514.87,698.57L576.73,734.29L597.35,698.57L576.73,662.86L556.11,627.14 Z" fill="#27ae60" fill-opacity="0.8" stroke="#333" stroke-width="0.6" stroke-linejoin="round"/>
<circle cx="432.39" cy="555.71" r="6" fill="red"/>
</svg>
